G04 #@! TF.GenerationSoftware,KiCad,Pcbnew,9.0.2*
G04 #@! TF.CreationDate,2025-06-10T21:22:11+02:00*
G04 #@! TF.ProjectId,n-teller,6e2d7465-6c6c-4657-922e-6b696361645f,1.0*
G04 #@! TF.SameCoordinates,Original*
G04 #@! TF.FileFunction,Soldermask,Top*
G04 #@! TF.FilePolarity,Negative*
%FSLAX46Y46*%
G04 Gerber Fmt 4.6, Leading zero omitted, Abs format (unit mm)*
G04 Created by KiCad (PCBNEW 9.0.2) date 2025-06-10 21:22:11*
%MOMM*%
%LPD*%
G01*
G04 APERTURE LIST*
G04 Aperture macros list*
%AMRoundRect*
0 Rectangle with rounded corners*
0 $1 Rounding radius*
0 $2 $3 $4 $5 $6 $7 $8 $9 X,Y pos of 4 corners*
0 Add a 4 corners polygon primitive as box body*
4,1,4,$2,$3,$4,$5,$6,$7,$8,$9,$2,$3,0*
0 Add four circle primitives for the rounded corners*
1,1,$1+$1,$2,$3*
1,1,$1+$1,$4,$5*
1,1,$1+$1,$6,$7*
1,1,$1+$1,$8,$9*
0 Add four rect primitives between the rounded corners*
20,1,$1+$1,$2,$3,$4,$5,0*
20,1,$1+$1,$4,$5,$6,$7,0*
20,1,$1+$1,$6,$7,$8,$9,0*
20,1,$1+$1,$8,$9,$2,$3,0*%
G04 Aperture macros list end*
%ADD10RoundRect,0.250000X-0.550000X-0.550000X0.550000X-0.550000X0.550000X0.550000X-0.550000X0.550000X0*%
%ADD11C,1.600000*%
%ADD12R,2.000000X2.000000*%
%ADD13O,1.600000X2.000000*%
%ADD14C,0.800000*%
%ADD15C,6.400000*%
G04 APERTURE END LIST*
D10*
X98075544Y-62625000D03*
D11*
X101575544Y-62625000D03*
D12*
X83820000Y-53340000D03*
D13*
X86360000Y-53340000D03*
X88900000Y-53340000D03*
X91440000Y-53340000D03*
X93980000Y-53340000D03*
X96520000Y-53340000D03*
X96520000Y-43180000D03*
X93980000Y-43180000D03*
X91440000Y-43180000D03*
X88900000Y-43180000D03*
X86360000Y-43180000D03*
X83820000Y-43180000D03*
D14*
X58560000Y-30480000D03*
X59262944Y-28782944D03*
X59262944Y-32177056D03*
X60960000Y-28080000D03*
D15*
X60960000Y-30480000D03*
D14*
X60960000Y-32880000D03*
X62657056Y-28782944D03*
X62657056Y-32177056D03*
X63360000Y-30480000D03*
X58420000Y-66040000D03*
X59122944Y-64342944D03*
X59122944Y-67737056D03*
X60820000Y-63640000D03*
D15*
X60820000Y-66040000D03*
D14*
X60820000Y-68440000D03*
X62517056Y-64342944D03*
X62517056Y-67737056D03*
X63220000Y-66040000D03*
X116980000Y-30480000D03*
X117682944Y-28782944D03*
X117682944Y-32177056D03*
X119380000Y-28080000D03*
D15*
X119380000Y-30480000D03*
D14*
X119380000Y-32880000D03*
X121077056Y-28782944D03*
X121077056Y-32177056D03*
X121780000Y-30480000D03*
X116980000Y-66040000D03*
X117682944Y-64342944D03*
X117682944Y-67737056D03*
X119380000Y-63640000D03*
D15*
X119380000Y-66040000D03*
D14*
X119380000Y-68440000D03*
X121077056Y-64342944D03*
X121077056Y-67737056D03*
X121780000Y-66040000D03*
D12*
X67310000Y-36830000D03*
D13*
X69850000Y-36830000D03*
X72390000Y-36830000D03*
X74930000Y-36830000D03*
X77470000Y-36830000D03*
X80010000Y-36830000D03*
X82550000Y-36830000D03*
X85090000Y-36830000D03*
X85090000Y-59690000D03*
X82550000Y-59690000D03*
X80010000Y-59690000D03*
X77470000Y-59690000D03*
X74930000Y-59690000D03*
X72390000Y-59690000D03*
X69850000Y-59690000D03*
X67310000Y-59690000D03*
M02*
