G04 #@! TF.GenerationSoftware,KiCad,Pcbnew,9.0.2*
G04 #@! TF.CreationDate,2025-06-10T21:22:11+02:00*
G04 #@! TF.ProjectId,n-teller,6e2d7465-6c6c-4657-922e-6b696361645f,1.0*
G04 #@! TF.SameCoordinates,Original*
G04 #@! TF.FileFunction,Legend,Bot*
G04 #@! TF.FilePolarity,Positive*
%FSLAX46Y46*%
G04 Gerber Fmt 4.6, Leading zero omitted, Abs format (unit mm)*
G04 Created by KiCad (PCBNEW 9.0.2) date 2025-06-10 21:22:11*
%MOMM*%
%LPD*%
G01*
G04 APERTURE LIST*
%ADD10C,0.100000*%
%ADD11C,0.150000*%
%ADD12C,0.120000*%
G04 APERTURE END LIST*
D10*
X71980200Y-56193734D02*
X71932580Y-56050877D01*
X71932580Y-56050877D02*
X71932580Y-55812782D01*
X71932580Y-55812782D02*
X71980200Y-55717544D01*
X71980200Y-55717544D02*
X72027819Y-55669925D01*
X72027819Y-55669925D02*
X72123057Y-55622306D01*
X72123057Y-55622306D02*
X72218295Y-55622306D01*
X72218295Y-55622306D02*
X72313533Y-55669925D01*
X72313533Y-55669925D02*
X72361152Y-55717544D01*
X72361152Y-55717544D02*
X72408771Y-55812782D01*
X72408771Y-55812782D02*
X72456390Y-56003258D01*
X72456390Y-56003258D02*
X72504009Y-56098496D01*
X72504009Y-56098496D02*
X72551628Y-56146115D01*
X72551628Y-56146115D02*
X72646866Y-56193734D01*
X72646866Y-56193734D02*
X72742104Y-56193734D01*
X72742104Y-56193734D02*
X72837342Y-56146115D01*
X72837342Y-56146115D02*
X72884961Y-56098496D01*
X72884961Y-56098496D02*
X72932580Y-56003258D01*
X72932580Y-56003258D02*
X72932580Y-55765163D01*
X72932580Y-55765163D02*
X72884961Y-55622306D01*
X72027819Y-54622306D02*
X71980200Y-54669925D01*
X71980200Y-54669925D02*
X71932580Y-54812782D01*
X71932580Y-54812782D02*
X71932580Y-54908020D01*
X71932580Y-54908020D02*
X71980200Y-55050877D01*
X71980200Y-55050877D02*
X72075438Y-55146115D01*
X72075438Y-55146115D02*
X72170676Y-55193734D01*
X72170676Y-55193734D02*
X72361152Y-55241353D01*
X72361152Y-55241353D02*
X72504009Y-55241353D01*
X72504009Y-55241353D02*
X72694485Y-55193734D01*
X72694485Y-55193734D02*
X72789723Y-55146115D01*
X72789723Y-55146115D02*
X72884961Y-55050877D01*
X72884961Y-55050877D02*
X72932580Y-54908020D01*
X72932580Y-54908020D02*
X72932580Y-54812782D01*
X72932580Y-54812782D02*
X72884961Y-54669925D01*
X72884961Y-54669925D02*
X72837342Y-54622306D01*
X71932580Y-53717544D02*
X71932580Y-54193734D01*
X71932580Y-54193734D02*
X72932580Y-54193734D01*
X74520200Y-56193734D02*
X74472580Y-56050877D01*
X74472580Y-56050877D02*
X74472580Y-55812782D01*
X74472580Y-55812782D02*
X74520200Y-55717544D01*
X74520200Y-55717544D02*
X74567819Y-55669925D01*
X74567819Y-55669925D02*
X74663057Y-55622306D01*
X74663057Y-55622306D02*
X74758295Y-55622306D01*
X74758295Y-55622306D02*
X74853533Y-55669925D01*
X74853533Y-55669925D02*
X74901152Y-55717544D01*
X74901152Y-55717544D02*
X74948771Y-55812782D01*
X74948771Y-55812782D02*
X74996390Y-56003258D01*
X74996390Y-56003258D02*
X75044009Y-56098496D01*
X75044009Y-56098496D02*
X75091628Y-56146115D01*
X75091628Y-56146115D02*
X75186866Y-56193734D01*
X75186866Y-56193734D02*
X75282104Y-56193734D01*
X75282104Y-56193734D02*
X75377342Y-56146115D01*
X75377342Y-56146115D02*
X75424961Y-56098496D01*
X75424961Y-56098496D02*
X75472580Y-56003258D01*
X75472580Y-56003258D02*
X75472580Y-55765163D01*
X75472580Y-55765163D02*
X75424961Y-55622306D01*
X74472580Y-55193734D02*
X75472580Y-55193734D01*
X75472580Y-55193734D02*
X75472580Y-54955639D01*
X75472580Y-54955639D02*
X75424961Y-54812782D01*
X75424961Y-54812782D02*
X75329723Y-54717544D01*
X75329723Y-54717544D02*
X75234485Y-54669925D01*
X75234485Y-54669925D02*
X75044009Y-54622306D01*
X75044009Y-54622306D02*
X74901152Y-54622306D01*
X74901152Y-54622306D02*
X74710676Y-54669925D01*
X74710676Y-54669925D02*
X74615438Y-54717544D01*
X74615438Y-54717544D02*
X74520200Y-54812782D01*
X74520200Y-54812782D02*
X74472580Y-54955639D01*
X74472580Y-54955639D02*
X74472580Y-55193734D01*
X74758295Y-54241353D02*
X74758295Y-53765163D01*
X74472580Y-54336591D02*
X75472580Y-54003258D01*
X75472580Y-54003258D02*
X74472580Y-53669925D01*
D11*
X75056904Y-42047438D02*
X75152142Y-41999819D01*
X75152142Y-41999819D02*
X75294999Y-41999819D01*
X75294999Y-41999819D02*
X75437856Y-42047438D01*
X75437856Y-42047438D02*
X75533094Y-42142676D01*
X75533094Y-42142676D02*
X75580713Y-42237914D01*
X75580713Y-42237914D02*
X75628332Y-42428390D01*
X75628332Y-42428390D02*
X75628332Y-42571247D01*
X75628332Y-42571247D02*
X75580713Y-42761723D01*
X75580713Y-42761723D02*
X75533094Y-42856961D01*
X75533094Y-42856961D02*
X75437856Y-42952200D01*
X75437856Y-42952200D02*
X75294999Y-42999819D01*
X75294999Y-42999819D02*
X75199761Y-42999819D01*
X75199761Y-42999819D02*
X75056904Y-42952200D01*
X75056904Y-42952200D02*
X75009285Y-42904580D01*
X75009285Y-42904580D02*
X75009285Y-42571247D01*
X75009285Y-42571247D02*
X75199761Y-42571247D01*
X74580713Y-42999819D02*
X74580713Y-41999819D01*
X74580713Y-41999819D02*
X74009285Y-42999819D01*
X74009285Y-42999819D02*
X74009285Y-41999819D01*
X73533094Y-42999819D02*
X73533094Y-41999819D01*
X73533094Y-41999819D02*
X73294999Y-41999819D01*
X73294999Y-41999819D02*
X73152142Y-42047438D01*
X73152142Y-42047438D02*
X73056904Y-42142676D01*
X73056904Y-42142676D02*
X73009285Y-42237914D01*
X73009285Y-42237914D02*
X72961666Y-42428390D01*
X72961666Y-42428390D02*
X72961666Y-42571247D01*
X72961666Y-42571247D02*
X73009285Y-42761723D01*
X73009285Y-42761723D02*
X73056904Y-42856961D01*
X73056904Y-42856961D02*
X73152142Y-42952200D01*
X73152142Y-42952200D02*
X73294999Y-42999819D01*
X73294999Y-42999819D02*
X73533094Y-42999819D01*
X89741189Y-38824819D02*
X89122142Y-38824819D01*
X89122142Y-38824819D02*
X89455475Y-39205771D01*
X89455475Y-39205771D02*
X89312618Y-39205771D01*
X89312618Y-39205771D02*
X89217380Y-39253390D01*
X89217380Y-39253390D02*
X89169761Y-39301009D01*
X89169761Y-39301009D02*
X89122142Y-39396247D01*
X89122142Y-39396247D02*
X89122142Y-39634342D01*
X89122142Y-39634342D02*
X89169761Y-39729580D01*
X89169761Y-39729580D02*
X89217380Y-39777200D01*
X89217380Y-39777200D02*
X89312618Y-39824819D01*
X89312618Y-39824819D02*
X89598332Y-39824819D01*
X89598332Y-39824819D02*
X89693570Y-39777200D01*
X89693570Y-39777200D02*
X89741189Y-39729580D01*
X88693570Y-39729580D02*
X88645951Y-39777200D01*
X88645951Y-39777200D02*
X88693570Y-39824819D01*
X88693570Y-39824819D02*
X88741189Y-39777200D01*
X88741189Y-39777200D02*
X88693570Y-39729580D01*
X88693570Y-39729580D02*
X88693570Y-39824819D01*
X88312618Y-38824819D02*
X87693571Y-38824819D01*
X87693571Y-38824819D02*
X88026904Y-39205771D01*
X88026904Y-39205771D02*
X87884047Y-39205771D01*
X87884047Y-39205771D02*
X87788809Y-39253390D01*
X87788809Y-39253390D02*
X87741190Y-39301009D01*
X87741190Y-39301009D02*
X87693571Y-39396247D01*
X87693571Y-39396247D02*
X87693571Y-39634342D01*
X87693571Y-39634342D02*
X87741190Y-39729580D01*
X87741190Y-39729580D02*
X87788809Y-39777200D01*
X87788809Y-39777200D02*
X87884047Y-39824819D01*
X87884047Y-39824819D02*
X88169761Y-39824819D01*
X88169761Y-39824819D02*
X88264999Y-39777200D01*
X88264999Y-39777200D02*
X88312618Y-39729580D01*
X87407856Y-38824819D02*
X87074523Y-39824819D01*
X87074523Y-39824819D02*
X86741190Y-38824819D01*
X71088094Y-42714104D02*
X70611904Y-42714104D01*
X71183332Y-42999819D02*
X70849999Y-41999819D01*
X70849999Y-41999819D02*
X70516666Y-42999819D01*
X70183332Y-42999819D02*
X70183332Y-41999819D01*
X70183332Y-41999819D02*
X69945237Y-41999819D01*
X69945237Y-41999819D02*
X69802380Y-42047438D01*
X69802380Y-42047438D02*
X69707142Y-42142676D01*
X69707142Y-42142676D02*
X69659523Y-42237914D01*
X69659523Y-42237914D02*
X69611904Y-42428390D01*
X69611904Y-42428390D02*
X69611904Y-42571247D01*
X69611904Y-42571247D02*
X69659523Y-42761723D01*
X69659523Y-42761723D02*
X69707142Y-42856961D01*
X69707142Y-42856961D02*
X69802380Y-42952200D01*
X69802380Y-42952200D02*
X69945237Y-42999819D01*
X69945237Y-42999819D02*
X70183332Y-42999819D01*
X68611904Y-42904580D02*
X68659523Y-42952200D01*
X68659523Y-42952200D02*
X68802380Y-42999819D01*
X68802380Y-42999819D02*
X68897618Y-42999819D01*
X68897618Y-42999819D02*
X69040475Y-42952200D01*
X69040475Y-42952200D02*
X69135713Y-42856961D01*
X69135713Y-42856961D02*
X69183332Y-42761723D01*
X69183332Y-42761723D02*
X69230951Y-42571247D01*
X69230951Y-42571247D02*
X69230951Y-42428390D01*
X69230951Y-42428390D02*
X69183332Y-42237914D01*
X69183332Y-42237914D02*
X69135713Y-42142676D01*
X69135713Y-42142676D02*
X69040475Y-42047438D01*
X69040475Y-42047438D02*
X68897618Y-41999819D01*
X68897618Y-41999819D02*
X68802380Y-41999819D01*
X68802380Y-41999819D02*
X68659523Y-42047438D01*
X68659523Y-42047438D02*
X68611904Y-42095057D01*
X81263334Y-29324875D02*
X81263334Y-28324875D01*
X81263334Y-28324875D02*
X80882382Y-28324875D01*
X80882382Y-28324875D02*
X80787144Y-28372494D01*
X80787144Y-28372494D02*
X80739525Y-28420113D01*
X80739525Y-28420113D02*
X80691906Y-28515351D01*
X80691906Y-28515351D02*
X80691906Y-28658208D01*
X80691906Y-28658208D02*
X80739525Y-28753446D01*
X80739525Y-28753446D02*
X80787144Y-28801065D01*
X80787144Y-28801065D02*
X80882382Y-28848684D01*
X80882382Y-28848684D02*
X81263334Y-28848684D01*
X80263334Y-29324875D02*
X80263334Y-28658208D01*
X80263334Y-28848684D02*
X80215715Y-28753446D01*
X80215715Y-28753446D02*
X80168096Y-28705827D01*
X80168096Y-28705827D02*
X80072858Y-28658208D01*
X80072858Y-28658208D02*
X79977620Y-28658208D01*
X79263334Y-29277256D02*
X79358572Y-29324875D01*
X79358572Y-29324875D02*
X79549048Y-29324875D01*
X79549048Y-29324875D02*
X79644286Y-29277256D01*
X79644286Y-29277256D02*
X79691905Y-29182017D01*
X79691905Y-29182017D02*
X79691905Y-28801065D01*
X79691905Y-28801065D02*
X79644286Y-28705827D01*
X79644286Y-28705827D02*
X79549048Y-28658208D01*
X79549048Y-28658208D02*
X79358572Y-28658208D01*
X79358572Y-28658208D02*
X79263334Y-28705827D01*
X79263334Y-28705827D02*
X79215715Y-28801065D01*
X79215715Y-28801065D02*
X79215715Y-28896303D01*
X79215715Y-28896303D02*
X79691905Y-28991541D01*
X78834762Y-29277256D02*
X78739524Y-29324875D01*
X78739524Y-29324875D02*
X78549048Y-29324875D01*
X78549048Y-29324875D02*
X78453810Y-29277256D01*
X78453810Y-29277256D02*
X78406191Y-29182017D01*
X78406191Y-29182017D02*
X78406191Y-29134398D01*
X78406191Y-29134398D02*
X78453810Y-29039160D01*
X78453810Y-29039160D02*
X78549048Y-28991541D01*
X78549048Y-28991541D02*
X78691905Y-28991541D01*
X78691905Y-28991541D02*
X78787143Y-28943922D01*
X78787143Y-28943922D02*
X78834762Y-28848684D01*
X78834762Y-28848684D02*
X78834762Y-28801065D01*
X78834762Y-28801065D02*
X78787143Y-28705827D01*
X78787143Y-28705827D02*
X78691905Y-28658208D01*
X78691905Y-28658208D02*
X78549048Y-28658208D01*
X78549048Y-28658208D02*
X78453810Y-28705827D01*
X78025238Y-29277256D02*
X77930000Y-29324875D01*
X77930000Y-29324875D02*
X77739524Y-29324875D01*
X77739524Y-29324875D02*
X77644286Y-29277256D01*
X77644286Y-29277256D02*
X77596667Y-29182017D01*
X77596667Y-29182017D02*
X77596667Y-29134398D01*
X77596667Y-29134398D02*
X77644286Y-29039160D01*
X77644286Y-29039160D02*
X77739524Y-28991541D01*
X77739524Y-28991541D02*
X77882381Y-28991541D01*
X77882381Y-28991541D02*
X77977619Y-28943922D01*
X77977619Y-28943922D02*
X78025238Y-28848684D01*
X78025238Y-28848684D02*
X78025238Y-28801065D01*
X78025238Y-28801065D02*
X77977619Y-28705827D01*
X77977619Y-28705827D02*
X77882381Y-28658208D01*
X77882381Y-28658208D02*
X77739524Y-28658208D01*
X77739524Y-28658208D02*
X77644286Y-28705827D01*
X76406190Y-29324875D02*
X76406190Y-28658208D01*
X76406190Y-28848684D02*
X76358571Y-28753446D01*
X76358571Y-28753446D02*
X76310952Y-28705827D01*
X76310952Y-28705827D02*
X76215714Y-28658208D01*
X76215714Y-28658208D02*
X76120476Y-28658208D01*
X75406190Y-29277256D02*
X75501428Y-29324875D01*
X75501428Y-29324875D02*
X75691904Y-29324875D01*
X75691904Y-29324875D02*
X75787142Y-29277256D01*
X75787142Y-29277256D02*
X75834761Y-29182017D01*
X75834761Y-29182017D02*
X75834761Y-28801065D01*
X75834761Y-28801065D02*
X75787142Y-28705827D01*
X75787142Y-28705827D02*
X75691904Y-28658208D01*
X75691904Y-28658208D02*
X75501428Y-28658208D01*
X75501428Y-28658208D02*
X75406190Y-28705827D01*
X75406190Y-28705827D02*
X75358571Y-28801065D01*
X75358571Y-28801065D02*
X75358571Y-28896303D01*
X75358571Y-28896303D02*
X75834761Y-28991541D01*
X74977618Y-29277256D02*
X74882380Y-29324875D01*
X74882380Y-29324875D02*
X74691904Y-29324875D01*
X74691904Y-29324875D02*
X74596666Y-29277256D01*
X74596666Y-29277256D02*
X74549047Y-29182017D01*
X74549047Y-29182017D02*
X74549047Y-29134398D01*
X74549047Y-29134398D02*
X74596666Y-29039160D01*
X74596666Y-29039160D02*
X74691904Y-28991541D01*
X74691904Y-28991541D02*
X74834761Y-28991541D01*
X74834761Y-28991541D02*
X74929999Y-28943922D01*
X74929999Y-28943922D02*
X74977618Y-28848684D01*
X74977618Y-28848684D02*
X74977618Y-28801065D01*
X74977618Y-28801065D02*
X74929999Y-28705827D01*
X74929999Y-28705827D02*
X74834761Y-28658208D01*
X74834761Y-28658208D02*
X74691904Y-28658208D01*
X74691904Y-28658208D02*
X74596666Y-28705827D01*
X73739523Y-29277256D02*
X73834761Y-29324875D01*
X73834761Y-29324875D02*
X74025237Y-29324875D01*
X74025237Y-29324875D02*
X74120475Y-29277256D01*
X74120475Y-29277256D02*
X74168094Y-29182017D01*
X74168094Y-29182017D02*
X74168094Y-28801065D01*
X74168094Y-28801065D02*
X74120475Y-28705827D01*
X74120475Y-28705827D02*
X74025237Y-28658208D01*
X74025237Y-28658208D02*
X73834761Y-28658208D01*
X73834761Y-28658208D02*
X73739523Y-28705827D01*
X73739523Y-28705827D02*
X73691904Y-28801065D01*
X73691904Y-28801065D02*
X73691904Y-28896303D01*
X73691904Y-28896303D02*
X74168094Y-28991541D01*
X73406189Y-28658208D02*
X73025237Y-28658208D01*
X73263332Y-28324875D02*
X73263332Y-29182017D01*
X73263332Y-29182017D02*
X73215713Y-29277256D01*
X73215713Y-29277256D02*
X73120475Y-29324875D01*
X73120475Y-29324875D02*
X73025237Y-29324875D01*
X72072855Y-28658208D02*
X71691903Y-28658208D01*
X71929998Y-28324875D02*
X71929998Y-29182017D01*
X71929998Y-29182017D02*
X71882379Y-29277256D01*
X71882379Y-29277256D02*
X71787141Y-29324875D01*
X71787141Y-29324875D02*
X71691903Y-29324875D01*
X71453807Y-28658208D02*
X71263331Y-29324875D01*
X71263331Y-29324875D02*
X71072855Y-28848684D01*
X71072855Y-28848684D02*
X70882379Y-29324875D01*
X70882379Y-29324875D02*
X70691903Y-28658208D01*
X70310950Y-29324875D02*
X70310950Y-28658208D01*
X70310950Y-28324875D02*
X70358569Y-28372494D01*
X70358569Y-28372494D02*
X70310950Y-28420113D01*
X70310950Y-28420113D02*
X70263331Y-28372494D01*
X70263331Y-28372494D02*
X70310950Y-28324875D01*
X70310950Y-28324875D02*
X70310950Y-28420113D01*
X69406189Y-29277256D02*
X69501427Y-29324875D01*
X69501427Y-29324875D02*
X69691903Y-29324875D01*
X69691903Y-29324875D02*
X69787141Y-29277256D01*
X69787141Y-29277256D02*
X69834760Y-29229636D01*
X69834760Y-29229636D02*
X69882379Y-29134398D01*
X69882379Y-29134398D02*
X69882379Y-28848684D01*
X69882379Y-28848684D02*
X69834760Y-28753446D01*
X69834760Y-28753446D02*
X69787141Y-28705827D01*
X69787141Y-28705827D02*
X69691903Y-28658208D01*
X69691903Y-28658208D02*
X69501427Y-28658208D01*
X69501427Y-28658208D02*
X69406189Y-28705827D01*
X68596665Y-29277256D02*
X68691903Y-29324875D01*
X68691903Y-29324875D02*
X68882379Y-29324875D01*
X68882379Y-29324875D02*
X68977617Y-29277256D01*
X68977617Y-29277256D02*
X69025236Y-29182017D01*
X69025236Y-29182017D02*
X69025236Y-28801065D01*
X69025236Y-28801065D02*
X68977617Y-28705827D01*
X68977617Y-28705827D02*
X68882379Y-28658208D01*
X68882379Y-28658208D02*
X68691903Y-28658208D01*
X68691903Y-28658208D02*
X68596665Y-28705827D01*
X68596665Y-28705827D02*
X68549046Y-28801065D01*
X68549046Y-28801065D02*
X68549046Y-28896303D01*
X68549046Y-28896303D02*
X69025236Y-28991541D01*
X82882382Y-30268152D02*
X82501430Y-30268152D01*
X82739525Y-29934819D02*
X82739525Y-30791961D01*
X82739525Y-30791961D02*
X82691906Y-30887200D01*
X82691906Y-30887200D02*
X82596668Y-30934819D01*
X82596668Y-30934819D02*
X82501430Y-30934819D01*
X82025239Y-30934819D02*
X82120477Y-30887200D01*
X82120477Y-30887200D02*
X82168096Y-30839580D01*
X82168096Y-30839580D02*
X82215715Y-30744342D01*
X82215715Y-30744342D02*
X82215715Y-30458628D01*
X82215715Y-30458628D02*
X82168096Y-30363390D01*
X82168096Y-30363390D02*
X82120477Y-30315771D01*
X82120477Y-30315771D02*
X82025239Y-30268152D01*
X82025239Y-30268152D02*
X81882382Y-30268152D01*
X81882382Y-30268152D02*
X81787144Y-30315771D01*
X81787144Y-30315771D02*
X81739525Y-30363390D01*
X81739525Y-30363390D02*
X81691906Y-30458628D01*
X81691906Y-30458628D02*
X81691906Y-30744342D01*
X81691906Y-30744342D02*
X81739525Y-30839580D01*
X81739525Y-30839580D02*
X81787144Y-30887200D01*
X81787144Y-30887200D02*
X81882382Y-30934819D01*
X81882382Y-30934819D02*
X82025239Y-30934819D01*
X80549048Y-30887200D02*
X80453810Y-30934819D01*
X80453810Y-30934819D02*
X80263334Y-30934819D01*
X80263334Y-30934819D02*
X80168096Y-30887200D01*
X80168096Y-30887200D02*
X80120477Y-30791961D01*
X80120477Y-30791961D02*
X80120477Y-30744342D01*
X80120477Y-30744342D02*
X80168096Y-30649104D01*
X80168096Y-30649104D02*
X80263334Y-30601485D01*
X80263334Y-30601485D02*
X80406191Y-30601485D01*
X80406191Y-30601485D02*
X80501429Y-30553866D01*
X80501429Y-30553866D02*
X80549048Y-30458628D01*
X80549048Y-30458628D02*
X80549048Y-30411009D01*
X80549048Y-30411009D02*
X80501429Y-30315771D01*
X80501429Y-30315771D02*
X80406191Y-30268152D01*
X80406191Y-30268152D02*
X80263334Y-30268152D01*
X80263334Y-30268152D02*
X80168096Y-30315771D01*
X79834762Y-30268152D02*
X79453810Y-30268152D01*
X79691905Y-29934819D02*
X79691905Y-30791961D01*
X79691905Y-30791961D02*
X79644286Y-30887200D01*
X79644286Y-30887200D02*
X79549048Y-30934819D01*
X79549048Y-30934819D02*
X79453810Y-30934819D01*
X78691905Y-30934819D02*
X78691905Y-30411009D01*
X78691905Y-30411009D02*
X78739524Y-30315771D01*
X78739524Y-30315771D02*
X78834762Y-30268152D01*
X78834762Y-30268152D02*
X79025238Y-30268152D01*
X79025238Y-30268152D02*
X79120476Y-30315771D01*
X78691905Y-30887200D02*
X78787143Y-30934819D01*
X78787143Y-30934819D02*
X79025238Y-30934819D01*
X79025238Y-30934819D02*
X79120476Y-30887200D01*
X79120476Y-30887200D02*
X79168095Y-30791961D01*
X79168095Y-30791961D02*
X79168095Y-30696723D01*
X79168095Y-30696723D02*
X79120476Y-30601485D01*
X79120476Y-30601485D02*
X79025238Y-30553866D01*
X79025238Y-30553866D02*
X78787143Y-30553866D01*
X78787143Y-30553866D02*
X78691905Y-30506247D01*
X78215714Y-30934819D02*
X78215714Y-30268152D01*
X78215714Y-30458628D02*
X78168095Y-30363390D01*
X78168095Y-30363390D02*
X78120476Y-30315771D01*
X78120476Y-30315771D02*
X78025238Y-30268152D01*
X78025238Y-30268152D02*
X77930000Y-30268152D01*
X77739523Y-30268152D02*
X77358571Y-30268152D01*
X77596666Y-29934819D02*
X77596666Y-30791961D01*
X77596666Y-30791961D02*
X77549047Y-30887200D01*
X77549047Y-30887200D02*
X77453809Y-30934819D01*
X77453809Y-30934819D02*
X77358571Y-30934819D01*
X75834761Y-30934819D02*
X75834761Y-30411009D01*
X75834761Y-30411009D02*
X75882380Y-30315771D01*
X75882380Y-30315771D02*
X75977618Y-30268152D01*
X75977618Y-30268152D02*
X76168094Y-30268152D01*
X76168094Y-30268152D02*
X76263332Y-30315771D01*
X75834761Y-30887200D02*
X75929999Y-30934819D01*
X75929999Y-30934819D02*
X76168094Y-30934819D01*
X76168094Y-30934819D02*
X76263332Y-30887200D01*
X76263332Y-30887200D02*
X76310951Y-30791961D01*
X76310951Y-30791961D02*
X76310951Y-30696723D01*
X76310951Y-30696723D02*
X76263332Y-30601485D01*
X76263332Y-30601485D02*
X76168094Y-30553866D01*
X76168094Y-30553866D02*
X75929999Y-30553866D01*
X75929999Y-30553866D02*
X75834761Y-30506247D01*
X74929999Y-30887200D02*
X75025237Y-30934819D01*
X75025237Y-30934819D02*
X75215713Y-30934819D01*
X75215713Y-30934819D02*
X75310951Y-30887200D01*
X75310951Y-30887200D02*
X75358570Y-30839580D01*
X75358570Y-30839580D02*
X75406189Y-30744342D01*
X75406189Y-30744342D02*
X75406189Y-30458628D01*
X75406189Y-30458628D02*
X75358570Y-30363390D01*
X75358570Y-30363390D02*
X75310951Y-30315771D01*
X75310951Y-30315771D02*
X75215713Y-30268152D01*
X75215713Y-30268152D02*
X75025237Y-30268152D01*
X75025237Y-30268152D02*
X74929999Y-30315771D01*
X74072856Y-30887200D02*
X74168094Y-30934819D01*
X74168094Y-30934819D02*
X74358570Y-30934819D01*
X74358570Y-30934819D02*
X74453808Y-30887200D01*
X74453808Y-30887200D02*
X74501427Y-30839580D01*
X74501427Y-30839580D02*
X74549046Y-30744342D01*
X74549046Y-30744342D02*
X74549046Y-30458628D01*
X74549046Y-30458628D02*
X74501427Y-30363390D01*
X74501427Y-30363390D02*
X74453808Y-30315771D01*
X74453808Y-30315771D02*
X74358570Y-30268152D01*
X74358570Y-30268152D02*
X74168094Y-30268152D01*
X74168094Y-30268152D02*
X74072856Y-30315771D01*
X73263332Y-30887200D02*
X73358570Y-30934819D01*
X73358570Y-30934819D02*
X73549046Y-30934819D01*
X73549046Y-30934819D02*
X73644284Y-30887200D01*
X73644284Y-30887200D02*
X73691903Y-30791961D01*
X73691903Y-30791961D02*
X73691903Y-30411009D01*
X73691903Y-30411009D02*
X73644284Y-30315771D01*
X73644284Y-30315771D02*
X73549046Y-30268152D01*
X73549046Y-30268152D02*
X73358570Y-30268152D01*
X73358570Y-30268152D02*
X73263332Y-30315771D01*
X73263332Y-30315771D02*
X73215713Y-30411009D01*
X73215713Y-30411009D02*
X73215713Y-30506247D01*
X73215713Y-30506247D02*
X73691903Y-30601485D01*
X72834760Y-30887200D02*
X72739522Y-30934819D01*
X72739522Y-30934819D02*
X72549046Y-30934819D01*
X72549046Y-30934819D02*
X72453808Y-30887200D01*
X72453808Y-30887200D02*
X72406189Y-30791961D01*
X72406189Y-30791961D02*
X72406189Y-30744342D01*
X72406189Y-30744342D02*
X72453808Y-30649104D01*
X72453808Y-30649104D02*
X72549046Y-30601485D01*
X72549046Y-30601485D02*
X72691903Y-30601485D01*
X72691903Y-30601485D02*
X72787141Y-30553866D01*
X72787141Y-30553866D02*
X72834760Y-30458628D01*
X72834760Y-30458628D02*
X72834760Y-30411009D01*
X72834760Y-30411009D02*
X72787141Y-30315771D01*
X72787141Y-30315771D02*
X72691903Y-30268152D01*
X72691903Y-30268152D02*
X72549046Y-30268152D01*
X72549046Y-30268152D02*
X72453808Y-30315771D01*
X72025236Y-30887200D02*
X71929998Y-30934819D01*
X71929998Y-30934819D02*
X71739522Y-30934819D01*
X71739522Y-30934819D02*
X71644284Y-30887200D01*
X71644284Y-30887200D02*
X71596665Y-30791961D01*
X71596665Y-30791961D02*
X71596665Y-30744342D01*
X71596665Y-30744342D02*
X71644284Y-30649104D01*
X71644284Y-30649104D02*
X71739522Y-30601485D01*
X71739522Y-30601485D02*
X71882379Y-30601485D01*
X71882379Y-30601485D02*
X71977617Y-30553866D01*
X71977617Y-30553866D02*
X72025236Y-30458628D01*
X72025236Y-30458628D02*
X72025236Y-30411009D01*
X72025236Y-30411009D02*
X71977617Y-30315771D01*
X71977617Y-30315771D02*
X71882379Y-30268152D01*
X71882379Y-30268152D02*
X71739522Y-30268152D01*
X71739522Y-30268152D02*
X71644284Y-30315771D01*
X70406188Y-30268152D02*
X70406188Y-31268152D01*
X70406188Y-30315771D02*
X70310950Y-30268152D01*
X70310950Y-30268152D02*
X70120474Y-30268152D01*
X70120474Y-30268152D02*
X70025236Y-30315771D01*
X70025236Y-30315771D02*
X69977617Y-30363390D01*
X69977617Y-30363390D02*
X69929998Y-30458628D01*
X69929998Y-30458628D02*
X69929998Y-30744342D01*
X69929998Y-30744342D02*
X69977617Y-30839580D01*
X69977617Y-30839580D02*
X70025236Y-30887200D01*
X70025236Y-30887200D02*
X70120474Y-30934819D01*
X70120474Y-30934819D02*
X70310950Y-30934819D01*
X70310950Y-30934819D02*
X70406188Y-30887200D01*
X69358569Y-30934819D02*
X69453807Y-30887200D01*
X69453807Y-30887200D02*
X69501426Y-30839580D01*
X69501426Y-30839580D02*
X69549045Y-30744342D01*
X69549045Y-30744342D02*
X69549045Y-30458628D01*
X69549045Y-30458628D02*
X69501426Y-30363390D01*
X69501426Y-30363390D02*
X69453807Y-30315771D01*
X69453807Y-30315771D02*
X69358569Y-30268152D01*
X69358569Y-30268152D02*
X69215712Y-30268152D01*
X69215712Y-30268152D02*
X69120474Y-30315771D01*
X69120474Y-30315771D02*
X69072855Y-30363390D01*
X69072855Y-30363390D02*
X69025236Y-30458628D01*
X69025236Y-30458628D02*
X69025236Y-30744342D01*
X69025236Y-30744342D02*
X69072855Y-30839580D01*
X69072855Y-30839580D02*
X69120474Y-30887200D01*
X69120474Y-30887200D02*
X69215712Y-30934819D01*
X69215712Y-30934819D02*
X69358569Y-30934819D01*
X68596664Y-30934819D02*
X68596664Y-30268152D01*
X68596664Y-29934819D02*
X68644283Y-29982438D01*
X68644283Y-29982438D02*
X68596664Y-30030057D01*
X68596664Y-30030057D02*
X68549045Y-29982438D01*
X68549045Y-29982438D02*
X68596664Y-29934819D01*
X68596664Y-29934819D02*
X68596664Y-30030057D01*
X68120474Y-30268152D02*
X68120474Y-30934819D01*
X68120474Y-30363390D02*
X68072855Y-30315771D01*
X68072855Y-30315771D02*
X67977617Y-30268152D01*
X67977617Y-30268152D02*
X67834760Y-30268152D01*
X67834760Y-30268152D02*
X67739522Y-30315771D01*
X67739522Y-30315771D02*
X67691903Y-30411009D01*
X67691903Y-30411009D02*
X67691903Y-30934819D01*
X67358569Y-30268152D02*
X66977617Y-30268152D01*
X67215712Y-29934819D02*
X67215712Y-30791961D01*
X67215712Y-30791961D02*
X67168093Y-30887200D01*
X67168093Y-30887200D02*
X67072855Y-30934819D01*
X67072855Y-30934819D02*
X66977617Y-30934819D01*
X81453809Y-31878096D02*
X81072857Y-31878096D01*
X81310952Y-32544763D02*
X81310952Y-31687620D01*
X81310952Y-31687620D02*
X81263333Y-31592382D01*
X81263333Y-31592382D02*
X81168095Y-31544763D01*
X81168095Y-31544763D02*
X81072857Y-31544763D01*
X80596666Y-32544763D02*
X80691904Y-32497144D01*
X80691904Y-32497144D02*
X80739523Y-32449524D01*
X80739523Y-32449524D02*
X80787142Y-32354286D01*
X80787142Y-32354286D02*
X80787142Y-32068572D01*
X80787142Y-32068572D02*
X80739523Y-31973334D01*
X80739523Y-31973334D02*
X80691904Y-31925715D01*
X80691904Y-31925715D02*
X80596666Y-31878096D01*
X80596666Y-31878096D02*
X80453809Y-31878096D01*
X80453809Y-31878096D02*
X80358571Y-31925715D01*
X80358571Y-31925715D02*
X80310952Y-31973334D01*
X80310952Y-31973334D02*
X80263333Y-32068572D01*
X80263333Y-32068572D02*
X80263333Y-32354286D01*
X80263333Y-32354286D02*
X80310952Y-32449524D01*
X80310952Y-32449524D02*
X80358571Y-32497144D01*
X80358571Y-32497144D02*
X80453809Y-32544763D01*
X80453809Y-32544763D02*
X80596666Y-32544763D01*
X79834761Y-32544763D02*
X79834761Y-31878096D01*
X79834761Y-32068572D02*
X79787142Y-31973334D01*
X79787142Y-31973334D02*
X79739523Y-31925715D01*
X79739523Y-31925715D02*
X79644285Y-31878096D01*
X79644285Y-31878096D02*
X79549047Y-31878096D01*
X78025237Y-32497144D02*
X78120475Y-32544763D01*
X78120475Y-32544763D02*
X78310951Y-32544763D01*
X78310951Y-32544763D02*
X78406189Y-32497144D01*
X78406189Y-32497144D02*
X78453808Y-32449524D01*
X78453808Y-32449524D02*
X78501427Y-32354286D01*
X78501427Y-32354286D02*
X78501427Y-32068572D01*
X78501427Y-32068572D02*
X78453808Y-31973334D01*
X78453808Y-31973334D02*
X78406189Y-31925715D01*
X78406189Y-31925715D02*
X78310951Y-31878096D01*
X78310951Y-31878096D02*
X78120475Y-31878096D01*
X78120475Y-31878096D02*
X78025237Y-31925715D01*
X77453808Y-32544763D02*
X77549046Y-32497144D01*
X77549046Y-32497144D02*
X77596665Y-32449524D01*
X77596665Y-32449524D02*
X77644284Y-32354286D01*
X77644284Y-32354286D02*
X77644284Y-32068572D01*
X77644284Y-32068572D02*
X77596665Y-31973334D01*
X77596665Y-31973334D02*
X77549046Y-31925715D01*
X77549046Y-31925715D02*
X77453808Y-31878096D01*
X77453808Y-31878096D02*
X77310951Y-31878096D01*
X77310951Y-31878096D02*
X77215713Y-31925715D01*
X77215713Y-31925715D02*
X77168094Y-31973334D01*
X77168094Y-31973334D02*
X77120475Y-32068572D01*
X77120475Y-32068572D02*
X77120475Y-32354286D01*
X77120475Y-32354286D02*
X77168094Y-32449524D01*
X77168094Y-32449524D02*
X77215713Y-32497144D01*
X77215713Y-32497144D02*
X77310951Y-32544763D01*
X77310951Y-32544763D02*
X77453808Y-32544763D01*
X76691903Y-31878096D02*
X76691903Y-32544763D01*
X76691903Y-31973334D02*
X76644284Y-31925715D01*
X76644284Y-31925715D02*
X76549046Y-31878096D01*
X76549046Y-31878096D02*
X76406189Y-31878096D01*
X76406189Y-31878096D02*
X76310951Y-31925715D01*
X76310951Y-31925715D02*
X76263332Y-32020953D01*
X76263332Y-32020953D02*
X76263332Y-32544763D01*
X75929998Y-31878096D02*
X75549046Y-31878096D01*
X75787141Y-32544763D02*
X75787141Y-31687620D01*
X75787141Y-31687620D02*
X75739522Y-31592382D01*
X75739522Y-31592382D02*
X75644284Y-31544763D01*
X75644284Y-31544763D02*
X75549046Y-31544763D01*
X75215712Y-32544763D02*
X75215712Y-31878096D01*
X75215712Y-31544763D02*
X75263331Y-31592382D01*
X75263331Y-31592382D02*
X75215712Y-31640001D01*
X75215712Y-31640001D02*
X75168093Y-31592382D01*
X75168093Y-31592382D02*
X75215712Y-31544763D01*
X75215712Y-31544763D02*
X75215712Y-31640001D01*
X74310951Y-31878096D02*
X74310951Y-32687620D01*
X74310951Y-32687620D02*
X74358570Y-32782858D01*
X74358570Y-32782858D02*
X74406189Y-32830477D01*
X74406189Y-32830477D02*
X74501427Y-32878096D01*
X74501427Y-32878096D02*
X74644284Y-32878096D01*
X74644284Y-32878096D02*
X74739522Y-32830477D01*
X74310951Y-32497144D02*
X74406189Y-32544763D01*
X74406189Y-32544763D02*
X74596665Y-32544763D01*
X74596665Y-32544763D02*
X74691903Y-32497144D01*
X74691903Y-32497144D02*
X74739522Y-32449524D01*
X74739522Y-32449524D02*
X74787141Y-32354286D01*
X74787141Y-32354286D02*
X74787141Y-32068572D01*
X74787141Y-32068572D02*
X74739522Y-31973334D01*
X74739522Y-31973334D02*
X74691903Y-31925715D01*
X74691903Y-31925715D02*
X74596665Y-31878096D01*
X74596665Y-31878096D02*
X74406189Y-31878096D01*
X74406189Y-31878096D02*
X74310951Y-31925715D01*
X73406189Y-31878096D02*
X73406189Y-32544763D01*
X73834760Y-31878096D02*
X73834760Y-32401905D01*
X73834760Y-32401905D02*
X73787141Y-32497144D01*
X73787141Y-32497144D02*
X73691903Y-32544763D01*
X73691903Y-32544763D02*
X73549046Y-32544763D01*
X73549046Y-32544763D02*
X73453808Y-32497144D01*
X73453808Y-32497144D02*
X73406189Y-32449524D01*
X72929998Y-32544763D02*
X72929998Y-31878096D01*
X72929998Y-32068572D02*
X72882379Y-31973334D01*
X72882379Y-31973334D02*
X72834760Y-31925715D01*
X72834760Y-31925715D02*
X72739522Y-31878096D01*
X72739522Y-31878096D02*
X72644284Y-31878096D01*
X71882379Y-32544763D02*
X71882379Y-32020953D01*
X71882379Y-32020953D02*
X71929998Y-31925715D01*
X71929998Y-31925715D02*
X72025236Y-31878096D01*
X72025236Y-31878096D02*
X72215712Y-31878096D01*
X72215712Y-31878096D02*
X72310950Y-31925715D01*
X71882379Y-32497144D02*
X71977617Y-32544763D01*
X71977617Y-32544763D02*
X72215712Y-32544763D01*
X72215712Y-32544763D02*
X72310950Y-32497144D01*
X72310950Y-32497144D02*
X72358569Y-32401905D01*
X72358569Y-32401905D02*
X72358569Y-32306667D01*
X72358569Y-32306667D02*
X72310950Y-32211429D01*
X72310950Y-32211429D02*
X72215712Y-32163810D01*
X72215712Y-32163810D02*
X71977617Y-32163810D01*
X71977617Y-32163810D02*
X71882379Y-32116191D01*
X71549045Y-31878096D02*
X71168093Y-31878096D01*
X71406188Y-31544763D02*
X71406188Y-32401905D01*
X71406188Y-32401905D02*
X71358569Y-32497144D01*
X71358569Y-32497144D02*
X71263331Y-32544763D01*
X71263331Y-32544763D02*
X71168093Y-32544763D01*
X70834759Y-32544763D02*
X70834759Y-31878096D01*
X70834759Y-31544763D02*
X70882378Y-31592382D01*
X70882378Y-31592382D02*
X70834759Y-31640001D01*
X70834759Y-31640001D02*
X70787140Y-31592382D01*
X70787140Y-31592382D02*
X70834759Y-31544763D01*
X70834759Y-31544763D02*
X70834759Y-31640001D01*
X70215712Y-32544763D02*
X70310950Y-32497144D01*
X70310950Y-32497144D02*
X70358569Y-32449524D01*
X70358569Y-32449524D02*
X70406188Y-32354286D01*
X70406188Y-32354286D02*
X70406188Y-32068572D01*
X70406188Y-32068572D02*
X70358569Y-31973334D01*
X70358569Y-31973334D02*
X70310950Y-31925715D01*
X70310950Y-31925715D02*
X70215712Y-31878096D01*
X70215712Y-31878096D02*
X70072855Y-31878096D01*
X70072855Y-31878096D02*
X69977617Y-31925715D01*
X69977617Y-31925715D02*
X69929998Y-31973334D01*
X69929998Y-31973334D02*
X69882379Y-32068572D01*
X69882379Y-32068572D02*
X69882379Y-32354286D01*
X69882379Y-32354286D02*
X69929998Y-32449524D01*
X69929998Y-32449524D02*
X69977617Y-32497144D01*
X69977617Y-32497144D02*
X70072855Y-32544763D01*
X70072855Y-32544763D02*
X70215712Y-32544763D01*
X69453807Y-31878096D02*
X69453807Y-32544763D01*
X69453807Y-31973334D02*
X69406188Y-31925715D01*
X69406188Y-31925715D02*
X69310950Y-31878096D01*
X69310950Y-31878096D02*
X69168093Y-31878096D01*
X69168093Y-31878096D02*
X69072855Y-31925715D01*
X69072855Y-31925715D02*
X69025236Y-32020953D01*
X69025236Y-32020953D02*
X69025236Y-32544763D01*
X68549045Y-32449524D02*
X68501426Y-32497144D01*
X68501426Y-32497144D02*
X68549045Y-32544763D01*
X68549045Y-32544763D02*
X68596664Y-32497144D01*
X68596664Y-32497144D02*
X68549045Y-32449524D01*
X68549045Y-32449524D02*
X68549045Y-32544763D01*
X80943220Y-44689959D02*
X80943220Y-43689959D01*
X80943220Y-43689959D02*
X80562268Y-43689959D01*
X80562268Y-43689959D02*
X80467030Y-43737578D01*
X80467030Y-43737578D02*
X80419411Y-43785197D01*
X80419411Y-43785197D02*
X80371792Y-43880435D01*
X80371792Y-43880435D02*
X80371792Y-44023292D01*
X80371792Y-44023292D02*
X80419411Y-44118530D01*
X80419411Y-44118530D02*
X80467030Y-44166149D01*
X80467030Y-44166149D02*
X80562268Y-44213768D01*
X80562268Y-44213768D02*
X80943220Y-44213768D01*
X79943220Y-44689959D02*
X79943220Y-44023292D01*
X79943220Y-43689959D02*
X79990839Y-43737578D01*
X79990839Y-43737578D02*
X79943220Y-43785197D01*
X79943220Y-43785197D02*
X79895601Y-43737578D01*
X79895601Y-43737578D02*
X79943220Y-43689959D01*
X79943220Y-43689959D02*
X79943220Y-43785197D01*
X79467030Y-44023292D02*
X79467030Y-44689959D01*
X79467030Y-44118530D02*
X79419411Y-44070911D01*
X79419411Y-44070911D02*
X79324173Y-44023292D01*
X79324173Y-44023292D02*
X79181316Y-44023292D01*
X79181316Y-44023292D02*
X79086078Y-44070911D01*
X79086078Y-44070911D02*
X79038459Y-44166149D01*
X79038459Y-44166149D02*
X79038459Y-44689959D01*
X78419411Y-44689959D02*
X78514649Y-44642340D01*
X78514649Y-44642340D02*
X78562268Y-44594720D01*
X78562268Y-44594720D02*
X78609887Y-44499482D01*
X78609887Y-44499482D02*
X78609887Y-44213768D01*
X78609887Y-44213768D02*
X78562268Y-44118530D01*
X78562268Y-44118530D02*
X78514649Y-44070911D01*
X78514649Y-44070911D02*
X78419411Y-44023292D01*
X78419411Y-44023292D02*
X78276554Y-44023292D01*
X78276554Y-44023292D02*
X78181316Y-44070911D01*
X78181316Y-44070911D02*
X78133697Y-44118530D01*
X78133697Y-44118530D02*
X78086078Y-44213768D01*
X78086078Y-44213768D02*
X78086078Y-44499482D01*
X78086078Y-44499482D02*
X78133697Y-44594720D01*
X78133697Y-44594720D02*
X78181316Y-44642340D01*
X78181316Y-44642340D02*
X78276554Y-44689959D01*
X78276554Y-44689959D02*
X78419411Y-44689959D01*
X77228935Y-44023292D02*
X77228935Y-44689959D01*
X77657506Y-44023292D02*
X77657506Y-44547101D01*
X77657506Y-44547101D02*
X77609887Y-44642340D01*
X77609887Y-44642340D02*
X77514649Y-44689959D01*
X77514649Y-44689959D02*
X77371792Y-44689959D01*
X77371792Y-44689959D02*
X77276554Y-44642340D01*
X77276554Y-44642340D02*
X77228935Y-44594720D01*
X76895601Y-44023292D02*
X76514649Y-44023292D01*
X76752744Y-43689959D02*
X76752744Y-44547101D01*
X76752744Y-44547101D02*
X76705125Y-44642340D01*
X76705125Y-44642340D02*
X76609887Y-44689959D01*
X76609887Y-44689959D02*
X76514649Y-44689959D01*
X76181315Y-44594720D02*
X76133696Y-44642340D01*
X76133696Y-44642340D02*
X76181315Y-44689959D01*
X76181315Y-44689959D02*
X76228934Y-44642340D01*
X76228934Y-44642340D02*
X76181315Y-44594720D01*
X76181315Y-44594720D02*
X76181315Y-44689959D01*
X76181315Y-44070911D02*
X76133696Y-44118530D01*
X76133696Y-44118530D02*
X76181315Y-44166149D01*
X76181315Y-44166149D02*
X76228934Y-44118530D01*
X76228934Y-44118530D02*
X76181315Y-44070911D01*
X76181315Y-44070911D02*
X76181315Y-44166149D01*
X80943220Y-46299903D02*
X80943220Y-45299903D01*
X80943220Y-45299903D02*
X80705125Y-45299903D01*
X80705125Y-45299903D02*
X80562268Y-45347522D01*
X80562268Y-45347522D02*
X80467030Y-45442760D01*
X80467030Y-45442760D02*
X80419411Y-45537998D01*
X80419411Y-45537998D02*
X80371792Y-45728474D01*
X80371792Y-45728474D02*
X80371792Y-45871331D01*
X80371792Y-45871331D02*
X80419411Y-46061807D01*
X80419411Y-46061807D02*
X80467030Y-46157045D01*
X80467030Y-46157045D02*
X80562268Y-46252284D01*
X80562268Y-46252284D02*
X80705125Y-46299903D01*
X80705125Y-46299903D02*
X80943220Y-46299903D01*
X80038458Y-45299903D02*
X79419411Y-45299903D01*
X79419411Y-45299903D02*
X79752744Y-45680855D01*
X79752744Y-45680855D02*
X79609887Y-45680855D01*
X79609887Y-45680855D02*
X79514649Y-45728474D01*
X79514649Y-45728474D02*
X79467030Y-45776093D01*
X79467030Y-45776093D02*
X79419411Y-45871331D01*
X79419411Y-45871331D02*
X79419411Y-46109426D01*
X79419411Y-46109426D02*
X79467030Y-46204664D01*
X79467030Y-46204664D02*
X79514649Y-46252284D01*
X79514649Y-46252284D02*
X79609887Y-46299903D01*
X79609887Y-46299903D02*
X79895601Y-46299903D01*
X79895601Y-46299903D02*
X79990839Y-46252284D01*
X79990839Y-46252284D02*
X80038458Y-46204664D01*
X78276554Y-45252284D02*
X79133696Y-46537998D01*
X77419411Y-45347522D02*
X77514649Y-45299903D01*
X77514649Y-45299903D02*
X77657506Y-45299903D01*
X77657506Y-45299903D02*
X77800363Y-45347522D01*
X77800363Y-45347522D02*
X77895601Y-45442760D01*
X77895601Y-45442760D02*
X77943220Y-45537998D01*
X77943220Y-45537998D02*
X77990839Y-45728474D01*
X77990839Y-45728474D02*
X77990839Y-45871331D01*
X77990839Y-45871331D02*
X77943220Y-46061807D01*
X77943220Y-46061807D02*
X77895601Y-46157045D01*
X77895601Y-46157045D02*
X77800363Y-46252284D01*
X77800363Y-46252284D02*
X77657506Y-46299903D01*
X77657506Y-46299903D02*
X77562268Y-46299903D01*
X77562268Y-46299903D02*
X77419411Y-46252284D01*
X77419411Y-46252284D02*
X77371792Y-46204664D01*
X77371792Y-46204664D02*
X77371792Y-45871331D01*
X77371792Y-45871331D02*
X77562268Y-45871331D01*
X76943220Y-46299903D02*
X76943220Y-45299903D01*
X76943220Y-45299903D02*
X76562268Y-45299903D01*
X76562268Y-45299903D02*
X76467030Y-45347522D01*
X76467030Y-45347522D02*
X76419411Y-45395141D01*
X76419411Y-45395141D02*
X76371792Y-45490379D01*
X76371792Y-45490379D02*
X76371792Y-45633236D01*
X76371792Y-45633236D02*
X76419411Y-45728474D01*
X76419411Y-45728474D02*
X76467030Y-45776093D01*
X76467030Y-45776093D02*
X76562268Y-45823712D01*
X76562268Y-45823712D02*
X76943220Y-45823712D01*
X75943220Y-46299903D02*
X75943220Y-45299903D01*
X75276554Y-45299903D02*
X75086078Y-45299903D01*
X75086078Y-45299903D02*
X74990840Y-45347522D01*
X74990840Y-45347522D02*
X74895602Y-45442760D01*
X74895602Y-45442760D02*
X74847983Y-45633236D01*
X74847983Y-45633236D02*
X74847983Y-45966569D01*
X74847983Y-45966569D02*
X74895602Y-46157045D01*
X74895602Y-46157045D02*
X74990840Y-46252284D01*
X74990840Y-46252284D02*
X75086078Y-46299903D01*
X75086078Y-46299903D02*
X75276554Y-46299903D01*
X75276554Y-46299903D02*
X75371792Y-46252284D01*
X75371792Y-46252284D02*
X75467030Y-46157045D01*
X75467030Y-46157045D02*
X75514649Y-45966569D01*
X75514649Y-45966569D02*
X75514649Y-45633236D01*
X75514649Y-45633236D02*
X75467030Y-45442760D01*
X75467030Y-45442760D02*
X75371792Y-45347522D01*
X75371792Y-45347522D02*
X75276554Y-45299903D01*
X74228935Y-45299903D02*
X74133697Y-45299903D01*
X74133697Y-45299903D02*
X74038459Y-45347522D01*
X74038459Y-45347522D02*
X73990840Y-45395141D01*
X73990840Y-45395141D02*
X73943221Y-45490379D01*
X73943221Y-45490379D02*
X73895602Y-45680855D01*
X73895602Y-45680855D02*
X73895602Y-45918950D01*
X73895602Y-45918950D02*
X73943221Y-46109426D01*
X73943221Y-46109426D02*
X73990840Y-46204664D01*
X73990840Y-46204664D02*
X74038459Y-46252284D01*
X74038459Y-46252284D02*
X74133697Y-46299903D01*
X74133697Y-46299903D02*
X74228935Y-46299903D01*
X74228935Y-46299903D02*
X74324173Y-46252284D01*
X74324173Y-46252284D02*
X74371792Y-46204664D01*
X74371792Y-46204664D02*
X74419411Y-46109426D01*
X74419411Y-46109426D02*
X74467030Y-45918950D01*
X74467030Y-45918950D02*
X74467030Y-45680855D01*
X74467030Y-45680855D02*
X74419411Y-45490379D01*
X74419411Y-45490379D02*
X74371792Y-45395141D01*
X74371792Y-45395141D02*
X74324173Y-45347522D01*
X74324173Y-45347522D02*
X74228935Y-45299903D01*
X73467030Y-46204664D02*
X73419411Y-46252284D01*
X73419411Y-46252284D02*
X73467030Y-46299903D01*
X73467030Y-46299903D02*
X73514649Y-46252284D01*
X73514649Y-46252284D02*
X73467030Y-46204664D01*
X73467030Y-46204664D02*
X73467030Y-46299903D01*
X73467030Y-45680855D02*
X73419411Y-45728474D01*
X73419411Y-45728474D02*
X73467030Y-45776093D01*
X73467030Y-45776093D02*
X73514649Y-45728474D01*
X73514649Y-45728474D02*
X73467030Y-45680855D01*
X73467030Y-45680855D02*
X73467030Y-45776093D01*
X71895602Y-45776093D02*
X71752745Y-45823712D01*
X71752745Y-45823712D02*
X71705126Y-45871331D01*
X71705126Y-45871331D02*
X71657507Y-45966569D01*
X71657507Y-45966569D02*
X71657507Y-46109426D01*
X71657507Y-46109426D02*
X71705126Y-46204664D01*
X71705126Y-46204664D02*
X71752745Y-46252284D01*
X71752745Y-46252284D02*
X71847983Y-46299903D01*
X71847983Y-46299903D02*
X72228935Y-46299903D01*
X72228935Y-46299903D02*
X72228935Y-45299903D01*
X72228935Y-45299903D02*
X71895602Y-45299903D01*
X71895602Y-45299903D02*
X71800364Y-45347522D01*
X71800364Y-45347522D02*
X71752745Y-45395141D01*
X71752745Y-45395141D02*
X71705126Y-45490379D01*
X71705126Y-45490379D02*
X71705126Y-45585617D01*
X71705126Y-45585617D02*
X71752745Y-45680855D01*
X71752745Y-45680855D02*
X71800364Y-45728474D01*
X71800364Y-45728474D02*
X71895602Y-45776093D01*
X71895602Y-45776093D02*
X72228935Y-45776093D01*
X70800364Y-45633236D02*
X70800364Y-46299903D01*
X71228935Y-45633236D02*
X71228935Y-46157045D01*
X71228935Y-46157045D02*
X71181316Y-46252284D01*
X71181316Y-46252284D02*
X71086078Y-46299903D01*
X71086078Y-46299903D02*
X70943221Y-46299903D01*
X70943221Y-46299903D02*
X70847983Y-46252284D01*
X70847983Y-46252284D02*
X70800364Y-46204664D01*
X70467030Y-45633236D02*
X70086078Y-45633236D01*
X70324173Y-45299903D02*
X70324173Y-46157045D01*
X70324173Y-46157045D02*
X70276554Y-46252284D01*
X70276554Y-46252284D02*
X70181316Y-46299903D01*
X70181316Y-46299903D02*
X70086078Y-46299903D01*
X69895601Y-45633236D02*
X69514649Y-45633236D01*
X69752744Y-45299903D02*
X69752744Y-46157045D01*
X69752744Y-46157045D02*
X69705125Y-46252284D01*
X69705125Y-46252284D02*
X69609887Y-46299903D01*
X69609887Y-46299903D02*
X69514649Y-46299903D01*
X69038458Y-46299903D02*
X69133696Y-46252284D01*
X69133696Y-46252284D02*
X69181315Y-46204664D01*
X69181315Y-46204664D02*
X69228934Y-46109426D01*
X69228934Y-46109426D02*
X69228934Y-45823712D01*
X69228934Y-45823712D02*
X69181315Y-45728474D01*
X69181315Y-45728474D02*
X69133696Y-45680855D01*
X69133696Y-45680855D02*
X69038458Y-45633236D01*
X69038458Y-45633236D02*
X68895601Y-45633236D01*
X68895601Y-45633236D02*
X68800363Y-45680855D01*
X68800363Y-45680855D02*
X68752744Y-45728474D01*
X68752744Y-45728474D02*
X68705125Y-45823712D01*
X68705125Y-45823712D02*
X68705125Y-46109426D01*
X68705125Y-46109426D02*
X68752744Y-46204664D01*
X68752744Y-46204664D02*
X68800363Y-46252284D01*
X68800363Y-46252284D02*
X68895601Y-46299903D01*
X68895601Y-46299903D02*
X69038458Y-46299903D01*
X68276553Y-45633236D02*
X68276553Y-46299903D01*
X68276553Y-45728474D02*
X68228934Y-45680855D01*
X68228934Y-45680855D02*
X68133696Y-45633236D01*
X68133696Y-45633236D02*
X67990839Y-45633236D01*
X67990839Y-45633236D02*
X67895601Y-45680855D01*
X67895601Y-45680855D02*
X67847982Y-45776093D01*
X67847982Y-45776093D02*
X67847982Y-46299903D01*
X80943220Y-47909847D02*
X80943220Y-46909847D01*
X80943220Y-46909847D02*
X80705125Y-46909847D01*
X80705125Y-46909847D02*
X80562268Y-46957466D01*
X80562268Y-46957466D02*
X80467030Y-47052704D01*
X80467030Y-47052704D02*
X80419411Y-47147942D01*
X80419411Y-47147942D02*
X80371792Y-47338418D01*
X80371792Y-47338418D02*
X80371792Y-47481275D01*
X80371792Y-47481275D02*
X80419411Y-47671751D01*
X80419411Y-47671751D02*
X80467030Y-47766989D01*
X80467030Y-47766989D02*
X80562268Y-47862228D01*
X80562268Y-47862228D02*
X80705125Y-47909847D01*
X80705125Y-47909847D02*
X80943220Y-47909847D01*
X79514649Y-47243180D02*
X79514649Y-47909847D01*
X79752744Y-46862228D02*
X79990839Y-47576513D01*
X79990839Y-47576513D02*
X79371792Y-47576513D01*
X78276554Y-46862228D02*
X79133696Y-48147942D01*
X77419411Y-46957466D02*
X77514649Y-46909847D01*
X77514649Y-46909847D02*
X77657506Y-46909847D01*
X77657506Y-46909847D02*
X77800363Y-46957466D01*
X77800363Y-46957466D02*
X77895601Y-47052704D01*
X77895601Y-47052704D02*
X77943220Y-47147942D01*
X77943220Y-47147942D02*
X77990839Y-47338418D01*
X77990839Y-47338418D02*
X77990839Y-47481275D01*
X77990839Y-47481275D02*
X77943220Y-47671751D01*
X77943220Y-47671751D02*
X77895601Y-47766989D01*
X77895601Y-47766989D02*
X77800363Y-47862228D01*
X77800363Y-47862228D02*
X77657506Y-47909847D01*
X77657506Y-47909847D02*
X77562268Y-47909847D01*
X77562268Y-47909847D02*
X77419411Y-47862228D01*
X77419411Y-47862228D02*
X77371792Y-47814608D01*
X77371792Y-47814608D02*
X77371792Y-47481275D01*
X77371792Y-47481275D02*
X77562268Y-47481275D01*
X76943220Y-47909847D02*
X76943220Y-46909847D01*
X76943220Y-46909847D02*
X76562268Y-46909847D01*
X76562268Y-46909847D02*
X76467030Y-46957466D01*
X76467030Y-46957466D02*
X76419411Y-47005085D01*
X76419411Y-47005085D02*
X76371792Y-47100323D01*
X76371792Y-47100323D02*
X76371792Y-47243180D01*
X76371792Y-47243180D02*
X76419411Y-47338418D01*
X76419411Y-47338418D02*
X76467030Y-47386037D01*
X76467030Y-47386037D02*
X76562268Y-47433656D01*
X76562268Y-47433656D02*
X76943220Y-47433656D01*
X75943220Y-47909847D02*
X75943220Y-46909847D01*
X75276554Y-46909847D02*
X75086078Y-46909847D01*
X75086078Y-46909847D02*
X74990840Y-46957466D01*
X74990840Y-46957466D02*
X74895602Y-47052704D01*
X74895602Y-47052704D02*
X74847983Y-47243180D01*
X74847983Y-47243180D02*
X74847983Y-47576513D01*
X74847983Y-47576513D02*
X74895602Y-47766989D01*
X74895602Y-47766989D02*
X74990840Y-47862228D01*
X74990840Y-47862228D02*
X75086078Y-47909847D01*
X75086078Y-47909847D02*
X75276554Y-47909847D01*
X75276554Y-47909847D02*
X75371792Y-47862228D01*
X75371792Y-47862228D02*
X75467030Y-47766989D01*
X75467030Y-47766989D02*
X75514649Y-47576513D01*
X75514649Y-47576513D02*
X75514649Y-47243180D01*
X75514649Y-47243180D02*
X75467030Y-47052704D01*
X75467030Y-47052704D02*
X75371792Y-46957466D01*
X75371792Y-46957466D02*
X75276554Y-46909847D01*
X74467030Y-47005085D02*
X74419411Y-46957466D01*
X74419411Y-46957466D02*
X74324173Y-46909847D01*
X74324173Y-46909847D02*
X74086078Y-46909847D01*
X74086078Y-46909847D02*
X73990840Y-46957466D01*
X73990840Y-46957466D02*
X73943221Y-47005085D01*
X73943221Y-47005085D02*
X73895602Y-47100323D01*
X73895602Y-47100323D02*
X73895602Y-47195561D01*
X73895602Y-47195561D02*
X73943221Y-47338418D01*
X73943221Y-47338418D02*
X74514649Y-47909847D01*
X74514649Y-47909847D02*
X73895602Y-47909847D01*
X73467030Y-47814608D02*
X73419411Y-47862228D01*
X73419411Y-47862228D02*
X73467030Y-47909847D01*
X73467030Y-47909847D02*
X73514649Y-47862228D01*
X73514649Y-47862228D02*
X73467030Y-47814608D01*
X73467030Y-47814608D02*
X73467030Y-47909847D01*
X73467030Y-47290799D02*
X73419411Y-47338418D01*
X73419411Y-47338418D02*
X73467030Y-47386037D01*
X73467030Y-47386037D02*
X73514649Y-47338418D01*
X73514649Y-47338418D02*
X73467030Y-47290799D01*
X73467030Y-47290799D02*
X73467030Y-47386037D01*
X72228935Y-47909847D02*
X72228935Y-46909847D01*
X72228935Y-46909847D02*
X71657507Y-47909847D01*
X71657507Y-47909847D02*
X71657507Y-46909847D01*
X70800364Y-47862228D02*
X70895602Y-47909847D01*
X70895602Y-47909847D02*
X71086078Y-47909847D01*
X71086078Y-47909847D02*
X71181316Y-47862228D01*
X71181316Y-47862228D02*
X71228935Y-47766989D01*
X71228935Y-47766989D02*
X71228935Y-47386037D01*
X71228935Y-47386037D02*
X71181316Y-47290799D01*
X71181316Y-47290799D02*
X71086078Y-47243180D01*
X71086078Y-47243180D02*
X70895602Y-47243180D01*
X70895602Y-47243180D02*
X70800364Y-47290799D01*
X70800364Y-47290799D02*
X70752745Y-47386037D01*
X70752745Y-47386037D02*
X70752745Y-47481275D01*
X70752745Y-47481275D02*
X71228935Y-47576513D01*
X70181316Y-47909847D02*
X70276554Y-47862228D01*
X70276554Y-47862228D02*
X70324173Y-47814608D01*
X70324173Y-47814608D02*
X70371792Y-47719370D01*
X70371792Y-47719370D02*
X70371792Y-47433656D01*
X70371792Y-47433656D02*
X70324173Y-47338418D01*
X70324173Y-47338418D02*
X70276554Y-47290799D01*
X70276554Y-47290799D02*
X70181316Y-47243180D01*
X70181316Y-47243180D02*
X70038459Y-47243180D01*
X70038459Y-47243180D02*
X69943221Y-47290799D01*
X69943221Y-47290799D02*
X69895602Y-47338418D01*
X69895602Y-47338418D02*
X69847983Y-47433656D01*
X69847983Y-47433656D02*
X69847983Y-47719370D01*
X69847983Y-47719370D02*
X69895602Y-47814608D01*
X69895602Y-47814608D02*
X69943221Y-47862228D01*
X69943221Y-47862228D02*
X70038459Y-47909847D01*
X70038459Y-47909847D02*
X70181316Y-47909847D01*
X69419411Y-47243180D02*
X69419411Y-48243180D01*
X69419411Y-47290799D02*
X69324173Y-47243180D01*
X69324173Y-47243180D02*
X69133697Y-47243180D01*
X69133697Y-47243180D02*
X69038459Y-47290799D01*
X69038459Y-47290799D02*
X68990840Y-47338418D01*
X68990840Y-47338418D02*
X68943221Y-47433656D01*
X68943221Y-47433656D02*
X68943221Y-47719370D01*
X68943221Y-47719370D02*
X68990840Y-47814608D01*
X68990840Y-47814608D02*
X69038459Y-47862228D01*
X69038459Y-47862228D02*
X69133697Y-47909847D01*
X69133697Y-47909847D02*
X69324173Y-47909847D01*
X69324173Y-47909847D02*
X69419411Y-47862228D01*
X68514649Y-47909847D02*
X68514649Y-47243180D01*
X68514649Y-46909847D02*
X68562268Y-46957466D01*
X68562268Y-46957466D02*
X68514649Y-47005085D01*
X68514649Y-47005085D02*
X68467030Y-46957466D01*
X68467030Y-46957466D02*
X68514649Y-46909847D01*
X68514649Y-46909847D02*
X68514649Y-47005085D01*
X68133697Y-47909847D02*
X67609888Y-47243180D01*
X68133697Y-47243180D02*
X67609888Y-47909847D01*
X66847983Y-47862228D02*
X66943221Y-47909847D01*
X66943221Y-47909847D02*
X67133697Y-47909847D01*
X67133697Y-47909847D02*
X67228935Y-47862228D01*
X67228935Y-47862228D02*
X67276554Y-47766989D01*
X67276554Y-47766989D02*
X67276554Y-47386037D01*
X67276554Y-47386037D02*
X67228935Y-47290799D01*
X67228935Y-47290799D02*
X67133697Y-47243180D01*
X67133697Y-47243180D02*
X66943221Y-47243180D01*
X66943221Y-47243180D02*
X66847983Y-47290799D01*
X66847983Y-47290799D02*
X66800364Y-47386037D01*
X66800364Y-47386037D02*
X66800364Y-47481275D01*
X66800364Y-47481275D02*
X67276554Y-47576513D01*
X66228935Y-47909847D02*
X66324173Y-47862228D01*
X66324173Y-47862228D02*
X66371792Y-47766989D01*
X66371792Y-47766989D02*
X66371792Y-46909847D01*
X64657506Y-47909847D02*
X64657506Y-46909847D01*
X64657506Y-47862228D02*
X64752744Y-47909847D01*
X64752744Y-47909847D02*
X64943220Y-47909847D01*
X64943220Y-47909847D02*
X65038458Y-47862228D01*
X65038458Y-47862228D02*
X65086077Y-47814608D01*
X65086077Y-47814608D02*
X65133696Y-47719370D01*
X65133696Y-47719370D02*
X65133696Y-47433656D01*
X65133696Y-47433656D02*
X65086077Y-47338418D01*
X65086077Y-47338418D02*
X65038458Y-47290799D01*
X65038458Y-47290799D02*
X64943220Y-47243180D01*
X64943220Y-47243180D02*
X64752744Y-47243180D01*
X64752744Y-47243180D02*
X64657506Y-47290799D01*
X63752744Y-47909847D02*
X63752744Y-47386037D01*
X63752744Y-47386037D02*
X63800363Y-47290799D01*
X63800363Y-47290799D02*
X63895601Y-47243180D01*
X63895601Y-47243180D02*
X64086077Y-47243180D01*
X64086077Y-47243180D02*
X64181315Y-47290799D01*
X63752744Y-47862228D02*
X63847982Y-47909847D01*
X63847982Y-47909847D02*
X64086077Y-47909847D01*
X64086077Y-47909847D02*
X64181315Y-47862228D01*
X64181315Y-47862228D02*
X64228934Y-47766989D01*
X64228934Y-47766989D02*
X64228934Y-47671751D01*
X64228934Y-47671751D02*
X64181315Y-47576513D01*
X64181315Y-47576513D02*
X64086077Y-47528894D01*
X64086077Y-47528894D02*
X63847982Y-47528894D01*
X63847982Y-47528894D02*
X63752744Y-47481275D01*
X63419410Y-47243180D02*
X63038458Y-47243180D01*
X63276553Y-46909847D02*
X63276553Y-47766989D01*
X63276553Y-47766989D02*
X63228934Y-47862228D01*
X63228934Y-47862228D02*
X63133696Y-47909847D01*
X63133696Y-47909847D02*
X63038458Y-47909847D01*
X62276553Y-47909847D02*
X62276553Y-47386037D01*
X62276553Y-47386037D02*
X62324172Y-47290799D01*
X62324172Y-47290799D02*
X62419410Y-47243180D01*
X62419410Y-47243180D02*
X62609886Y-47243180D01*
X62609886Y-47243180D02*
X62705124Y-47290799D01*
X62276553Y-47862228D02*
X62371791Y-47909847D01*
X62371791Y-47909847D02*
X62609886Y-47909847D01*
X62609886Y-47909847D02*
X62705124Y-47862228D01*
X62705124Y-47862228D02*
X62752743Y-47766989D01*
X62752743Y-47766989D02*
X62752743Y-47671751D01*
X62752743Y-47671751D02*
X62705124Y-47576513D01*
X62705124Y-47576513D02*
X62609886Y-47528894D01*
X62609886Y-47528894D02*
X62371791Y-47528894D01*
X62371791Y-47528894D02*
X62276553Y-47481275D01*
X80943220Y-49519791D02*
X80943220Y-48519791D01*
X80943220Y-48519791D02*
X80705125Y-48519791D01*
X80705125Y-48519791D02*
X80562268Y-48567410D01*
X80562268Y-48567410D02*
X80467030Y-48662648D01*
X80467030Y-48662648D02*
X80419411Y-48757886D01*
X80419411Y-48757886D02*
X80371792Y-48948362D01*
X80371792Y-48948362D02*
X80371792Y-49091219D01*
X80371792Y-49091219D02*
X80419411Y-49281695D01*
X80419411Y-49281695D02*
X80467030Y-49376933D01*
X80467030Y-49376933D02*
X80562268Y-49472172D01*
X80562268Y-49472172D02*
X80705125Y-49519791D01*
X80705125Y-49519791D02*
X80943220Y-49519791D01*
X79467030Y-48519791D02*
X79943220Y-48519791D01*
X79943220Y-48519791D02*
X79990839Y-48995981D01*
X79990839Y-48995981D02*
X79943220Y-48948362D01*
X79943220Y-48948362D02*
X79847982Y-48900743D01*
X79847982Y-48900743D02*
X79609887Y-48900743D01*
X79609887Y-48900743D02*
X79514649Y-48948362D01*
X79514649Y-48948362D02*
X79467030Y-48995981D01*
X79467030Y-48995981D02*
X79419411Y-49091219D01*
X79419411Y-49091219D02*
X79419411Y-49329314D01*
X79419411Y-49329314D02*
X79467030Y-49424552D01*
X79467030Y-49424552D02*
X79514649Y-49472172D01*
X79514649Y-49472172D02*
X79609887Y-49519791D01*
X79609887Y-49519791D02*
X79847982Y-49519791D01*
X79847982Y-49519791D02*
X79943220Y-49472172D01*
X79943220Y-49472172D02*
X79990839Y-49424552D01*
X78276554Y-48472172D02*
X79133696Y-49757886D01*
X77419411Y-48567410D02*
X77514649Y-48519791D01*
X77514649Y-48519791D02*
X77657506Y-48519791D01*
X77657506Y-48519791D02*
X77800363Y-48567410D01*
X77800363Y-48567410D02*
X77895601Y-48662648D01*
X77895601Y-48662648D02*
X77943220Y-48757886D01*
X77943220Y-48757886D02*
X77990839Y-48948362D01*
X77990839Y-48948362D02*
X77990839Y-49091219D01*
X77990839Y-49091219D02*
X77943220Y-49281695D01*
X77943220Y-49281695D02*
X77895601Y-49376933D01*
X77895601Y-49376933D02*
X77800363Y-49472172D01*
X77800363Y-49472172D02*
X77657506Y-49519791D01*
X77657506Y-49519791D02*
X77562268Y-49519791D01*
X77562268Y-49519791D02*
X77419411Y-49472172D01*
X77419411Y-49472172D02*
X77371792Y-49424552D01*
X77371792Y-49424552D02*
X77371792Y-49091219D01*
X77371792Y-49091219D02*
X77562268Y-49091219D01*
X76943220Y-49519791D02*
X76943220Y-48519791D01*
X76943220Y-48519791D02*
X76562268Y-48519791D01*
X76562268Y-48519791D02*
X76467030Y-48567410D01*
X76467030Y-48567410D02*
X76419411Y-48615029D01*
X76419411Y-48615029D02*
X76371792Y-48710267D01*
X76371792Y-48710267D02*
X76371792Y-48853124D01*
X76371792Y-48853124D02*
X76419411Y-48948362D01*
X76419411Y-48948362D02*
X76467030Y-48995981D01*
X76467030Y-48995981D02*
X76562268Y-49043600D01*
X76562268Y-49043600D02*
X76943220Y-49043600D01*
X75943220Y-49519791D02*
X75943220Y-48519791D01*
X75276554Y-48519791D02*
X75086078Y-48519791D01*
X75086078Y-48519791D02*
X74990840Y-48567410D01*
X74990840Y-48567410D02*
X74895602Y-48662648D01*
X74895602Y-48662648D02*
X74847983Y-48853124D01*
X74847983Y-48853124D02*
X74847983Y-49186457D01*
X74847983Y-49186457D02*
X74895602Y-49376933D01*
X74895602Y-49376933D02*
X74990840Y-49472172D01*
X74990840Y-49472172D02*
X75086078Y-49519791D01*
X75086078Y-49519791D02*
X75276554Y-49519791D01*
X75276554Y-49519791D02*
X75371792Y-49472172D01*
X75371792Y-49472172D02*
X75467030Y-49376933D01*
X75467030Y-49376933D02*
X75514649Y-49186457D01*
X75514649Y-49186457D02*
X75514649Y-48853124D01*
X75514649Y-48853124D02*
X75467030Y-48662648D01*
X75467030Y-48662648D02*
X75371792Y-48567410D01*
X75371792Y-48567410D02*
X75276554Y-48519791D01*
X73895602Y-49519791D02*
X74467030Y-49519791D01*
X74181316Y-49519791D02*
X74181316Y-48519791D01*
X74181316Y-48519791D02*
X74276554Y-48662648D01*
X74276554Y-48662648D02*
X74371792Y-48757886D01*
X74371792Y-48757886D02*
X74467030Y-48805505D01*
X73038459Y-48853124D02*
X73038459Y-49519791D01*
X73276554Y-48472172D02*
X73514649Y-49186457D01*
X73514649Y-49186457D02*
X72895602Y-49186457D01*
X72514649Y-49424552D02*
X72467030Y-49472172D01*
X72467030Y-49472172D02*
X72514649Y-49519791D01*
X72514649Y-49519791D02*
X72562268Y-49472172D01*
X72562268Y-49472172D02*
X72514649Y-49424552D01*
X72514649Y-49424552D02*
X72514649Y-49519791D01*
X72514649Y-48900743D02*
X72467030Y-48948362D01*
X72467030Y-48948362D02*
X72514649Y-48995981D01*
X72514649Y-48995981D02*
X72562268Y-48948362D01*
X72562268Y-48948362D02*
X72514649Y-48900743D01*
X72514649Y-48900743D02*
X72514649Y-48995981D01*
X71324173Y-49472172D02*
X71181316Y-49519791D01*
X71181316Y-49519791D02*
X70943221Y-49519791D01*
X70943221Y-49519791D02*
X70847983Y-49472172D01*
X70847983Y-49472172D02*
X70800364Y-49424552D01*
X70800364Y-49424552D02*
X70752745Y-49329314D01*
X70752745Y-49329314D02*
X70752745Y-49234076D01*
X70752745Y-49234076D02*
X70800364Y-49138838D01*
X70800364Y-49138838D02*
X70847983Y-49091219D01*
X70847983Y-49091219D02*
X70943221Y-49043600D01*
X70943221Y-49043600D02*
X71133697Y-48995981D01*
X71133697Y-48995981D02*
X71228935Y-48948362D01*
X71228935Y-48948362D02*
X71276554Y-48900743D01*
X71276554Y-48900743D02*
X71324173Y-48805505D01*
X71324173Y-48805505D02*
X71324173Y-48710267D01*
X71324173Y-48710267D02*
X71276554Y-48615029D01*
X71276554Y-48615029D02*
X71228935Y-48567410D01*
X71228935Y-48567410D02*
X71133697Y-48519791D01*
X71133697Y-48519791D02*
X70895602Y-48519791D01*
X70895602Y-48519791D02*
X70752745Y-48567410D01*
X69752745Y-49424552D02*
X69800364Y-49472172D01*
X69800364Y-49472172D02*
X69943221Y-49519791D01*
X69943221Y-49519791D02*
X70038459Y-49519791D01*
X70038459Y-49519791D02*
X70181316Y-49472172D01*
X70181316Y-49472172D02*
X70276554Y-49376933D01*
X70276554Y-49376933D02*
X70324173Y-49281695D01*
X70324173Y-49281695D02*
X70371792Y-49091219D01*
X70371792Y-49091219D02*
X70371792Y-48948362D01*
X70371792Y-48948362D02*
X70324173Y-48757886D01*
X70324173Y-48757886D02*
X70276554Y-48662648D01*
X70276554Y-48662648D02*
X70181316Y-48567410D01*
X70181316Y-48567410D02*
X70038459Y-48519791D01*
X70038459Y-48519791D02*
X69943221Y-48519791D01*
X69943221Y-48519791D02*
X69800364Y-48567410D01*
X69800364Y-48567410D02*
X69752745Y-48615029D01*
X69324173Y-49519791D02*
X69324173Y-48519791D01*
X68752745Y-49519791D02*
X69181316Y-48948362D01*
X68752745Y-48519791D02*
X69324173Y-49091219D01*
X80943220Y-51129735D02*
X80943220Y-50129735D01*
X80943220Y-50129735D02*
X80705125Y-50129735D01*
X80705125Y-50129735D02*
X80562268Y-50177354D01*
X80562268Y-50177354D02*
X80467030Y-50272592D01*
X80467030Y-50272592D02*
X80419411Y-50367830D01*
X80419411Y-50367830D02*
X80371792Y-50558306D01*
X80371792Y-50558306D02*
X80371792Y-50701163D01*
X80371792Y-50701163D02*
X80419411Y-50891639D01*
X80419411Y-50891639D02*
X80467030Y-50986877D01*
X80467030Y-50986877D02*
X80562268Y-51082116D01*
X80562268Y-51082116D02*
X80705125Y-51129735D01*
X80705125Y-51129735D02*
X80943220Y-51129735D01*
X80038458Y-50129735D02*
X79371792Y-50129735D01*
X79371792Y-50129735D02*
X79800363Y-51129735D01*
X78276554Y-50082116D02*
X79133696Y-51367830D01*
X77419411Y-50177354D02*
X77514649Y-50129735D01*
X77514649Y-50129735D02*
X77657506Y-50129735D01*
X77657506Y-50129735D02*
X77800363Y-50177354D01*
X77800363Y-50177354D02*
X77895601Y-50272592D01*
X77895601Y-50272592D02*
X77943220Y-50367830D01*
X77943220Y-50367830D02*
X77990839Y-50558306D01*
X77990839Y-50558306D02*
X77990839Y-50701163D01*
X77990839Y-50701163D02*
X77943220Y-50891639D01*
X77943220Y-50891639D02*
X77895601Y-50986877D01*
X77895601Y-50986877D02*
X77800363Y-51082116D01*
X77800363Y-51082116D02*
X77657506Y-51129735D01*
X77657506Y-51129735D02*
X77562268Y-51129735D01*
X77562268Y-51129735D02*
X77419411Y-51082116D01*
X77419411Y-51082116D02*
X77371792Y-51034496D01*
X77371792Y-51034496D02*
X77371792Y-50701163D01*
X77371792Y-50701163D02*
X77562268Y-50701163D01*
X76943220Y-51129735D02*
X76943220Y-50129735D01*
X76943220Y-50129735D02*
X76562268Y-50129735D01*
X76562268Y-50129735D02*
X76467030Y-50177354D01*
X76467030Y-50177354D02*
X76419411Y-50224973D01*
X76419411Y-50224973D02*
X76371792Y-50320211D01*
X76371792Y-50320211D02*
X76371792Y-50463068D01*
X76371792Y-50463068D02*
X76419411Y-50558306D01*
X76419411Y-50558306D02*
X76467030Y-50605925D01*
X76467030Y-50605925D02*
X76562268Y-50653544D01*
X76562268Y-50653544D02*
X76943220Y-50653544D01*
X75943220Y-51129735D02*
X75943220Y-50129735D01*
X75276554Y-50129735D02*
X75086078Y-50129735D01*
X75086078Y-50129735D02*
X74990840Y-50177354D01*
X74990840Y-50177354D02*
X74895602Y-50272592D01*
X74895602Y-50272592D02*
X74847983Y-50463068D01*
X74847983Y-50463068D02*
X74847983Y-50796401D01*
X74847983Y-50796401D02*
X74895602Y-50986877D01*
X74895602Y-50986877D02*
X74990840Y-51082116D01*
X74990840Y-51082116D02*
X75086078Y-51129735D01*
X75086078Y-51129735D02*
X75276554Y-51129735D01*
X75276554Y-51129735D02*
X75371792Y-51082116D01*
X75371792Y-51082116D02*
X75467030Y-50986877D01*
X75467030Y-50986877D02*
X75514649Y-50796401D01*
X75514649Y-50796401D02*
X75514649Y-50463068D01*
X75514649Y-50463068D02*
X75467030Y-50272592D01*
X75467030Y-50272592D02*
X75371792Y-50177354D01*
X75371792Y-50177354D02*
X75276554Y-50129735D01*
X73895602Y-51129735D02*
X74467030Y-51129735D01*
X74181316Y-51129735D02*
X74181316Y-50129735D01*
X74181316Y-50129735D02*
X74276554Y-50272592D01*
X74276554Y-50272592D02*
X74371792Y-50367830D01*
X74371792Y-50367830D02*
X74467030Y-50415449D01*
X73562268Y-50129735D02*
X72943221Y-50129735D01*
X72943221Y-50129735D02*
X73276554Y-50510687D01*
X73276554Y-50510687D02*
X73133697Y-50510687D01*
X73133697Y-50510687D02*
X73038459Y-50558306D01*
X73038459Y-50558306D02*
X72990840Y-50605925D01*
X72990840Y-50605925D02*
X72943221Y-50701163D01*
X72943221Y-50701163D02*
X72943221Y-50939258D01*
X72943221Y-50939258D02*
X72990840Y-51034496D01*
X72990840Y-51034496D02*
X73038459Y-51082116D01*
X73038459Y-51082116D02*
X73133697Y-51129735D01*
X73133697Y-51129735D02*
X73419411Y-51129735D01*
X73419411Y-51129735D02*
X73514649Y-51082116D01*
X73514649Y-51082116D02*
X73562268Y-51034496D01*
X72514649Y-51034496D02*
X72467030Y-51082116D01*
X72467030Y-51082116D02*
X72514649Y-51129735D01*
X72514649Y-51129735D02*
X72562268Y-51082116D01*
X72562268Y-51082116D02*
X72514649Y-51034496D01*
X72514649Y-51034496D02*
X72514649Y-51129735D01*
X72514649Y-50510687D02*
X72467030Y-50558306D01*
X72467030Y-50558306D02*
X72514649Y-50605925D01*
X72514649Y-50605925D02*
X72562268Y-50558306D01*
X72562268Y-50558306D02*
X72514649Y-50510687D01*
X72514649Y-50510687D02*
X72514649Y-50605925D01*
X71276554Y-51129735D02*
X71276554Y-50129735D01*
X71276554Y-50129735D02*
X70943221Y-50844020D01*
X70943221Y-50844020D02*
X70609888Y-50129735D01*
X70609888Y-50129735D02*
X70609888Y-51129735D01*
X69943221Y-50129735D02*
X69752745Y-50129735D01*
X69752745Y-50129735D02*
X69657507Y-50177354D01*
X69657507Y-50177354D02*
X69562269Y-50272592D01*
X69562269Y-50272592D02*
X69514650Y-50463068D01*
X69514650Y-50463068D02*
X69514650Y-50796401D01*
X69514650Y-50796401D02*
X69562269Y-50986877D01*
X69562269Y-50986877D02*
X69657507Y-51082116D01*
X69657507Y-51082116D02*
X69752745Y-51129735D01*
X69752745Y-51129735D02*
X69943221Y-51129735D01*
X69943221Y-51129735D02*
X70038459Y-51082116D01*
X70038459Y-51082116D02*
X70133697Y-50986877D01*
X70133697Y-50986877D02*
X70181316Y-50796401D01*
X70181316Y-50796401D02*
X70181316Y-50463068D01*
X70181316Y-50463068D02*
X70133697Y-50272592D01*
X70133697Y-50272592D02*
X70038459Y-50177354D01*
X70038459Y-50177354D02*
X69943221Y-50129735D01*
X69133697Y-51082116D02*
X68990840Y-51129735D01*
X68990840Y-51129735D02*
X68752745Y-51129735D01*
X68752745Y-51129735D02*
X68657507Y-51082116D01*
X68657507Y-51082116D02*
X68609888Y-51034496D01*
X68609888Y-51034496D02*
X68562269Y-50939258D01*
X68562269Y-50939258D02*
X68562269Y-50844020D01*
X68562269Y-50844020D02*
X68609888Y-50748782D01*
X68609888Y-50748782D02*
X68657507Y-50701163D01*
X68657507Y-50701163D02*
X68752745Y-50653544D01*
X68752745Y-50653544D02*
X68943221Y-50605925D01*
X68943221Y-50605925D02*
X69038459Y-50558306D01*
X69038459Y-50558306D02*
X69086078Y-50510687D01*
X69086078Y-50510687D02*
X69133697Y-50415449D01*
X69133697Y-50415449D02*
X69133697Y-50320211D01*
X69133697Y-50320211D02*
X69086078Y-50224973D01*
X69086078Y-50224973D02*
X69038459Y-50177354D01*
X69038459Y-50177354D02*
X68943221Y-50129735D01*
X68943221Y-50129735D02*
X68705126Y-50129735D01*
X68705126Y-50129735D02*
X68562269Y-50177354D01*
X68133697Y-51129735D02*
X68133697Y-50129735D01*
X80943220Y-52739679D02*
X80943220Y-51739679D01*
X80943220Y-51739679D02*
X80705125Y-51739679D01*
X80705125Y-51739679D02*
X80562268Y-51787298D01*
X80562268Y-51787298D02*
X80467030Y-51882536D01*
X80467030Y-51882536D02*
X80419411Y-51977774D01*
X80419411Y-51977774D02*
X80371792Y-52168250D01*
X80371792Y-52168250D02*
X80371792Y-52311107D01*
X80371792Y-52311107D02*
X80419411Y-52501583D01*
X80419411Y-52501583D02*
X80467030Y-52596821D01*
X80467030Y-52596821D02*
X80562268Y-52692060D01*
X80562268Y-52692060D02*
X80705125Y-52739679D01*
X80705125Y-52739679D02*
X80943220Y-52739679D01*
X79800363Y-52168250D02*
X79895601Y-52120631D01*
X79895601Y-52120631D02*
X79943220Y-52073012D01*
X79943220Y-52073012D02*
X79990839Y-51977774D01*
X79990839Y-51977774D02*
X79990839Y-51930155D01*
X79990839Y-51930155D02*
X79943220Y-51834917D01*
X79943220Y-51834917D02*
X79895601Y-51787298D01*
X79895601Y-51787298D02*
X79800363Y-51739679D01*
X79800363Y-51739679D02*
X79609887Y-51739679D01*
X79609887Y-51739679D02*
X79514649Y-51787298D01*
X79514649Y-51787298D02*
X79467030Y-51834917D01*
X79467030Y-51834917D02*
X79419411Y-51930155D01*
X79419411Y-51930155D02*
X79419411Y-51977774D01*
X79419411Y-51977774D02*
X79467030Y-52073012D01*
X79467030Y-52073012D02*
X79514649Y-52120631D01*
X79514649Y-52120631D02*
X79609887Y-52168250D01*
X79609887Y-52168250D02*
X79800363Y-52168250D01*
X79800363Y-52168250D02*
X79895601Y-52215869D01*
X79895601Y-52215869D02*
X79943220Y-52263488D01*
X79943220Y-52263488D02*
X79990839Y-52358726D01*
X79990839Y-52358726D02*
X79990839Y-52549202D01*
X79990839Y-52549202D02*
X79943220Y-52644440D01*
X79943220Y-52644440D02*
X79895601Y-52692060D01*
X79895601Y-52692060D02*
X79800363Y-52739679D01*
X79800363Y-52739679D02*
X79609887Y-52739679D01*
X79609887Y-52739679D02*
X79514649Y-52692060D01*
X79514649Y-52692060D02*
X79467030Y-52644440D01*
X79467030Y-52644440D02*
X79419411Y-52549202D01*
X79419411Y-52549202D02*
X79419411Y-52358726D01*
X79419411Y-52358726D02*
X79467030Y-52263488D01*
X79467030Y-52263488D02*
X79514649Y-52215869D01*
X79514649Y-52215869D02*
X79609887Y-52168250D01*
X78276554Y-51692060D02*
X79133696Y-52977774D01*
X77419411Y-51787298D02*
X77514649Y-51739679D01*
X77514649Y-51739679D02*
X77657506Y-51739679D01*
X77657506Y-51739679D02*
X77800363Y-51787298D01*
X77800363Y-51787298D02*
X77895601Y-51882536D01*
X77895601Y-51882536D02*
X77943220Y-51977774D01*
X77943220Y-51977774D02*
X77990839Y-52168250D01*
X77990839Y-52168250D02*
X77990839Y-52311107D01*
X77990839Y-52311107D02*
X77943220Y-52501583D01*
X77943220Y-52501583D02*
X77895601Y-52596821D01*
X77895601Y-52596821D02*
X77800363Y-52692060D01*
X77800363Y-52692060D02*
X77657506Y-52739679D01*
X77657506Y-52739679D02*
X77562268Y-52739679D01*
X77562268Y-52739679D02*
X77419411Y-52692060D01*
X77419411Y-52692060D02*
X77371792Y-52644440D01*
X77371792Y-52644440D02*
X77371792Y-52311107D01*
X77371792Y-52311107D02*
X77562268Y-52311107D01*
X76943220Y-52739679D02*
X76943220Y-51739679D01*
X76943220Y-51739679D02*
X76562268Y-51739679D01*
X76562268Y-51739679D02*
X76467030Y-51787298D01*
X76467030Y-51787298D02*
X76419411Y-51834917D01*
X76419411Y-51834917D02*
X76371792Y-51930155D01*
X76371792Y-51930155D02*
X76371792Y-52073012D01*
X76371792Y-52073012D02*
X76419411Y-52168250D01*
X76419411Y-52168250D02*
X76467030Y-52215869D01*
X76467030Y-52215869D02*
X76562268Y-52263488D01*
X76562268Y-52263488D02*
X76943220Y-52263488D01*
X75943220Y-52739679D02*
X75943220Y-51739679D01*
X75276554Y-51739679D02*
X75086078Y-51739679D01*
X75086078Y-51739679D02*
X74990840Y-51787298D01*
X74990840Y-51787298D02*
X74895602Y-51882536D01*
X74895602Y-51882536D02*
X74847983Y-52073012D01*
X74847983Y-52073012D02*
X74847983Y-52406345D01*
X74847983Y-52406345D02*
X74895602Y-52596821D01*
X74895602Y-52596821D02*
X74990840Y-52692060D01*
X74990840Y-52692060D02*
X75086078Y-52739679D01*
X75086078Y-52739679D02*
X75276554Y-52739679D01*
X75276554Y-52739679D02*
X75371792Y-52692060D01*
X75371792Y-52692060D02*
X75467030Y-52596821D01*
X75467030Y-52596821D02*
X75514649Y-52406345D01*
X75514649Y-52406345D02*
X75514649Y-52073012D01*
X75514649Y-52073012D02*
X75467030Y-51882536D01*
X75467030Y-51882536D02*
X75371792Y-51787298D01*
X75371792Y-51787298D02*
X75276554Y-51739679D01*
X73895602Y-52739679D02*
X74467030Y-52739679D01*
X74181316Y-52739679D02*
X74181316Y-51739679D01*
X74181316Y-51739679D02*
X74276554Y-51882536D01*
X74276554Y-51882536D02*
X74371792Y-51977774D01*
X74371792Y-51977774D02*
X74467030Y-52025393D01*
X72990840Y-51739679D02*
X73467030Y-51739679D01*
X73467030Y-51739679D02*
X73514649Y-52215869D01*
X73514649Y-52215869D02*
X73467030Y-52168250D01*
X73467030Y-52168250D02*
X73371792Y-52120631D01*
X73371792Y-52120631D02*
X73133697Y-52120631D01*
X73133697Y-52120631D02*
X73038459Y-52168250D01*
X73038459Y-52168250D02*
X72990840Y-52215869D01*
X72990840Y-52215869D02*
X72943221Y-52311107D01*
X72943221Y-52311107D02*
X72943221Y-52549202D01*
X72943221Y-52549202D02*
X72990840Y-52644440D01*
X72990840Y-52644440D02*
X73038459Y-52692060D01*
X73038459Y-52692060D02*
X73133697Y-52739679D01*
X73133697Y-52739679D02*
X73371792Y-52739679D01*
X73371792Y-52739679D02*
X73467030Y-52692060D01*
X73467030Y-52692060D02*
X73514649Y-52644440D01*
X72514649Y-52644440D02*
X72467030Y-52692060D01*
X72467030Y-52692060D02*
X72514649Y-52739679D01*
X72514649Y-52739679D02*
X72562268Y-52692060D01*
X72562268Y-52692060D02*
X72514649Y-52644440D01*
X72514649Y-52644440D02*
X72514649Y-52739679D01*
X72514649Y-52120631D02*
X72467030Y-52168250D01*
X72467030Y-52168250D02*
X72514649Y-52215869D01*
X72514649Y-52215869D02*
X72562268Y-52168250D01*
X72562268Y-52168250D02*
X72514649Y-52120631D01*
X72514649Y-52120631D02*
X72514649Y-52215869D01*
X70705126Y-52644440D02*
X70752745Y-52692060D01*
X70752745Y-52692060D02*
X70895602Y-52739679D01*
X70895602Y-52739679D02*
X70990840Y-52739679D01*
X70990840Y-52739679D02*
X71133697Y-52692060D01*
X71133697Y-52692060D02*
X71228935Y-52596821D01*
X71228935Y-52596821D02*
X71276554Y-52501583D01*
X71276554Y-52501583D02*
X71324173Y-52311107D01*
X71324173Y-52311107D02*
X71324173Y-52168250D01*
X71324173Y-52168250D02*
X71276554Y-51977774D01*
X71276554Y-51977774D02*
X71228935Y-51882536D01*
X71228935Y-51882536D02*
X71133697Y-51787298D01*
X71133697Y-51787298D02*
X70990840Y-51739679D01*
X70990840Y-51739679D02*
X70895602Y-51739679D01*
X70895602Y-51739679D02*
X70752745Y-51787298D01*
X70752745Y-51787298D02*
X70705126Y-51834917D01*
X70324173Y-52692060D02*
X70181316Y-52739679D01*
X70181316Y-52739679D02*
X69943221Y-52739679D01*
X69943221Y-52739679D02*
X69847983Y-52692060D01*
X69847983Y-52692060D02*
X69800364Y-52644440D01*
X69800364Y-52644440D02*
X69752745Y-52549202D01*
X69752745Y-52549202D02*
X69752745Y-52453964D01*
X69752745Y-52453964D02*
X69800364Y-52358726D01*
X69800364Y-52358726D02*
X69847983Y-52311107D01*
X69847983Y-52311107D02*
X69943221Y-52263488D01*
X69943221Y-52263488D02*
X70133697Y-52215869D01*
X70133697Y-52215869D02*
X70228935Y-52168250D01*
X70228935Y-52168250D02*
X70276554Y-52120631D01*
X70276554Y-52120631D02*
X70324173Y-52025393D01*
X70324173Y-52025393D02*
X70324173Y-51930155D01*
X70324173Y-51930155D02*
X70276554Y-51834917D01*
X70276554Y-51834917D02*
X70228935Y-51787298D01*
X70228935Y-51787298D02*
X70133697Y-51739679D01*
X70133697Y-51739679D02*
X69895602Y-51739679D01*
X69895602Y-51739679D02*
X69752745Y-51787298D01*
X79485714Y-69352438D02*
X79580952Y-69304819D01*
X79580952Y-69304819D02*
X79723809Y-69304819D01*
X79723809Y-69304819D02*
X79866666Y-69352438D01*
X79866666Y-69352438D02*
X79961904Y-69447676D01*
X79961904Y-69447676D02*
X80009523Y-69542914D01*
X80009523Y-69542914D02*
X80057142Y-69733390D01*
X80057142Y-69733390D02*
X80057142Y-69876247D01*
X80057142Y-69876247D02*
X80009523Y-70066723D01*
X80009523Y-70066723D02*
X79961904Y-70161961D01*
X79961904Y-70161961D02*
X79866666Y-70257200D01*
X79866666Y-70257200D02*
X79723809Y-70304819D01*
X79723809Y-70304819D02*
X79628571Y-70304819D01*
X79628571Y-70304819D02*
X79485714Y-70257200D01*
X79485714Y-70257200D02*
X79438095Y-70209580D01*
X79438095Y-70209580D02*
X79438095Y-69876247D01*
X79438095Y-69876247D02*
X79628571Y-69876247D01*
X79009523Y-70304819D02*
X79009523Y-69304819D01*
X79009523Y-69304819D02*
X78438095Y-70304819D01*
X78438095Y-70304819D02*
X78438095Y-69304819D01*
X77961904Y-70304819D02*
X77961904Y-69304819D01*
X77961904Y-69304819D02*
X77723809Y-69304819D01*
X77723809Y-69304819D02*
X77580952Y-69352438D01*
X77580952Y-69352438D02*
X77485714Y-69447676D01*
X77485714Y-69447676D02*
X77438095Y-69542914D01*
X77438095Y-69542914D02*
X77390476Y-69733390D01*
X77390476Y-69733390D02*
X77390476Y-69876247D01*
X77390476Y-69876247D02*
X77438095Y-70066723D01*
X77438095Y-70066723D02*
X77485714Y-70161961D01*
X77485714Y-70161961D02*
X77580952Y-70257200D01*
X77580952Y-70257200D02*
X77723809Y-70304819D01*
X77723809Y-70304819D02*
X77961904Y-70304819D01*
X76247619Y-69257200D02*
X77104761Y-70542914D01*
X75914285Y-70304819D02*
X75914285Y-69304819D01*
X75914285Y-69685771D02*
X75819047Y-69638152D01*
X75819047Y-69638152D02*
X75628571Y-69638152D01*
X75628571Y-69638152D02*
X75533333Y-69685771D01*
X75533333Y-69685771D02*
X75485714Y-69733390D01*
X75485714Y-69733390D02*
X75438095Y-69828628D01*
X75438095Y-69828628D02*
X75438095Y-70114342D01*
X75438095Y-70114342D02*
X75485714Y-70209580D01*
X75485714Y-70209580D02*
X75533333Y-70257200D01*
X75533333Y-70257200D02*
X75628571Y-70304819D01*
X75628571Y-70304819D02*
X75819047Y-70304819D01*
X75819047Y-70304819D02*
X75914285Y-70257200D01*
X74866666Y-70304819D02*
X74961904Y-70257200D01*
X74961904Y-70257200D02*
X75009523Y-70161961D01*
X75009523Y-70161961D02*
X75009523Y-69304819D01*
X74057142Y-70304819D02*
X74057142Y-69781009D01*
X74057142Y-69781009D02*
X74104761Y-69685771D01*
X74104761Y-69685771D02*
X74199999Y-69638152D01*
X74199999Y-69638152D02*
X74390475Y-69638152D01*
X74390475Y-69638152D02*
X74485713Y-69685771D01*
X74057142Y-70257200D02*
X74152380Y-70304819D01*
X74152380Y-70304819D02*
X74390475Y-70304819D01*
X74390475Y-70304819D02*
X74485713Y-70257200D01*
X74485713Y-70257200D02*
X74533332Y-70161961D01*
X74533332Y-70161961D02*
X74533332Y-70066723D01*
X74533332Y-70066723D02*
X74485713Y-69971485D01*
X74485713Y-69971485D02*
X74390475Y-69923866D01*
X74390475Y-69923866D02*
X74152380Y-69923866D01*
X74152380Y-69923866D02*
X74057142Y-69876247D01*
X73152380Y-70257200D02*
X73247618Y-70304819D01*
X73247618Y-70304819D02*
X73438094Y-70304819D01*
X73438094Y-70304819D02*
X73533332Y-70257200D01*
X73533332Y-70257200D02*
X73580951Y-70209580D01*
X73580951Y-70209580D02*
X73628570Y-70114342D01*
X73628570Y-70114342D02*
X73628570Y-69828628D01*
X73628570Y-69828628D02*
X73580951Y-69733390D01*
X73580951Y-69733390D02*
X73533332Y-69685771D01*
X73533332Y-69685771D02*
X73438094Y-69638152D01*
X73438094Y-69638152D02*
X73247618Y-69638152D01*
X73247618Y-69638152D02*
X73152380Y-69685771D01*
X72723808Y-70304819D02*
X72723808Y-69304819D01*
X72628570Y-69923866D02*
X72342856Y-70304819D01*
X72342856Y-69638152D02*
X72723808Y-70019104D01*
X98088220Y-30764847D02*
X98088220Y-29764847D01*
X98088220Y-29764847D02*
X97516792Y-30764847D01*
X97516792Y-30764847D02*
X97516792Y-29764847D01*
X96659649Y-30717228D02*
X96754887Y-30764847D01*
X96754887Y-30764847D02*
X96945363Y-30764847D01*
X96945363Y-30764847D02*
X97040601Y-30717228D01*
X97040601Y-30717228D02*
X97088220Y-30621989D01*
X97088220Y-30621989D02*
X97088220Y-30241037D01*
X97088220Y-30241037D02*
X97040601Y-30145799D01*
X97040601Y-30145799D02*
X96945363Y-30098180D01*
X96945363Y-30098180D02*
X96754887Y-30098180D01*
X96754887Y-30098180D02*
X96659649Y-30145799D01*
X96659649Y-30145799D02*
X96612030Y-30241037D01*
X96612030Y-30241037D02*
X96612030Y-30336275D01*
X96612030Y-30336275D02*
X97088220Y-30431513D01*
X96040601Y-30764847D02*
X96135839Y-30717228D01*
X96135839Y-30717228D02*
X96183458Y-30669608D01*
X96183458Y-30669608D02*
X96231077Y-30574370D01*
X96231077Y-30574370D02*
X96231077Y-30288656D01*
X96231077Y-30288656D02*
X96183458Y-30193418D01*
X96183458Y-30193418D02*
X96135839Y-30145799D01*
X96135839Y-30145799D02*
X96040601Y-30098180D01*
X96040601Y-30098180D02*
X95897744Y-30098180D01*
X95897744Y-30098180D02*
X95802506Y-30145799D01*
X95802506Y-30145799D02*
X95754887Y-30193418D01*
X95754887Y-30193418D02*
X95707268Y-30288656D01*
X95707268Y-30288656D02*
X95707268Y-30574370D01*
X95707268Y-30574370D02*
X95754887Y-30669608D01*
X95754887Y-30669608D02*
X95802506Y-30717228D01*
X95802506Y-30717228D02*
X95897744Y-30764847D01*
X95897744Y-30764847D02*
X96040601Y-30764847D01*
X95278696Y-30098180D02*
X95278696Y-31098180D01*
X95278696Y-30145799D02*
X95183458Y-30098180D01*
X95183458Y-30098180D02*
X94992982Y-30098180D01*
X94992982Y-30098180D02*
X94897744Y-30145799D01*
X94897744Y-30145799D02*
X94850125Y-30193418D01*
X94850125Y-30193418D02*
X94802506Y-30288656D01*
X94802506Y-30288656D02*
X94802506Y-30574370D01*
X94802506Y-30574370D02*
X94850125Y-30669608D01*
X94850125Y-30669608D02*
X94897744Y-30717228D01*
X94897744Y-30717228D02*
X94992982Y-30764847D01*
X94992982Y-30764847D02*
X95183458Y-30764847D01*
X95183458Y-30764847D02*
X95278696Y-30717228D01*
X94373934Y-30764847D02*
X94373934Y-30098180D01*
X94373934Y-29764847D02*
X94421553Y-29812466D01*
X94421553Y-29812466D02*
X94373934Y-29860085D01*
X94373934Y-29860085D02*
X94326315Y-29812466D01*
X94326315Y-29812466D02*
X94373934Y-29764847D01*
X94373934Y-29764847D02*
X94373934Y-29860085D01*
X93992982Y-30764847D02*
X93469173Y-30098180D01*
X93992982Y-30098180D02*
X93469173Y-30764847D01*
X92707268Y-30717228D02*
X92802506Y-30764847D01*
X92802506Y-30764847D02*
X92992982Y-30764847D01*
X92992982Y-30764847D02*
X93088220Y-30717228D01*
X93088220Y-30717228D02*
X93135839Y-30621989D01*
X93135839Y-30621989D02*
X93135839Y-30241037D01*
X93135839Y-30241037D02*
X93088220Y-30145799D01*
X93088220Y-30145799D02*
X92992982Y-30098180D01*
X92992982Y-30098180D02*
X92802506Y-30098180D01*
X92802506Y-30098180D02*
X92707268Y-30145799D01*
X92707268Y-30145799D02*
X92659649Y-30241037D01*
X92659649Y-30241037D02*
X92659649Y-30336275D01*
X92659649Y-30336275D02*
X93135839Y-30431513D01*
X92088220Y-30764847D02*
X92183458Y-30717228D01*
X92183458Y-30717228D02*
X92231077Y-30621989D01*
X92231077Y-30621989D02*
X92231077Y-29764847D01*
X97659649Y-32374791D02*
X97659649Y-31374791D01*
X97659649Y-32327172D02*
X97754887Y-32374791D01*
X97754887Y-32374791D02*
X97945363Y-32374791D01*
X97945363Y-32374791D02*
X98040601Y-32327172D01*
X98040601Y-32327172D02*
X98088220Y-32279552D01*
X98088220Y-32279552D02*
X98135839Y-32184314D01*
X98135839Y-32184314D02*
X98135839Y-31898600D01*
X98135839Y-31898600D02*
X98088220Y-31803362D01*
X98088220Y-31803362D02*
X98040601Y-31755743D01*
X98040601Y-31755743D02*
X97945363Y-31708124D01*
X97945363Y-31708124D02*
X97754887Y-31708124D01*
X97754887Y-31708124D02*
X97659649Y-31755743D01*
X96754887Y-32374791D02*
X96754887Y-31850981D01*
X96754887Y-31850981D02*
X96802506Y-31755743D01*
X96802506Y-31755743D02*
X96897744Y-31708124D01*
X96897744Y-31708124D02*
X97088220Y-31708124D01*
X97088220Y-31708124D02*
X97183458Y-31755743D01*
X96754887Y-32327172D02*
X96850125Y-32374791D01*
X96850125Y-32374791D02*
X97088220Y-32374791D01*
X97088220Y-32374791D02*
X97183458Y-32327172D01*
X97183458Y-32327172D02*
X97231077Y-32231933D01*
X97231077Y-32231933D02*
X97231077Y-32136695D01*
X97231077Y-32136695D02*
X97183458Y-32041457D01*
X97183458Y-32041457D02*
X97088220Y-31993838D01*
X97088220Y-31993838D02*
X96850125Y-31993838D01*
X96850125Y-31993838D02*
X96754887Y-31946219D01*
X96421553Y-31708124D02*
X96040601Y-31708124D01*
X96278696Y-31374791D02*
X96278696Y-32231933D01*
X96278696Y-32231933D02*
X96231077Y-32327172D01*
X96231077Y-32327172D02*
X96135839Y-32374791D01*
X96135839Y-32374791D02*
X96040601Y-32374791D01*
X95278696Y-32374791D02*
X95278696Y-31850981D01*
X95278696Y-31850981D02*
X95326315Y-31755743D01*
X95326315Y-31755743D02*
X95421553Y-31708124D01*
X95421553Y-31708124D02*
X95612029Y-31708124D01*
X95612029Y-31708124D02*
X95707267Y-31755743D01*
X95278696Y-32327172D02*
X95373934Y-32374791D01*
X95373934Y-32374791D02*
X95612029Y-32374791D01*
X95612029Y-32374791D02*
X95707267Y-32327172D01*
X95707267Y-32327172D02*
X95754886Y-32231933D01*
X95754886Y-32231933D02*
X95754886Y-32136695D01*
X95754886Y-32136695D02*
X95707267Y-32041457D01*
X95707267Y-32041457D02*
X95612029Y-31993838D01*
X95612029Y-31993838D02*
X95373934Y-31993838D01*
X95373934Y-31993838D02*
X95278696Y-31946219D01*
X93564410Y-31374791D02*
X94040600Y-31374791D01*
X94040600Y-31374791D02*
X94088219Y-31850981D01*
X94088219Y-31850981D02*
X94040600Y-31803362D01*
X94040600Y-31803362D02*
X93945362Y-31755743D01*
X93945362Y-31755743D02*
X93707267Y-31755743D01*
X93707267Y-31755743D02*
X93612029Y-31803362D01*
X93612029Y-31803362D02*
X93564410Y-31850981D01*
X93564410Y-31850981D02*
X93516791Y-31946219D01*
X93516791Y-31946219D02*
X93516791Y-32184314D01*
X93516791Y-32184314D02*
X93564410Y-32279552D01*
X93564410Y-32279552D02*
X93612029Y-32327172D01*
X93612029Y-32327172D02*
X93707267Y-32374791D01*
X93707267Y-32374791D02*
X93945362Y-32374791D01*
X93945362Y-32374791D02*
X94040600Y-32327172D01*
X94040600Y-32327172D02*
X94088219Y-32279552D01*
X93231076Y-31374791D02*
X92897743Y-32374791D01*
X92897743Y-32374791D02*
X92564410Y-31374791D01*
X88089999Y-69923866D02*
X87328095Y-69923866D01*
X87709047Y-70304819D02*
X87709047Y-69542914D01*
X86375714Y-69304819D02*
X86851904Y-69304819D01*
X86851904Y-69304819D02*
X86899523Y-69781009D01*
X86899523Y-69781009D02*
X86851904Y-69733390D01*
X86851904Y-69733390D02*
X86756666Y-69685771D01*
X86756666Y-69685771D02*
X86518571Y-69685771D01*
X86518571Y-69685771D02*
X86423333Y-69733390D01*
X86423333Y-69733390D02*
X86375714Y-69781009D01*
X86375714Y-69781009D02*
X86328095Y-69876247D01*
X86328095Y-69876247D02*
X86328095Y-70114342D01*
X86328095Y-70114342D02*
X86375714Y-70209580D01*
X86375714Y-70209580D02*
X86423333Y-70257200D01*
X86423333Y-70257200D02*
X86518571Y-70304819D01*
X86518571Y-70304819D02*
X86756666Y-70304819D01*
X86756666Y-70304819D02*
X86851904Y-70257200D01*
X86851904Y-70257200D02*
X86899523Y-70209580D01*
X86042380Y-69304819D02*
X85709047Y-70304819D01*
X85709047Y-70304819D02*
X85375714Y-69304819D01*
X84328095Y-69257200D02*
X85185237Y-70542914D01*
X83994761Y-70304819D02*
X83994761Y-69638152D01*
X83994761Y-69828628D02*
X83947142Y-69733390D01*
X83947142Y-69733390D02*
X83899523Y-69685771D01*
X83899523Y-69685771D02*
X83804285Y-69638152D01*
X83804285Y-69638152D02*
X83709047Y-69638152D01*
X82994761Y-70257200D02*
X83089999Y-70304819D01*
X83089999Y-70304819D02*
X83280475Y-70304819D01*
X83280475Y-70304819D02*
X83375713Y-70257200D01*
X83375713Y-70257200D02*
X83423332Y-70161961D01*
X83423332Y-70161961D02*
X83423332Y-69781009D01*
X83423332Y-69781009D02*
X83375713Y-69685771D01*
X83375713Y-69685771D02*
X83280475Y-69638152D01*
X83280475Y-69638152D02*
X83089999Y-69638152D01*
X83089999Y-69638152D02*
X82994761Y-69685771D01*
X82994761Y-69685771D02*
X82947142Y-69781009D01*
X82947142Y-69781009D02*
X82947142Y-69876247D01*
X82947142Y-69876247D02*
X83423332Y-69971485D01*
X82089999Y-70304819D02*
X82089999Y-69304819D01*
X82089999Y-70257200D02*
X82185237Y-70304819D01*
X82185237Y-70304819D02*
X82375713Y-70304819D01*
X82375713Y-70304819D02*
X82470951Y-70257200D01*
X82470951Y-70257200D02*
X82518570Y-70209580D01*
X82518570Y-70209580D02*
X82566189Y-70114342D01*
X82566189Y-70114342D02*
X82566189Y-69828628D01*
X82566189Y-69828628D02*
X82518570Y-69733390D01*
X82518570Y-69733390D02*
X82470951Y-69685771D01*
X82470951Y-69685771D02*
X82375713Y-69638152D01*
X82375713Y-69638152D02*
X82185237Y-69638152D01*
X82185237Y-69638152D02*
X82089999Y-69685771D01*
X99861666Y-36649819D02*
X100194999Y-36173628D01*
X100433094Y-36649819D02*
X100433094Y-35649819D01*
X100433094Y-35649819D02*
X100052142Y-35649819D01*
X100052142Y-35649819D02*
X99956904Y-35697438D01*
X99956904Y-35697438D02*
X99909285Y-35745057D01*
X99909285Y-35745057D02*
X99861666Y-35840295D01*
X99861666Y-35840295D02*
X99861666Y-35983152D01*
X99861666Y-35983152D02*
X99909285Y-36078390D01*
X99909285Y-36078390D02*
X99956904Y-36126009D01*
X99956904Y-36126009D02*
X100052142Y-36173628D01*
X100052142Y-36173628D02*
X100433094Y-36173628D01*
X98909285Y-36649819D02*
X99480713Y-36649819D01*
X99194999Y-36649819D02*
X99194999Y-35649819D01*
X99194999Y-35649819D02*
X99290237Y-35792676D01*
X99290237Y-35792676D02*
X99385475Y-35887914D01*
X99385475Y-35887914D02*
X99480713Y-35935533D01*
X99992210Y-68234580D02*
X100039829Y-68282200D01*
X100039829Y-68282200D02*
X100182686Y-68329819D01*
X100182686Y-68329819D02*
X100277924Y-68329819D01*
X100277924Y-68329819D02*
X100420781Y-68282200D01*
X100420781Y-68282200D02*
X100516019Y-68186961D01*
X100516019Y-68186961D02*
X100563638Y-68091723D01*
X100563638Y-68091723D02*
X100611257Y-67901247D01*
X100611257Y-67901247D02*
X100611257Y-67758390D01*
X100611257Y-67758390D02*
X100563638Y-67567914D01*
X100563638Y-67567914D02*
X100516019Y-67472676D01*
X100516019Y-67472676D02*
X100420781Y-67377438D01*
X100420781Y-67377438D02*
X100277924Y-67329819D01*
X100277924Y-67329819D02*
X100182686Y-67329819D01*
X100182686Y-67329819D02*
X100039829Y-67377438D01*
X100039829Y-67377438D02*
X99992210Y-67425057D01*
X99611257Y-67425057D02*
X99563638Y-67377438D01*
X99563638Y-67377438D02*
X99468400Y-67329819D01*
X99468400Y-67329819D02*
X99230305Y-67329819D01*
X99230305Y-67329819D02*
X99135067Y-67377438D01*
X99135067Y-67377438D02*
X99087448Y-67425057D01*
X99087448Y-67425057D02*
X99039829Y-67520295D01*
X99039829Y-67520295D02*
X99039829Y-67615533D01*
X99039829Y-67615533D02*
X99087448Y-67758390D01*
X99087448Y-67758390D02*
X99658876Y-68329819D01*
X99658876Y-68329819D02*
X99039829Y-68329819D01*
X109958094Y-68994819D02*
X109958094Y-67994819D01*
X109958094Y-67994819D02*
X109719999Y-67994819D01*
X109719999Y-67994819D02*
X109577142Y-68042438D01*
X109577142Y-68042438D02*
X109481904Y-68137676D01*
X109481904Y-68137676D02*
X109434285Y-68232914D01*
X109434285Y-68232914D02*
X109386666Y-68423390D01*
X109386666Y-68423390D02*
X109386666Y-68566247D01*
X109386666Y-68566247D02*
X109434285Y-68756723D01*
X109434285Y-68756723D02*
X109481904Y-68851961D01*
X109481904Y-68851961D02*
X109577142Y-68947200D01*
X109577142Y-68947200D02*
X109719999Y-68994819D01*
X109719999Y-68994819D02*
X109958094Y-68994819D01*
X108434285Y-68994819D02*
X109005713Y-68994819D01*
X108719999Y-68994819D02*
X108719999Y-67994819D01*
X108719999Y-67994819D02*
X108815237Y-68137676D01*
X108815237Y-68137676D02*
X108910475Y-68232914D01*
X108910475Y-68232914D02*
X109005713Y-68280533D01*
X115101666Y-51889819D02*
X115434999Y-51413628D01*
X115673094Y-51889819D02*
X115673094Y-50889819D01*
X115673094Y-50889819D02*
X115292142Y-50889819D01*
X115292142Y-50889819D02*
X115196904Y-50937438D01*
X115196904Y-50937438D02*
X115149285Y-50985057D01*
X115149285Y-50985057D02*
X115101666Y-51080295D01*
X115101666Y-51080295D02*
X115101666Y-51223152D01*
X115101666Y-51223152D02*
X115149285Y-51318390D01*
X115149285Y-51318390D02*
X115196904Y-51366009D01*
X115196904Y-51366009D02*
X115292142Y-51413628D01*
X115292142Y-51413628D02*
X115673094Y-51413628D01*
X114768332Y-50889819D02*
X114149285Y-50889819D01*
X114149285Y-50889819D02*
X114482618Y-51270771D01*
X114482618Y-51270771D02*
X114339761Y-51270771D01*
X114339761Y-51270771D02*
X114244523Y-51318390D01*
X114244523Y-51318390D02*
X114196904Y-51366009D01*
X114196904Y-51366009D02*
X114149285Y-51461247D01*
X114149285Y-51461247D02*
X114149285Y-51699342D01*
X114149285Y-51699342D02*
X114196904Y-51794580D01*
X114196904Y-51794580D02*
X114244523Y-51842200D01*
X114244523Y-51842200D02*
X114339761Y-51889819D01*
X114339761Y-51889819D02*
X114625475Y-51889819D01*
X114625475Y-51889819D02*
X114720713Y-51842200D01*
X114720713Y-51842200D02*
X114768332Y-51794580D01*
X119546666Y-60779819D02*
X119879999Y-60303628D01*
X120118094Y-60779819D02*
X120118094Y-59779819D01*
X120118094Y-59779819D02*
X119737142Y-59779819D01*
X119737142Y-59779819D02*
X119641904Y-59827438D01*
X119641904Y-59827438D02*
X119594285Y-59875057D01*
X119594285Y-59875057D02*
X119546666Y-59970295D01*
X119546666Y-59970295D02*
X119546666Y-60113152D01*
X119546666Y-60113152D02*
X119594285Y-60208390D01*
X119594285Y-60208390D02*
X119641904Y-60256009D01*
X119641904Y-60256009D02*
X119737142Y-60303628D01*
X119737142Y-60303628D02*
X120118094Y-60303628D01*
X119165713Y-59875057D02*
X119118094Y-59827438D01*
X119118094Y-59827438D02*
X119022856Y-59779819D01*
X119022856Y-59779819D02*
X118784761Y-59779819D01*
X118784761Y-59779819D02*
X118689523Y-59827438D01*
X118689523Y-59827438D02*
X118641904Y-59875057D01*
X118641904Y-59875057D02*
X118594285Y-59970295D01*
X118594285Y-59970295D02*
X118594285Y-60065533D01*
X118594285Y-60065533D02*
X118641904Y-60208390D01*
X118641904Y-60208390D02*
X119213332Y-60779819D01*
X119213332Y-60779819D02*
X118594285Y-60779819D01*
X65531904Y-36284819D02*
X65531904Y-37094342D01*
X65531904Y-37094342D02*
X65484285Y-37189580D01*
X65484285Y-37189580D02*
X65436666Y-37237200D01*
X65436666Y-37237200D02*
X65341428Y-37284819D01*
X65341428Y-37284819D02*
X65150952Y-37284819D01*
X65150952Y-37284819D02*
X65055714Y-37237200D01*
X65055714Y-37237200D02*
X65008095Y-37189580D01*
X65008095Y-37189580D02*
X64960476Y-37094342D01*
X64960476Y-37094342D02*
X64960476Y-36284819D01*
X64531904Y-36380057D02*
X64484285Y-36332438D01*
X64484285Y-36332438D02*
X64389047Y-36284819D01*
X64389047Y-36284819D02*
X64150952Y-36284819D01*
X64150952Y-36284819D02*
X64055714Y-36332438D01*
X64055714Y-36332438D02*
X64008095Y-36380057D01*
X64008095Y-36380057D02*
X63960476Y-36475295D01*
X63960476Y-36475295D02*
X63960476Y-36570533D01*
X63960476Y-36570533D02*
X64008095Y-36713390D01*
X64008095Y-36713390D02*
X64579523Y-37284819D01*
X64579523Y-37284819D02*
X63960476Y-37284819D01*
X106846666Y-60049580D02*
X106894285Y-60097200D01*
X106894285Y-60097200D02*
X107037142Y-60144819D01*
X107037142Y-60144819D02*
X107132380Y-60144819D01*
X107132380Y-60144819D02*
X107275237Y-60097200D01*
X107275237Y-60097200D02*
X107370475Y-60001961D01*
X107370475Y-60001961D02*
X107418094Y-59906723D01*
X107418094Y-59906723D02*
X107465713Y-59716247D01*
X107465713Y-59716247D02*
X107465713Y-59573390D01*
X107465713Y-59573390D02*
X107418094Y-59382914D01*
X107418094Y-59382914D02*
X107370475Y-59287676D01*
X107370475Y-59287676D02*
X107275237Y-59192438D01*
X107275237Y-59192438D02*
X107132380Y-59144819D01*
X107132380Y-59144819D02*
X107037142Y-59144819D01*
X107037142Y-59144819D02*
X106894285Y-59192438D01*
X106894285Y-59192438D02*
X106846666Y-59240057D01*
X106513332Y-59144819D02*
X105894285Y-59144819D01*
X105894285Y-59144819D02*
X106227618Y-59525771D01*
X106227618Y-59525771D02*
X106084761Y-59525771D01*
X106084761Y-59525771D02*
X105989523Y-59573390D01*
X105989523Y-59573390D02*
X105941904Y-59621009D01*
X105941904Y-59621009D02*
X105894285Y-59716247D01*
X105894285Y-59716247D02*
X105894285Y-59954342D01*
X105894285Y-59954342D02*
X105941904Y-60049580D01*
X105941904Y-60049580D02*
X105989523Y-60097200D01*
X105989523Y-60097200D02*
X106084761Y-60144819D01*
X106084761Y-60144819D02*
X106370475Y-60144819D01*
X106370475Y-60144819D02*
X106465713Y-60097200D01*
X106465713Y-60097200D02*
X106513332Y-60049580D01*
X103671666Y-38459580D02*
X103719285Y-38507200D01*
X103719285Y-38507200D02*
X103862142Y-38554819D01*
X103862142Y-38554819D02*
X103957380Y-38554819D01*
X103957380Y-38554819D02*
X104100237Y-38507200D01*
X104100237Y-38507200D02*
X104195475Y-38411961D01*
X104195475Y-38411961D02*
X104243094Y-38316723D01*
X104243094Y-38316723D02*
X104290713Y-38126247D01*
X104290713Y-38126247D02*
X104290713Y-37983390D01*
X104290713Y-37983390D02*
X104243094Y-37792914D01*
X104243094Y-37792914D02*
X104195475Y-37697676D01*
X104195475Y-37697676D02*
X104100237Y-37602438D01*
X104100237Y-37602438D02*
X103957380Y-37554819D01*
X103957380Y-37554819D02*
X103862142Y-37554819D01*
X103862142Y-37554819D02*
X103719285Y-37602438D01*
X103719285Y-37602438D02*
X103671666Y-37650057D01*
X102719285Y-38554819D02*
X103290713Y-38554819D01*
X103004999Y-38554819D02*
X103004999Y-37554819D01*
X103004999Y-37554819D02*
X103100237Y-37697676D01*
X103100237Y-37697676D02*
X103195475Y-37792914D01*
X103195475Y-37792914D02*
X103290713Y-37840533D01*
X113156904Y-56096819D02*
X113156904Y-56906342D01*
X113156904Y-56906342D02*
X113109285Y-57001580D01*
X113109285Y-57001580D02*
X113061666Y-57049200D01*
X113061666Y-57049200D02*
X112966428Y-57096819D01*
X112966428Y-57096819D02*
X112775952Y-57096819D01*
X112775952Y-57096819D02*
X112680714Y-57049200D01*
X112680714Y-57049200D02*
X112633095Y-57001580D01*
X112633095Y-57001580D02*
X112585476Y-56906342D01*
X112585476Y-56906342D02*
X112585476Y-56096819D01*
X112204523Y-56096819D02*
X111585476Y-56096819D01*
X111585476Y-56096819D02*
X111918809Y-56477771D01*
X111918809Y-56477771D02*
X111775952Y-56477771D01*
X111775952Y-56477771D02*
X111680714Y-56525390D01*
X111680714Y-56525390D02*
X111633095Y-56573009D01*
X111633095Y-56573009D02*
X111585476Y-56668247D01*
X111585476Y-56668247D02*
X111585476Y-56906342D01*
X111585476Y-56906342D02*
X111633095Y-57001580D01*
X111633095Y-57001580D02*
X111680714Y-57049200D01*
X111680714Y-57049200D02*
X111775952Y-57096819D01*
X111775952Y-57096819D02*
X112061666Y-57096819D01*
X112061666Y-57096819D02*
X112156904Y-57049200D01*
X112156904Y-57049200D02*
X112204523Y-57001580D01*
X120713332Y-42317200D02*
X120570475Y-42364819D01*
X120570475Y-42364819D02*
X120332380Y-42364819D01*
X120332380Y-42364819D02*
X120237142Y-42317200D01*
X120237142Y-42317200D02*
X120189523Y-42269580D01*
X120189523Y-42269580D02*
X120141904Y-42174342D01*
X120141904Y-42174342D02*
X120141904Y-42079104D01*
X120141904Y-42079104D02*
X120189523Y-41983866D01*
X120189523Y-41983866D02*
X120237142Y-41936247D01*
X120237142Y-41936247D02*
X120332380Y-41888628D01*
X120332380Y-41888628D02*
X120522856Y-41841009D01*
X120522856Y-41841009D02*
X120618094Y-41793390D01*
X120618094Y-41793390D02*
X120665713Y-41745771D01*
X120665713Y-41745771D02*
X120713332Y-41650533D01*
X120713332Y-41650533D02*
X120713332Y-41555295D01*
X120713332Y-41555295D02*
X120665713Y-41460057D01*
X120665713Y-41460057D02*
X120618094Y-41412438D01*
X120618094Y-41412438D02*
X120522856Y-41364819D01*
X120522856Y-41364819D02*
X120284761Y-41364819D01*
X120284761Y-41364819D02*
X120141904Y-41412438D01*
X119808570Y-41364819D02*
X119570475Y-42364819D01*
X119570475Y-42364819D02*
X119379999Y-41650533D01*
X119379999Y-41650533D02*
X119189523Y-42364819D01*
X119189523Y-42364819D02*
X118951428Y-41364819D01*
X118046666Y-42364819D02*
X118618094Y-42364819D01*
X118332380Y-42364819D02*
X118332380Y-41364819D01*
X118332380Y-41364819D02*
X118427618Y-41507676D01*
X118427618Y-41507676D02*
X118522856Y-41602914D01*
X118522856Y-41602914D02*
X118618094Y-41650533D01*
X112521904Y-35014819D02*
X112521904Y-35824342D01*
X112521904Y-35824342D02*
X112474285Y-35919580D01*
X112474285Y-35919580D02*
X112426666Y-35967200D01*
X112426666Y-35967200D02*
X112331428Y-36014819D01*
X112331428Y-36014819D02*
X112140952Y-36014819D01*
X112140952Y-36014819D02*
X112045714Y-35967200D01*
X112045714Y-35967200D02*
X111998095Y-35919580D01*
X111998095Y-35919580D02*
X111950476Y-35824342D01*
X111950476Y-35824342D02*
X111950476Y-35014819D01*
X110950476Y-36014819D02*
X111521904Y-36014819D01*
X111236190Y-36014819D02*
X111236190Y-35014819D01*
X111236190Y-35014819D02*
X111331428Y-35157676D01*
X111331428Y-35157676D02*
X111426666Y-35252914D01*
X111426666Y-35252914D02*
X111521904Y-35300533D01*
X91773333Y-67801009D02*
X92106666Y-67801009D01*
X92106666Y-68324819D02*
X92106666Y-67324819D01*
X92106666Y-67324819D02*
X91630476Y-67324819D01*
X90725714Y-68324819D02*
X91297142Y-68324819D01*
X91011428Y-68324819D02*
X91011428Y-67324819D01*
X91011428Y-67324819D02*
X91106666Y-67467676D01*
X91106666Y-67467676D02*
X91201904Y-67562914D01*
X91201904Y-67562914D02*
X91297142Y-67610533D01*
D12*
X75630000Y-57150000D02*
G75*
G02*
X74230000Y-57150000I-700000J0D01*
G01*
X74230000Y-57150000D02*
G75*
G02*
X75630000Y-57150000I700000J0D01*
G01*
X73090000Y-57150000D02*
G75*
G02*
X71690000Y-57150000I-700000J0D01*
G01*
X71690000Y-57150000D02*
G75*
G02*
X73090000Y-57150000I700000J0D01*
G01*
X75495000Y-40400000D02*
G75*
G02*
X73095000Y-40400000I-1200000J0D01*
G01*
X73095000Y-40400000D02*
G75*
G02*
X75495000Y-40400000I1200000J0D01*
G01*
X86290000Y-39370000D02*
G75*
G02*
X83890000Y-39370000I-1200000J0D01*
G01*
X83890000Y-39370000D02*
G75*
G02*
X86290000Y-39370000I1200000J0D01*
G01*
X71050000Y-40400000D02*
G75*
G02*
X68650000Y-40400000I-1200000J0D01*
G01*
X68650000Y-40400000D02*
G75*
G02*
X71050000Y-40400000I1200000J0D01*
G01*
X100287064Y-35025000D02*
X99832936Y-35025000D01*
X100287064Y-33555000D02*
X99832936Y-33555000D01*
X95415846Y-64940000D02*
X96215846Y-64940000D01*
X95815846Y-65340000D02*
X95815846Y-64540000D01*
X99825544Y-66705000D02*
X99825544Y-58545000D01*
X99865544Y-66705000D02*
X99865544Y-58545000D01*
X99905544Y-66704000D02*
X99905544Y-58546000D01*
X99945544Y-66703000D02*
X99945544Y-58547000D01*
X99985544Y-66702000D02*
X99985544Y-58548000D01*
X100025544Y-66700000D02*
X100025544Y-58550000D01*
X100065544Y-66698000D02*
X100065544Y-58552000D01*
X100105544Y-66695000D02*
X100105544Y-58555000D01*
X100145544Y-66693000D02*
X100145544Y-58557000D01*
X100185544Y-66689000D02*
X100185544Y-58561000D01*
X100225544Y-66686000D02*
X100225544Y-58564000D01*
X100265544Y-66681000D02*
X100265544Y-58569000D01*
X100305544Y-66677000D02*
X100305544Y-58573000D01*
X100345544Y-66672000D02*
X100345544Y-58578000D01*
X100385544Y-66667000D02*
X100385544Y-58583000D01*
X100425544Y-66661000D02*
X100425544Y-58589000D01*
X100465544Y-66655000D02*
X100465544Y-58595000D01*
X100505544Y-66648000D02*
X100505544Y-58602000D01*
X100545544Y-66642000D02*
X100545544Y-63665000D01*
X100545544Y-61585000D02*
X100545544Y-58608000D01*
X100585544Y-66634000D02*
X100585544Y-63665000D01*
X100585544Y-61585000D02*
X100585544Y-58616000D01*
X100625544Y-66627000D02*
X100625544Y-63665000D01*
X100625544Y-61585000D02*
X100625544Y-58623000D01*
X100665544Y-66618000D02*
X100665544Y-63665000D01*
X100665544Y-61585000D02*
X100665544Y-58632000D01*
X100705544Y-66610000D02*
X100705544Y-63665000D01*
X100705544Y-61585000D02*
X100705544Y-58640000D01*
X100745544Y-66601000D02*
X100745544Y-63665000D01*
X100745544Y-61585000D02*
X100745544Y-58649000D01*
X100785544Y-66592000D02*
X100785544Y-63665000D01*
X100785544Y-61585000D02*
X100785544Y-58658000D01*
X100825544Y-66582000D02*
X100825544Y-63665000D01*
X100825544Y-61585000D02*
X100825544Y-58668000D01*
X100865544Y-66572000D02*
X100865544Y-63665000D01*
X100865544Y-61585000D02*
X100865544Y-58678000D01*
X100905544Y-66561000D02*
X100905544Y-63665000D01*
X100905544Y-61585000D02*
X100905544Y-58689000D01*
X100945544Y-66550000D02*
X100945544Y-63665000D01*
X100945544Y-61585000D02*
X100945544Y-58700000D01*
X100985544Y-66538000D02*
X100985544Y-63665000D01*
X100985544Y-61585000D02*
X100985544Y-58712000D01*
X101025544Y-66526000D02*
X101025544Y-63665000D01*
X101025544Y-61585000D02*
X101025544Y-58724000D01*
X101065544Y-66514000D02*
X101065544Y-63665000D01*
X101065544Y-61585000D02*
X101065544Y-58736000D01*
X101105544Y-66501000D02*
X101105544Y-63665000D01*
X101105544Y-61585000D02*
X101105544Y-58749000D01*
X101145544Y-66488000D02*
X101145544Y-63665000D01*
X101145544Y-61585000D02*
X101145544Y-58762000D01*
X101185544Y-66474000D02*
X101185544Y-63665000D01*
X101185544Y-61585000D02*
X101185544Y-58776000D01*
X101225544Y-66460000D02*
X101225544Y-63665000D01*
X101225544Y-61585000D02*
X101225544Y-58790000D01*
X101265544Y-66445000D02*
X101265544Y-63665000D01*
X101265544Y-61585000D02*
X101265544Y-58805000D01*
X101305544Y-66430000D02*
X101305544Y-63665000D01*
X101305544Y-61585000D02*
X101305544Y-58820000D01*
X101345544Y-66414000D02*
X101345544Y-63665000D01*
X101345544Y-61585000D02*
X101345544Y-58836000D01*
X101385544Y-66398000D02*
X101385544Y-63665000D01*
X101385544Y-61585000D02*
X101385544Y-58852000D01*
X101425544Y-66382000D02*
X101425544Y-63665000D01*
X101425544Y-61585000D02*
X101425544Y-58868000D01*
X101465544Y-66365000D02*
X101465544Y-63665000D01*
X101465544Y-61585000D02*
X101465544Y-58885000D01*
X101505544Y-66347000D02*
X101505544Y-63665000D01*
X101505544Y-61585000D02*
X101505544Y-58903000D01*
X101545544Y-66329000D02*
X101545544Y-63665000D01*
X101545544Y-61585000D02*
X101545544Y-58921000D01*
X101585544Y-66310000D02*
X101585544Y-63665000D01*
X101585544Y-61585000D02*
X101585544Y-58940000D01*
X101625544Y-66291000D02*
X101625544Y-63665000D01*
X101625544Y-61585000D02*
X101625544Y-58959000D01*
X101665544Y-66271000D02*
X101665544Y-63665000D01*
X101665544Y-61585000D02*
X101665544Y-58979000D01*
X101705544Y-66251000D02*
X101705544Y-63665000D01*
X101705544Y-61585000D02*
X101705544Y-58999000D01*
X101745544Y-66230000D02*
X101745544Y-63665000D01*
X101745544Y-61585000D02*
X101745544Y-59020000D01*
X101785544Y-66209000D02*
X101785544Y-63665000D01*
X101785544Y-61585000D02*
X101785544Y-59041000D01*
X101825544Y-66187000D02*
X101825544Y-63665000D01*
X101825544Y-61585000D02*
X101825544Y-59063000D01*
X101865544Y-66164000D02*
X101865544Y-63665000D01*
X101865544Y-61585000D02*
X101865544Y-59086000D01*
X101905544Y-66141000D02*
X101905544Y-63665000D01*
X101905544Y-61585000D02*
X101905544Y-59109000D01*
X101945544Y-66118000D02*
X101945544Y-63665000D01*
X101945544Y-61585000D02*
X101945544Y-59132000D01*
X101985544Y-66093000D02*
X101985544Y-63665000D01*
X101985544Y-61585000D02*
X101985544Y-59157000D01*
X102025544Y-66068000D02*
X102025544Y-63665000D01*
X102025544Y-61585000D02*
X102025544Y-59182000D01*
X102065544Y-66043000D02*
X102065544Y-63665000D01*
X102065544Y-61585000D02*
X102065544Y-59207000D01*
X102105544Y-66017000D02*
X102105544Y-63665000D01*
X102105544Y-61585000D02*
X102105544Y-59233000D01*
X102145544Y-65990000D02*
X102145544Y-63665000D01*
X102145544Y-61585000D02*
X102145544Y-59260000D01*
X102185544Y-65962000D02*
X102185544Y-63665000D01*
X102185544Y-61585000D02*
X102185544Y-59288000D01*
X102225544Y-65934000D02*
X102225544Y-63665000D01*
X102225544Y-61585000D02*
X102225544Y-59316000D01*
X102265544Y-65905000D02*
X102265544Y-63665000D01*
X102265544Y-61585000D02*
X102265544Y-59345000D01*
X102305544Y-65875000D02*
X102305544Y-63665000D01*
X102305544Y-61585000D02*
X102305544Y-59375000D01*
X102345544Y-65844000D02*
X102345544Y-63665000D01*
X102345544Y-61585000D02*
X102345544Y-59406000D01*
X102385544Y-65813000D02*
X102385544Y-63665000D01*
X102385544Y-61585000D02*
X102385544Y-59437000D01*
X102425544Y-65781000D02*
X102425544Y-63665000D01*
X102425544Y-61585000D02*
X102425544Y-59469000D01*
X102465544Y-65748000D02*
X102465544Y-63665000D01*
X102465544Y-61585000D02*
X102465544Y-59502000D01*
X102505544Y-65714000D02*
X102505544Y-63665000D01*
X102505544Y-61585000D02*
X102505544Y-59536000D01*
X102545544Y-65680000D02*
X102545544Y-63665000D01*
X102545544Y-61585000D02*
X102545544Y-59570000D01*
X102585544Y-65644000D02*
X102585544Y-63665000D01*
X102585544Y-61585000D02*
X102585544Y-59606000D01*
X102625544Y-65607000D02*
X102625544Y-59643000D01*
X102665544Y-65570000D02*
X102665544Y-59680000D01*
X102705544Y-65531000D02*
X102705544Y-59719000D01*
X102745544Y-65492000D02*
X102745544Y-59758000D01*
X102785544Y-65451000D02*
X102785544Y-59799000D01*
X102825544Y-65409000D02*
X102825544Y-59841000D01*
X102865544Y-65366000D02*
X102865544Y-59884000D01*
X102905544Y-65321000D02*
X102905544Y-59929000D01*
X102945544Y-65276000D02*
X102945544Y-59974000D01*
X102985544Y-65229000D02*
X102985544Y-60021000D01*
X103025544Y-65180000D02*
X103025544Y-60070000D01*
X103065544Y-65130000D02*
X103065544Y-60120000D01*
X103105544Y-65078000D02*
X103105544Y-60172000D01*
X103145544Y-65025000D02*
X103145544Y-60225000D01*
X103185544Y-64969000D02*
X103185544Y-60281000D01*
X103225544Y-64912000D02*
X103225544Y-60338000D01*
X103265544Y-64852000D02*
X103265544Y-60398000D01*
X103305544Y-64790000D02*
X103305544Y-60460000D01*
X103345544Y-64726000D02*
X103345544Y-60524000D01*
X103385544Y-64659000D02*
X103385544Y-60591000D01*
X103425544Y-64589000D02*
X103425544Y-60661000D01*
X103465544Y-64515000D02*
X103465544Y-60735000D01*
X103505544Y-64438000D02*
X103505544Y-60812000D01*
X103545544Y-64356000D02*
X103545544Y-60894000D01*
X103585544Y-64269000D02*
X103585544Y-60981000D01*
X103625544Y-64177000D02*
X103625544Y-61073000D01*
X103665544Y-64078000D02*
X103665544Y-61172000D01*
X103705544Y-63971000D02*
X103705544Y-61279000D01*
X103745544Y-63853000D02*
X103745544Y-61397000D01*
X103785544Y-63722000D02*
X103785544Y-61528000D01*
X103825544Y-63572000D02*
X103825544Y-61678000D01*
X103865544Y-63393000D02*
X103865544Y-61857000D01*
X103905544Y-63158000D02*
X103905544Y-62092000D01*
X103945544Y-62625000D02*
G75*
G02*
X95705544Y-62625000I-4120000J0D01*
G01*
X95705544Y-62625000D02*
G75*
G02*
X103945544Y-62625000I4120000J0D01*
G01*
X97085000Y-34290000D02*
G75*
G02*
X94685000Y-34290000I-1200000J0D01*
G01*
X94685000Y-34290000D02*
G75*
G02*
X97085000Y-34290000I1200000J0D01*
G01*
X105710000Y-64390000D02*
X111220000Y-64390000D01*
X105710000Y-67690000D02*
X105710000Y-64390000D01*
X105710000Y-67690000D02*
X111220000Y-67690000D01*
X114200000Y-48487064D02*
X114200000Y-48032936D01*
X115670000Y-48487064D02*
X115670000Y-48032936D01*
X118645000Y-56922936D02*
X118645000Y-57377064D01*
X120115000Y-56922936D02*
X120115000Y-57377064D01*
X58970000Y-59070000D02*
X58970000Y-37460000D01*
X86530000Y-35330000D02*
X61100000Y-35330000D01*
X86530000Y-35330000D02*
X86530000Y-37870000D01*
X86530000Y-37870000D02*
X93430000Y-37870000D01*
X93430000Y-37870000D02*
X93430000Y-61190000D01*
X93430000Y-61190000D02*
X61100000Y-61190000D01*
X58970000Y-37460000D02*
G75*
G02*
X61100000Y-35330000I2130002J-2D01*
G01*
X61100000Y-61190000D02*
G75*
G02*
X58970000Y-59060000I0J2130000D01*
G01*
D11*
X67310000Y-34925000D02*
X66675000Y-34290000D01*
X67945000Y-34290000D01*
X67310000Y-34925000D01*
G36*
X67310000Y-34925000D02*
G01*
X66675000Y-34290000D01*
X67945000Y-34290000D01*
X67310000Y-34925000D01*
G37*
D12*
X106941252Y-57050000D02*
X106418748Y-57050000D01*
X106941252Y-58520000D02*
X106418748Y-58520000D01*
X87340000Y-66040000D02*
G75*
G02*
X82840000Y-66040000I-2250000J0D01*
G01*
X82840000Y-66040000D02*
G75*
G02*
X87340000Y-66040000I2250000J0D01*
G01*
X106941252Y-37365000D02*
X106418748Y-37365000D01*
X106941252Y-38835000D02*
X106418748Y-38835000D01*
X102820000Y-40450000D02*
X102820000Y-40715000D01*
X102820000Y-56070000D02*
X102820000Y-55805000D01*
X106680000Y-40450000D02*
X102820000Y-40450000D01*
X106680000Y-40450000D02*
X110540000Y-40450000D01*
X106680000Y-56070000D02*
X102820000Y-56070000D01*
X106680000Y-56070000D02*
X110540000Y-56070000D01*
X110540000Y-40450000D02*
X110540000Y-40715000D01*
X110540000Y-56070000D02*
X110540000Y-55805000D01*
X102307500Y-56275000D02*
X101627500Y-56275000D01*
X101967500Y-55805000D01*
X102307500Y-56275000D01*
G36*
X102307500Y-56275000D02*
G01*
X101627500Y-56275000D01*
X101967500Y-55805000D01*
X102307500Y-56275000D01*
G37*
X78450000Y-66040000D02*
G75*
G02*
X73950000Y-66040000I-2250000J0D01*
G01*
X73950000Y-66040000D02*
G75*
G02*
X78450000Y-66040000I2250000J0D01*
G01*
X117530000Y-45200000D02*
X117530000Y-51320000D01*
X117530000Y-51320000D02*
X121230000Y-51320000D01*
X121230000Y-45200000D02*
X117530000Y-45200000D01*
X121230000Y-51320000D02*
X121230000Y-45200000D01*
X106680000Y-27315000D02*
X104730000Y-27315000D01*
X106680000Y-27315000D02*
X108630000Y-27315000D01*
X106680000Y-36185000D02*
X104730000Y-36185000D01*
X106680000Y-36185000D02*
X108630000Y-36185000D01*
X104220000Y-36450000D02*
X103740000Y-36450000D01*
X103980000Y-36120000D01*
X104220000Y-36450000D01*
G36*
X104220000Y-36450000D02*
G01*
X103740000Y-36450000D01*
X103980000Y-36120000D01*
X104220000Y-36450000D01*
G37*
X90837936Y-65130000D02*
X92042064Y-65130000D01*
X90837936Y-66950000D02*
X92042064Y-66950000D01*
M02*
