G04 #@! TF.GenerationSoftware,KiCad,Pcbnew,9.0.2*
G04 #@! TF.CreationDate,2025-06-10T21:22:11+02:00*
G04 #@! TF.ProjectId,n-teller,6e2d7465-6c6c-4657-922e-6b696361645f,1.0*
G04 #@! TF.SameCoordinates,Original*
G04 #@! TF.FileFunction,Copper,L2,Bot*
G04 #@! TF.FilePolarity,Positive*
%FSLAX46Y46*%
G04 Gerber Fmt 4.6, Leading zero omitted, Abs format (unit mm)*
G04 Created by KiCad (PCBNEW 9.0.2) date 2025-06-10 21:22:11*
%MOMM*%
%LPD*%
G01*
G04 APERTURE LIST*
G04 Aperture macros list*
%AMRoundRect*
0 Rectangle with rounded corners*
0 $1 Rounding radius*
0 $2 $3 $4 $5 $6 $7 $8 $9 X,Y pos of 4 corners*
0 Add a 4 corners polygon primitive as box body*
4,1,4,$2,$3,$4,$5,$6,$7,$8,$9,$2,$3,0*
0 Add four circle primitives for the rounded corners*
1,1,$1+$1,$2,$3*
1,1,$1+$1,$4,$5*
1,1,$1+$1,$6,$7*
1,1,$1+$1,$8,$9*
0 Add four rect primitives between the rounded corners*
20,1,$1+$1,$2,$3,$4,$5,0*
20,1,$1+$1,$4,$5,$6,$7,0*
20,1,$1+$1,$6,$7,$8,$9,0*
20,1,$1+$1,$8,$9,$2,$3,0*%
G04 Aperture macros list end*
G04 #@! TA.AperFunction,SMDPad,CuDef*
%ADD10C,1.000000*%
G04 #@! TD*
G04 #@! TA.AperFunction,SMDPad,CuDef*
%ADD11C,2.000000*%
G04 #@! TD*
G04 #@! TA.AperFunction,SMDPad,CuDef*
%ADD12RoundRect,0.250000X0.350000X0.450000X-0.350000X0.450000X-0.350000X-0.450000X0.350000X-0.450000X0*%
G04 #@! TD*
G04 #@! TA.AperFunction,ComponentPad*
%ADD13RoundRect,0.250000X-0.550000X-0.550000X0.550000X-0.550000X0.550000X0.550000X-0.550000X0.550000X0*%
G04 #@! TD*
G04 #@! TA.AperFunction,ComponentPad*
%ADD14C,1.600000*%
G04 #@! TD*
G04 #@! TA.AperFunction,ComponentPad*
%ADD15R,2.000000X2.000000*%
G04 #@! TD*
G04 #@! TA.AperFunction,ComponentPad*
%ADD16O,1.600000X2.000000*%
G04 #@! TD*
G04 #@! TA.AperFunction,ComponentPad*
%ADD17C,0.800000*%
G04 #@! TD*
G04 #@! TA.AperFunction,ComponentPad*
%ADD18C,6.400000*%
G04 #@! TD*
G04 #@! TA.AperFunction,SMDPad,CuDef*
%ADD19RoundRect,0.250000X-1.000000X-0.650000X1.000000X-0.650000X1.000000X0.650000X-1.000000X0.650000X0*%
G04 #@! TD*
G04 #@! TA.AperFunction,SMDPad,CuDef*
%ADD20RoundRect,0.250000X0.450000X-0.350000X0.450000X0.350000X-0.450000X0.350000X-0.450000X-0.350000X0*%
G04 #@! TD*
G04 #@! TA.AperFunction,SMDPad,CuDef*
%ADD21RoundRect,0.250000X-0.450000X0.350000X-0.450000X-0.350000X0.450000X-0.350000X0.450000X0.350000X0*%
G04 #@! TD*
G04 #@! TA.AperFunction,SMDPad,CuDef*
%ADD22RoundRect,0.250000X0.337500X0.475000X-0.337500X0.475000X-0.337500X-0.475000X0.337500X-0.475000X0*%
G04 #@! TD*
G04 #@! TA.AperFunction,SMDPad,CuDef*
%ADD23C,4.000000*%
G04 #@! TD*
G04 #@! TA.AperFunction,SMDPad,CuDef*
%ADD24RoundRect,0.150000X-0.875000X-0.150000X0.875000X-0.150000X0.875000X0.150000X-0.875000X0.150000X0*%
G04 #@! TD*
G04 #@! TA.AperFunction,SMDPad,CuDef*
%ADD25R,1.500000X1.500000*%
G04 #@! TD*
G04 #@! TA.AperFunction,SMDPad,CuDef*
%ADD26RoundRect,0.150000X-0.825000X-0.150000X0.825000X-0.150000X0.825000X0.150000X-0.825000X0.150000X0*%
G04 #@! TD*
G04 #@! TA.AperFunction,SMDPad,CuDef*
%ADD27RoundRect,0.250001X-0.462499X-0.624999X0.462499X-0.624999X0.462499X0.624999X-0.462499X0.624999X0*%
G04 #@! TD*
G04 #@! TA.AperFunction,ViaPad*
%ADD28C,0.800000*%
G04 #@! TD*
G04 #@! TA.AperFunction,Conductor*
%ADD29C,0.440000*%
G04 #@! TD*
G04 #@! TA.AperFunction,Conductor*
%ADD30C,1.000000*%
G04 #@! TD*
G04 APERTURE END LIST*
D10*
X74930000Y-57150000D03*
X72390000Y-57150000D03*
D11*
X74295000Y-40400000D03*
X85090000Y-39370000D03*
X69850000Y-40400000D03*
D12*
X99060000Y-34290000D03*
X101060000Y-34290000D03*
D13*
X98075544Y-62625000D03*
D14*
X101575544Y-62625000D03*
D15*
X83820000Y-53340000D03*
D16*
X86360000Y-53340000D03*
X88900000Y-53340000D03*
X91440000Y-53340000D03*
X93980000Y-53340000D03*
X96520000Y-53340000D03*
X96520000Y-43180000D03*
X93980000Y-43180000D03*
X91440000Y-43180000D03*
X88900000Y-43180000D03*
X86360000Y-43180000D03*
X83820000Y-43180000D03*
D17*
X58560000Y-30480000D03*
X59262944Y-28782944D03*
X59262944Y-32177056D03*
X60960000Y-28080000D03*
D18*
X60960000Y-30480000D03*
D17*
X60960000Y-32880000D03*
X62657056Y-28782944D03*
X62657056Y-32177056D03*
X63360000Y-30480000D03*
X58420000Y-66040000D03*
X59122944Y-64342944D03*
X59122944Y-67737056D03*
X60820000Y-63640000D03*
D18*
X60820000Y-66040000D03*
D17*
X60820000Y-68440000D03*
X62517056Y-64342944D03*
X62517056Y-67737056D03*
X63220000Y-66040000D03*
X116980000Y-30480000D03*
X117682944Y-28782944D03*
X117682944Y-32177056D03*
X119380000Y-28080000D03*
D18*
X119380000Y-30480000D03*
D17*
X119380000Y-32880000D03*
X121077056Y-28782944D03*
X121077056Y-32177056D03*
X121780000Y-30480000D03*
X116980000Y-66040000D03*
X117682944Y-64342944D03*
X117682944Y-67737056D03*
X119380000Y-63640000D03*
D18*
X119380000Y-66040000D03*
D17*
X119380000Y-68440000D03*
X121077056Y-64342944D03*
X121077056Y-67737056D03*
X121780000Y-66040000D03*
D11*
X95885000Y-34290000D03*
D19*
X107220000Y-66040000D03*
X111220000Y-66040000D03*
D20*
X114935000Y-49260000D03*
X114935000Y-47260000D03*
D21*
X119380000Y-56150000D03*
X119380000Y-58150000D03*
D15*
X67310000Y-36830000D03*
D16*
X69850000Y-36830000D03*
X72390000Y-36830000D03*
X74930000Y-36830000D03*
X77470000Y-36830000D03*
X80010000Y-36830000D03*
X82550000Y-36830000D03*
X85090000Y-36830000D03*
X85090000Y-59690000D03*
X82550000Y-59690000D03*
X80010000Y-59690000D03*
X77470000Y-59690000D03*
X74930000Y-59690000D03*
X72390000Y-59690000D03*
X69850000Y-59690000D03*
X67310000Y-59690000D03*
D22*
X107717500Y-57785000D03*
X105642500Y-57785000D03*
D23*
X85090000Y-66040000D03*
D22*
X107717500Y-38100000D03*
X105642500Y-38100000D03*
D24*
X102030000Y-55245000D03*
X102030000Y-53975000D03*
X102030000Y-52705000D03*
X102030000Y-51435000D03*
X102030000Y-50165000D03*
X102030000Y-48895000D03*
X102030000Y-47625000D03*
X102030000Y-46355000D03*
X102030000Y-45085000D03*
X102030000Y-43815000D03*
X102030000Y-42545000D03*
X102030000Y-41275000D03*
X111330000Y-41275000D03*
X111330000Y-42545000D03*
X111330000Y-43815000D03*
X111330000Y-45085000D03*
X111330000Y-46355000D03*
X111330000Y-47625000D03*
X111330000Y-48895000D03*
X111330000Y-50165000D03*
X111330000Y-51435000D03*
X111330000Y-52705000D03*
X111330000Y-53975000D03*
X111330000Y-55245000D03*
D23*
X76200000Y-66040000D03*
D25*
X119380000Y-44360000D03*
X119380000Y-52160000D03*
D26*
X104205000Y-35560000D03*
X104205000Y-34290000D03*
X104205000Y-33020000D03*
X104205000Y-31750000D03*
X104205000Y-30480000D03*
X104205000Y-29210000D03*
X104205000Y-27940000D03*
X109155000Y-27940000D03*
X109155000Y-29210000D03*
X109155000Y-30480000D03*
X109155000Y-31750000D03*
X109155000Y-33020000D03*
X109155000Y-34290000D03*
X109155000Y-35560000D03*
D27*
X89952500Y-66040000D03*
X92927500Y-66040000D03*
D28*
X94234000Y-48895000D03*
X112268000Y-31369000D03*
X100203000Y-56007000D03*
X115951000Y-59309000D03*
X118594202Y-38662750D03*
X108966000Y-39624000D03*
X105664000Y-54483000D03*
X90170000Y-44704000D03*
X97663000Y-44704000D03*
X117856000Y-52832000D03*
X113792000Y-53848000D03*
X114681000Y-38735000D03*
X110998000Y-33147000D03*
X102235000Y-31750000D03*
X81915000Y-55880000D03*
X110998000Y-28956000D03*
X106680000Y-26670000D03*
X90170000Y-34290000D03*
X86995000Y-38100000D03*
X66675000Y-62230000D03*
X66675000Y-69850000D03*
X90170000Y-47625000D03*
X81280000Y-33655000D03*
X83820000Y-33655000D03*
X82550000Y-26670000D03*
X66675000Y-26670000D03*
X76962000Y-28956000D03*
X76200000Y-34290000D03*
X82550000Y-39370000D03*
X78740000Y-39370000D03*
X67310000Y-39370000D03*
X76200000Y-57785000D03*
X66675000Y-57785000D03*
X95250000Y-61595000D03*
X95250000Y-64135000D03*
X114935000Y-56896000D03*
X110490000Y-61068000D03*
X104791027Y-61068000D03*
X119380000Y-48260000D03*
X111123798Y-38100000D03*
X106680000Y-31750000D03*
X102235000Y-27940000D03*
X97790000Y-33020000D03*
X106680000Y-34925000D03*
X100584000Y-39370000D03*
X103505000Y-40005000D03*
X106934000Y-43561000D03*
X103759000Y-48260000D03*
X109220000Y-47498000D03*
X113284000Y-46228000D03*
X113284000Y-50292000D03*
X110490000Y-57150000D03*
X103505000Y-57150000D03*
X81280000Y-34925000D03*
X114935000Y-55245000D03*
X109474000Y-56515000D03*
X106045000Y-30226000D03*
X112776000Y-30226000D03*
X106045000Y-51943000D03*
X117157500Y-58102500D03*
X101600000Y-36830000D03*
X115805000Y-36830000D03*
X116078000Y-53086000D03*
X109220000Y-62865000D03*
X107315000Y-33020000D03*
X100965000Y-31750000D03*
X82550000Y-32385000D03*
X106807000Y-28067000D03*
X100457000Y-28702000D03*
X79883000Y-27686000D03*
X104140000Y-42545000D03*
X99822000Y-40259000D03*
X109220000Y-38100000D03*
X109220000Y-58293000D03*
X109220000Y-48895000D03*
X99060000Y-55245000D03*
X106045000Y-53213000D03*
X86360000Y-55581000D03*
X81280000Y-54610000D03*
X96520000Y-47625000D03*
X94615000Y-47752000D03*
X99060000Y-52705000D03*
X106045000Y-50673000D03*
X99060000Y-51435000D03*
X106045000Y-45905000D03*
X98987891Y-45905000D03*
X90805000Y-49911000D03*
X92583000Y-46990000D03*
X107950000Y-46355000D03*
X99695000Y-46755000D03*
X108022683Y-45157683D03*
X106045000Y-49530000D03*
X99060000Y-50165000D03*
D29*
X74930000Y-59690000D02*
X74930000Y-57150000D01*
X72390000Y-59690000D02*
X72390000Y-57150000D01*
X85090000Y-36830000D02*
X85090000Y-39370000D01*
X69850000Y-36830000D02*
X69850000Y-40400000D01*
X100457000Y-28702000D02*
X80264000Y-28702000D01*
X79883000Y-28321000D02*
X79883000Y-27686000D01*
X80264000Y-28702000D02*
X79883000Y-28321000D01*
X102030000Y-48895000D02*
X101649000Y-48514000D01*
X101649000Y-48514000D02*
X95377000Y-48514000D01*
X95377000Y-48514000D02*
X94615000Y-47752000D01*
X104205000Y-30480000D02*
X103951000Y-30226000D01*
X103951000Y-30226000D02*
X77089000Y-30226000D01*
X77089000Y-30226000D02*
X74930000Y-32385000D01*
X74930000Y-32385000D02*
X74930000Y-36830000D01*
X100965000Y-31750000D02*
X100838000Y-31877000D01*
X100838000Y-31877000D02*
X83058000Y-31877000D01*
X83058000Y-31877000D02*
X82550000Y-32385000D01*
X101060000Y-34290000D02*
X101219000Y-34290000D01*
X101219000Y-34290000D02*
X102489000Y-33020000D01*
X102489000Y-33020000D02*
X104205000Y-33020000D01*
X102030000Y-41275000D02*
X109220000Y-41275000D01*
X109220000Y-41275000D02*
X110490000Y-40005000D01*
X112395000Y-33020000D02*
X111125000Y-31750000D01*
X110490000Y-40005000D02*
X111125000Y-40005000D01*
X111125000Y-40005000D02*
X112395000Y-38735000D01*
X111125000Y-31750000D02*
X109155000Y-31750000D01*
X112395000Y-38735000D02*
X112395000Y-33020000D01*
X113284000Y-39321000D02*
X113284000Y-30734000D01*
X111330000Y-41275000D02*
X113284000Y-39321000D01*
X113284000Y-30734000D02*
X112776000Y-30226000D01*
X109155000Y-27940000D02*
X113665000Y-27940000D01*
X116967000Y-50927000D02*
X114935000Y-52959000D01*
X113665000Y-27940000D02*
X114935000Y-29210000D01*
X114935000Y-52959000D02*
X114935000Y-55245000D01*
X114935000Y-29210000D02*
X114935000Y-37465000D01*
X114935000Y-37465000D02*
X116967000Y-39497000D01*
X116967000Y-39497000D02*
X116967000Y-50927000D01*
X115805000Y-36830000D02*
X117729000Y-38754000D01*
X117729000Y-38754000D02*
X117729000Y-51435000D01*
X117729000Y-51435000D02*
X116078000Y-53086000D01*
X77470000Y-58420000D02*
X78740000Y-57150000D01*
X104648000Y-60198000D02*
X113474500Y-60198000D01*
X77470000Y-59690000D02*
X77470000Y-58420000D01*
X101600000Y-57150000D02*
X104648000Y-60198000D01*
X117522500Y-56150000D02*
X119380000Y-56150000D01*
X78740000Y-57150000D02*
X101600000Y-57150000D01*
X113474500Y-60198000D02*
X117522500Y-56150000D01*
X102030000Y-55245000D02*
X103054999Y-55245000D01*
X103054999Y-55245000D02*
X103308999Y-55499000D01*
X103308999Y-55499000D02*
X108458000Y-55499000D01*
X108458000Y-55499000D02*
X109474000Y-56515000D01*
X86360000Y-43180000D02*
X86360000Y-42037000D01*
X86360000Y-42037000D02*
X88900000Y-39497000D01*
X88900000Y-39497000D02*
X99060000Y-39497000D01*
X99060000Y-39497000D02*
X99822000Y-40259000D01*
X99060000Y-50165000D02*
X98806000Y-49911000D01*
X98806000Y-49911000D02*
X90805000Y-49911000D01*
X106807000Y-53975000D02*
X106045000Y-53213000D01*
X111330000Y-53975000D02*
X106807000Y-53975000D01*
X106807000Y-52705000D02*
X106045000Y-51943000D01*
X111330000Y-52705000D02*
X106807000Y-52705000D01*
X106132366Y-49530000D02*
X106045000Y-49530000D01*
X111330000Y-50165000D02*
X106767366Y-50165000D01*
X106767366Y-50165000D02*
X106132366Y-49530000D01*
X111330000Y-51435000D02*
X106807000Y-51435000D01*
X106807000Y-51435000D02*
X106045000Y-50673000D01*
X108712000Y-57785000D02*
X109220000Y-58293000D01*
X107717500Y-57785000D02*
X108712000Y-57785000D01*
X92818000Y-46755000D02*
X92583000Y-46990000D01*
X99695000Y-46755000D02*
X92818000Y-46755000D01*
X109155000Y-29210000D02*
X107950000Y-29210000D01*
X107950000Y-29210000D02*
X106807000Y-28067000D01*
X105029000Y-29210000D02*
X106045000Y-30226000D01*
X104205000Y-29210000D02*
X105029000Y-29210000D01*
X98987891Y-45905000D02*
X98986891Y-45906000D01*
X98986891Y-45906000D02*
X89594000Y-45906000D01*
X89594000Y-45906000D02*
X88900000Y-45212000D01*
X88900000Y-45212000D02*
X88900000Y-43180000D01*
X107717500Y-38100000D02*
X107717500Y-35792500D01*
X107717500Y-35792500D02*
X107950000Y-35560000D01*
X107950000Y-35560000D02*
X109155000Y-35560000D01*
X83820000Y-51435000D02*
X83820000Y-53340000D01*
X91440000Y-41910000D02*
X91440000Y-43180000D01*
X111330000Y-43815000D02*
X108135000Y-43815000D01*
X108135000Y-43815000D02*
X106045000Y-45905000D01*
X102030000Y-53975000D02*
X98435878Y-53975000D01*
X98435878Y-53975000D02*
X97649878Y-54761000D01*
X97649878Y-54761000D02*
X81431000Y-54761000D01*
X81431000Y-54761000D02*
X81280000Y-54610000D01*
X98724000Y-55581000D02*
X99060000Y-55245000D01*
X86360000Y-55581000D02*
X98724000Y-55581000D01*
X98070974Y-51435000D02*
X99060000Y-51435000D01*
X97430975Y-50795000D02*
X98070974Y-51435000D01*
X84460000Y-50795000D02*
X97430975Y-50795000D01*
X83820000Y-51435000D02*
X84460000Y-50795000D01*
X98435878Y-52705000D02*
X99060000Y-52705000D01*
X97165878Y-51435000D02*
X98435878Y-52705000D01*
X90805000Y-51435000D02*
X97165878Y-51435000D01*
X88900000Y-53340000D02*
X90805000Y-51435000D01*
X111330000Y-45085000D02*
X108095366Y-45085000D01*
X108095366Y-45085000D02*
X108022683Y-45157683D01*
X107950000Y-46355000D02*
X111330000Y-46355000D01*
X104205000Y-34290000D02*
X102870000Y-34290000D01*
X102870000Y-34290000D02*
X101449000Y-35711000D01*
X86995000Y-34925000D02*
X81280000Y-34925000D01*
X101449000Y-35711000D02*
X87781000Y-35711000D01*
X87781000Y-35711000D02*
X86995000Y-34925000D01*
X107315000Y-33020000D02*
X109155000Y-33020000D01*
X117205000Y-58150000D02*
X117157500Y-58102500D01*
X119380000Y-58150000D02*
X117205000Y-58150000D01*
X85090000Y-36830000D02*
X101600000Y-36830000D01*
X109220000Y-62865000D02*
X108585000Y-62865000D01*
X108585000Y-62865000D02*
X107220000Y-64230000D01*
X107220000Y-64230000D02*
X107220000Y-66040000D01*
X119380000Y-52160000D02*
X119380000Y-56150000D01*
X95885000Y-34290000D02*
X99060000Y-34290000D01*
X91440000Y-41910000D02*
X92075000Y-41275000D01*
X98435171Y-42545000D02*
X102030000Y-42545000D01*
X92075000Y-41275000D02*
X97165171Y-41275000D01*
X97165171Y-41275000D02*
X98435171Y-42545000D01*
X111330000Y-42545000D02*
X104140000Y-42545000D01*
X109220000Y-38100000D02*
X107717500Y-38100000D01*
X109220000Y-48895000D02*
X111330000Y-48895000D01*
X102030000Y-47625000D02*
X96520000Y-47625000D01*
X111330000Y-47625000D02*
X114570000Y-47625000D01*
X114570000Y-47625000D02*
X114935000Y-47260000D01*
X111330000Y-48895000D02*
X114570000Y-48895000D01*
X114570000Y-48895000D02*
X114935000Y-49260000D01*
D30*
X107220000Y-66040000D02*
X99562268Y-66040000D01*
X99562268Y-66040000D02*
X98075544Y-64553276D01*
X96588820Y-66040000D02*
X98075544Y-64553276D01*
X98075544Y-64553276D02*
X98075544Y-62625000D01*
X96996096Y-59690000D02*
X98075544Y-60769448D01*
X98075544Y-60769448D02*
X98075544Y-62625000D01*
X92927500Y-66040000D02*
X96588820Y-66040000D01*
X85090000Y-59690000D02*
X96996096Y-59690000D01*
X85090000Y-66040000D02*
X89952500Y-66040000D01*
G04 #@! TA.AperFunction,Conductor*
G36*
X119382153Y-25900594D02*
G01*
X119774826Y-25917738D01*
X119783405Y-25918488D01*
X120170956Y-25969511D01*
X120179425Y-25971004D01*
X120561055Y-26055610D01*
X120569365Y-26057836D01*
X120942167Y-26175381D01*
X120950273Y-26178331D01*
X121311390Y-26327910D01*
X121319205Y-26331554D01*
X121665910Y-26512038D01*
X121673391Y-26516356D01*
X121944434Y-26689030D01*
X122003053Y-26726374D01*
X122010127Y-26731328D01*
X122320220Y-26969270D01*
X122326821Y-26974809D01*
X122615028Y-27238901D01*
X122621098Y-27244971D01*
X122885188Y-27533176D01*
X122890729Y-27539779D01*
X123128671Y-27849872D01*
X123133625Y-27856946D01*
X123343643Y-28186609D01*
X123347961Y-28194089D01*
X123528442Y-28540788D01*
X123532092Y-28548616D01*
X123681666Y-28909722D01*
X123684620Y-28917837D01*
X123802158Y-29290618D01*
X123804393Y-29298960D01*
X123888991Y-29680556D01*
X123890491Y-29689062D01*
X123941509Y-30076581D01*
X123942262Y-30085185D01*
X123959406Y-30477846D01*
X123959500Y-30482164D01*
X123959500Y-66037835D01*
X123959406Y-66042153D01*
X123942262Y-66434814D01*
X123941509Y-66443418D01*
X123890491Y-66830937D01*
X123888991Y-66839443D01*
X123804393Y-67221039D01*
X123802158Y-67229381D01*
X123684620Y-67602162D01*
X123681666Y-67610277D01*
X123532092Y-67971383D01*
X123528442Y-67979211D01*
X123347961Y-68325910D01*
X123343643Y-68333390D01*
X123133625Y-68663053D01*
X123128671Y-68670127D01*
X122890729Y-68980220D01*
X122885179Y-68986834D01*
X122621109Y-69275016D01*
X122615016Y-69281109D01*
X122378846Y-69497520D01*
X122326836Y-69545178D01*
X122320220Y-69550729D01*
X122010127Y-69788671D01*
X122003053Y-69793625D01*
X121673390Y-70003643D01*
X121665910Y-70007961D01*
X121319211Y-70188442D01*
X121311383Y-70192092D01*
X120950277Y-70341666D01*
X120942162Y-70344620D01*
X120569381Y-70462158D01*
X120561039Y-70464393D01*
X120179443Y-70548991D01*
X120170937Y-70550491D01*
X119783418Y-70601509D01*
X119774814Y-70602262D01*
X119382153Y-70619406D01*
X119377835Y-70619500D01*
X66139000Y-70619500D01*
X66080809Y-70600593D01*
X66044845Y-70551093D01*
X66040000Y-70520500D01*
X66040000Y-67975811D01*
X74617742Y-67975811D01*
X74751041Y-68082114D01*
X74988798Y-68231507D01*
X75241782Y-68353337D01*
X75241785Y-68353338D01*
X75506817Y-68446077D01*
X75780576Y-68508561D01*
X76059601Y-68539999D01*
X76059604Y-68540000D01*
X76340396Y-68540000D01*
X76340398Y-68539999D01*
X76619423Y-68508561D01*
X76893182Y-68446077D01*
X77158214Y-68353338D01*
X77158217Y-68353337D01*
X77411201Y-68231507D01*
X77648958Y-68082114D01*
X77782256Y-67975811D01*
X76199999Y-66393554D01*
X74617742Y-67975811D01*
X66040000Y-67975811D01*
X66040000Y-65899601D01*
X73700000Y-65899601D01*
X73700000Y-66180398D01*
X73731438Y-66459423D01*
X73793922Y-66733182D01*
X73886661Y-66998214D01*
X73886662Y-66998217D01*
X74008492Y-67251201D01*
X74157885Y-67488958D01*
X74264187Y-67622256D01*
X75846444Y-66039999D01*
X76553554Y-66039999D01*
X78135811Y-67622256D01*
X78242114Y-67488958D01*
X78391507Y-67251201D01*
X78513337Y-66998217D01*
X78513338Y-66998214D01*
X78606077Y-66733182D01*
X78668561Y-66459423D01*
X78699999Y-66180398D01*
X78700000Y-66180396D01*
X78700000Y-65899603D01*
X78699999Y-65899594D01*
X78699566Y-65895746D01*
X78699566Y-65895744D01*
X78698683Y-65887904D01*
X82769500Y-65887904D01*
X82769500Y-66192095D01*
X82809203Y-66493670D01*
X82809203Y-66493675D01*
X82854655Y-66663304D01*
X82887934Y-66787501D01*
X82887935Y-66787505D01*
X82887936Y-66787506D01*
X83004337Y-67068525D01*
X83004339Y-67068528D01*
X83004341Y-67068533D01*
X83127771Y-67282319D01*
X83156437Y-67331970D01*
X83341606Y-67573288D01*
X83341608Y-67573290D01*
X83341612Y-67573295D01*
X83556705Y-67788388D01*
X83556709Y-67788391D01*
X83556711Y-67788393D01*
X83639718Y-67852086D01*
X83798033Y-67973565D01*
X84061467Y-68125659D01*
X84342499Y-68242066D01*
X84636322Y-68320796D01*
X84937906Y-68360500D01*
X84937907Y-68360500D01*
X85242093Y-68360500D01*
X85242094Y-68360500D01*
X85543678Y-68320796D01*
X85837501Y-68242066D01*
X86118533Y-68125659D01*
X86381967Y-67973565D01*
X86623295Y-67788388D01*
X86838388Y-67573295D01*
X87023565Y-67331967D01*
X87175659Y-67068533D01*
X87223635Y-66952708D01*
X87236515Y-66921614D01*
X87276252Y-66875089D01*
X87327979Y-66860500D01*
X88887324Y-66860500D01*
X88945515Y-66879407D01*
X88978788Y-66921614D01*
X88991668Y-66952708D01*
X88991669Y-66952711D01*
X89083115Y-67071885D01*
X89202289Y-67163331D01*
X89202290Y-67163331D01*
X89202291Y-67163332D01*
X89341065Y-67220814D01*
X89341070Y-67220816D01*
X89452607Y-67235500D01*
X90452392Y-67235499D01*
X90563930Y-67220816D01*
X90702711Y-67163331D01*
X90821885Y-67071885D01*
X90913331Y-66952711D01*
X90970816Y-66813930D01*
X90985500Y-66702393D01*
X90985499Y-65377608D01*
X90970816Y-65266070D01*
X90926212Y-65158386D01*
X90913332Y-65127291D01*
X90913331Y-65127290D01*
X90913331Y-65127289D01*
X90821885Y-65008115D01*
X90702711Y-64916669D01*
X90702710Y-64916668D01*
X90702708Y-64916667D01*
X90563934Y-64859185D01*
X90563926Y-64859183D01*
X90452393Y-64844500D01*
X89452610Y-64844500D01*
X89452604Y-64844501D01*
X89341073Y-64859183D01*
X89341065Y-64859185D01*
X89202291Y-64916667D01*
X89083117Y-65008113D01*
X89083113Y-65008117D01*
X88991668Y-65127290D01*
X88978788Y-65158386D01*
X88939051Y-65204911D01*
X88887324Y-65219500D01*
X87327979Y-65219500D01*
X87269788Y-65200593D01*
X87236515Y-65158386D01*
X87175661Y-65011471D01*
X87173725Y-65008117D01*
X87023565Y-64748033D01*
X86948720Y-64650493D01*
X86838393Y-64506711D01*
X86838391Y-64506709D01*
X86838388Y-64506705D01*
X86623295Y-64291612D01*
X86623290Y-64291608D01*
X86623288Y-64291606D01*
X86381970Y-64106437D01*
X86378073Y-64104187D01*
X86118533Y-63954341D01*
X86118529Y-63954339D01*
X86118525Y-63954337D01*
X85837506Y-63837936D01*
X85837505Y-63837935D01*
X85837501Y-63837934D01*
X85543678Y-63759204D01*
X85543675Y-63759203D01*
X85543673Y-63759203D01*
X85242095Y-63719500D01*
X85242094Y-63719500D01*
X84937906Y-63719500D01*
X84937904Y-63719500D01*
X84636329Y-63759203D01*
X84636324Y-63759203D01*
X84342506Y-63837932D01*
X84342493Y-63837936D01*
X84061474Y-63954337D01*
X83798029Y-64106437D01*
X83556711Y-64291606D01*
X83341606Y-64506711D01*
X83156437Y-64748029D01*
X83004337Y-65011474D01*
X82887936Y-65292493D01*
X82887932Y-65292506D01*
X82809203Y-65586324D01*
X82809203Y-65586329D01*
X82769500Y-65887904D01*
X78698683Y-65887904D01*
X78668563Y-65620585D01*
X78668562Y-65620583D01*
X78606077Y-65346817D01*
X78513338Y-65081785D01*
X78513337Y-65081782D01*
X78391507Y-64828798D01*
X78242114Y-64591041D01*
X78135811Y-64457742D01*
X76553554Y-66039999D01*
X75846444Y-66039999D01*
X74264187Y-64457742D01*
X74157889Y-64591035D01*
X74157887Y-64591038D01*
X74008492Y-64828798D01*
X73886662Y-65081782D01*
X73886661Y-65081785D01*
X73793922Y-65346817D01*
X73731438Y-65620576D01*
X73700000Y-65899601D01*
X66040000Y-65899601D01*
X66040000Y-64104187D01*
X74617742Y-64104187D01*
X76199999Y-65686444D01*
X77782256Y-64104187D01*
X77648958Y-63997885D01*
X77411201Y-63848492D01*
X77158217Y-63726662D01*
X77158214Y-63726661D01*
X76893182Y-63633922D01*
X76619423Y-63571438D01*
X76340398Y-63540000D01*
X76059601Y-63540000D01*
X75780576Y-63571438D01*
X75506817Y-63633922D01*
X75241785Y-63726661D01*
X75241782Y-63726662D01*
X74988798Y-63848492D01*
X74751038Y-63997887D01*
X74751035Y-63997889D01*
X74617742Y-64104187D01*
X66040000Y-64104187D01*
X66040000Y-60232419D01*
X66058907Y-60174228D01*
X66108407Y-60138264D01*
X66169593Y-60138264D01*
X66219093Y-60174228D01*
X66233154Y-60201824D01*
X66271592Y-60320123D01*
X66351662Y-60477270D01*
X66455330Y-60619957D01*
X66580043Y-60744670D01*
X66722730Y-60848338D01*
X66879877Y-60928408D01*
X67047616Y-60982910D01*
X67047617Y-60982910D01*
X67047620Y-60982911D01*
X67221812Y-61010500D01*
X67221815Y-61010500D01*
X67398188Y-61010500D01*
X67572379Y-60982911D01*
X67572380Y-60982910D01*
X67572384Y-60982910D01*
X67740123Y-60928408D01*
X67897270Y-60848338D01*
X68039957Y-60744670D01*
X68164670Y-60619957D01*
X68268338Y-60477270D01*
X68348408Y-60320123D01*
X68402910Y-60152384D01*
X68402911Y-60152379D01*
X68430500Y-59978188D01*
X68430500Y-59401811D01*
X68729500Y-59401811D01*
X68729500Y-59978188D01*
X68757088Y-60152379D01*
X68770692Y-60194247D01*
X68811592Y-60320123D01*
X68891662Y-60477270D01*
X68995330Y-60619957D01*
X69120043Y-60744670D01*
X69262730Y-60848338D01*
X69419877Y-60928408D01*
X69587616Y-60982910D01*
X69587617Y-60982910D01*
X69587620Y-60982911D01*
X69761812Y-61010500D01*
X69761815Y-61010500D01*
X69938188Y-61010500D01*
X70112379Y-60982911D01*
X70112380Y-60982910D01*
X70112384Y-60982910D01*
X70280123Y-60928408D01*
X70437270Y-60848338D01*
X70579957Y-60744670D01*
X70704670Y-60619957D01*
X70808338Y-60477270D01*
X70888408Y-60320123D01*
X70942910Y-60152384D01*
X70942911Y-60152379D01*
X70970500Y-59978188D01*
X70970500Y-59401811D01*
X71269500Y-59401811D01*
X71269500Y-59978188D01*
X71297088Y-60152379D01*
X71310692Y-60194247D01*
X71351592Y-60320123D01*
X71431662Y-60477270D01*
X71535330Y-60619957D01*
X71660043Y-60744670D01*
X71802730Y-60848338D01*
X71959877Y-60928408D01*
X72127616Y-60982910D01*
X72127617Y-60982910D01*
X72127620Y-60982911D01*
X72301812Y-61010500D01*
X72301815Y-61010500D01*
X72478188Y-61010500D01*
X72652379Y-60982911D01*
X72652380Y-60982910D01*
X72652384Y-60982910D01*
X72820123Y-60928408D01*
X72977270Y-60848338D01*
X73119957Y-60744670D01*
X73244670Y-60619957D01*
X73348338Y-60477270D01*
X73428408Y-60320123D01*
X73482910Y-60152384D01*
X73482911Y-60152379D01*
X73510500Y-59978188D01*
X73510500Y-59401811D01*
X73809500Y-59401811D01*
X73809500Y-59978188D01*
X73837088Y-60152379D01*
X73850692Y-60194247D01*
X73891592Y-60320123D01*
X73971662Y-60477270D01*
X74075330Y-60619957D01*
X74200043Y-60744670D01*
X74342730Y-60848338D01*
X74499877Y-60928408D01*
X74667616Y-60982910D01*
X74667617Y-60982910D01*
X74667620Y-60982911D01*
X74841812Y-61010500D01*
X74841815Y-61010500D01*
X75018188Y-61010500D01*
X75192379Y-60982911D01*
X75192380Y-60982910D01*
X75192384Y-60982910D01*
X75360123Y-60928408D01*
X75517270Y-60848338D01*
X75659957Y-60744670D01*
X75784670Y-60619957D01*
X75888338Y-60477270D01*
X75968408Y-60320123D01*
X76022910Y-60152384D01*
X76022911Y-60152379D01*
X76050500Y-59978188D01*
X76050500Y-59401811D01*
X76349500Y-59401811D01*
X76349500Y-59978188D01*
X76377088Y-60152379D01*
X76390692Y-60194247D01*
X76431592Y-60320123D01*
X76511662Y-60477270D01*
X76615330Y-60619957D01*
X76740043Y-60744670D01*
X76882730Y-60848338D01*
X77039877Y-60928408D01*
X77207616Y-60982910D01*
X77207617Y-60982910D01*
X77207620Y-60982911D01*
X77381812Y-61010500D01*
X77381815Y-61010500D01*
X77558188Y-61010500D01*
X77732379Y-60982911D01*
X77732380Y-60982910D01*
X77732384Y-60982910D01*
X77900123Y-60928408D01*
X78057270Y-60848338D01*
X78199957Y-60744670D01*
X78324670Y-60619957D01*
X78428338Y-60477270D01*
X78508408Y-60320123D01*
X78562910Y-60152384D01*
X78562911Y-60152379D01*
X78590500Y-59978188D01*
X78590500Y-59401811D01*
X78889500Y-59401811D01*
X78889500Y-59978188D01*
X78917088Y-60152379D01*
X78930692Y-60194247D01*
X78971592Y-60320123D01*
X79051662Y-60477270D01*
X79155330Y-60619957D01*
X79280043Y-60744670D01*
X79422730Y-60848338D01*
X79579877Y-60928408D01*
X79747616Y-60982910D01*
X79747617Y-60982910D01*
X79747620Y-60982911D01*
X79921812Y-61010500D01*
X79921815Y-61010500D01*
X80098188Y-61010500D01*
X80272379Y-60982911D01*
X80272380Y-60982910D01*
X80272384Y-60982910D01*
X80440123Y-60928408D01*
X80597270Y-60848338D01*
X80739957Y-60744670D01*
X80864670Y-60619957D01*
X80968338Y-60477270D01*
X81048408Y-60320123D01*
X81091630Y-60187099D01*
X81127593Y-60137601D01*
X81185784Y-60118693D01*
X81243974Y-60137600D01*
X81279938Y-60187100D01*
X81281954Y-60194247D01*
X81345243Y-60389027D01*
X81438138Y-60571346D01*
X81558414Y-60736891D01*
X81703108Y-60881585D01*
X81868653Y-61001861D01*
X82050972Y-61094756D01*
X82245589Y-61157991D01*
X82245585Y-61157991D01*
X82299999Y-61166608D01*
X82300000Y-61166607D01*
X82300000Y-60065277D01*
X82376306Y-60109333D01*
X82490756Y-60140000D01*
X82609244Y-60140000D01*
X82723694Y-60109333D01*
X82800000Y-60065277D01*
X82800000Y-61166608D01*
X82854412Y-61157991D01*
X83049027Y-61094756D01*
X83231346Y-61001861D01*
X83396891Y-60881585D01*
X83541585Y-60736891D01*
X83661861Y-60571346D01*
X83754756Y-60389027D01*
X83819192Y-60190717D01*
X83820133Y-60191023D01*
X83849912Y-60142419D01*
X83906438Y-60118999D01*
X83965934Y-60133277D01*
X84005675Y-60179799D01*
X84008369Y-60187099D01*
X84051592Y-60320123D01*
X84131662Y-60477270D01*
X84235330Y-60619957D01*
X84360043Y-60744670D01*
X84502730Y-60848338D01*
X84659877Y-60928408D01*
X84827616Y-60982910D01*
X84827617Y-60982910D01*
X84827620Y-60982911D01*
X85001812Y-61010500D01*
X85001815Y-61010500D01*
X85178188Y-61010500D01*
X85352379Y-60982911D01*
X85352380Y-60982910D01*
X85352384Y-60982910D01*
X85520123Y-60928408D01*
X85677270Y-60848338D01*
X85819957Y-60744670D01*
X85944670Y-60619957D01*
X85994546Y-60551308D01*
X86044045Y-60515345D01*
X86074638Y-60510500D01*
X96615226Y-60510500D01*
X96673417Y-60529407D01*
X96685230Y-60539496D01*
X97226048Y-61080314D01*
X97253825Y-61134831D01*
X97255044Y-61150318D01*
X97255044Y-61514640D01*
X97236137Y-61572831D01*
X97216311Y-61593182D01*
X97118663Y-61668109D01*
X97118653Y-61668119D01*
X97027213Y-61787286D01*
X97027211Y-61787291D01*
X96969729Y-61926065D01*
X96969727Y-61926073D01*
X96955044Y-62037605D01*
X96955044Y-63212394D01*
X96969727Y-63323926D01*
X96969729Y-63323934D01*
X97027211Y-63462708D01*
X97027213Y-63462713D01*
X97110641Y-63571438D01*
X97118658Y-63581886D01*
X97118661Y-63581888D01*
X97118663Y-63581890D01*
X97216311Y-63656818D01*
X97250967Y-63707242D01*
X97255044Y-63735360D01*
X97255044Y-64172405D01*
X97236137Y-64230596D01*
X97226048Y-64242409D01*
X96277954Y-65190504D01*
X96223437Y-65218281D01*
X96207950Y-65219500D01*
X93992676Y-65219500D01*
X93934485Y-65200593D01*
X93901212Y-65158386D01*
X93896788Y-65147707D01*
X93888331Y-65127289D01*
X93796885Y-65008115D01*
X93677711Y-64916669D01*
X93677710Y-64916668D01*
X93677708Y-64916667D01*
X93538934Y-64859185D01*
X93538926Y-64859183D01*
X93427393Y-64844500D01*
X92427610Y-64844500D01*
X92427604Y-64844501D01*
X92316073Y-64859183D01*
X92316065Y-64859185D01*
X92177291Y-64916667D01*
X92058117Y-65008113D01*
X92058113Y-65008117D01*
X91966667Y-65127291D01*
X91909185Y-65266065D01*
X91909183Y-65266073D01*
X91894500Y-65377605D01*
X91894500Y-66702389D01*
X91894501Y-66702395D01*
X91909183Y-66813926D01*
X91909185Y-66813934D01*
X91966667Y-66952708D01*
X91966668Y-66952709D01*
X91966669Y-66952711D01*
X92058115Y-67071885D01*
X92177289Y-67163331D01*
X92177290Y-67163331D01*
X92177291Y-67163332D01*
X92316065Y-67220814D01*
X92316070Y-67220816D01*
X92427607Y-67235500D01*
X93427392Y-67235499D01*
X93538930Y-67220816D01*
X93677711Y-67163331D01*
X93796885Y-67071885D01*
X93888331Y-66952711D01*
X93898541Y-66928059D01*
X93901212Y-66921614D01*
X93940949Y-66875089D01*
X93992676Y-66860500D01*
X96669631Y-66860500D01*
X96669632Y-66860500D01*
X96828152Y-66828969D01*
X96977473Y-66767118D01*
X97111858Y-66677324D01*
X98005541Y-65783640D01*
X98060056Y-65755865D01*
X98120488Y-65765436D01*
X98145547Y-65783642D01*
X98574856Y-66212951D01*
X99039229Y-66677324D01*
X99114164Y-66727394D01*
X99173608Y-66767114D01*
X99173610Y-66767115D01*
X99173615Y-66767118D01*
X99222825Y-66787501D01*
X99222826Y-66787502D01*
X99308272Y-66822894D01*
X99322937Y-66828969D01*
X99449924Y-66854227D01*
X99481455Y-66860500D01*
X99481456Y-66860500D01*
X105606969Y-66860500D01*
X105665160Y-66879407D01*
X105698433Y-66921615D01*
X105721667Y-66977708D01*
X105721669Y-66977713D01*
X105813109Y-67096880D01*
X105813114Y-67096886D01*
X105813118Y-67096889D01*
X105813119Y-67096890D01*
X105932286Y-67188330D01*
X105932287Y-67188330D01*
X105932288Y-67188331D01*
X106071070Y-67245816D01*
X106182606Y-67260500D01*
X106182607Y-67260500D01*
X108257393Y-67260500D01*
X108257394Y-67260500D01*
X108368930Y-67245816D01*
X108507712Y-67188331D01*
X108626886Y-67096886D01*
X108718331Y-66977712D01*
X108775816Y-66838930D01*
X108790500Y-66727394D01*
X108790500Y-66290001D01*
X109470001Y-66290001D01*
X109470001Y-66739986D01*
X109480492Y-66842687D01*
X109480495Y-66842699D01*
X109535643Y-67009124D01*
X109627680Y-67158340D01*
X109751659Y-67282319D01*
X109900875Y-67374356D01*
X110067306Y-67429506D01*
X110170012Y-67439999D01*
X110969998Y-67439999D01*
X110970000Y-67439998D01*
X110970000Y-66290001D01*
X111470000Y-66290001D01*
X111470000Y-67439998D01*
X111470001Y-67439999D01*
X112269986Y-67439999D01*
X112372687Y-67429507D01*
X112372699Y-67429504D01*
X112539124Y-67374356D01*
X112688340Y-67282319D01*
X112812319Y-67158340D01*
X112904356Y-67009124D01*
X112959506Y-66842693D01*
X112970000Y-66739987D01*
X112970000Y-66290001D01*
X112969999Y-66290000D01*
X111470001Y-66290000D01*
X111470000Y-66290001D01*
X110970000Y-66290001D01*
X110969999Y-66290000D01*
X109470002Y-66290000D01*
X109470001Y-66290001D01*
X108790500Y-66290001D01*
X108790500Y-65867041D01*
X115859500Y-65867041D01*
X115859500Y-66212958D01*
X115893403Y-66557184D01*
X115960886Y-66896445D01*
X116061292Y-67227442D01*
X116193663Y-67547014D01*
X116193676Y-67547041D01*
X116356724Y-67852082D01*
X116356726Y-67852086D01*
X116548894Y-68139686D01*
X116704876Y-68329750D01*
X116768335Y-68407075D01*
X117012925Y-68651665D01*
X117280311Y-68871103D01*
X117280314Y-68871105D01*
X117280313Y-68871105D01*
X117567913Y-69063273D01*
X117567917Y-69063275D01*
X117716608Y-69142752D01*
X117872977Y-69226333D01*
X118192549Y-69358704D01*
X118192551Y-69358704D01*
X118192557Y-69358707D01*
X118478654Y-69445492D01*
X118523557Y-69459114D01*
X118862812Y-69526596D01*
X118901060Y-69530363D01*
X119207041Y-69560500D01*
X119207049Y-69560500D01*
X119552959Y-69560500D01*
X119782442Y-69537897D01*
X119897188Y-69526596D01*
X120236443Y-69459114D01*
X120432743Y-69399567D01*
X120567442Y-69358707D01*
X120567444Y-69358705D01*
X120567451Y-69358704D01*
X120887023Y-69226333D01*
X121192082Y-69063275D01*
X121192086Y-69063273D01*
X121479686Y-68871105D01*
X121479685Y-68871105D01*
X121479689Y-68871103D01*
X121747075Y-68651665D01*
X121991665Y-68407075D01*
X122211103Y-68139689D01*
X122249573Y-68082114D01*
X122403273Y-67852086D01*
X122403275Y-67852082D01*
X122552294Y-67573288D01*
X122566333Y-67547023D01*
X122698704Y-67227451D01*
X122700718Y-67220814D01*
X122746914Y-67068525D01*
X122799114Y-66896443D01*
X122866596Y-66557188D01*
X122882712Y-66393554D01*
X122900500Y-66212958D01*
X122900500Y-65867041D01*
X122866596Y-65522815D01*
X122866596Y-65522812D01*
X122799114Y-65183557D01*
X122764932Y-65070875D01*
X122698707Y-64852557D01*
X122691097Y-64834183D01*
X122566333Y-64532977D01*
X122566323Y-64532958D01*
X122403275Y-64227917D01*
X122403273Y-64227913D01*
X122211105Y-63940313D01*
X122017557Y-63704475D01*
X121991665Y-63672925D01*
X121747075Y-63428335D01*
X121479689Y-63208897D01*
X121479685Y-63208894D01*
X121479686Y-63208894D01*
X121192086Y-63016726D01*
X121192082Y-63016724D01*
X120887041Y-62853676D01*
X120887029Y-62853670D01*
X120887023Y-62853667D01*
X120887018Y-62853664D01*
X120887014Y-62853663D01*
X120567442Y-62721292D01*
X120236445Y-62620886D01*
X119992381Y-62572339D01*
X119897188Y-62553404D01*
X119897186Y-62553403D01*
X119552959Y-62519500D01*
X119552951Y-62519500D01*
X119207049Y-62519500D01*
X119207041Y-62519500D01*
X118862815Y-62553403D01*
X118523554Y-62620886D01*
X118192557Y-62721292D01*
X117872985Y-62853663D01*
X117872958Y-62853676D01*
X117567917Y-63016724D01*
X117567913Y-63016726D01*
X117280313Y-63208894D01*
X117012930Y-63428330D01*
X116768330Y-63672930D01*
X116548894Y-63940313D01*
X116356726Y-64227913D01*
X116356724Y-64227917D01*
X116193676Y-64532958D01*
X116193663Y-64532985D01*
X116061292Y-64852557D01*
X115960886Y-65183554D01*
X115893403Y-65522815D01*
X115859500Y-65867041D01*
X108790500Y-65867041D01*
X108790500Y-65352606D01*
X108788842Y-65340012D01*
X109470000Y-65340012D01*
X109470000Y-65789999D01*
X109470001Y-65790000D01*
X110969999Y-65790000D01*
X110970000Y-65789999D01*
X110970000Y-64640001D01*
X111470000Y-64640001D01*
X111470000Y-65789999D01*
X111470001Y-65790000D01*
X112969998Y-65790000D01*
X112969999Y-65789999D01*
X112969999Y-65340013D01*
X112959507Y-65237312D01*
X112959504Y-65237300D01*
X112904356Y-65070875D01*
X112812319Y-64921659D01*
X112688340Y-64797680D01*
X112539124Y-64705643D01*
X112372693Y-64650493D01*
X112269987Y-64640000D01*
X111470001Y-64640000D01*
X111470000Y-64640001D01*
X110970000Y-64640001D01*
X110969999Y-64640000D01*
X110170013Y-64640000D01*
X110067312Y-64650492D01*
X110067300Y-64650495D01*
X109900875Y-64705643D01*
X109751659Y-64797680D01*
X109627680Y-64921659D01*
X109535643Y-65070875D01*
X109480493Y-65237306D01*
X109470000Y-65340012D01*
X108788842Y-65340012D01*
X108775816Y-65241070D01*
X108718331Y-65102288D01*
X108718330Y-65102287D01*
X108718330Y-65102286D01*
X108626890Y-64983119D01*
X108626889Y-64983118D01*
X108626886Y-64983114D01*
X108626881Y-64983110D01*
X108626880Y-64983109D01*
X108507713Y-64891669D01*
X108507708Y-64891667D01*
X108368934Y-64834185D01*
X108368926Y-64834183D01*
X108257394Y-64819500D01*
X107859500Y-64819500D01*
X107801309Y-64800593D01*
X107765345Y-64751093D01*
X107760500Y-64720500D01*
X107760500Y-64494890D01*
X107779407Y-64436699D01*
X107789490Y-64424892D01*
X108720658Y-63493723D01*
X108775173Y-63465948D01*
X108835605Y-63475519D01*
X108845660Y-63481412D01*
X108878715Y-63503499D01*
X108878716Y-63503499D01*
X108878717Y-63503500D01*
X108944276Y-63530655D01*
X109009838Y-63557811D01*
X109149037Y-63585500D01*
X109149038Y-63585500D01*
X109290962Y-63585500D01*
X109290963Y-63585500D01*
X109430162Y-63557811D01*
X109561285Y-63503499D01*
X109679292Y-63424649D01*
X109779649Y-63324292D01*
X109858499Y-63206285D01*
X109912811Y-63075162D01*
X109940500Y-62935963D01*
X109940500Y-62794037D01*
X109912811Y-62654838D01*
X109894707Y-62611130D01*
X109858501Y-62523719D01*
X109858495Y-62523708D01*
X109779649Y-62405708D01*
X109679291Y-62305350D01*
X109561291Y-62226504D01*
X109561280Y-62226498D01*
X109430163Y-62172189D01*
X109290963Y-62144500D01*
X109149037Y-62144500D01*
X109149036Y-62144500D01*
X109009836Y-62172189D01*
X108878719Y-62226498D01*
X108878708Y-62226504D01*
X108781285Y-62291601D01*
X108760708Y-62305351D01*
X108760706Y-62305352D01*
X108757021Y-62307815D01*
X108702019Y-62324500D01*
X108662238Y-62324500D01*
X108662222Y-62324499D01*
X108656159Y-62324499D01*
X108513842Y-62324499D01*
X108513839Y-62324499D01*
X108376378Y-62361332D01*
X108253125Y-62432492D01*
X106888125Y-63797492D01*
X106888124Y-63797491D01*
X106787494Y-63898122D01*
X106787492Y-63898124D01*
X106787492Y-63898125D01*
X106716334Y-64021375D01*
X106693543Y-64106435D01*
X106679500Y-64158843D01*
X106679500Y-64720500D01*
X106660593Y-64778691D01*
X106611093Y-64814655D01*
X106580500Y-64819500D01*
X106182605Y-64819500D01*
X106071073Y-64834183D01*
X106071065Y-64834185D01*
X105932291Y-64891667D01*
X105932286Y-64891669D01*
X105813119Y-64983109D01*
X105813109Y-64983119D01*
X105721669Y-65102286D01*
X105721667Y-65102291D01*
X105698433Y-65158385D01*
X105658697Y-65204911D01*
X105606969Y-65219500D01*
X99943139Y-65219500D01*
X99884948Y-65200593D01*
X99873135Y-65190504D01*
X98925040Y-64242409D01*
X98897263Y-64187892D01*
X98896044Y-64172405D01*
X98896044Y-63735360D01*
X98900498Y-63721650D01*
X98900121Y-63707243D01*
X98909715Y-63693282D01*
X98914951Y-63677169D01*
X98934776Y-63656818D01*
X98964615Y-63633922D01*
X99032430Y-63581886D01*
X99123875Y-63462712D01*
X99181360Y-63323930D01*
X99196044Y-63212394D01*
X99196044Y-62522684D01*
X100275544Y-62522684D01*
X100275544Y-62727315D01*
X100307552Y-62929412D01*
X100370787Y-63124027D01*
X100463683Y-63306348D01*
X100463687Y-63306353D01*
X100496067Y-63350920D01*
X100496068Y-63350920D01*
X101175544Y-62671444D01*
X101175544Y-62677661D01*
X101202803Y-62779394D01*
X101255464Y-62870606D01*
X101329938Y-62945080D01*
X101421150Y-62997741D01*
X101522883Y-63025000D01*
X101529097Y-63025000D01*
X100849622Y-63704475D01*
X100894191Y-63736858D01*
X101076516Y-63829756D01*
X101271131Y-63892991D01*
X101473229Y-63925000D01*
X101677859Y-63925000D01*
X101879956Y-63892991D01*
X102074571Y-63829756D01*
X102256886Y-63736863D01*
X102256894Y-63736858D01*
X102301464Y-63704475D01*
X101621989Y-63025000D01*
X101628205Y-63025000D01*
X101729938Y-62997741D01*
X101821150Y-62945080D01*
X101895624Y-62870606D01*
X101948285Y-62779394D01*
X101975544Y-62677661D01*
X101975544Y-62671445D01*
X102655019Y-63350920D01*
X102687402Y-63306350D01*
X102687407Y-63306342D01*
X102780300Y-63124027D01*
X102843535Y-62929412D01*
X102875544Y-62727315D01*
X102875544Y-62522684D01*
X102843535Y-62320587D01*
X102780300Y-62125972D01*
X102687402Y-61943647D01*
X102655019Y-61899078D01*
X101975544Y-62578553D01*
X101975544Y-62572339D01*
X101948285Y-62470606D01*
X101895624Y-62379394D01*
X101821150Y-62304920D01*
X101729938Y-62252259D01*
X101628205Y-62225000D01*
X101621989Y-62225000D01*
X102301464Y-61545524D01*
X102301464Y-61545523D01*
X102256897Y-61513143D01*
X102256892Y-61513139D01*
X102074571Y-61420243D01*
X101879956Y-61357008D01*
X101677859Y-61325000D01*
X101473229Y-61325000D01*
X101271131Y-61357008D01*
X101076516Y-61420243D01*
X100894195Y-61513139D01*
X100894191Y-61513141D01*
X100849622Y-61545523D01*
X101529099Y-62225000D01*
X101522883Y-62225000D01*
X101421150Y-62252259D01*
X101329938Y-62304920D01*
X101255464Y-62379394D01*
X101202803Y-62470606D01*
X101175544Y-62572339D01*
X101175544Y-62578555D01*
X100496067Y-61899078D01*
X100463685Y-61943647D01*
X100463683Y-61943651D01*
X100370787Y-62125972D01*
X100307552Y-62320587D01*
X100275544Y-62522684D01*
X99196044Y-62522684D01*
X99196044Y-62037606D01*
X99181360Y-61926070D01*
X99123875Y-61787288D01*
X99123874Y-61787287D01*
X99123874Y-61787286D01*
X99032434Y-61668119D01*
X99032433Y-61668118D01*
X99032430Y-61668114D01*
X99024197Y-61661796D01*
X98934777Y-61593182D01*
X98900121Y-61542758D01*
X98896044Y-61514640D01*
X98896044Y-60688636D01*
X98896043Y-60688633D01*
X98864513Y-60530117D01*
X98858395Y-60515345D01*
X98856389Y-60510501D01*
X98802662Y-60380795D01*
X98712868Y-60246410D01*
X97519133Y-59052675D01*
X97384748Y-58962881D01*
X97235426Y-58901030D01*
X97076910Y-58869500D01*
X97076908Y-58869500D01*
X86074638Y-58869500D01*
X86016447Y-58850593D01*
X85994547Y-58828693D01*
X85944670Y-58760043D01*
X85819957Y-58635330D01*
X85677270Y-58531662D01*
X85677269Y-58531661D01*
X85677267Y-58531660D01*
X85520123Y-58451592D01*
X85352379Y-58397088D01*
X85178188Y-58369500D01*
X85178185Y-58369500D01*
X85001815Y-58369500D01*
X85001812Y-58369500D01*
X84827620Y-58397088D01*
X84659876Y-58451592D01*
X84502732Y-58531660D01*
X84360044Y-58635329D01*
X84235329Y-58760044D01*
X84131660Y-58902732D01*
X84051590Y-59059880D01*
X84051588Y-59059883D01*
X84008369Y-59192899D01*
X83972405Y-59242399D01*
X83914215Y-59261306D01*
X83856024Y-59242398D01*
X83820060Y-59192898D01*
X83818049Y-59185765D01*
X83754756Y-58990972D01*
X83661861Y-58808653D01*
X83541585Y-58643108D01*
X83396891Y-58498414D01*
X83231346Y-58378138D01*
X83049027Y-58285243D01*
X82854414Y-58222009D01*
X82800000Y-58213390D01*
X82800000Y-59314722D01*
X82723694Y-59270667D01*
X82609244Y-59240000D01*
X82490756Y-59240000D01*
X82376306Y-59270667D01*
X82300000Y-59314722D01*
X82300000Y-58213391D01*
X82299999Y-58213390D01*
X82245585Y-58222009D01*
X82050972Y-58285243D01*
X81868653Y-58378138D01*
X81703108Y-58498414D01*
X81558414Y-58643108D01*
X81438138Y-58808653D01*
X81345243Y-58990972D01*
X81280808Y-59189283D01*
X81279872Y-59188979D01*
X81250062Y-59237601D01*
X81193529Y-59261003D01*
X81134037Y-59246706D01*
X81094311Y-59200171D01*
X81091632Y-59192906D01*
X81048408Y-59059877D01*
X80968338Y-58902730D01*
X80864670Y-58760043D01*
X80739957Y-58635330D01*
X80597270Y-58531662D01*
X80597269Y-58531661D01*
X80597267Y-58531660D01*
X80440123Y-58451592D01*
X80272379Y-58397088D01*
X80098188Y-58369500D01*
X80098185Y-58369500D01*
X79921815Y-58369500D01*
X79921812Y-58369500D01*
X79747620Y-58397088D01*
X79579876Y-58451592D01*
X79422732Y-58531660D01*
X79280044Y-58635329D01*
X79155329Y-58760044D01*
X79051660Y-58902732D01*
X78971592Y-59059876D01*
X78917088Y-59227620D01*
X78889500Y-59401811D01*
X78590500Y-59401811D01*
X78562911Y-59227620D01*
X78562910Y-59227616D01*
X78508408Y-59059877D01*
X78428338Y-58902730D01*
X78324670Y-58760043D01*
X78199957Y-58635330D01*
X78188953Y-58627335D01*
X78152990Y-58577836D01*
X78152991Y-58516651D01*
X78177139Y-58477242D01*
X78934886Y-57719496D01*
X78989403Y-57691719D01*
X79004890Y-57690500D01*
X101335109Y-57690500D01*
X101393300Y-57709407D01*
X101405113Y-57719496D01*
X104316125Y-60630508D01*
X104439375Y-60701666D01*
X104576842Y-60738500D01*
X104576844Y-60738500D01*
X113545656Y-60738500D01*
X113545658Y-60738500D01*
X113683125Y-60701666D01*
X113806375Y-60630508D01*
X116277235Y-58159646D01*
X116331750Y-58131871D01*
X116392182Y-58141442D01*
X116435447Y-58184707D01*
X116444335Y-58210337D01*
X116464689Y-58312663D01*
X116518998Y-58443780D01*
X116519004Y-58443791D01*
X116597850Y-58561791D01*
X116698208Y-58662149D01*
X116816208Y-58740995D01*
X116816219Y-58741001D01*
X116858061Y-58758332D01*
X116947338Y-58795311D01*
X117086537Y-58823000D01*
X117086538Y-58823000D01*
X117228462Y-58823000D01*
X117228463Y-58823000D01*
X117367662Y-58795311D01*
X117498785Y-58740999D01*
X117549391Y-58707184D01*
X117604393Y-58690500D01*
X118325253Y-58690500D01*
X118383444Y-58709407D01*
X118416717Y-58751614D01*
X118431668Y-58787711D01*
X118431669Y-58787713D01*
X118523109Y-58906880D01*
X118523114Y-58906886D01*
X118523118Y-58906889D01*
X118523119Y-58906890D01*
X118642286Y-58998330D01*
X118642287Y-58998330D01*
X118642288Y-58998331D01*
X118781070Y-59055816D01*
X118892606Y-59070500D01*
X118892607Y-59070500D01*
X119867393Y-59070500D01*
X119867394Y-59070500D01*
X119978930Y-59055816D01*
X120117712Y-58998331D01*
X120236886Y-58906886D01*
X120328331Y-58787712D01*
X120385816Y-58648930D01*
X120400500Y-58537394D01*
X120400500Y-57762606D01*
X120385816Y-57651070D01*
X120328331Y-57512288D01*
X120328330Y-57512287D01*
X120328330Y-57512286D01*
X120236890Y-57393119D01*
X120236889Y-57393118D01*
X120236886Y-57393114D01*
X120236881Y-57393110D01*
X120236880Y-57393109D01*
X120117713Y-57301669D01*
X120117708Y-57301667D01*
X119972936Y-57241701D01*
X119974067Y-57238969D01*
X119933007Y-57212314D01*
X119911072Y-57155195D01*
X119926900Y-57096093D01*
X119973092Y-57058676D01*
X119972936Y-57058299D01*
X119974208Y-57057772D01*
X119974444Y-57057581D01*
X119975489Y-57057241D01*
X119978928Y-57055816D01*
X119978930Y-57055816D01*
X120117712Y-56998331D01*
X120236886Y-56906886D01*
X120328331Y-56787712D01*
X120385816Y-56648930D01*
X120400500Y-56537394D01*
X120400500Y-55762606D01*
X120385816Y-55651070D01*
X120383853Y-55646332D01*
X120328332Y-55512291D01*
X120328330Y-55512286D01*
X120236890Y-55393119D01*
X120236889Y-55393118D01*
X120236886Y-55393114D01*
X120236881Y-55393110D01*
X120236880Y-55393109D01*
X120117713Y-55301669D01*
X120117710Y-55301668D01*
X119981614Y-55245295D01*
X119935088Y-55205558D01*
X119920500Y-55153831D01*
X119920500Y-53329500D01*
X119939407Y-53271309D01*
X119988907Y-53235345D01*
X120019500Y-53230500D01*
X120167552Y-53230500D01*
X120167554Y-53230500D01*
X120214231Y-53224355D01*
X120316667Y-53176588D01*
X120396588Y-53096667D01*
X120444355Y-52994231D01*
X120450500Y-52947554D01*
X120450500Y-51372446D01*
X120444355Y-51325769D01*
X120396588Y-51223333D01*
X120316667Y-51143412D01*
X120316665Y-51143411D01*
X120316664Y-51143410D01*
X120214233Y-51095645D01*
X120183113Y-51091548D01*
X120167554Y-51089500D01*
X118592446Y-51089500D01*
X118576887Y-51091548D01*
X118545767Y-51095645D01*
X118545766Y-51095645D01*
X118443335Y-51143410D01*
X118443333Y-51143411D01*
X118443333Y-51143412D01*
X118438501Y-51148243D01*
X118383987Y-51176019D01*
X118323555Y-51166448D01*
X118280290Y-51123183D01*
X118269500Y-51078238D01*
X118269500Y-45651775D01*
X118288407Y-45593584D01*
X118337907Y-45557620D01*
X118399093Y-45557620D01*
X118403097Y-45559017D01*
X118522621Y-45603596D01*
X118522629Y-45603598D01*
X118582176Y-45610000D01*
X119129999Y-45610000D01*
X119130000Y-45609999D01*
X119130000Y-44610001D01*
X119630000Y-44610001D01*
X119630000Y-45609999D01*
X119630001Y-45610000D01*
X120177824Y-45610000D01*
X120237370Y-45603598D01*
X120237381Y-45603596D01*
X120372088Y-45553353D01*
X120372090Y-45553352D01*
X120487184Y-45467192D01*
X120487192Y-45467184D01*
X120573352Y-45352090D01*
X120573353Y-45352088D01*
X120623596Y-45217381D01*
X120623598Y-45217370D01*
X120630000Y-45157824D01*
X120630000Y-44610001D01*
X120629999Y-44610000D01*
X119630001Y-44610000D01*
X119630000Y-44610001D01*
X119130000Y-44610001D01*
X119130000Y-43110001D01*
X119630000Y-43110001D01*
X119630000Y-44109999D01*
X119630001Y-44110000D01*
X120629999Y-44110000D01*
X120630000Y-44109999D01*
X120630000Y-43562175D01*
X120623598Y-43502629D01*
X120623596Y-43502618D01*
X120573353Y-43367911D01*
X120573352Y-43367909D01*
X120487192Y-43252815D01*
X120487184Y-43252807D01*
X120372090Y-43166647D01*
X120372088Y-43166646D01*
X120237381Y-43116403D01*
X120237370Y-43116401D01*
X120177824Y-43110000D01*
X119630001Y-43110000D01*
X119630000Y-43110001D01*
X119130000Y-43110001D01*
X119129999Y-43110000D01*
X118582176Y-43110000D01*
X118522629Y-43116401D01*
X118522618Y-43116403D01*
X118403096Y-43160982D01*
X118341967Y-43163602D01*
X118290972Y-43129791D01*
X118269591Y-43072463D01*
X118269500Y-43068224D01*
X118269500Y-38682843D01*
X118268178Y-38677909D01*
X118232666Y-38545375D01*
X118161508Y-38422125D01*
X118161505Y-38422122D01*
X118060875Y-38321491D01*
X118060875Y-38321492D01*
X116553459Y-36814076D01*
X116526365Y-36763386D01*
X116525500Y-36759036D01*
X116497811Y-36619838D01*
X116479707Y-36576130D01*
X116443501Y-36488719D01*
X116443495Y-36488708D01*
X116364649Y-36370708D01*
X116264291Y-36270350D01*
X116146291Y-36191504D01*
X116146280Y-36191498D01*
X116015163Y-36137189D01*
X115875963Y-36109500D01*
X115734037Y-36109500D01*
X115734034Y-36109500D01*
X115593814Y-36137392D01*
X115533053Y-36130200D01*
X115488123Y-36088668D01*
X115475500Y-36040294D01*
X115475500Y-30307041D01*
X115859500Y-30307041D01*
X115859500Y-30652958D01*
X115893403Y-30997184D01*
X115960886Y-31336445D01*
X116061292Y-31667442D01*
X116193663Y-31987014D01*
X116193676Y-31987041D01*
X116356724Y-32292082D01*
X116356726Y-32292086D01*
X116548894Y-32579686D01*
X116750220Y-32825002D01*
X116768335Y-32847075D01*
X117012925Y-33091665D01*
X117280311Y-33311103D01*
X117280314Y-33311105D01*
X117280313Y-33311105D01*
X117567913Y-33503273D01*
X117567917Y-33503275D01*
X117872958Y-33666323D01*
X117872977Y-33666333D01*
X118192549Y-33798704D01*
X118192551Y-33798704D01*
X118192557Y-33798707D01*
X118459884Y-33879799D01*
X118523557Y-33899114D01*
X118862812Y-33966596D01*
X118901060Y-33970363D01*
X119207041Y-34000500D01*
X119207049Y-34000500D01*
X119552959Y-34000500D01*
X119782442Y-33977897D01*
X119897188Y-33966596D01*
X120236443Y-33899114D01*
X120432743Y-33839567D01*
X120567442Y-33798707D01*
X120567444Y-33798705D01*
X120567451Y-33798704D01*
X120887023Y-33666333D01*
X121192082Y-33503275D01*
X121192086Y-33503273D01*
X121479686Y-33311105D01*
X121479685Y-33311105D01*
X121479689Y-33311103D01*
X121747075Y-33091665D01*
X121991665Y-32847075D01*
X122211103Y-32579689D01*
X122240982Y-32534972D01*
X122403273Y-32292086D01*
X122403275Y-32292082D01*
X122465943Y-32174838D01*
X122566333Y-31987023D01*
X122698704Y-31667451D01*
X122799114Y-31336443D01*
X122866596Y-30997188D01*
X122883703Y-30823500D01*
X122900500Y-30652958D01*
X122900500Y-30307041D01*
X122875842Y-30056694D01*
X122866596Y-29962812D01*
X122799114Y-29623557D01*
X122763039Y-29504634D01*
X122698707Y-29292557D01*
X122685905Y-29261649D01*
X122566333Y-28972977D01*
X122561566Y-28964058D01*
X122403275Y-28667917D01*
X122403273Y-28667913D01*
X122211105Y-28380313D01*
X122015417Y-28141867D01*
X121991665Y-28112925D01*
X121747075Y-27868335D01*
X121733197Y-27856946D01*
X121611365Y-27756961D01*
X121479689Y-27648897D01*
X121479685Y-27648894D01*
X121479686Y-27648894D01*
X121192086Y-27456726D01*
X121192082Y-27456724D01*
X120887041Y-27293676D01*
X120887029Y-27293670D01*
X120887023Y-27293667D01*
X120887018Y-27293664D01*
X120887014Y-27293663D01*
X120567442Y-27161292D01*
X120236445Y-27060886D01*
X120008189Y-27015483D01*
X119897188Y-26993404D01*
X119897186Y-26993403D01*
X119552959Y-26959500D01*
X119552951Y-26959500D01*
X119207049Y-26959500D01*
X119207041Y-26959500D01*
X118862815Y-26993403D01*
X118523554Y-27060886D01*
X118192557Y-27161292D01*
X117872985Y-27293663D01*
X117872958Y-27293676D01*
X117567917Y-27456724D01*
X117567913Y-27456726D01*
X117280313Y-27648894D01*
X117012930Y-27868330D01*
X116768330Y-28112930D01*
X116548894Y-28380313D01*
X116356726Y-28667913D01*
X116356724Y-28667917D01*
X116193676Y-28972958D01*
X116193663Y-28972985D01*
X116061292Y-29292557D01*
X115960886Y-29623554D01*
X115893403Y-29962815D01*
X115859500Y-30307041D01*
X115475500Y-30307041D01*
X115475500Y-29138844D01*
X115475498Y-29138836D01*
X115473999Y-29133241D01*
X115473999Y-29133239D01*
X115438666Y-29001374D01*
X115387159Y-28912162D01*
X115367508Y-28878125D01*
X115266875Y-28777492D01*
X115266872Y-28777490D01*
X113996875Y-27507492D01*
X113873625Y-27436334D01*
X113736158Y-27399500D01*
X113736156Y-27399500D01*
X110276414Y-27399500D01*
X110218223Y-27380593D01*
X110217158Y-27379807D01*
X110207805Y-27372806D01*
X110207804Y-27372805D01*
X110207802Y-27372804D01*
X110109411Y-27336106D01*
X110081040Y-27325525D01*
X110081036Y-27325524D01*
X110081034Y-27325524D01*
X110051676Y-27322368D01*
X110025000Y-27319500D01*
X108285000Y-27319500D01*
X108261977Y-27321975D01*
X108228965Y-27325524D01*
X108228961Y-27325524D01*
X108228960Y-27325525D01*
X108228957Y-27325525D01*
X108228957Y-27325526D01*
X108102195Y-27372805D01*
X107993887Y-27453882D01*
X107993882Y-27453887D01*
X107912805Y-27562195D01*
X107865526Y-27688957D01*
X107865524Y-27688965D01*
X107859500Y-27745002D01*
X107859500Y-28116109D01*
X107852336Y-28138156D01*
X107848710Y-28161054D01*
X107843061Y-28166702D01*
X107840593Y-28174300D01*
X107821836Y-28187927D01*
X107805445Y-28204319D01*
X107797555Y-28205568D01*
X107791093Y-28210264D01*
X107767908Y-28210264D01*
X107745013Y-28213890D01*
X107737896Y-28210264D01*
X107729907Y-28210264D01*
X107690496Y-28186113D01*
X107555459Y-28051076D01*
X107528365Y-28000386D01*
X107507633Y-27896163D01*
X107499811Y-27856838D01*
X107458442Y-27756963D01*
X107445501Y-27725719D01*
X107445495Y-27725708D01*
X107366649Y-27607708D01*
X107266291Y-27507350D01*
X107148291Y-27428504D01*
X107148280Y-27428498D01*
X107017163Y-27374189D01*
X106877963Y-27346500D01*
X106736037Y-27346500D01*
X106736036Y-27346500D01*
X106596836Y-27374189D01*
X106465719Y-27428498D01*
X106465708Y-27428504D01*
X106347708Y-27507350D01*
X106247350Y-27607708D01*
X106168504Y-27725708D01*
X106168498Y-27725719D01*
X106114189Y-27856836D01*
X106086500Y-27996036D01*
X106086500Y-28137963D01*
X106114189Y-28277163D01*
X106168498Y-28408280D01*
X106168504Y-28408291D01*
X106247350Y-28526291D01*
X106347708Y-28626649D01*
X106465708Y-28705495D01*
X106465719Y-28705501D01*
X106502629Y-28720789D01*
X106596838Y-28759811D01*
X106736037Y-28787500D01*
X106736038Y-28787500D01*
X106740386Y-28788365D01*
X106791076Y-28815459D01*
X107517490Y-29541872D01*
X107517492Y-29541875D01*
X107618125Y-29642508D01*
X107659423Y-29666351D01*
X107741374Y-29713666D01*
X107808495Y-29731650D01*
X107815501Y-29734749D01*
X107832853Y-29750294D01*
X107852399Y-29762987D01*
X107855217Y-29770329D01*
X107861074Y-29775576D01*
X107865975Y-29798353D01*
X107874326Y-29820108D01*
X107872290Y-29827704D01*
X107873945Y-29835392D01*
X107864520Y-29856703D01*
X107858491Y-29879209D01*
X107849849Y-29889881D01*
X107849200Y-29891350D01*
X107848181Y-29891941D01*
X107845467Y-29895294D01*
X107812314Y-29928447D01*
X107728719Y-30069798D01*
X107728719Y-30069799D01*
X107682901Y-30227506D01*
X107682899Y-30227513D01*
X107682704Y-30230000D01*
X110627295Y-30230000D01*
X110627100Y-30227513D01*
X110627098Y-30227506D01*
X110581280Y-30069799D01*
X110581280Y-30069798D01*
X110497685Y-29928447D01*
X110381552Y-29812314D01*
X110370900Y-29806014D01*
X110330440Y-29760117D01*
X110324684Y-29699203D01*
X110342044Y-29661476D01*
X110397194Y-29587805D01*
X110444475Y-29461040D01*
X110450500Y-29405000D01*
X110450500Y-29015000D01*
X110444475Y-28958960D01*
X110397194Y-28832195D01*
X110363736Y-28787500D01*
X110316117Y-28723887D01*
X110316112Y-28723882D01*
X110229110Y-28658754D01*
X110193856Y-28608746D01*
X110194730Y-28547567D01*
X110231396Y-28498585D01*
X110288438Y-28480500D01*
X113400109Y-28480500D01*
X113458300Y-28499407D01*
X113470113Y-28509496D01*
X114365504Y-29404886D01*
X114393281Y-29459403D01*
X114394500Y-29474890D01*
X114394500Y-37393842D01*
X114394500Y-37536158D01*
X114431334Y-37673625D01*
X114502492Y-37796875D01*
X116397505Y-39691888D01*
X116425281Y-39746403D01*
X116426500Y-39761890D01*
X116426500Y-50662109D01*
X116407593Y-50720300D01*
X116397504Y-50732113D01*
X114603125Y-52526492D01*
X114603124Y-52526491D01*
X114502494Y-52627122D01*
X114502492Y-52627124D01*
X114502492Y-52627125D01*
X114431334Y-52750375D01*
X114413120Y-52818353D01*
X114394500Y-52887843D01*
X114394500Y-54727019D01*
X114377815Y-54782021D01*
X114296504Y-54903708D01*
X114296498Y-54903719D01*
X114242189Y-55034836D01*
X114214500Y-55174036D01*
X114214500Y-55315963D01*
X114242189Y-55455163D01*
X114296498Y-55586280D01*
X114296504Y-55586291D01*
X114375350Y-55704291D01*
X114475708Y-55804649D01*
X114593708Y-55883495D01*
X114593719Y-55883501D01*
X114681130Y-55919707D01*
X114724838Y-55937811D01*
X114864037Y-55965500D01*
X114864038Y-55965500D01*
X115005962Y-55965500D01*
X115005963Y-55965500D01*
X115145162Y-55937811D01*
X115276285Y-55883499D01*
X115394292Y-55804649D01*
X115494649Y-55704292D01*
X115573499Y-55586285D01*
X115627811Y-55455162D01*
X115655500Y-55315963D01*
X115655500Y-55174037D01*
X115627811Y-55034838D01*
X115573499Y-54903715D01*
X115573498Y-54903713D01*
X115573495Y-54903708D01*
X115517670Y-54820162D01*
X115494649Y-54785708D01*
X115494647Y-54785706D01*
X115492185Y-54782021D01*
X115475500Y-54727019D01*
X115475500Y-53735175D01*
X115494407Y-53676984D01*
X115543907Y-53641020D01*
X115605093Y-53641020D01*
X115629492Y-53652854D01*
X115721348Y-53714231D01*
X115736713Y-53724498D01*
X115736719Y-53724501D01*
X115824130Y-53760707D01*
X115867838Y-53778811D01*
X116007037Y-53806500D01*
X116007038Y-53806500D01*
X116148962Y-53806500D01*
X116148963Y-53806500D01*
X116288162Y-53778811D01*
X116419285Y-53724499D01*
X116537292Y-53645649D01*
X116637649Y-53545292D01*
X116716499Y-53427285D01*
X116770811Y-53296162D01*
X116798500Y-53156963D01*
X116798500Y-53156961D01*
X116799365Y-53152613D01*
X116826457Y-53101925D01*
X118140498Y-51787884D01*
X118195013Y-51760109D01*
X118255445Y-51769680D01*
X118298710Y-51812945D01*
X118309500Y-51857890D01*
X118309500Y-52947554D01*
X118310810Y-52957501D01*
X118315645Y-52994232D01*
X118315645Y-52994233D01*
X118363410Y-53096664D01*
X118363411Y-53096665D01*
X118363412Y-53096667D01*
X118443333Y-53176588D01*
X118443334Y-53176588D01*
X118443335Y-53176589D01*
X118545766Y-53224354D01*
X118545767Y-53224354D01*
X118545769Y-53224355D01*
X118592446Y-53230500D01*
X118740500Y-53230500D01*
X118798691Y-53249407D01*
X118834655Y-53298907D01*
X118839500Y-53329500D01*
X118839500Y-55153831D01*
X118820593Y-55212022D01*
X118778386Y-55245295D01*
X118642289Y-55301668D01*
X118642286Y-55301669D01*
X118523119Y-55393109D01*
X118523109Y-55393119D01*
X118431669Y-55512286D01*
X118431668Y-55512288D01*
X118416717Y-55548386D01*
X118376980Y-55594911D01*
X118325253Y-55609500D01*
X117599738Y-55609500D01*
X117599722Y-55609499D01*
X117593659Y-55609499D01*
X117451342Y-55609499D01*
X117451339Y-55609499D01*
X117313878Y-55646332D01*
X117190625Y-55717492D01*
X113279613Y-59628504D01*
X113225096Y-59656281D01*
X113209609Y-59657500D01*
X104912891Y-59657500D01*
X104854700Y-59638593D01*
X104842887Y-59628504D01*
X104064976Y-58850593D01*
X103249384Y-58035001D01*
X104555001Y-58035001D01*
X104555001Y-58309986D01*
X104565492Y-58412687D01*
X104565495Y-58412699D01*
X104620643Y-58579124D01*
X104712680Y-58728340D01*
X104836659Y-58852319D01*
X104985875Y-58944356D01*
X105152306Y-58999506D01*
X105255013Y-59009999D01*
X105392500Y-59009999D01*
X105392500Y-58035001D01*
X105392499Y-58035000D01*
X104555002Y-58035000D01*
X104555001Y-58035001D01*
X103249384Y-58035001D01*
X102474395Y-57260012D01*
X104555000Y-57260012D01*
X104555000Y-57534999D01*
X104555001Y-57535000D01*
X105392499Y-57535000D01*
X105392500Y-57534999D01*
X105392500Y-56560001D01*
X105892500Y-56560001D01*
X105892500Y-59009998D01*
X105892501Y-59009999D01*
X106029986Y-59009999D01*
X106132687Y-58999507D01*
X106132699Y-58999504D01*
X106299124Y-58944356D01*
X106448340Y-58852319D01*
X106572319Y-58728340D01*
X106664357Y-58579123D01*
X106683063Y-58522671D01*
X106719313Y-58473381D01*
X106777613Y-58454812D01*
X106835693Y-58474057D01*
X106868502Y-58515924D01*
X106881668Y-58547710D01*
X106881669Y-58547713D01*
X106973109Y-58666880D01*
X106973114Y-58666886D01*
X106973118Y-58666889D01*
X106973119Y-58666890D01*
X107092286Y-58758330D01*
X107092287Y-58758330D01*
X107092288Y-58758331D01*
X107231070Y-58815816D01*
X107342606Y-58830500D01*
X107342607Y-58830500D01*
X108092393Y-58830500D01*
X108092394Y-58830500D01*
X108203930Y-58815816D01*
X108342712Y-58758331D01*
X108412653Y-58704663D01*
X108467034Y-58662936D01*
X108467912Y-58664081D01*
X108515852Y-58639648D01*
X108576285Y-58649212D01*
X108613666Y-58682424D01*
X108630211Y-58707185D01*
X108660351Y-58752292D01*
X108660354Y-58752295D01*
X108760708Y-58852649D01*
X108878708Y-58931495D01*
X108878719Y-58931501D01*
X108966130Y-58967707D01*
X109009838Y-58985811D01*
X109149037Y-59013500D01*
X109149038Y-59013500D01*
X109290962Y-59013500D01*
X109290963Y-59013500D01*
X109430162Y-58985811D01*
X109561285Y-58931499D01*
X109679292Y-58852649D01*
X109779649Y-58752292D01*
X109858499Y-58634285D01*
X109912811Y-58503162D01*
X109940500Y-58363963D01*
X109940500Y-58222037D01*
X109912811Y-58082838D01*
X109858499Y-57951715D01*
X109858498Y-57951713D01*
X109858495Y-57951708D01*
X109779649Y-57833708D01*
X109679291Y-57733350D01*
X109561291Y-57654504D01*
X109561280Y-57654498D01*
X109430163Y-57600189D01*
X109286612Y-57571634D01*
X109235924Y-57544540D01*
X109043877Y-57352494D01*
X109043875Y-57352492D01*
X108920625Y-57281334D01*
X108783158Y-57244500D01*
X108783156Y-57244500D01*
X108708620Y-57244500D01*
X108650429Y-57225593D01*
X108614465Y-57176093D01*
X108612422Y-57167064D01*
X108610816Y-57161075D01*
X108610816Y-57161070D01*
X108553331Y-57022288D01*
X108553330Y-57022287D01*
X108553330Y-57022286D01*
X108461890Y-56903119D01*
X108461889Y-56903118D01*
X108461886Y-56903114D01*
X108461881Y-56903110D01*
X108461880Y-56903109D01*
X108342713Y-56811669D01*
X108342708Y-56811667D01*
X108203934Y-56754185D01*
X108203926Y-56754183D01*
X108092394Y-56739500D01*
X107342606Y-56739500D01*
X107342605Y-56739500D01*
X107231073Y-56754183D01*
X107231065Y-56754185D01*
X107092291Y-56811667D01*
X107092286Y-56811669D01*
X106973119Y-56903109D01*
X106973109Y-56903119D01*
X106881669Y-57022286D01*
X106881669Y-57022287D01*
X106868502Y-57054076D01*
X106828764Y-57100601D01*
X106769269Y-57114884D01*
X106712742Y-57091468D01*
X106683063Y-57047328D01*
X106664357Y-56990876D01*
X106572319Y-56841659D01*
X106448340Y-56717680D01*
X106299124Y-56625643D01*
X106132693Y-56570493D01*
X106029987Y-56560000D01*
X105892501Y-56560000D01*
X105892500Y-56560001D01*
X105392500Y-56560001D01*
X105392499Y-56560000D01*
X105255013Y-56560000D01*
X105255013Y-56560001D01*
X105152312Y-56570492D01*
X105152300Y-56570495D01*
X104985875Y-56625643D01*
X104836659Y-56717680D01*
X104712680Y-56841659D01*
X104620643Y-56990875D01*
X104565493Y-57157306D01*
X104555000Y-57260012D01*
X102474395Y-57260012D01*
X101931875Y-56717492D01*
X101808625Y-56646334D01*
X101671158Y-56609500D01*
X78811158Y-56609500D01*
X78668842Y-56609500D01*
X78531374Y-56646334D01*
X78531372Y-56646334D01*
X78531372Y-56646335D01*
X78486261Y-56672377D01*
X78486262Y-56672378D01*
X78408126Y-56717490D01*
X78408124Y-56717492D01*
X78307491Y-56818124D01*
X78307492Y-56818125D01*
X78307490Y-56818127D01*
X77138125Y-57987491D01*
X77138125Y-57987492D01*
X77138124Y-57987491D01*
X77037494Y-58088122D01*
X77037492Y-58088124D01*
X77037492Y-58088125D01*
X76966334Y-58211375D01*
X76939195Y-58312662D01*
X76929500Y-58348843D01*
X76929500Y-58447558D01*
X76910593Y-58505749D01*
X76885539Y-58528911D01*
X76885877Y-58529376D01*
X76882731Y-58531661D01*
X76882730Y-58531662D01*
X76817404Y-58579124D01*
X76740044Y-58635329D01*
X76615329Y-58760044D01*
X76511660Y-58902732D01*
X76431592Y-59059876D01*
X76377088Y-59227620D01*
X76349500Y-59401811D01*
X76050500Y-59401811D01*
X76022911Y-59227620D01*
X76022910Y-59227616D01*
X75968408Y-59059877D01*
X75888338Y-58902730D01*
X75784670Y-58760043D01*
X75659957Y-58635330D01*
X75517270Y-58531662D01*
X75517268Y-58531660D01*
X75514123Y-58529376D01*
X75514779Y-58528471D01*
X75478030Y-58485430D01*
X75470500Y-58447558D01*
X75470500Y-57810870D01*
X75489407Y-57752679D01*
X75499496Y-57740866D01*
X75530955Y-57709407D01*
X75567324Y-57673038D01*
X75657118Y-57538652D01*
X75718969Y-57389331D01*
X75750500Y-57230812D01*
X75750500Y-57069188D01*
X75718969Y-56910669D01*
X75657118Y-56761348D01*
X75567324Y-56626962D01*
X75453038Y-56512676D01*
X75318652Y-56422882D01*
X75318653Y-56422882D01*
X75318651Y-56422881D01*
X75169329Y-56361030D01*
X75010814Y-56329500D01*
X75010812Y-56329500D01*
X74849188Y-56329500D01*
X74849185Y-56329500D01*
X74690670Y-56361030D01*
X74541348Y-56422881D01*
X74406962Y-56512676D01*
X74406958Y-56512679D01*
X74292679Y-56626958D01*
X74292676Y-56626962D01*
X74202881Y-56761348D01*
X74141030Y-56910670D01*
X74109500Y-57069185D01*
X74109500Y-57230814D01*
X74141030Y-57389329D01*
X74202881Y-57538651D01*
X74230847Y-57580504D01*
X74292676Y-57673038D01*
X74292679Y-57673041D01*
X74360504Y-57740866D01*
X74388281Y-57795383D01*
X74389500Y-57810870D01*
X74389500Y-58447558D01*
X74370593Y-58505749D01*
X74345539Y-58528911D01*
X74345877Y-58529376D01*
X74342731Y-58531661D01*
X74342730Y-58531662D01*
X74277404Y-58579124D01*
X74200044Y-58635329D01*
X74075329Y-58760044D01*
X73971660Y-58902732D01*
X73891592Y-59059876D01*
X73837088Y-59227620D01*
X73809500Y-59401811D01*
X73510500Y-59401811D01*
X73482911Y-59227620D01*
X73482910Y-59227616D01*
X73428408Y-59059877D01*
X73348338Y-58902730D01*
X73244670Y-58760043D01*
X73119957Y-58635330D01*
X72977270Y-58531662D01*
X72977268Y-58531660D01*
X72974123Y-58529376D01*
X72974779Y-58528471D01*
X72938030Y-58485430D01*
X72930500Y-58447558D01*
X72930500Y-57810870D01*
X72949407Y-57752679D01*
X72959496Y-57740866D01*
X72990955Y-57709407D01*
X73027324Y-57673038D01*
X73117118Y-57538652D01*
X73178969Y-57389331D01*
X73210500Y-57230812D01*
X73210500Y-57069188D01*
X73178969Y-56910669D01*
X73117118Y-56761348D01*
X73027324Y-56626962D01*
X72913038Y-56512676D01*
X72778652Y-56422882D01*
X72778653Y-56422882D01*
X72778651Y-56422881D01*
X72629329Y-56361030D01*
X72470814Y-56329500D01*
X72470812Y-56329500D01*
X72309188Y-56329500D01*
X72309185Y-56329500D01*
X72150670Y-56361030D01*
X72001348Y-56422881D01*
X71866962Y-56512676D01*
X71866958Y-56512679D01*
X71752679Y-56626958D01*
X71752676Y-56626962D01*
X71662881Y-56761348D01*
X71601030Y-56910670D01*
X71569500Y-57069185D01*
X71569500Y-57230814D01*
X71601030Y-57389329D01*
X71662881Y-57538651D01*
X71690847Y-57580504D01*
X71752676Y-57673038D01*
X71752679Y-57673041D01*
X71820504Y-57740866D01*
X71848281Y-57795383D01*
X71849500Y-57810870D01*
X71849500Y-58447558D01*
X71830593Y-58505749D01*
X71805539Y-58528911D01*
X71805877Y-58529376D01*
X71802731Y-58531661D01*
X71802730Y-58531662D01*
X71737404Y-58579124D01*
X71660044Y-58635329D01*
X71535329Y-58760044D01*
X71431660Y-58902732D01*
X71351592Y-59059876D01*
X71297088Y-59227620D01*
X71269500Y-59401811D01*
X70970500Y-59401811D01*
X70942911Y-59227620D01*
X70942910Y-59227616D01*
X70888408Y-59059877D01*
X70808338Y-58902730D01*
X70704670Y-58760043D01*
X70579957Y-58635330D01*
X70437270Y-58531662D01*
X70437269Y-58531661D01*
X70437267Y-58531660D01*
X70280123Y-58451592D01*
X70112379Y-58397088D01*
X69938188Y-58369500D01*
X69938185Y-58369500D01*
X69761815Y-58369500D01*
X69761812Y-58369500D01*
X69587620Y-58397088D01*
X69419876Y-58451592D01*
X69262732Y-58531660D01*
X69120044Y-58635329D01*
X68995329Y-58760044D01*
X68891660Y-58902732D01*
X68811592Y-59059876D01*
X68757088Y-59227620D01*
X68729500Y-59401811D01*
X68430500Y-59401811D01*
X68402911Y-59227620D01*
X68402910Y-59227616D01*
X68348408Y-59059877D01*
X68268338Y-58902730D01*
X68164670Y-58760043D01*
X68039957Y-58635330D01*
X67897270Y-58531662D01*
X67897269Y-58531661D01*
X67897267Y-58531660D01*
X67740123Y-58451592D01*
X67572379Y-58397088D01*
X67398188Y-58369500D01*
X67398185Y-58369500D01*
X67221815Y-58369500D01*
X67221812Y-58369500D01*
X67047620Y-58397088D01*
X66879876Y-58451592D01*
X66722732Y-58531660D01*
X66580044Y-58635329D01*
X66455329Y-58760044D01*
X66351660Y-58902732D01*
X66271590Y-59059880D01*
X66271588Y-59059883D01*
X66233154Y-59178173D01*
X66197190Y-59227673D01*
X66139000Y-59246580D01*
X66080809Y-59227673D01*
X66044845Y-59178172D01*
X66040000Y-59147580D01*
X66040000Y-54539036D01*
X80559500Y-54539036D01*
X80559500Y-54680963D01*
X80587189Y-54820163D01*
X80641498Y-54951280D01*
X80641504Y-54951291D01*
X80720350Y-55069291D01*
X80820708Y-55169649D01*
X80938708Y-55248495D01*
X80938719Y-55248501D01*
X81026130Y-55284707D01*
X81069838Y-55302811D01*
X81209037Y-55330500D01*
X81209038Y-55330500D01*
X81350962Y-55330500D01*
X81350963Y-55330500D01*
X81487192Y-55303401D01*
X81506504Y-55301500D01*
X85560349Y-55301500D01*
X85618540Y-55320407D01*
X85654504Y-55369907D01*
X85657447Y-55419815D01*
X85639500Y-55510036D01*
X85639500Y-55651963D01*
X85667189Y-55791163D01*
X85721498Y-55922280D01*
X85721504Y-55922291D01*
X85800350Y-56040291D01*
X85900708Y-56140649D01*
X86018708Y-56219495D01*
X86018719Y-56219501D01*
X86106130Y-56255707D01*
X86149838Y-56273811D01*
X86289037Y-56301500D01*
X86289038Y-56301500D01*
X86430962Y-56301500D01*
X86430963Y-56301500D01*
X86570162Y-56273811D01*
X86701285Y-56219499D01*
X86819292Y-56140649D01*
X86819293Y-56140647D01*
X86822979Y-56138185D01*
X86877981Y-56121500D01*
X98795156Y-56121500D01*
X98795158Y-56121500D01*
X98932625Y-56084666D01*
X99055875Y-56013508D01*
X99075925Y-55993457D01*
X99126613Y-55966365D01*
X99130961Y-55965500D01*
X99130963Y-55965500D01*
X99270162Y-55937811D01*
X99401285Y-55883499D01*
X99519292Y-55804649D01*
X99619649Y-55704292D01*
X99698499Y-55586285D01*
X99752811Y-55455162D01*
X99780500Y-55315963D01*
X99780500Y-55174037D01*
X99752811Y-55034838D01*
X99698499Y-54903715D01*
X99698498Y-54903713D01*
X99698495Y-54903708D01*
X99619649Y-54785708D01*
X99518445Y-54684504D01*
X99490668Y-54629987D01*
X99500239Y-54569555D01*
X99543504Y-54526290D01*
X99588449Y-54515500D01*
X100846562Y-54515500D01*
X100904753Y-54534407D01*
X100940717Y-54583907D01*
X100940717Y-54645093D01*
X100905890Y-54693754D01*
X100818887Y-54758882D01*
X100818882Y-54758887D01*
X100737805Y-54867195D01*
X100703751Y-54958500D01*
X100690525Y-54993960D01*
X100684500Y-55050000D01*
X100684500Y-55440000D01*
X100690525Y-55496040D01*
X100696585Y-55512288D01*
X100737805Y-55622804D01*
X100818882Y-55731112D01*
X100818887Y-55731117D01*
X100902401Y-55793634D01*
X100927195Y-55812194D01*
X101053960Y-55859475D01*
X101110000Y-55865500D01*
X102870108Y-55865500D01*
X102928027Y-55884210D01*
X102934483Y-55888867D01*
X102977124Y-55931508D01*
X103055260Y-55976620D01*
X103100373Y-56002666D01*
X103237841Y-56039500D01*
X108193109Y-56039500D01*
X108251300Y-56058407D01*
X108263113Y-56068496D01*
X108725540Y-56530923D01*
X108752634Y-56581612D01*
X108781189Y-56725163D01*
X108835498Y-56856280D01*
X108835504Y-56856291D01*
X108914350Y-56974291D01*
X109014708Y-57074649D01*
X109132708Y-57153495D01*
X109132719Y-57153501D01*
X109220130Y-57189707D01*
X109263838Y-57207811D01*
X109403037Y-57235500D01*
X109403038Y-57235500D01*
X109544962Y-57235500D01*
X109544963Y-57235500D01*
X109684162Y-57207811D01*
X109815285Y-57153499D01*
X109933292Y-57074649D01*
X110033649Y-56974292D01*
X110112499Y-56856285D01*
X110166811Y-56725162D01*
X110194500Y-56585963D01*
X110194500Y-56444037D01*
X110166811Y-56304838D01*
X110131463Y-56219499D01*
X110112501Y-56173719D01*
X110112495Y-56173708D01*
X110033649Y-56055708D01*
X109933291Y-55955350D01*
X109815291Y-55876504D01*
X109815280Y-55876498D01*
X109684163Y-55822189D01*
X109540612Y-55793634D01*
X109489923Y-55766540D01*
X109143198Y-55419815D01*
X108789875Y-55066492D01*
X108666625Y-54995334D01*
X108529158Y-54958500D01*
X108529156Y-54958500D01*
X103573890Y-54958500D01*
X103515699Y-54939593D01*
X103503887Y-54929504D01*
X103386873Y-54812491D01*
X103263629Y-54741336D01*
X103263626Y-54741335D01*
X103263624Y-54741334D01*
X103210473Y-54727091D01*
X103176778Y-54710723D01*
X103148095Y-54689252D01*
X103112843Y-54639246D01*
X103113717Y-54578067D01*
X103148098Y-54530746D01*
X103241109Y-54461120D01*
X103241111Y-54461117D01*
X103241115Y-54461115D01*
X103322194Y-54352805D01*
X103369475Y-54226040D01*
X103375500Y-54170000D01*
X103375500Y-53780000D01*
X103369475Y-53723960D01*
X103322194Y-53597195D01*
X103290077Y-53554291D01*
X103241117Y-53488887D01*
X103241112Y-53488882D01*
X103148098Y-53419254D01*
X103112844Y-53369246D01*
X103113718Y-53308067D01*
X103148098Y-53260746D01*
X103241112Y-53191117D01*
X103241111Y-53191117D01*
X103241115Y-53191115D01*
X103322194Y-53082805D01*
X103369475Y-52956040D01*
X103375500Y-52900000D01*
X103375500Y-52510000D01*
X103369475Y-52453960D01*
X103322194Y-52327195D01*
X103303668Y-52302447D01*
X103267045Y-52253523D01*
X103247309Y-52195608D01*
X103265384Y-52137153D01*
X103295908Y-52108979D01*
X103306554Y-52102683D01*
X103422685Y-51986552D01*
X103506280Y-51845201D01*
X103506280Y-51845200D01*
X103552098Y-51687493D01*
X103552100Y-51687486D01*
X103552296Y-51685000D01*
X100507704Y-51685000D01*
X100507899Y-51687486D01*
X100507901Y-51687493D01*
X100553719Y-51845200D01*
X100553719Y-51845201D01*
X100637314Y-51986552D01*
X100753445Y-52102683D01*
X100764093Y-52108980D01*
X100804557Y-52154875D01*
X100810316Y-52215789D01*
X100792955Y-52253522D01*
X100737805Y-52327196D01*
X100709796Y-52402292D01*
X100690525Y-52453960D01*
X100684500Y-52510000D01*
X100684500Y-52900000D01*
X100686130Y-52915162D01*
X100689612Y-52947554D01*
X100690525Y-52956040D01*
X100690526Y-52956042D01*
X100737805Y-53082804D01*
X100818882Y-53191112D01*
X100818887Y-53191117D01*
X100905890Y-53256246D01*
X100941144Y-53306254D01*
X100940270Y-53367433D01*
X100903604Y-53416415D01*
X100846562Y-53434500D01*
X99588449Y-53434500D01*
X99530258Y-53415593D01*
X99494294Y-53366093D01*
X99494294Y-53304907D01*
X99518445Y-53265496D01*
X99559587Y-53224354D01*
X99619649Y-53164292D01*
X99698499Y-53046285D01*
X99752811Y-52915162D01*
X99780500Y-52775963D01*
X99780500Y-52634037D01*
X99752811Y-52494838D01*
X99717689Y-52410044D01*
X99698501Y-52363719D01*
X99698495Y-52363708D01*
X99619649Y-52245708D01*
X99619641Y-52245699D01*
X99515853Y-52141912D01*
X99517025Y-52140739D01*
X99487743Y-52095019D01*
X99491331Y-52033939D01*
X99516736Y-51998971D01*
X99515853Y-51998088D01*
X99619641Y-51894300D01*
X99619649Y-51894292D01*
X99698499Y-51776285D01*
X99752811Y-51645162D01*
X99780500Y-51505963D01*
X99780500Y-51364037D01*
X99752811Y-51224838D01*
X99732590Y-51176019D01*
X99698501Y-51093719D01*
X99698495Y-51093708D01*
X99619649Y-50975708D01*
X99619641Y-50975699D01*
X99515853Y-50871912D01*
X99517025Y-50870739D01*
X99487743Y-50825019D01*
X99491331Y-50763939D01*
X99516736Y-50728971D01*
X99515853Y-50728088D01*
X99619641Y-50624300D01*
X99619649Y-50624292D01*
X99698499Y-50506285D01*
X99752811Y-50375162D01*
X99780500Y-50235963D01*
X99780500Y-50094037D01*
X99752811Y-49954838D01*
X99734707Y-49911130D01*
X99698501Y-49823719D01*
X99698495Y-49823708D01*
X99619649Y-49705708D01*
X99519291Y-49605350D01*
X99401291Y-49526504D01*
X99401280Y-49526498D01*
X99270163Y-49472189D01*
X99130963Y-49444500D01*
X99105526Y-49444500D01*
X99056027Y-49431237D01*
X99014626Y-49407334D01*
X98968802Y-49395056D01*
X98877158Y-49370500D01*
X98877156Y-49370500D01*
X91322981Y-49370500D01*
X91267979Y-49353815D01*
X91264293Y-49351352D01*
X91264292Y-49351351D01*
X91217127Y-49319836D01*
X91146291Y-49272504D01*
X91146280Y-49272498D01*
X91015163Y-49218189D01*
X90875963Y-49190500D01*
X90734037Y-49190500D01*
X90734036Y-49190500D01*
X90594836Y-49218189D01*
X90463719Y-49272498D01*
X90463708Y-49272504D01*
X90345708Y-49351350D01*
X90245350Y-49451708D01*
X90166504Y-49569708D01*
X90166498Y-49569719D01*
X90112189Y-49700836D01*
X90084500Y-49840036D01*
X90084500Y-49981963D01*
X90112189Y-50121163D01*
X90113600Y-50125812D01*
X90111414Y-50126475D01*
X90115524Y-50178598D01*
X90083562Y-50230771D01*
X90027037Y-50254194D01*
X90019256Y-50254500D01*
X84537238Y-50254500D01*
X84537222Y-50254499D01*
X84531159Y-50254499D01*
X84388842Y-50254499D01*
X84388839Y-50254499D01*
X84251378Y-50291332D01*
X84128125Y-50362492D01*
X83488125Y-51002492D01*
X83488124Y-51002491D01*
X83387494Y-51103122D01*
X83387492Y-51103124D01*
X83387492Y-51103125D01*
X83316334Y-51226375D01*
X83279501Y-51363841D01*
X83279500Y-51363843D01*
X83279500Y-51920500D01*
X83260593Y-51978691D01*
X83211093Y-52014655D01*
X83180500Y-52019500D01*
X82782446Y-52019500D01*
X82766887Y-52021548D01*
X82735767Y-52025645D01*
X82735766Y-52025645D01*
X82633335Y-52073410D01*
X82553410Y-52153335D01*
X82505645Y-52255766D01*
X82505645Y-52255767D01*
X82499500Y-52302447D01*
X82499500Y-54121500D01*
X82480593Y-54179691D01*
X82431093Y-54215655D01*
X82400500Y-54220500D01*
X81939199Y-54220500D01*
X81881008Y-54201593D01*
X81856884Y-54176502D01*
X81839649Y-54150708D01*
X81739292Y-54050351D01*
X81739291Y-54050350D01*
X81621291Y-53971504D01*
X81621280Y-53971498D01*
X81490163Y-53917189D01*
X81350963Y-53889500D01*
X81209037Y-53889500D01*
X81209036Y-53889500D01*
X81069836Y-53917189D01*
X80938719Y-53971498D01*
X80938708Y-53971504D01*
X80820708Y-54050350D01*
X80720350Y-54150708D01*
X80641504Y-54268708D01*
X80641498Y-54268719D01*
X80587189Y-54399836D01*
X80559500Y-54539036D01*
X66040000Y-54539036D01*
X66040000Y-42891811D01*
X82699500Y-42891811D01*
X82699500Y-43468188D01*
X82727088Y-43642379D01*
X82727090Y-43642384D01*
X82781592Y-43810123D01*
X82861662Y-43967270D01*
X82965330Y-44109957D01*
X83090043Y-44234670D01*
X83232730Y-44338338D01*
X83389877Y-44418408D01*
X83557616Y-44472910D01*
X83557617Y-44472910D01*
X83557620Y-44472911D01*
X83731812Y-44500500D01*
X83731815Y-44500500D01*
X83908188Y-44500500D01*
X84082379Y-44472911D01*
X84082380Y-44472910D01*
X84082384Y-44472910D01*
X84250123Y-44418408D01*
X84407270Y-44338338D01*
X84549957Y-44234670D01*
X84674670Y-44109957D01*
X84778338Y-43967270D01*
X84858408Y-43810123D01*
X84912910Y-43642384D01*
X84925331Y-43563960D01*
X84940500Y-43468188D01*
X84940500Y-42891811D01*
X85239500Y-42891811D01*
X85239500Y-43468188D01*
X85267088Y-43642379D01*
X85267090Y-43642384D01*
X85321592Y-43810123D01*
X85401662Y-43967270D01*
X85505330Y-44109957D01*
X85630043Y-44234670D01*
X85772730Y-44338338D01*
X85929877Y-44418408D01*
X86097616Y-44472910D01*
X86097617Y-44472910D01*
X86097620Y-44472911D01*
X86271812Y-44500500D01*
X86271815Y-44500500D01*
X86448188Y-44500500D01*
X86622379Y-44472911D01*
X86622380Y-44472910D01*
X86622384Y-44472910D01*
X86790123Y-44418408D01*
X86947270Y-44338338D01*
X87089957Y-44234670D01*
X87214670Y-44109957D01*
X87318338Y-43967270D01*
X87398408Y-43810123D01*
X87452910Y-43642384D01*
X87465331Y-43563960D01*
X87480500Y-43468188D01*
X87480500Y-42891811D01*
X87779500Y-42891811D01*
X87779500Y-43468188D01*
X87807088Y-43642379D01*
X87807090Y-43642384D01*
X87861592Y-43810123D01*
X87941662Y-43967270D01*
X88045330Y-44109957D01*
X88170043Y-44234670D01*
X88312730Y-44338338D01*
X88312731Y-44338339D01*
X88315877Y-44340624D01*
X88315216Y-44341533D01*
X88351960Y-44384545D01*
X88359500Y-44422441D01*
X88359500Y-45140842D01*
X88359500Y-45283158D01*
X88396334Y-45420625D01*
X88467492Y-45543875D01*
X89161490Y-46237872D01*
X89161492Y-46237875D01*
X89262125Y-46338508D01*
X89340261Y-46383620D01*
X89385374Y-46409666D01*
X89522842Y-46446500D01*
X89665158Y-46446500D01*
X91894401Y-46446500D01*
X91952592Y-46465407D01*
X91988556Y-46514907D01*
X91988556Y-46576093D01*
X91976717Y-46600499D01*
X91960013Y-46625500D01*
X91944502Y-46648713D01*
X91944498Y-46648719D01*
X91890189Y-46779836D01*
X91862500Y-46919036D01*
X91862500Y-47060963D01*
X91890189Y-47200163D01*
X91944498Y-47331280D01*
X91944504Y-47331291D01*
X92023350Y-47449291D01*
X92123708Y-47549649D01*
X92241708Y-47628495D01*
X92241719Y-47628501D01*
X92287330Y-47647393D01*
X92372838Y-47682811D01*
X92512037Y-47710500D01*
X92512038Y-47710500D01*
X92653962Y-47710500D01*
X92653963Y-47710500D01*
X92793162Y-47682811D01*
X92924285Y-47628499D01*
X93042292Y-47549649D01*
X93142649Y-47449292D01*
X93216011Y-47339497D01*
X93264061Y-47301619D01*
X93298326Y-47295500D01*
X93876061Y-47295500D01*
X93934252Y-47314407D01*
X93970216Y-47363907D01*
X93970216Y-47425093D01*
X93967525Y-47432385D01*
X93922189Y-47541836D01*
X93894500Y-47681036D01*
X93894500Y-47822963D01*
X93922189Y-47962163D01*
X93976498Y-48093280D01*
X93976504Y-48093291D01*
X94055350Y-48211291D01*
X94155708Y-48311649D01*
X94273708Y-48390495D01*
X94273719Y-48390501D01*
X94318096Y-48408882D01*
X94404838Y-48444811D01*
X94544037Y-48472500D01*
X94544038Y-48472500D01*
X94548386Y-48473365D01*
X94599075Y-48500459D01*
X94859682Y-48761065D01*
X95045125Y-48946508D01*
X95168375Y-49017666D01*
X95168377Y-49017666D01*
X95168378Y-49017667D01*
X95237108Y-49036083D01*
X95305839Y-49054500D01*
X95305841Y-49054501D01*
X95305842Y-49054501D01*
X95454221Y-49054501D01*
X95454237Y-49054500D01*
X100591756Y-49054500D01*
X100649947Y-49073407D01*
X100685911Y-49122907D01*
X100690188Y-49142914D01*
X100690522Y-49146028D01*
X100690526Y-49146042D01*
X100737805Y-49272804D01*
X100818882Y-49381112D01*
X100818887Y-49381117D01*
X100911901Y-49450746D01*
X100947155Y-49500755D01*
X100946281Y-49561934D01*
X100911901Y-49609254D01*
X100818887Y-49678882D01*
X100818882Y-49678887D01*
X100737805Y-49787195D01*
X100696585Y-49897712D01*
X100690525Y-49913960D01*
X100684500Y-49970000D01*
X100684500Y-50360000D01*
X100690525Y-50416040D01*
X100690526Y-50416042D01*
X100737805Y-50542804D01*
X100792954Y-50616475D01*
X100812690Y-50674390D01*
X100794615Y-50732845D01*
X100764099Y-50761014D01*
X100753448Y-50767313D01*
X100637314Y-50883447D01*
X100553719Y-51024798D01*
X100553719Y-51024799D01*
X100507901Y-51182506D01*
X100507899Y-51182513D01*
X100507704Y-51185000D01*
X103552295Y-51185000D01*
X103552100Y-51182513D01*
X103552098Y-51182506D01*
X103506280Y-51024799D01*
X103506280Y-51024798D01*
X103422685Y-50883447D01*
X103306552Y-50767314D01*
X103295900Y-50761014D01*
X103255440Y-50715117D01*
X103249684Y-50654203D01*
X103267046Y-50616475D01*
X103322194Y-50542805D01*
X103369475Y-50416040D01*
X103375500Y-50360000D01*
X103375500Y-49970000D01*
X103369475Y-49913960D01*
X103322194Y-49787195D01*
X103286986Y-49740162D01*
X103241117Y-49678887D01*
X103241112Y-49678882D01*
X103148098Y-49609254D01*
X103112844Y-49559246D01*
X103113718Y-49498067D01*
X103148098Y-49450746D01*
X103209188Y-49405015D01*
X103241115Y-49381115D01*
X103322194Y-49272805D01*
X103369475Y-49146040D01*
X103375500Y-49090000D01*
X103375500Y-48700000D01*
X103369475Y-48643960D01*
X103322194Y-48517195D01*
X103311653Y-48503114D01*
X103241117Y-48408887D01*
X103241112Y-48408882D01*
X103148098Y-48339254D01*
X103112844Y-48289246D01*
X103113718Y-48228067D01*
X103148098Y-48180746D01*
X103241112Y-48111117D01*
X103241111Y-48111117D01*
X103241115Y-48111115D01*
X103322194Y-48002805D01*
X103369475Y-47876040D01*
X103375500Y-47820000D01*
X103375500Y-47430000D01*
X103369475Y-47373960D01*
X103322194Y-47247195D01*
X103286986Y-47200162D01*
X103241117Y-47138887D01*
X103241112Y-47138882D01*
X103148098Y-47069254D01*
X103112844Y-47019246D01*
X103113718Y-46958067D01*
X103148098Y-46910746D01*
X103199046Y-46872607D01*
X103241115Y-46841115D01*
X103322194Y-46732805D01*
X103369475Y-46606040D01*
X103375500Y-46550000D01*
X103375500Y-46160000D01*
X103369475Y-46103960D01*
X103322194Y-45977195D01*
X103304408Y-45953435D01*
X103267045Y-45903523D01*
X103247309Y-45845608D01*
X103265384Y-45787153D01*
X103295908Y-45758979D01*
X103306554Y-45752683D01*
X103422685Y-45636552D01*
X103506280Y-45495201D01*
X103506280Y-45495200D01*
X103552098Y-45337493D01*
X103552100Y-45337486D01*
X103552296Y-45335000D01*
X100507704Y-45335000D01*
X100507899Y-45337486D01*
X100507901Y-45337493D01*
X100553719Y-45495200D01*
X100553719Y-45495201D01*
X100637314Y-45636552D01*
X100753445Y-45752683D01*
X100764093Y-45758980D01*
X100804557Y-45804875D01*
X100810316Y-45865789D01*
X100792955Y-45903522D01*
X100737805Y-45977196D01*
X100690526Y-46103957D01*
X100690524Y-46103965D01*
X100684500Y-46160002D01*
X100684500Y-46549997D01*
X100689929Y-46600503D01*
X100690525Y-46606040D01*
X100696585Y-46622288D01*
X100737805Y-46732804D01*
X100818882Y-46841112D01*
X100818887Y-46841117D01*
X100905890Y-46906246D01*
X100941144Y-46956254D01*
X100940270Y-47017433D01*
X100903604Y-47066415D01*
X100846562Y-47084500D01*
X100484705Y-47084500D01*
X100426514Y-47065593D01*
X100390550Y-47016093D01*
X100387607Y-46966185D01*
X100387810Y-46965164D01*
X100387811Y-46965162D01*
X100415500Y-46825963D01*
X100415500Y-46684037D01*
X100387811Y-46544838D01*
X100333499Y-46413715D01*
X100333498Y-46413713D01*
X100333495Y-46413708D01*
X100254649Y-46295708D01*
X100154291Y-46195350D01*
X100036291Y-46116504D01*
X100036280Y-46116498D01*
X99905163Y-46062189D01*
X99788076Y-46038898D01*
X99734692Y-46009000D01*
X99709077Y-45953435D01*
X99708391Y-45941800D01*
X99708391Y-45834038D01*
X99708391Y-45834037D01*
X99680702Y-45694838D01*
X99626390Y-45563715D01*
X99626389Y-45563713D01*
X99626386Y-45563708D01*
X99547540Y-45445708D01*
X99447182Y-45345350D01*
X99329182Y-45266504D01*
X99329171Y-45266498D01*
X99198054Y-45212189D01*
X99058854Y-45184500D01*
X98916928Y-45184500D01*
X98916927Y-45184500D01*
X98777727Y-45212189D01*
X98646610Y-45266498D01*
X98646599Y-45266504D01*
X98554504Y-45328041D01*
X98528599Y-45345351D01*
X98528597Y-45345352D01*
X98524556Y-45348053D01*
X98523322Y-45346207D01*
X98474427Y-45365330D01*
X98468625Y-45365500D01*
X89858889Y-45365500D01*
X89800698Y-45346593D01*
X89788885Y-45336503D01*
X89469496Y-45017113D01*
X89441719Y-44962597D01*
X89440500Y-44947110D01*
X89440500Y-44422441D01*
X89459407Y-44364250D01*
X89484462Y-44341091D01*
X89484123Y-44340624D01*
X89487267Y-44338339D01*
X89487270Y-44338338D01*
X89629957Y-44234670D01*
X89754670Y-44109957D01*
X89858338Y-43967270D01*
X89938408Y-43810123D01*
X89992910Y-43642384D01*
X90005331Y-43563960D01*
X90020500Y-43468188D01*
X90020500Y-42891811D01*
X90319500Y-42891811D01*
X90319500Y-43468188D01*
X90347088Y-43642379D01*
X90347090Y-43642384D01*
X90401592Y-43810123D01*
X90481662Y-43967270D01*
X90585330Y-44109957D01*
X90710043Y-44234670D01*
X90852730Y-44338338D01*
X91009877Y-44418408D01*
X91177616Y-44472910D01*
X91177617Y-44472910D01*
X91177620Y-44472911D01*
X91351812Y-44500500D01*
X91351815Y-44500500D01*
X91528188Y-44500500D01*
X91702379Y-44472911D01*
X91702380Y-44472910D01*
X91702384Y-44472910D01*
X91870123Y-44418408D01*
X92027270Y-44338338D01*
X92169957Y-44234670D01*
X92294670Y-44109957D01*
X92398338Y-43967270D01*
X92478408Y-43810123D01*
X92532910Y-43642384D01*
X92545331Y-43563960D01*
X92560500Y-43468188D01*
X92560500Y-42891811D01*
X92532911Y-42717620D01*
X92513927Y-42659193D01*
X92478408Y-42549877D01*
X92398338Y-42392730D01*
X92294670Y-42250043D01*
X92169957Y-42125330D01*
X92158953Y-42117335D01*
X92145328Y-42098581D01*
X92128935Y-42082189D01*
X92127685Y-42074298D01*
X92122990Y-42067836D01*
X92122990Y-42044654D01*
X92119364Y-42021757D01*
X92122990Y-42014638D01*
X92122991Y-42006651D01*
X92147142Y-41967240D01*
X92183858Y-41930525D01*
X92269887Y-41844496D01*
X92324403Y-41816719D01*
X92339890Y-41815500D01*
X93384981Y-41815500D01*
X93443172Y-41834407D01*
X93479136Y-41883907D01*
X93479136Y-41945093D01*
X93443172Y-41994593D01*
X93429928Y-42002708D01*
X93422191Y-42006651D01*
X93392731Y-42021661D01*
X93250044Y-42125329D01*
X93125329Y-42250044D01*
X93021660Y-42392732D01*
X92941592Y-42549876D01*
X92887088Y-42717620D01*
X92859500Y-42891811D01*
X92859500Y-43468188D01*
X92887088Y-43642379D01*
X92887090Y-43642384D01*
X92941592Y-43810123D01*
X93021662Y-43967270D01*
X93125330Y-44109957D01*
X93250043Y-44234670D01*
X93392730Y-44338338D01*
X93549877Y-44418408D01*
X93717616Y-44472910D01*
X93717617Y-44472910D01*
X93717620Y-44472911D01*
X93891812Y-44500500D01*
X93891815Y-44500500D01*
X94068188Y-44500500D01*
X94242379Y-44472911D01*
X94242380Y-44472910D01*
X94242384Y-44472910D01*
X94410123Y-44418408D01*
X94567270Y-44338338D01*
X94709957Y-44234670D01*
X94834670Y-44109957D01*
X94938338Y-43967270D01*
X95018408Y-43810123D01*
X95072910Y-43642384D01*
X95085331Y-43563960D01*
X95100500Y-43468188D01*
X95100500Y-42891811D01*
X95072911Y-42717620D01*
X95053927Y-42659193D01*
X95018408Y-42549877D01*
X94938338Y-42392730D01*
X94834670Y-42250043D01*
X94709957Y-42125330D01*
X94567270Y-42021662D01*
X94530073Y-42002709D01*
X94486810Y-41959446D01*
X94477238Y-41899014D01*
X94505015Y-41844497D01*
X94559531Y-41816719D01*
X94575019Y-41815500D01*
X95924981Y-41815500D01*
X95983172Y-41834407D01*
X96019136Y-41883907D01*
X96019136Y-41945093D01*
X95983172Y-41994593D01*
X95969928Y-42002708D01*
X95962191Y-42006651D01*
X95932731Y-42021661D01*
X95790044Y-42125329D01*
X95665329Y-42250044D01*
X95561660Y-42392732D01*
X95481592Y-42549876D01*
X95427088Y-42717620D01*
X95399500Y-42891811D01*
X95399500Y-43468188D01*
X95427088Y-43642379D01*
X95427090Y-43642384D01*
X95481592Y-43810123D01*
X95561662Y-43967270D01*
X95665330Y-44109957D01*
X95790043Y-44234670D01*
X95932730Y-44338338D01*
X96089877Y-44418408D01*
X96257616Y-44472910D01*
X96257617Y-44472910D01*
X96257620Y-44472911D01*
X96431812Y-44500500D01*
X96431815Y-44500500D01*
X96608188Y-44500500D01*
X96782379Y-44472911D01*
X96782380Y-44472910D01*
X96782384Y-44472910D01*
X96950123Y-44418408D01*
X97107270Y-44338338D01*
X97249957Y-44234670D01*
X97374670Y-44109957D01*
X97478338Y-43967270D01*
X97558408Y-43810123D01*
X97612910Y-43642384D01*
X97625331Y-43563960D01*
X97640500Y-43468188D01*
X97640500Y-42891811D01*
X97617197Y-42744684D01*
X97626768Y-42684252D01*
X97670033Y-42640987D01*
X97730465Y-42631416D01*
X97784981Y-42659193D01*
X97784982Y-42659193D01*
X98002661Y-42876872D01*
X98002663Y-42876875D01*
X98103296Y-42977508D01*
X98149688Y-43004292D01*
X98226545Y-43048666D01*
X98364013Y-43085500D01*
X98506329Y-43085500D01*
X100846562Y-43085500D01*
X100904753Y-43104407D01*
X100940717Y-43153907D01*
X100940717Y-43215093D01*
X100905890Y-43263754D01*
X100818887Y-43328882D01*
X100818882Y-43328887D01*
X100737805Y-43437195D01*
X100720674Y-43483127D01*
X100690525Y-43563960D01*
X100684500Y-43620000D01*
X100684500Y-44010000D01*
X100690525Y-44066040D01*
X100690526Y-44066042D01*
X100737805Y-44192804D01*
X100792954Y-44266475D01*
X100812690Y-44324390D01*
X100794615Y-44382845D01*
X100764099Y-44411014D01*
X100753448Y-44417313D01*
X100637314Y-44533447D01*
X100553719Y-44674798D01*
X100553719Y-44674799D01*
X100507901Y-44832506D01*
X100507899Y-44832513D01*
X100507704Y-44835000D01*
X103552295Y-44835000D01*
X103552100Y-44832513D01*
X103552098Y-44832506D01*
X103506280Y-44674799D01*
X103506280Y-44674798D01*
X103422685Y-44533447D01*
X103306552Y-44417314D01*
X103295900Y-44411014D01*
X103255440Y-44365117D01*
X103249684Y-44304203D01*
X103267046Y-44266475D01*
X103322194Y-44192805D01*
X103369475Y-44066040D01*
X103375500Y-44010000D01*
X103375500Y-43620000D01*
X103369475Y-43563960D01*
X103322194Y-43437195D01*
X103241117Y-43328887D01*
X103241112Y-43328882D01*
X103148098Y-43259254D01*
X103112844Y-43209246D01*
X103113718Y-43148067D01*
X103148098Y-43100746D01*
X103217669Y-43048666D01*
X103241115Y-43031115D01*
X103322194Y-42922805D01*
X103327568Y-42908398D01*
X103365618Y-42860483D01*
X103424565Y-42844085D01*
X103481893Y-42865466D01*
X103502641Y-42887992D01*
X103525902Y-42922804D01*
X103580351Y-43004292D01*
X103580354Y-43004295D01*
X103680708Y-43104649D01*
X103798708Y-43183495D01*
X103798719Y-43183501D01*
X103825274Y-43194500D01*
X103929838Y-43237811D01*
X104069037Y-43265500D01*
X104069038Y-43265500D01*
X104210962Y-43265500D01*
X104210963Y-43265500D01*
X104350162Y-43237811D01*
X104481285Y-43183499D01*
X104599292Y-43104649D01*
X104599293Y-43104647D01*
X104602979Y-43102185D01*
X104657981Y-43085500D01*
X108017220Y-43085500D01*
X108075411Y-43104407D01*
X108111375Y-43153907D01*
X108111375Y-43215093D01*
X108075411Y-43264593D01*
X108042846Y-43280125D01*
X107926374Y-43311334D01*
X107926372Y-43311335D01*
X107881261Y-43337377D01*
X107881262Y-43337378D01*
X107803126Y-43382490D01*
X107803124Y-43382492D01*
X107702491Y-43483124D01*
X107702492Y-43483125D01*
X107702490Y-43483127D01*
X106029076Y-45156540D01*
X105978387Y-45183634D01*
X105834836Y-45212189D01*
X105703719Y-45266498D01*
X105703708Y-45266504D01*
X105585708Y-45345350D01*
X105485350Y-45445708D01*
X105406504Y-45563708D01*
X105406498Y-45563719D01*
X105352189Y-45694836D01*
X105324500Y-45834036D01*
X105324500Y-45975963D01*
X105352189Y-46115163D01*
X105406498Y-46246280D01*
X105406504Y-46246291D01*
X105485350Y-46364291D01*
X105585708Y-46464649D01*
X105703708Y-46543495D01*
X105703719Y-46543501D01*
X105756015Y-46565162D01*
X105834838Y-46597811D01*
X105974037Y-46625500D01*
X105974038Y-46625500D01*
X106115962Y-46625500D01*
X106115963Y-46625500D01*
X106255162Y-46597811D01*
X106386285Y-46543499D01*
X106504292Y-46464649D01*
X106604649Y-46364292D01*
X106683499Y-46246285D01*
X106737811Y-46115162D01*
X106765500Y-45975963D01*
X106765500Y-45975960D01*
X106766365Y-45971612D01*
X106793457Y-45920924D01*
X107231286Y-45483095D01*
X107285801Y-45455320D01*
X107346233Y-45464891D01*
X107383603Y-45498099D01*
X107384184Y-45498968D01*
X107463034Y-45616975D01*
X107463037Y-45616978D01*
X107496243Y-45650184D01*
X107524020Y-45704701D01*
X107514449Y-45765133D01*
X107493462Y-45791229D01*
X107494146Y-45791913D01*
X107390358Y-45895699D01*
X107390350Y-45895708D01*
X107311504Y-46013708D01*
X107311498Y-46013719D01*
X107257189Y-46144836D01*
X107229500Y-46284036D01*
X107229500Y-46425963D01*
X107257189Y-46565163D01*
X107311498Y-46696280D01*
X107311504Y-46696291D01*
X107390350Y-46814291D01*
X107490708Y-46914649D01*
X107608708Y-46993495D01*
X107608719Y-46993501D01*
X107670875Y-47019246D01*
X107739838Y-47047811D01*
X107879037Y-47075500D01*
X107879038Y-47075500D01*
X108020962Y-47075500D01*
X108020963Y-47075500D01*
X108160162Y-47047811D01*
X108291285Y-46993499D01*
X108409292Y-46914649D01*
X108409293Y-46914647D01*
X108412979Y-46912185D01*
X108467981Y-46895500D01*
X110146562Y-46895500D01*
X110204753Y-46914407D01*
X110240717Y-46963907D01*
X110240717Y-47025093D01*
X110205890Y-47073754D01*
X110118887Y-47138882D01*
X110118882Y-47138887D01*
X110037805Y-47247195D01*
X109991484Y-47371388D01*
X109990525Y-47373960D01*
X109984500Y-47430000D01*
X109984500Y-47820000D01*
X109990525Y-47876040D01*
X109990526Y-47876042D01*
X110037805Y-48002804D01*
X110118882Y-48111112D01*
X110118887Y-48111117D01*
X110205890Y-48176246D01*
X110241144Y-48226254D01*
X110240270Y-48287433D01*
X110203604Y-48336415D01*
X110146562Y-48354500D01*
X109737981Y-48354500D01*
X109682979Y-48337815D01*
X109679293Y-48335352D01*
X109679292Y-48335351D01*
X109643820Y-48311649D01*
X109561291Y-48256504D01*
X109561280Y-48256498D01*
X109430163Y-48202189D01*
X109290963Y-48174500D01*
X109149037Y-48174500D01*
X109149036Y-48174500D01*
X109009836Y-48202189D01*
X108878719Y-48256498D01*
X108878708Y-48256504D01*
X108760708Y-48335350D01*
X108660350Y-48435708D01*
X108581504Y-48553708D01*
X108581498Y-48553719D01*
X108527189Y-48684836D01*
X108499500Y-48824036D01*
X108499500Y-48965963D01*
X108527189Y-49105163D01*
X108581498Y-49236280D01*
X108581504Y-49236291D01*
X108660350Y-49354291D01*
X108761555Y-49455496D01*
X108789332Y-49510013D01*
X108779761Y-49570445D01*
X108736496Y-49613710D01*
X108691551Y-49624500D01*
X107032257Y-49624500D01*
X106974066Y-49605593D01*
X106962253Y-49595504D01*
X106771764Y-49405015D01*
X106744670Y-49354323D01*
X106744079Y-49351350D01*
X106737811Y-49319838D01*
X106703201Y-49236280D01*
X106683501Y-49188719D01*
X106683495Y-49188708D01*
X106604649Y-49070708D01*
X106504291Y-48970350D01*
X106386291Y-48891504D01*
X106386280Y-48891498D01*
X106255163Y-48837189D01*
X106115963Y-48809500D01*
X105974037Y-48809500D01*
X105974036Y-48809500D01*
X105834836Y-48837189D01*
X105703719Y-48891498D01*
X105703708Y-48891504D01*
X105585708Y-48970350D01*
X105485350Y-49070708D01*
X105406504Y-49188708D01*
X105406498Y-49188719D01*
X105352189Y-49319836D01*
X105324500Y-49459036D01*
X105324500Y-49600963D01*
X105352189Y-49740163D01*
X105406498Y-49871280D01*
X105406504Y-49871291D01*
X105485350Y-49989291D01*
X105527555Y-50031496D01*
X105555332Y-50086013D01*
X105545761Y-50146445D01*
X105527555Y-50171504D01*
X105485354Y-50213704D01*
X105485350Y-50213708D01*
X105406504Y-50331708D01*
X105406498Y-50331719D01*
X105352189Y-50462836D01*
X105324500Y-50602036D01*
X105324500Y-50743963D01*
X105352189Y-50883163D01*
X105406498Y-51014280D01*
X105406504Y-51014291D01*
X105485350Y-51132291D01*
X105589147Y-51236088D01*
X105587976Y-51237258D01*
X105617260Y-51283001D01*
X105613659Y-51344081D01*
X105588265Y-51379030D01*
X105589147Y-51379912D01*
X105485354Y-51483704D01*
X105485350Y-51483708D01*
X105406504Y-51601708D01*
X105406498Y-51601719D01*
X105352189Y-51732836D01*
X105324500Y-51872036D01*
X105324500Y-52013963D01*
X105352189Y-52153163D01*
X105406498Y-52284280D01*
X105406504Y-52284291D01*
X105485350Y-52402291D01*
X105589147Y-52506088D01*
X105587976Y-52507258D01*
X105617260Y-52553001D01*
X105613659Y-52614081D01*
X105588265Y-52649030D01*
X105589147Y-52649912D01*
X105485354Y-52753704D01*
X105485350Y-52753708D01*
X105406504Y-52871708D01*
X105406498Y-52871719D01*
X105352189Y-53002836D01*
X105324500Y-53142036D01*
X105324500Y-53283963D01*
X105352189Y-53423163D01*
X105406498Y-53554280D01*
X105406504Y-53554291D01*
X105485350Y-53672291D01*
X105585708Y-53772649D01*
X105703708Y-53851495D01*
X105703719Y-53851501D01*
X105728210Y-53861645D01*
X105834838Y-53905811D01*
X105974037Y-53933500D01*
X105974038Y-53933500D01*
X105978386Y-53934365D01*
X106029075Y-53961459D01*
X106259120Y-54191503D01*
X106475125Y-54407508D01*
X106598375Y-54478666D01*
X106598377Y-54478666D01*
X106598378Y-54478667D01*
X106667108Y-54497083D01*
X106735839Y-54515500D01*
X106735841Y-54515501D01*
X106735842Y-54515501D01*
X106884221Y-54515501D01*
X106884237Y-54515500D01*
X110146562Y-54515500D01*
X110204753Y-54534407D01*
X110240717Y-54583907D01*
X110240717Y-54645093D01*
X110205890Y-54693754D01*
X110118887Y-54758882D01*
X110118882Y-54758887D01*
X110037805Y-54867195D01*
X110003751Y-54958500D01*
X109990525Y-54993960D01*
X109984500Y-55050000D01*
X109984500Y-55440000D01*
X109990525Y-55496040D01*
X109996585Y-55512288D01*
X110037805Y-55622804D01*
X110118882Y-55731112D01*
X110118887Y-55731117D01*
X110202401Y-55793634D01*
X110227195Y-55812194D01*
X110353960Y-55859475D01*
X110410000Y-55865500D01*
X110410003Y-55865500D01*
X112249997Y-55865500D01*
X112250000Y-55865500D01*
X112306040Y-55859475D01*
X112432805Y-55812194D01*
X112541115Y-55731115D01*
X112622194Y-55622805D01*
X112669475Y-55496040D01*
X112675500Y-55440000D01*
X112675500Y-55050000D01*
X112669475Y-54993960D01*
X112622194Y-54867195D01*
X112586986Y-54820162D01*
X112541117Y-54758887D01*
X112541112Y-54758882D01*
X112448098Y-54689254D01*
X112412844Y-54639246D01*
X112413718Y-54578067D01*
X112448098Y-54530746D01*
X112541112Y-54461117D01*
X112541111Y-54461117D01*
X112541115Y-54461115D01*
X112622194Y-54352805D01*
X112669475Y-54226040D01*
X112675500Y-54170000D01*
X112675500Y-53780000D01*
X112669475Y-53723960D01*
X112622194Y-53597195D01*
X112590077Y-53554291D01*
X112541117Y-53488887D01*
X112541112Y-53488882D01*
X112448098Y-53419254D01*
X112412844Y-53369246D01*
X112413718Y-53308067D01*
X112448098Y-53260746D01*
X112541112Y-53191117D01*
X112541111Y-53191117D01*
X112541115Y-53191115D01*
X112622194Y-53082805D01*
X112669475Y-52956040D01*
X112675500Y-52900000D01*
X112675500Y-52510000D01*
X112669475Y-52453960D01*
X112622194Y-52327195D01*
X112590077Y-52284291D01*
X112541117Y-52218887D01*
X112541112Y-52218882D01*
X112448098Y-52149254D01*
X112412844Y-52099246D01*
X112413718Y-52038067D01*
X112448098Y-51990746D01*
X112541112Y-51921117D01*
X112541111Y-51921117D01*
X112541115Y-51921115D01*
X112622194Y-51812805D01*
X112669475Y-51686040D01*
X112675500Y-51630000D01*
X112675500Y-51240000D01*
X112669475Y-51183960D01*
X112622194Y-51057195D01*
X112590077Y-51014291D01*
X112541117Y-50948887D01*
X112541112Y-50948882D01*
X112448098Y-50879254D01*
X112412844Y-50829246D01*
X112413718Y-50768067D01*
X112448098Y-50720746D01*
X112510023Y-50674390D01*
X112541115Y-50651115D01*
X112622194Y-50542805D01*
X112669475Y-50416040D01*
X112675500Y-50360000D01*
X112675500Y-49970000D01*
X112669475Y-49913960D01*
X112622194Y-49787195D01*
X112586986Y-49740162D01*
X112541117Y-49678887D01*
X112541112Y-49678882D01*
X112454110Y-49613754D01*
X112418856Y-49563746D01*
X112419730Y-49502567D01*
X112456396Y-49453585D01*
X112513438Y-49435500D01*
X113815500Y-49435500D01*
X113873691Y-49454407D01*
X113909655Y-49503907D01*
X113914500Y-49534500D01*
X113914500Y-49647394D01*
X113929183Y-49758926D01*
X113929185Y-49758934D01*
X113986667Y-49897708D01*
X113986669Y-49897713D01*
X114056940Y-49989292D01*
X114078114Y-50016886D01*
X114078118Y-50016889D01*
X114078119Y-50016890D01*
X114197286Y-50108330D01*
X114197287Y-50108330D01*
X114197288Y-50108331D01*
X114336070Y-50165816D01*
X114447606Y-50180500D01*
X114447607Y-50180500D01*
X115422393Y-50180500D01*
X115422394Y-50180500D01*
X115533930Y-50165816D01*
X115672712Y-50108331D01*
X115791886Y-50016886D01*
X115883331Y-49897712D01*
X115940816Y-49758930D01*
X115955500Y-49647394D01*
X115955500Y-48872606D01*
X115940816Y-48761070D01*
X115883331Y-48622288D01*
X115883330Y-48622287D01*
X115883330Y-48622286D01*
X115791890Y-48503119D01*
X115791889Y-48503118D01*
X115791886Y-48503114D01*
X115791881Y-48503110D01*
X115791880Y-48503109D01*
X115672713Y-48411669D01*
X115672708Y-48411667D01*
X115527936Y-48351701D01*
X115529067Y-48348969D01*
X115488007Y-48322314D01*
X115466072Y-48265195D01*
X115481900Y-48206093D01*
X115528092Y-48168676D01*
X115527936Y-48168299D01*
X115529208Y-48167772D01*
X115529444Y-48167581D01*
X115530489Y-48167241D01*
X115533928Y-48165816D01*
X115533930Y-48165816D01*
X115672712Y-48108331D01*
X115791886Y-48016886D01*
X115883331Y-47897712D01*
X115940816Y-47758930D01*
X115955500Y-47647394D01*
X115955500Y-46872606D01*
X115940816Y-46761070D01*
X115883331Y-46622288D01*
X115883330Y-46622287D01*
X115883330Y-46622286D01*
X115791890Y-46503119D01*
X115791889Y-46503118D01*
X115791886Y-46503114D01*
X115791881Y-46503110D01*
X115791880Y-46503109D01*
X115672713Y-46411669D01*
X115672708Y-46411667D01*
X115533934Y-46354185D01*
X115533926Y-46354183D01*
X115422394Y-46339500D01*
X114447606Y-46339500D01*
X114447605Y-46339500D01*
X114336073Y-46354183D01*
X114336065Y-46354185D01*
X114197291Y-46411667D01*
X114197286Y-46411669D01*
X114078119Y-46503109D01*
X114078109Y-46503119D01*
X113986669Y-46622286D01*
X113986667Y-46622291D01*
X113929185Y-46761065D01*
X113929183Y-46761073D01*
X113914500Y-46872605D01*
X113914500Y-46985500D01*
X113895593Y-47043691D01*
X113846093Y-47079655D01*
X113815500Y-47084500D01*
X112513438Y-47084500D01*
X112455247Y-47065593D01*
X112419283Y-47016093D01*
X112419283Y-46954907D01*
X112454110Y-46906246D01*
X112541112Y-46841117D01*
X112541111Y-46841117D01*
X112541115Y-46841115D01*
X112622194Y-46732805D01*
X112669475Y-46606040D01*
X112675500Y-46550000D01*
X112675500Y-46160000D01*
X112669475Y-46103960D01*
X112622194Y-45977195D01*
X112604408Y-45953435D01*
X112541117Y-45868887D01*
X112541112Y-45868882D01*
X112448098Y-45799254D01*
X112412844Y-45749246D01*
X112413718Y-45688067D01*
X112448098Y-45640746D01*
X112489170Y-45610000D01*
X112541115Y-45571115D01*
X112622194Y-45462805D01*
X112669475Y-45336040D01*
X112675500Y-45280000D01*
X112675500Y-44890000D01*
X112669475Y-44833960D01*
X112622194Y-44707195D01*
X112597942Y-44674798D01*
X112541117Y-44598887D01*
X112541112Y-44598882D01*
X112448098Y-44529254D01*
X112412844Y-44479246D01*
X112413718Y-44418067D01*
X112448098Y-44370746D01*
X112541112Y-44301117D01*
X112541111Y-44301117D01*
X112541115Y-44301115D01*
X112622194Y-44192805D01*
X112669475Y-44066040D01*
X112675500Y-44010000D01*
X112675500Y-43620000D01*
X112669475Y-43563960D01*
X112622194Y-43437195D01*
X112541117Y-43328887D01*
X112541112Y-43328882D01*
X112448098Y-43259254D01*
X112412844Y-43209246D01*
X112413718Y-43148067D01*
X112448098Y-43100746D01*
X112517669Y-43048666D01*
X112541115Y-43031115D01*
X112622194Y-42922805D01*
X112669475Y-42796040D01*
X112675500Y-42740000D01*
X112675500Y-42350000D01*
X112669475Y-42293960D01*
X112622194Y-42167195D01*
X112590854Y-42125329D01*
X112541117Y-42058887D01*
X112541112Y-42058882D01*
X112448098Y-41989254D01*
X112412844Y-41939246D01*
X112413718Y-41878067D01*
X112448098Y-41830746D01*
X112517669Y-41778666D01*
X112541115Y-41761115D01*
X112622194Y-41652805D01*
X112669475Y-41526040D01*
X112675500Y-41470000D01*
X112675500Y-41080000D01*
X112669475Y-41023960D01*
X112622308Y-40897501D01*
X112622195Y-40897197D01*
X112622194Y-40897195D01*
X112609381Y-40880079D01*
X112589646Y-40822168D01*
X112607720Y-40763713D01*
X112618626Y-40750754D01*
X113615872Y-39753509D01*
X113615875Y-39753508D01*
X113716508Y-39652875D01*
X113766556Y-39566189D01*
X113787666Y-39529626D01*
X113824500Y-39392158D01*
X113824500Y-39249842D01*
X113824500Y-30662842D01*
X113787666Y-30525375D01*
X113716508Y-30402125D01*
X113716505Y-30402122D01*
X113615875Y-30301491D01*
X113615875Y-30301492D01*
X113524459Y-30210076D01*
X113497365Y-30159386D01*
X113482605Y-30085185D01*
X113468811Y-30015838D01*
X113418397Y-29894125D01*
X113414501Y-29884719D01*
X113414495Y-29884708D01*
X113335649Y-29766708D01*
X113235291Y-29666350D01*
X113117291Y-29587504D01*
X113117280Y-29587498D01*
X112986163Y-29533189D01*
X112846963Y-29505500D01*
X112705037Y-29505500D01*
X112705036Y-29505500D01*
X112565836Y-29533189D01*
X112434719Y-29587498D01*
X112434708Y-29587504D01*
X112316708Y-29666350D01*
X112216350Y-29766708D01*
X112137504Y-29884708D01*
X112137498Y-29884719D01*
X112083189Y-30015836D01*
X112055500Y-30155036D01*
X112055500Y-30296963D01*
X112083189Y-30436163D01*
X112137498Y-30567280D01*
X112137504Y-30567291D01*
X112216350Y-30685291D01*
X112316708Y-30785649D01*
X112434708Y-30864495D01*
X112434719Y-30864501D01*
X112483155Y-30884563D01*
X112565838Y-30918811D01*
X112663080Y-30938154D01*
X112663814Y-30938300D01*
X112717198Y-30968197D01*
X112742814Y-31023762D01*
X112743500Y-31035398D01*
X112743500Y-32365110D01*
X112724593Y-32423301D01*
X112675093Y-32459265D01*
X112613907Y-32459265D01*
X112574496Y-32435114D01*
X112091874Y-31952492D01*
X111456875Y-31317492D01*
X111333625Y-31246334D01*
X111196158Y-31209500D01*
X111196156Y-31209500D01*
X110558746Y-31209500D01*
X110500555Y-31190593D01*
X110464591Y-31141093D01*
X110464591Y-31079907D01*
X110488742Y-31040496D01*
X110497685Y-31031552D01*
X110581280Y-30890201D01*
X110581280Y-30890200D01*
X110627098Y-30732493D01*
X110627100Y-30732486D01*
X110627296Y-30730000D01*
X107682704Y-30730000D01*
X107682899Y-30732486D01*
X107682901Y-30732493D01*
X107728719Y-30890200D01*
X107728719Y-30890201D01*
X107812314Y-31031552D01*
X107928445Y-31147683D01*
X107939093Y-31153980D01*
X107979557Y-31199875D01*
X107985316Y-31260789D01*
X107967955Y-31298522D01*
X107912805Y-31372196D01*
X107866067Y-31497506D01*
X107865525Y-31498960D01*
X107859500Y-31555000D01*
X107859500Y-31945000D01*
X107865525Y-32001040D01*
X107866067Y-32002493D01*
X107912805Y-32127804D01*
X107993882Y-32236112D01*
X107993887Y-32236117D01*
X108080890Y-32301246D01*
X108098121Y-32325688D01*
X108115717Y-32349907D01*
X108115717Y-32350648D01*
X108116144Y-32351254D01*
X108115717Y-32381143D01*
X108115717Y-32411093D01*
X108115280Y-32411693D01*
X108115270Y-32412433D01*
X108097365Y-32436351D01*
X108079753Y-32460593D01*
X108079047Y-32460822D01*
X108078604Y-32461415D01*
X108021562Y-32479500D01*
X107832981Y-32479500D01*
X107777979Y-32462815D01*
X107774293Y-32460352D01*
X107774292Y-32460351D01*
X107736522Y-32435114D01*
X107656291Y-32381504D01*
X107656280Y-32381498D01*
X107525163Y-32327189D01*
X107385963Y-32299500D01*
X107244037Y-32299500D01*
X107244036Y-32299500D01*
X107104836Y-32327189D01*
X106973719Y-32381498D01*
X106973708Y-32381504D01*
X106855708Y-32460350D01*
X106755350Y-32560708D01*
X106676504Y-32678708D01*
X106676498Y-32678719D01*
X106622189Y-32809836D01*
X106594500Y-32949036D01*
X106594500Y-33090963D01*
X106622189Y-33230163D01*
X106676498Y-33361280D01*
X106676504Y-33361291D01*
X106755350Y-33479291D01*
X106855708Y-33579649D01*
X106973708Y-33658495D01*
X106973719Y-33658501D01*
X107000274Y-33669500D01*
X107104838Y-33712811D01*
X107244037Y-33740500D01*
X107244038Y-33740500D01*
X107385962Y-33740500D01*
X107385963Y-33740500D01*
X107525162Y-33712811D01*
X107651408Y-33660518D01*
X107712403Y-33655718D01*
X107764572Y-33687688D01*
X107787987Y-33744216D01*
X107774506Y-33802377D01*
X107728718Y-33879800D01*
X107682901Y-34037506D01*
X107682899Y-34037513D01*
X107682704Y-34040000D01*
X110627295Y-34040000D01*
X110627100Y-34037513D01*
X110627098Y-34037506D01*
X110581280Y-33879799D01*
X110581280Y-33879798D01*
X110497685Y-33738447D01*
X110381552Y-33622314D01*
X110370900Y-33616014D01*
X110330440Y-33570117D01*
X110324684Y-33509203D01*
X110342044Y-33471476D01*
X110397194Y-33397805D01*
X110444475Y-33271040D01*
X110450500Y-33215000D01*
X110450500Y-32825000D01*
X110444475Y-32768960D01*
X110397194Y-32642195D01*
X110316117Y-32533887D01*
X110316112Y-32533882D01*
X110229110Y-32468754D01*
X110193856Y-32418746D01*
X110194730Y-32357567D01*
X110231396Y-32308585D01*
X110288438Y-32290500D01*
X110860109Y-32290500D01*
X110918300Y-32309407D01*
X110930113Y-32319496D01*
X111825504Y-33214886D01*
X111853281Y-33269403D01*
X111854500Y-33284890D01*
X111854500Y-38470109D01*
X111835593Y-38528300D01*
X111825504Y-38540113D01*
X110930113Y-39435504D01*
X110875596Y-39463281D01*
X110860109Y-39464500D01*
X110561158Y-39464500D01*
X110418842Y-39464500D01*
X110281374Y-39501334D01*
X110281372Y-39501334D01*
X110281372Y-39501335D01*
X110236261Y-39527377D01*
X110236262Y-39527378D01*
X110158126Y-39572490D01*
X110158124Y-39572492D01*
X110057491Y-39673124D01*
X110057492Y-39673125D01*
X109025113Y-40705504D01*
X108970596Y-40733281D01*
X108955109Y-40734500D01*
X103201414Y-40734500D01*
X103143223Y-40715593D01*
X103142158Y-40714807D01*
X103132805Y-40707806D01*
X103132804Y-40707805D01*
X103132802Y-40707804D01*
X103034411Y-40671106D01*
X103006040Y-40660525D01*
X103006036Y-40660524D01*
X103006034Y-40660524D01*
X102976676Y-40657368D01*
X102950000Y-40654500D01*
X101110000Y-40654500D01*
X101086977Y-40656975D01*
X101053965Y-40660524D01*
X101053961Y-40660524D01*
X101053960Y-40660525D01*
X101053957Y-40660525D01*
X101053957Y-40660526D01*
X100927195Y-40707805D01*
X100818887Y-40788882D01*
X100818882Y-40788887D01*
X100737805Y-40897195D01*
X100690526Y-41023957D01*
X100690525Y-41023960D01*
X100684500Y-41080000D01*
X100684500Y-41470000D01*
X100690525Y-41526040D01*
X100690526Y-41526042D01*
X100737805Y-41652804D01*
X100818882Y-41761112D01*
X100818887Y-41761117D01*
X100905890Y-41826246D01*
X100941144Y-41876254D01*
X100940270Y-41937433D01*
X100903604Y-41986415D01*
X100846562Y-42004500D01*
X98700061Y-42004500D01*
X98641870Y-41985593D01*
X98630057Y-41975504D01*
X98086483Y-41431930D01*
X97497046Y-40842492D01*
X97373796Y-40771334D01*
X97236329Y-40734500D01*
X97236327Y-40734500D01*
X92152238Y-40734500D01*
X92152222Y-40734499D01*
X92146159Y-40734499D01*
X92003842Y-40734499D01*
X92003839Y-40734499D01*
X91866378Y-40771332D01*
X91743125Y-40842492D01*
X91108125Y-41477492D01*
X91108124Y-41477491D01*
X91007494Y-41578122D01*
X91007492Y-41578124D01*
X91007492Y-41578125D01*
X90936334Y-41701375D01*
X90900689Y-41834407D01*
X90899500Y-41838843D01*
X90899500Y-41937558D01*
X90880593Y-41995749D01*
X90855539Y-42018911D01*
X90855877Y-42019376D01*
X90852731Y-42021661D01*
X90852730Y-42021662D01*
X90814822Y-42049204D01*
X90710044Y-42125329D01*
X90585329Y-42250044D01*
X90481660Y-42392732D01*
X90401592Y-42549876D01*
X90347088Y-42717620D01*
X90319500Y-42891811D01*
X90020500Y-42891811D01*
X89992911Y-42717620D01*
X89973927Y-42659193D01*
X89938408Y-42549877D01*
X89858338Y-42392730D01*
X89754670Y-42250043D01*
X89629957Y-42125330D01*
X89487270Y-42021662D01*
X89487269Y-42021661D01*
X89487267Y-42021660D01*
X89330123Y-41941592D01*
X89162379Y-41887088D01*
X88988188Y-41859500D01*
X88988185Y-41859500D01*
X88811815Y-41859500D01*
X88811812Y-41859500D01*
X88637620Y-41887088D01*
X88469876Y-41941592D01*
X88312732Y-42021660D01*
X88170044Y-42125329D01*
X88045329Y-42250044D01*
X87941660Y-42392732D01*
X87861592Y-42549876D01*
X87807088Y-42717620D01*
X87779500Y-42891811D01*
X87480500Y-42891811D01*
X87452911Y-42717620D01*
X87433927Y-42659193D01*
X87398408Y-42549877D01*
X87318338Y-42392730D01*
X87214670Y-42250043D01*
X87133006Y-42168379D01*
X87105231Y-42113865D01*
X87114802Y-42053433D01*
X87133008Y-42028374D01*
X89094886Y-40066496D01*
X89149403Y-40038719D01*
X89164890Y-40037500D01*
X98795109Y-40037500D01*
X98853300Y-40056407D01*
X98865113Y-40066496D01*
X99073540Y-40274923D01*
X99100634Y-40325612D01*
X99129189Y-40469163D01*
X99183498Y-40600280D01*
X99183504Y-40600291D01*
X99262350Y-40718291D01*
X99362708Y-40818649D01*
X99480708Y-40897495D01*
X99480719Y-40897501D01*
X99568130Y-40933707D01*
X99611838Y-40951811D01*
X99751037Y-40979500D01*
X99751038Y-40979500D01*
X99892962Y-40979500D01*
X99892963Y-40979500D01*
X100032162Y-40951811D01*
X100163285Y-40897499D01*
X100281292Y-40818649D01*
X100381649Y-40718292D01*
X100460499Y-40600285D01*
X100514811Y-40469162D01*
X100542500Y-40329963D01*
X100542500Y-40188037D01*
X100514811Y-40048838D01*
X100460499Y-39917715D01*
X100460498Y-39917713D01*
X100460495Y-39917708D01*
X100381649Y-39799708D01*
X100281291Y-39699350D01*
X100163291Y-39620504D01*
X100163280Y-39620498D01*
X100032163Y-39566189D01*
X99888612Y-39537634D01*
X99837924Y-39510540D01*
X99391877Y-39064494D01*
X99391875Y-39064492D01*
X99268625Y-38993334D01*
X99131158Y-38956500D01*
X88971158Y-38956500D01*
X88828841Y-38956500D01*
X88805978Y-38962625D01*
X88805979Y-38962626D01*
X88691374Y-38993334D01*
X88607192Y-39041936D01*
X88574555Y-39060780D01*
X88568122Y-39064494D01*
X88467491Y-39165124D01*
X88467492Y-39165125D01*
X88467490Y-39165127D01*
X86028125Y-41604491D01*
X86028125Y-41604492D01*
X86028124Y-41604491D01*
X85927494Y-41705122D01*
X85927492Y-41705124D01*
X85927492Y-41705125D01*
X85895168Y-41761112D01*
X85856334Y-41828375D01*
X85820981Y-41960314D01*
X85787656Y-42011629D01*
X85775839Y-42019306D01*
X85776040Y-42019634D01*
X85772733Y-42021659D01*
X85630044Y-42125329D01*
X85505329Y-42250044D01*
X85401660Y-42392732D01*
X85321592Y-42549876D01*
X85267088Y-42717620D01*
X85239500Y-42891811D01*
X84940500Y-42891811D01*
X84912911Y-42717620D01*
X84893927Y-42659193D01*
X84858408Y-42549877D01*
X84778338Y-42392730D01*
X84674670Y-42250043D01*
X84549957Y-42125330D01*
X84407270Y-42021662D01*
X84407269Y-42021661D01*
X84407267Y-42021660D01*
X84250123Y-41941592D01*
X84082379Y-41887088D01*
X83908188Y-41859500D01*
X83908185Y-41859500D01*
X83731815Y-41859500D01*
X83731812Y-41859500D01*
X83557620Y-41887088D01*
X83389876Y-41941592D01*
X83232732Y-42021660D01*
X83090044Y-42125329D01*
X82965329Y-42250044D01*
X82861660Y-42392732D01*
X82781592Y-42549876D01*
X82727088Y-42717620D01*
X82699500Y-42891811D01*
X66040000Y-42891811D01*
X66040000Y-38213128D01*
X66058907Y-38154937D01*
X66108407Y-38118973D01*
X66169593Y-38118973D01*
X66180839Y-38123404D01*
X66225766Y-38144354D01*
X66225767Y-38144354D01*
X66225769Y-38144355D01*
X66272446Y-38150500D01*
X66272447Y-38150500D01*
X68347552Y-38150500D01*
X68347554Y-38150500D01*
X68394231Y-38144355D01*
X68496667Y-38096588D01*
X68576588Y-38016667D01*
X68624355Y-37914231D01*
X68630500Y-37867554D01*
X68630500Y-37517075D01*
X68649407Y-37458884D01*
X68698907Y-37422920D01*
X68760093Y-37422920D01*
X68809593Y-37458884D01*
X68817710Y-37472130D01*
X68891660Y-37617268D01*
X68932606Y-37673625D01*
X68995330Y-37759957D01*
X69120043Y-37884670D01*
X69262730Y-37988338D01*
X69262731Y-37988339D01*
X69265877Y-37990624D01*
X69265216Y-37991533D01*
X69301960Y-38034545D01*
X69309500Y-38072441D01*
X69309500Y-39132698D01*
X69290593Y-39190889D01*
X69255446Y-39220907D01*
X69157912Y-39270603D01*
X69157910Y-39270604D01*
X68989753Y-39392778D01*
X68842778Y-39539753D01*
X68720605Y-39707909D01*
X68626243Y-39893107D01*
X68626241Y-39893110D01*
X68562015Y-40090776D01*
X68562014Y-40090780D01*
X68529500Y-40296070D01*
X68529500Y-40503929D01*
X68562014Y-40709219D01*
X68562015Y-40709223D01*
X68626241Y-40906889D01*
X68626243Y-40906892D01*
X68685891Y-41023960D01*
X68720607Y-41092093D01*
X68842779Y-41260248D01*
X68989752Y-41407221D01*
X69157907Y-41529393D01*
X69343104Y-41623755D01*
X69343106Y-41623755D01*
X69343107Y-41623756D01*
X69343110Y-41623758D01*
X69540776Y-41687984D01*
X69540780Y-41687985D01*
X69746071Y-41720500D01*
X69746074Y-41720500D01*
X69953929Y-41720500D01*
X70159219Y-41687985D01*
X70159223Y-41687984D01*
X70356889Y-41623758D01*
X70356891Y-41623756D01*
X70356896Y-41623755D01*
X70359047Y-41622659D01*
X73425893Y-41622659D01*
X73508825Y-41682913D01*
X73508829Y-41682915D01*
X73719203Y-41790105D01*
X73719206Y-41790107D01*
X73943743Y-41863064D01*
X73943747Y-41863065D01*
X74176944Y-41900000D01*
X74413056Y-41900000D01*
X74646252Y-41863065D01*
X74646256Y-41863064D01*
X74870793Y-41790107D01*
X74870796Y-41790105D01*
X75081170Y-41682915D01*
X75081176Y-41682911D01*
X75164105Y-41622659D01*
X75164105Y-41622658D01*
X74295000Y-40753553D01*
X73425893Y-41622659D01*
X70359047Y-41622659D01*
X70542093Y-41529393D01*
X70710248Y-41407221D01*
X70857221Y-41260248D01*
X70979393Y-41092093D01*
X71073755Y-40906896D01*
X71073756Y-40906891D01*
X71073758Y-40906889D01*
X71137984Y-40709223D01*
X71137985Y-40709219D01*
X71170500Y-40503929D01*
X71170500Y-40296073D01*
X71170099Y-40293541D01*
X71170099Y-40293539D01*
X71168262Y-40281943D01*
X72795000Y-40281943D01*
X72795000Y-40518056D01*
X72831934Y-40751252D01*
X72831935Y-40751256D01*
X72904892Y-40975793D01*
X72904894Y-40975796D01*
X73012084Y-41186169D01*
X73072339Y-41269105D01*
X73941444Y-40400000D01*
X74648553Y-40400000D01*
X75517658Y-41269105D01*
X75517659Y-41269105D01*
X75577911Y-41186176D01*
X75577915Y-41186170D01*
X75685105Y-40975796D01*
X75685107Y-40975793D01*
X75758064Y-40751256D01*
X75758065Y-40751252D01*
X75795000Y-40518056D01*
X75795000Y-40281943D01*
X75758065Y-40048747D01*
X75758064Y-40048743D01*
X75685107Y-39824206D01*
X75685105Y-39824203D01*
X75577915Y-39613829D01*
X75577913Y-39613825D01*
X75517659Y-39530893D01*
X74648553Y-40400000D01*
X73941444Y-40400000D01*
X73941445Y-40399999D01*
X73072339Y-39530893D01*
X73012088Y-39613823D01*
X72904894Y-39824203D01*
X72904892Y-39824206D01*
X72831935Y-40048743D01*
X72831934Y-40048747D01*
X72795000Y-40281943D01*
X71168262Y-40281943D01*
X71137985Y-40090780D01*
X71137984Y-40090776D01*
X71073758Y-39893110D01*
X71073756Y-39893107D01*
X71073755Y-39893106D01*
X71073755Y-39893104D01*
X70979393Y-39707907D01*
X70857221Y-39539752D01*
X70710248Y-39392779D01*
X70542093Y-39270607D01*
X70442517Y-39219870D01*
X70440493Y-39218717D01*
X70421368Y-39197720D01*
X70401290Y-39177642D01*
X70401217Y-39177339D01*
X73425893Y-39177339D01*
X74294999Y-40046445D01*
X75164105Y-39177339D01*
X75081169Y-39117084D01*
X74870796Y-39009894D01*
X74870793Y-39009892D01*
X74646256Y-38936935D01*
X74646252Y-38936934D01*
X74413056Y-38900000D01*
X74176944Y-38900000D01*
X73943747Y-38936934D01*
X73943743Y-38936935D01*
X73719206Y-39009892D01*
X73719203Y-39009894D01*
X73508823Y-39117088D01*
X73425893Y-39177339D01*
X70401217Y-39177339D01*
X70400649Y-39174974D01*
X70399291Y-39173483D01*
X70398432Y-39165737D01*
X70390500Y-39132698D01*
X70390500Y-38072441D01*
X70409407Y-38014250D01*
X70434462Y-37991091D01*
X70434123Y-37990624D01*
X70437267Y-37988339D01*
X70437270Y-37988338D01*
X70579957Y-37884670D01*
X70704670Y-37759957D01*
X70808338Y-37617270D01*
X70888408Y-37460123D01*
X70942910Y-37292384D01*
X70943400Y-37289291D01*
X70970500Y-37118188D01*
X70970500Y-36541811D01*
X71269500Y-36541811D01*
X71269500Y-37118188D01*
X71297088Y-37292379D01*
X71351592Y-37460123D01*
X71416547Y-37587606D01*
X71431662Y-37617270D01*
X71535330Y-37759957D01*
X71660043Y-37884670D01*
X71802730Y-37988338D01*
X71959877Y-38068408D01*
X72127616Y-38122910D01*
X72127617Y-38122910D01*
X72127620Y-38122911D01*
X72301812Y-38150500D01*
X72301815Y-38150500D01*
X72478188Y-38150500D01*
X72652379Y-38122911D01*
X72652380Y-38122910D01*
X72652384Y-38122910D01*
X72820123Y-38068408D01*
X72977270Y-37988338D01*
X73119957Y-37884670D01*
X73244670Y-37759957D01*
X73348338Y-37617270D01*
X73428408Y-37460123D01*
X73482910Y-37292384D01*
X73483400Y-37289291D01*
X73510500Y-37118188D01*
X73510500Y-36541811D01*
X73809500Y-36541811D01*
X73809500Y-37118188D01*
X73837088Y-37292379D01*
X73891592Y-37460123D01*
X73956547Y-37587606D01*
X73971662Y-37617270D01*
X74075330Y-37759957D01*
X74200043Y-37884670D01*
X74342730Y-37988338D01*
X74499877Y-38068408D01*
X74667616Y-38122910D01*
X74667617Y-38122910D01*
X74667620Y-38122911D01*
X74841812Y-38150500D01*
X74841815Y-38150500D01*
X75018188Y-38150500D01*
X75192379Y-38122911D01*
X75192380Y-38122910D01*
X75192384Y-38122910D01*
X75360123Y-38068408D01*
X75517270Y-37988338D01*
X75659957Y-37884670D01*
X75784670Y-37759957D01*
X75888338Y-37617270D01*
X75968408Y-37460123D01*
X76022910Y-37292384D01*
X76023400Y-37289291D01*
X76050500Y-37118188D01*
X76050500Y-36541811D01*
X76349500Y-36541811D01*
X76349500Y-37118188D01*
X76377088Y-37292379D01*
X76431592Y-37460123D01*
X76496547Y-37587606D01*
X76511662Y-37617270D01*
X76615330Y-37759957D01*
X76740043Y-37884670D01*
X76882730Y-37988338D01*
X77039877Y-38068408D01*
X77207616Y-38122910D01*
X77207617Y-38122910D01*
X77207620Y-38122911D01*
X77381812Y-38150500D01*
X77381815Y-38150500D01*
X77558188Y-38150500D01*
X77732379Y-38122911D01*
X77732380Y-38122910D01*
X77732384Y-38122910D01*
X77900123Y-38068408D01*
X78057270Y-37988338D01*
X78199957Y-37884670D01*
X78324670Y-37759957D01*
X78428338Y-37617270D01*
X78508408Y-37460123D01*
X78562910Y-37292384D01*
X78563400Y-37289291D01*
X78590500Y-37118188D01*
X78590500Y-36541811D01*
X78889500Y-36541811D01*
X78889500Y-37118188D01*
X78917088Y-37292379D01*
X78971592Y-37460123D01*
X79036547Y-37587606D01*
X79051662Y-37617270D01*
X79155330Y-37759957D01*
X79280043Y-37884670D01*
X79422730Y-37988338D01*
X79579877Y-38068408D01*
X79747616Y-38122910D01*
X79747617Y-38122910D01*
X79747620Y-38122911D01*
X79921812Y-38150500D01*
X79921815Y-38150500D01*
X80098188Y-38150500D01*
X80272379Y-38122911D01*
X80272380Y-38122910D01*
X80272384Y-38122910D01*
X80440123Y-38068408D01*
X80597270Y-37988338D01*
X80739957Y-37884670D01*
X80864670Y-37759957D01*
X80968338Y-37617270D01*
X81048408Y-37460123D01*
X81102910Y-37292384D01*
X81103400Y-37289291D01*
X81130500Y-37118188D01*
X81130500Y-36541811D01*
X81102911Y-36367620D01*
X81074279Y-36279500D01*
X81048408Y-36199877D01*
X80968338Y-36042730D01*
X80864670Y-35900043D01*
X80739957Y-35775330D01*
X80597270Y-35671662D01*
X80597269Y-35671661D01*
X80597267Y-35671660D01*
X80440123Y-35591592D01*
X80272379Y-35537088D01*
X80098188Y-35509500D01*
X80098185Y-35509500D01*
X79921815Y-35509500D01*
X79921812Y-35509500D01*
X79747620Y-35537088D01*
X79579876Y-35591592D01*
X79422732Y-35671660D01*
X79280044Y-35775329D01*
X79155329Y-35900044D01*
X79051660Y-36042732D01*
X78971592Y-36199876D01*
X78917088Y-36367620D01*
X78889500Y-36541811D01*
X78590500Y-36541811D01*
X78562911Y-36367620D01*
X78534279Y-36279500D01*
X78508408Y-36199877D01*
X78428338Y-36042730D01*
X78324670Y-35900043D01*
X78199957Y-35775330D01*
X78057270Y-35671662D01*
X78057269Y-35671661D01*
X78057267Y-35671660D01*
X77900123Y-35591592D01*
X77732379Y-35537088D01*
X77558188Y-35509500D01*
X77558185Y-35509500D01*
X77381815Y-35509500D01*
X77381812Y-35509500D01*
X77207620Y-35537088D01*
X77039876Y-35591592D01*
X76882732Y-35671660D01*
X76740044Y-35775329D01*
X76615329Y-35900044D01*
X76511660Y-36042732D01*
X76431592Y-36199876D01*
X76377088Y-36367620D01*
X76349500Y-36541811D01*
X76050500Y-36541811D01*
X76022911Y-36367620D01*
X75994279Y-36279500D01*
X75968408Y-36199877D01*
X75888338Y-36042730D01*
X75784670Y-35900043D01*
X75659957Y-35775330D01*
X75517270Y-35671662D01*
X75517268Y-35671660D01*
X75514123Y-35669376D01*
X75514779Y-35668471D01*
X75478030Y-35625430D01*
X75470500Y-35587558D01*
X75470500Y-34854036D01*
X80559500Y-34854036D01*
X80559500Y-34995963D01*
X80587189Y-35135163D01*
X80641498Y-35266280D01*
X80641504Y-35266291D01*
X80720350Y-35384291D01*
X80820708Y-35484649D01*
X80938708Y-35563495D01*
X80938719Y-35563501D01*
X81014991Y-35595093D01*
X81069838Y-35617811D01*
X81209037Y-35645500D01*
X81209038Y-35645500D01*
X81350962Y-35645500D01*
X81350963Y-35645500D01*
X81490162Y-35617811D01*
X81621285Y-35563499D01*
X81739292Y-35484649D01*
X81739293Y-35484647D01*
X81742979Y-35482185D01*
X81797981Y-35465500D01*
X81954981Y-35465500D01*
X82013172Y-35484407D01*
X82049136Y-35533907D01*
X82049136Y-35595093D01*
X82013172Y-35644593D01*
X81999926Y-35652710D01*
X81962731Y-35671661D01*
X81820044Y-35775329D01*
X81695329Y-35900044D01*
X81591660Y-36042732D01*
X81511592Y-36199876D01*
X81457088Y-36367620D01*
X81429500Y-36541811D01*
X81429500Y-37118188D01*
X81457088Y-37292379D01*
X81511592Y-37460123D01*
X81576547Y-37587606D01*
X81591662Y-37617270D01*
X81695330Y-37759957D01*
X81820043Y-37884670D01*
X81962730Y-37988338D01*
X82119877Y-38068408D01*
X82287616Y-38122910D01*
X82287617Y-38122910D01*
X82287620Y-38122911D01*
X82461812Y-38150500D01*
X82461815Y-38150500D01*
X82638188Y-38150500D01*
X82812379Y-38122911D01*
X82812380Y-38122910D01*
X82812384Y-38122910D01*
X82980123Y-38068408D01*
X83137270Y-37988338D01*
X83279957Y-37884670D01*
X83404670Y-37759957D01*
X83508338Y-37617270D01*
X83588408Y-37460123D01*
X83642910Y-37292384D01*
X83643400Y-37289291D01*
X83670500Y-37118188D01*
X83670500Y-36541811D01*
X83642911Y-36367620D01*
X83614279Y-36279500D01*
X83588408Y-36199877D01*
X83508338Y-36042730D01*
X83404670Y-35900043D01*
X83279957Y-35775330D01*
X83137270Y-35671662D01*
X83100073Y-35652709D01*
X83056810Y-35609446D01*
X83047238Y-35549014D01*
X83075015Y-35494497D01*
X83129531Y-35466719D01*
X83145019Y-35465500D01*
X84494981Y-35465500D01*
X84553172Y-35484407D01*
X84589136Y-35533907D01*
X84589136Y-35595093D01*
X84553172Y-35644593D01*
X84539926Y-35652710D01*
X84502731Y-35671661D01*
X84360044Y-35775329D01*
X84235329Y-35900044D01*
X84131660Y-36042732D01*
X84051592Y-36199876D01*
X83997088Y-36367620D01*
X83969500Y-36541811D01*
X83969500Y-37118188D01*
X83997088Y-37292379D01*
X84051592Y-37460123D01*
X84116547Y-37587606D01*
X84131662Y-37617270D01*
X84235330Y-37759957D01*
X84360043Y-37884670D01*
X84502730Y-37988338D01*
X84502731Y-37988339D01*
X84505877Y-37990624D01*
X84505216Y-37991533D01*
X84514852Y-38002814D01*
X84530593Y-38014250D01*
X84534257Y-38025528D01*
X84541960Y-38034545D01*
X84549500Y-38072441D01*
X84549500Y-38102698D01*
X84530593Y-38160889D01*
X84495446Y-38190907D01*
X84397912Y-38240603D01*
X84397910Y-38240604D01*
X84229753Y-38362778D01*
X84082778Y-38509753D01*
X83960605Y-38677909D01*
X83866243Y-38863107D01*
X83866241Y-38863110D01*
X83802015Y-39060776D01*
X83802014Y-39060780D01*
X83769500Y-39266070D01*
X83769500Y-39473929D01*
X83802014Y-39679219D01*
X83802015Y-39679223D01*
X83866241Y-39876889D01*
X83866243Y-39876892D01*
X83957709Y-40056407D01*
X83960607Y-40062093D01*
X84082779Y-40230248D01*
X84229752Y-40377221D01*
X84397907Y-40499393D01*
X84583104Y-40593755D01*
X84583106Y-40593755D01*
X84583107Y-40593756D01*
X84583110Y-40593758D01*
X84780776Y-40657984D01*
X84780780Y-40657985D01*
X84986071Y-40690500D01*
X84986074Y-40690500D01*
X85193929Y-40690500D01*
X85399219Y-40657985D01*
X85399223Y-40657984D01*
X85596889Y-40593758D01*
X85596891Y-40593756D01*
X85596896Y-40593755D01*
X85782093Y-40499393D01*
X85950248Y-40377221D01*
X86097221Y-40230248D01*
X86219393Y-40062093D01*
X86313755Y-39876896D01*
X86313756Y-39876891D01*
X86313758Y-39876889D01*
X86377984Y-39679223D01*
X86377985Y-39679219D01*
X86410500Y-39473929D01*
X86410500Y-39266070D01*
X86377985Y-39060780D01*
X86377984Y-39060776D01*
X86313758Y-38863110D01*
X86313756Y-38863107D01*
X86313755Y-38863106D01*
X86313755Y-38863104D01*
X86219393Y-38677907D01*
X86097221Y-38509752D01*
X85950248Y-38362779D01*
X85932661Y-38350001D01*
X104555001Y-38350001D01*
X104555001Y-38624986D01*
X104565492Y-38727687D01*
X104565495Y-38727699D01*
X104620643Y-38894124D01*
X104712680Y-39043340D01*
X104836659Y-39167319D01*
X104985875Y-39259356D01*
X105152306Y-39314506D01*
X105255013Y-39324999D01*
X105392500Y-39324999D01*
X105392500Y-38350001D01*
X105392499Y-38350000D01*
X104555002Y-38350000D01*
X104555001Y-38350001D01*
X85932661Y-38350001D01*
X85782093Y-38240607D01*
X85782089Y-38240604D01*
X85782087Y-38240603D01*
X85684554Y-38190907D01*
X85668164Y-38174517D01*
X85649407Y-38160889D01*
X85646938Y-38153290D01*
X85641290Y-38147642D01*
X85630500Y-38102698D01*
X85630500Y-38072441D01*
X85649407Y-38014250D01*
X85674462Y-37991091D01*
X85674123Y-37990624D01*
X85677267Y-37988339D01*
X85677270Y-37988338D01*
X85819957Y-37884670D01*
X85944670Y-37759957D01*
X86048338Y-37617270D01*
X86069869Y-37575012D01*
X104555000Y-37575012D01*
X104555000Y-37849999D01*
X104555001Y-37850000D01*
X105392499Y-37850000D01*
X105392500Y-37849999D01*
X105392500Y-36875001D01*
X105892500Y-36875001D01*
X105892500Y-39324998D01*
X105892501Y-39324999D01*
X106029986Y-39324999D01*
X106132687Y-39314507D01*
X106132699Y-39314504D01*
X106299124Y-39259356D01*
X106448340Y-39167319D01*
X106572319Y-39043340D01*
X106664357Y-38894123D01*
X106683063Y-38837671D01*
X106719313Y-38788381D01*
X106777613Y-38769812D01*
X106835693Y-38789057D01*
X106868502Y-38830924D01*
X106881668Y-38862710D01*
X106881669Y-38862713D01*
X106958335Y-38962626D01*
X106973114Y-38981886D01*
X106973118Y-38981889D01*
X106973119Y-38981890D01*
X107092286Y-39073330D01*
X107092287Y-39073330D01*
X107092288Y-39073331D01*
X107231070Y-39130816D01*
X107342606Y-39145500D01*
X107342607Y-39145500D01*
X108092393Y-39145500D01*
X108092394Y-39145500D01*
X108203930Y-39130816D01*
X108342712Y-39073331D01*
X108461886Y-38981886D01*
X108553331Y-38862712D01*
X108610816Y-38723930D01*
X108610817Y-38723919D01*
X108612427Y-38717914D01*
X108645749Y-38666598D01*
X108702870Y-38644669D01*
X108761971Y-38660502D01*
X108762994Y-38661176D01*
X108788033Y-38677907D01*
X108878708Y-38738495D01*
X108878719Y-38738501D01*
X108966130Y-38774707D01*
X109009838Y-38792811D01*
X109149037Y-38820500D01*
X109149038Y-38820500D01*
X109290962Y-38820500D01*
X109290963Y-38820500D01*
X109430162Y-38792811D01*
X109561285Y-38738499D01*
X109679292Y-38659649D01*
X109779649Y-38559292D01*
X109858499Y-38441285D01*
X109912811Y-38310162D01*
X109940500Y-38170963D01*
X109940500Y-38029037D01*
X109912811Y-37889838D01*
X109874305Y-37796874D01*
X109858501Y-37758719D01*
X109858495Y-37758708D01*
X109779649Y-37640708D01*
X109679291Y-37540350D01*
X109561291Y-37461504D01*
X109561280Y-37461498D01*
X109430163Y-37407189D01*
X109290963Y-37379500D01*
X109149037Y-37379500D01*
X109149036Y-37379500D01*
X109009836Y-37407189D01*
X108878719Y-37461498D01*
X108878707Y-37461504D01*
X108763057Y-37538781D01*
X108704169Y-37555390D01*
X108646765Y-37534213D01*
X108612772Y-37483339D01*
X108612428Y-37482087D01*
X108610815Y-37476067D01*
X108553332Y-37337291D01*
X108553330Y-37337286D01*
X108461890Y-37218119D01*
X108461889Y-37218118D01*
X108461886Y-37218114D01*
X108461881Y-37218110D01*
X108461880Y-37218109D01*
X108381796Y-37156659D01*
X108342712Y-37126669D01*
X108342710Y-37126668D01*
X108319114Y-37116894D01*
X108272588Y-37077157D01*
X108258000Y-37025430D01*
X108258000Y-36279500D01*
X108276907Y-36221309D01*
X108326407Y-36185345D01*
X108357000Y-36180500D01*
X110024997Y-36180500D01*
X110025000Y-36180500D01*
X110081040Y-36174475D01*
X110207805Y-36127194D01*
X110316115Y-36046115D01*
X110397194Y-35937805D01*
X110444475Y-35811040D01*
X110450500Y-35755000D01*
X110450500Y-35365000D01*
X110444475Y-35308960D01*
X110397194Y-35182195D01*
X110386081Y-35167350D01*
X110342045Y-35108523D01*
X110322309Y-35050608D01*
X110340384Y-34992153D01*
X110370908Y-34963979D01*
X110381554Y-34957683D01*
X110497685Y-34841552D01*
X110581280Y-34700201D01*
X110581280Y-34700200D01*
X110627098Y-34542493D01*
X110627100Y-34542486D01*
X110627296Y-34540000D01*
X107682704Y-34540000D01*
X107682899Y-34542486D01*
X107682901Y-34542493D01*
X107728719Y-34700200D01*
X107728719Y-34700201D01*
X107812314Y-34841552D01*
X107845465Y-34874703D01*
X107873242Y-34929220D01*
X107863671Y-34989652D01*
X107820406Y-35032917D01*
X107801086Y-35040333D01*
X107741377Y-35056333D01*
X107741375Y-35056333D01*
X107741375Y-35056334D01*
X107632590Y-35119141D01*
X107618122Y-35127494D01*
X107284994Y-35460622D01*
X107284992Y-35460624D01*
X107284992Y-35460625D01*
X107213834Y-35583875D01*
X107202700Y-35625430D01*
X107177000Y-35721343D01*
X107177000Y-37025430D01*
X107158093Y-37083621D01*
X107115886Y-37116894D01*
X107092289Y-37126668D01*
X106973119Y-37218109D01*
X106973109Y-37218119D01*
X106881669Y-37337286D01*
X106881669Y-37337287D01*
X106868502Y-37369076D01*
X106828764Y-37415601D01*
X106769269Y-37429884D01*
X106712742Y-37406468D01*
X106683063Y-37362328D01*
X106664357Y-37305876D01*
X106572319Y-37156659D01*
X106448340Y-37032680D01*
X106299124Y-36940643D01*
X106132693Y-36885493D01*
X106029987Y-36875000D01*
X105892501Y-36875000D01*
X105892500Y-36875001D01*
X105392500Y-36875001D01*
X105392499Y-36875000D01*
X105255013Y-36875000D01*
X105255013Y-36875001D01*
X105152312Y-36885492D01*
X105152300Y-36885495D01*
X104985875Y-36940643D01*
X104836659Y-37032680D01*
X104712680Y-37156659D01*
X104620643Y-37305875D01*
X104565493Y-37472306D01*
X104555000Y-37575012D01*
X86069869Y-37575012D01*
X86128408Y-37460123D01*
X86135301Y-37438909D01*
X86171264Y-37389408D01*
X86229455Y-37370500D01*
X101082019Y-37370500D01*
X101137021Y-37387185D01*
X101140706Y-37389647D01*
X101140708Y-37389649D01*
X101179548Y-37415601D01*
X101258708Y-37468495D01*
X101258719Y-37468501D01*
X101346130Y-37504707D01*
X101389838Y-37522811D01*
X101529037Y-37550500D01*
X101529038Y-37550500D01*
X101670962Y-37550500D01*
X101670963Y-37550500D01*
X101810162Y-37522811D01*
X101871132Y-37497556D01*
X101911016Y-37481037D01*
X101941280Y-37468501D01*
X101941279Y-37468501D01*
X101941285Y-37468499D01*
X102059292Y-37389649D01*
X102159649Y-37289292D01*
X102238499Y-37171285D01*
X102292811Y-37040162D01*
X102320500Y-36900963D01*
X102320500Y-36759037D01*
X102292811Y-36619838D01*
X102274707Y-36576130D01*
X102238501Y-36488719D01*
X102238495Y-36488708D01*
X102159649Y-36370708D01*
X102059291Y-36270350D01*
X101941291Y-36191504D01*
X101941281Y-36191499D01*
X101930804Y-36187159D01*
X101884279Y-36147421D01*
X101869997Y-36087926D01*
X101893413Y-36031399D01*
X101898663Y-36025718D01*
X102114381Y-35810000D01*
X102732704Y-35810000D01*
X102732899Y-35812486D01*
X102732901Y-35812493D01*
X102778719Y-35970200D01*
X102778719Y-35970201D01*
X102862314Y-36111552D01*
X102978447Y-36227685D01*
X103119799Y-36311280D01*
X103277510Y-36357100D01*
X103314363Y-36360000D01*
X103954999Y-36360000D01*
X103955000Y-36359999D01*
X103955000Y-35810001D01*
X104455000Y-35810001D01*
X104455000Y-36359999D01*
X104455001Y-36360000D01*
X105095637Y-36360000D01*
X105132489Y-36357100D01*
X105290200Y-36311280D01*
X105290201Y-36311280D01*
X105431552Y-36227685D01*
X105547685Y-36111552D01*
X105631280Y-35970201D01*
X105631280Y-35970200D01*
X105677098Y-35812493D01*
X105677100Y-35812486D01*
X105677296Y-35810000D01*
X104455001Y-35810000D01*
X104455000Y-35810001D01*
X103955000Y-35810001D01*
X103954999Y-35810000D01*
X102732704Y-35810000D01*
X102114381Y-35810000D01*
X102603060Y-35321322D01*
X102657576Y-35293545D01*
X102718008Y-35303116D01*
X102727102Y-35310000D01*
X105677295Y-35310000D01*
X105677100Y-35307513D01*
X105677098Y-35307506D01*
X105631280Y-35149799D01*
X105631280Y-35149798D01*
X105547685Y-35008447D01*
X105431552Y-34892314D01*
X105420900Y-34886014D01*
X105380440Y-34840117D01*
X105374684Y-34779203D01*
X105392044Y-34741476D01*
X105447194Y-34667805D01*
X105494475Y-34541040D01*
X105500500Y-34485000D01*
X105500500Y-34095000D01*
X105494475Y-34038960D01*
X105447194Y-33912195D01*
X105422942Y-33879798D01*
X105366117Y-33803887D01*
X105366112Y-33803882D01*
X105273098Y-33734254D01*
X105237844Y-33684246D01*
X105238718Y-33623067D01*
X105273098Y-33575746D01*
X105366112Y-33506117D01*
X105366111Y-33506117D01*
X105366115Y-33506115D01*
X105447194Y-33397805D01*
X105494475Y-33271040D01*
X105500500Y-33215000D01*
X105500500Y-32825000D01*
X105494475Y-32768960D01*
X105447194Y-32642195D01*
X105392045Y-32568523D01*
X105372309Y-32510608D01*
X105390384Y-32452153D01*
X105420908Y-32423979D01*
X105431554Y-32417683D01*
X105547685Y-32301552D01*
X105631280Y-32160201D01*
X105631280Y-32160200D01*
X105677098Y-32002493D01*
X105677100Y-32002486D01*
X105677296Y-32000000D01*
X102732704Y-32000000D01*
X102732899Y-32002486D01*
X102732901Y-32002493D01*
X102778719Y-32160200D01*
X102778719Y-32160201D01*
X102862314Y-32301552D01*
X102871258Y-32310496D01*
X102899035Y-32365013D01*
X102889464Y-32425445D01*
X102846199Y-32468710D01*
X102801254Y-32479500D01*
X102560158Y-32479500D01*
X102417842Y-32479500D01*
X102280374Y-32516334D01*
X102280373Y-32516334D01*
X102280371Y-32516335D01*
X102248094Y-32534971D01*
X102248093Y-32534971D01*
X102157125Y-32587491D01*
X102056491Y-32688124D01*
X102056492Y-32688125D01*
X101504113Y-33240504D01*
X101449596Y-33268281D01*
X101434109Y-33269500D01*
X100672605Y-33269500D01*
X100561073Y-33284183D01*
X100561065Y-33284185D01*
X100422291Y-33341667D01*
X100422286Y-33341669D01*
X100303119Y-33433109D01*
X100303109Y-33433119D01*
X100211669Y-33552286D01*
X100211667Y-33552291D01*
X100151701Y-33697064D01*
X100148974Y-33695934D01*
X100122292Y-33737009D01*
X100065167Y-33758928D01*
X100006069Y-33743084D01*
X99968685Y-33696904D01*
X99968299Y-33697064D01*
X99967758Y-33695760D01*
X99967571Y-33695528D01*
X99967236Y-33694499D01*
X99955569Y-33666333D01*
X99908331Y-33552288D01*
X99908330Y-33552287D01*
X99908330Y-33552286D01*
X99816890Y-33433119D01*
X99816889Y-33433118D01*
X99816886Y-33433114D01*
X99816881Y-33433110D01*
X99816880Y-33433109D01*
X99697713Y-33341669D01*
X99697708Y-33341667D01*
X99558934Y-33284185D01*
X99558926Y-33284183D01*
X99447394Y-33269500D01*
X98672606Y-33269500D01*
X98672605Y-33269500D01*
X98561073Y-33284183D01*
X98561065Y-33284185D01*
X98422291Y-33341667D01*
X98422286Y-33341669D01*
X98303119Y-33433109D01*
X98303109Y-33433119D01*
X98211669Y-33552286D01*
X98211667Y-33552291D01*
X98155296Y-33688385D01*
X98115560Y-33734911D01*
X98063832Y-33749500D01*
X97152301Y-33749500D01*
X97094110Y-33730593D01*
X97064091Y-33695445D01*
X97014394Y-33597909D01*
X97014393Y-33597907D01*
X96892221Y-33429752D01*
X96745248Y-33282779D01*
X96577093Y-33160607D01*
X96577092Y-33160606D01*
X96577090Y-33160605D01*
X96391892Y-33066243D01*
X96391889Y-33066241D01*
X96194223Y-33002015D01*
X96194219Y-33002014D01*
X95988929Y-32969500D01*
X95988926Y-32969500D01*
X95781074Y-32969500D01*
X95781071Y-32969500D01*
X95575780Y-33002014D01*
X95575776Y-33002015D01*
X95378110Y-33066241D01*
X95378107Y-33066243D01*
X95192909Y-33160605D01*
X95024753Y-33282778D01*
X94877778Y-33429753D01*
X94755605Y-33597909D01*
X94661243Y-33783107D01*
X94661241Y-33783110D01*
X94597015Y-33980776D01*
X94597014Y-33980780D01*
X94564500Y-34186070D01*
X94564500Y-34393929D01*
X94597014Y-34599219D01*
X94597015Y-34599223D01*
X94661241Y-34796889D01*
X94661243Y-34796892D01*
X94755606Y-34982092D01*
X94755608Y-34982096D01*
X94778287Y-35013310D01*
X94797194Y-35071500D01*
X94778286Y-35129691D01*
X94728786Y-35165655D01*
X94698194Y-35170500D01*
X88045891Y-35170500D01*
X87987700Y-35151593D01*
X87975887Y-35141504D01*
X87664883Y-34830500D01*
X87326875Y-34492492D01*
X87203625Y-34421334D01*
X87066158Y-34384500D01*
X87066156Y-34384500D01*
X81797981Y-34384500D01*
X81742979Y-34367815D01*
X81739293Y-34365352D01*
X81739292Y-34365351D01*
X81707350Y-34344008D01*
X81621291Y-34286504D01*
X81621280Y-34286498D01*
X81490163Y-34232189D01*
X81350963Y-34204500D01*
X81209037Y-34204500D01*
X81209036Y-34204500D01*
X81069836Y-34232189D01*
X80938719Y-34286498D01*
X80938708Y-34286504D01*
X80820708Y-34365350D01*
X80720350Y-34465708D01*
X80641504Y-34583708D01*
X80641498Y-34583719D01*
X80587189Y-34714836D01*
X80559500Y-34854036D01*
X75470500Y-34854036D01*
X75470500Y-32649890D01*
X75489407Y-32591699D01*
X75499496Y-32579886D01*
X75765346Y-32314036D01*
X81829500Y-32314036D01*
X81829500Y-32455963D01*
X81857189Y-32595163D01*
X81911498Y-32726280D01*
X81911504Y-32726291D01*
X81990350Y-32844291D01*
X82090708Y-32944649D01*
X82208708Y-33023495D01*
X82208719Y-33023501D01*
X82296130Y-33059707D01*
X82339838Y-33077811D01*
X82479037Y-33105500D01*
X82479038Y-33105500D01*
X82620962Y-33105500D01*
X82620963Y-33105500D01*
X82760162Y-33077811D01*
X82891285Y-33023499D01*
X83009292Y-32944649D01*
X83109649Y-32844292D01*
X83188499Y-32726285D01*
X83242811Y-32595162D01*
X83262300Y-32497185D01*
X83292197Y-32443802D01*
X83347762Y-32418186D01*
X83359398Y-32417500D01*
X100674040Y-32417500D01*
X100711924Y-32425035D01*
X100754838Y-32442811D01*
X100894037Y-32470500D01*
X100894038Y-32470500D01*
X101035962Y-32470500D01*
X101035963Y-32470500D01*
X101175162Y-32442811D01*
X101306285Y-32388499D01*
X101424292Y-32309649D01*
X101524649Y-32209292D01*
X101603499Y-32091285D01*
X101657811Y-31960162D01*
X101685500Y-31820963D01*
X101685500Y-31679037D01*
X101657811Y-31539838D01*
X101603499Y-31408715D01*
X101603498Y-31408713D01*
X101603495Y-31408708D01*
X101524649Y-31290708D01*
X101424291Y-31190350D01*
X101306291Y-31111504D01*
X101306280Y-31111498D01*
X101175163Y-31057189D01*
X101035963Y-31029500D01*
X100894037Y-31029500D01*
X100894036Y-31029500D01*
X100754836Y-31057189D01*
X100623719Y-31111498D01*
X100623708Y-31111504D01*
X100505708Y-31190350D01*
X100505699Y-31190358D01*
X100405352Y-31290706D01*
X100404154Y-31292500D01*
X100403377Y-31293112D01*
X100402263Y-31294470D01*
X100401965Y-31294225D01*
X100356104Y-31330380D01*
X100321837Y-31336500D01*
X82986837Y-31336500D01*
X82950007Y-31346367D01*
X82950008Y-31346368D01*
X82849375Y-31373333D01*
X82849371Y-31373335D01*
X82726125Y-31444491D01*
X82631138Y-31539476D01*
X82631133Y-31539483D01*
X82534078Y-31636539D01*
X82483389Y-31663634D01*
X82339836Y-31692189D01*
X82208719Y-31746498D01*
X82208708Y-31746504D01*
X82090708Y-31825350D01*
X81990350Y-31925708D01*
X81911504Y-32043708D01*
X81911498Y-32043719D01*
X81857189Y-32174836D01*
X81829500Y-32314036D01*
X75765346Y-32314036D01*
X77283886Y-30795496D01*
X77338403Y-30767719D01*
X77353890Y-30766500D01*
X102860014Y-30766500D01*
X102918205Y-30785407D01*
X102943854Y-30812851D01*
X102949235Y-30821420D01*
X102962806Y-30857805D01*
X103020385Y-30934722D01*
X103022540Y-30938154D01*
X103029066Y-30964083D01*
X103037690Y-30989390D01*
X103036447Y-30993409D01*
X103037474Y-30997489D01*
X103027513Y-31022301D01*
X103019615Y-31047845D01*
X103015872Y-31051299D01*
X103014680Y-31054270D01*
X103008345Y-31058248D01*
X102989099Y-31076014D01*
X102978448Y-31082313D01*
X102862314Y-31198447D01*
X102778719Y-31339798D01*
X102778719Y-31339799D01*
X102732901Y-31497506D01*
X102732899Y-31497513D01*
X102732704Y-31500000D01*
X105677295Y-31500000D01*
X105677100Y-31497513D01*
X105677098Y-31497506D01*
X105631280Y-31339799D01*
X105631280Y-31339798D01*
X105547685Y-31198447D01*
X105431552Y-31082314D01*
X105420900Y-31076014D01*
X105409060Y-31062583D01*
X105394088Y-31052766D01*
X105389327Y-31040198D01*
X105380440Y-31030117D01*
X105378755Y-31012292D01*
X105372413Y-30995549D01*
X105376051Y-30983674D01*
X105374684Y-30969203D01*
X105388509Y-30936519D01*
X105390195Y-30933946D01*
X105447194Y-30857805D01*
X105456526Y-30832784D01*
X105462614Y-30823500D01*
X105478236Y-30810962D01*
X105490695Y-30795274D01*
X105501547Y-30792254D01*
X105510333Y-30785204D01*
X105530343Y-30784243D01*
X105549641Y-30778875D01*
X105561492Y-30782748D01*
X105571448Y-30782271D01*
X105582797Y-30789713D01*
X105600402Y-30795467D01*
X105703715Y-30864499D01*
X105703717Y-30864500D01*
X105703719Y-30864501D01*
X105765764Y-30890200D01*
X105834838Y-30918811D01*
X105974037Y-30946500D01*
X105974038Y-30946500D01*
X106115962Y-30946500D01*
X106115963Y-30946500D01*
X106255162Y-30918811D01*
X106386285Y-30864499D01*
X106504292Y-30785649D01*
X106604649Y-30685292D01*
X106683499Y-30567285D01*
X106737811Y-30436162D01*
X106765500Y-30296963D01*
X106765500Y-30155037D01*
X106737811Y-30015838D01*
X106687397Y-29894125D01*
X106683501Y-29884719D01*
X106683495Y-29884708D01*
X106604649Y-29766708D01*
X106504291Y-29666350D01*
X106386291Y-29587504D01*
X106386280Y-29587498D01*
X106255163Y-29533189D01*
X106111612Y-29504634D01*
X106060923Y-29477540D01*
X105481227Y-28897844D01*
X105467141Y-28880088D01*
X105461926Y-28871696D01*
X105447194Y-28832195D01*
X105389477Y-28755093D01*
X105387209Y-28751443D01*
X105380860Y-28725703D01*
X105372309Y-28700608D01*
X105373623Y-28696357D01*
X105372558Y-28692038D01*
X105382551Y-28667483D01*
X105390384Y-28642153D01*
X105394350Y-28638491D01*
X105395623Y-28635366D01*
X105402091Y-28631346D01*
X105420908Y-28613979D01*
X105431554Y-28607683D01*
X105547685Y-28491552D01*
X105631280Y-28350201D01*
X105631280Y-28350200D01*
X105677098Y-28192493D01*
X105677100Y-28192486D01*
X105677296Y-28190000D01*
X102732704Y-28190000D01*
X102732899Y-28192486D01*
X102732901Y-28192493D01*
X102778719Y-28350200D01*
X102778719Y-28350201D01*
X102862314Y-28491552D01*
X102978445Y-28607683D01*
X102989093Y-28613980D01*
X103029557Y-28659875D01*
X103035316Y-28720789D01*
X103017955Y-28758522D01*
X102962805Y-28832196D01*
X102932979Y-28912163D01*
X102915525Y-28958960D01*
X102909500Y-29015000D01*
X102909500Y-29405000D01*
X102912368Y-29431676D01*
X102915524Y-29461034D01*
X102915526Y-29461044D01*
X102949415Y-29551904D01*
X102952035Y-29613033D01*
X102918224Y-29664027D01*
X102860896Y-29685409D01*
X102856657Y-29685500D01*
X77160158Y-29685500D01*
X77017842Y-29685500D01*
X76880374Y-29722334D01*
X76880373Y-29722334D01*
X76880371Y-29722335D01*
X76848094Y-29740971D01*
X76848093Y-29740971D01*
X76757125Y-29793491D01*
X76656491Y-29894124D01*
X76656492Y-29894125D01*
X76656490Y-29894127D01*
X74598125Y-31952491D01*
X74598125Y-31952492D01*
X74598124Y-31952491D01*
X74497494Y-32053122D01*
X74497492Y-32053124D01*
X74497492Y-32053125D01*
X74426334Y-32176375D01*
X74390689Y-32309407D01*
X74389500Y-32313843D01*
X74389500Y-35587558D01*
X74370593Y-35645749D01*
X74345539Y-35668911D01*
X74345877Y-35669376D01*
X74342731Y-35671661D01*
X74342730Y-35671662D01*
X74274351Y-35721342D01*
X74200044Y-35775329D01*
X74075329Y-35900044D01*
X73971660Y-36042732D01*
X73891592Y-36199876D01*
X73837088Y-36367620D01*
X73809500Y-36541811D01*
X73510500Y-36541811D01*
X73482911Y-36367620D01*
X73454279Y-36279500D01*
X73428408Y-36199877D01*
X73348338Y-36042730D01*
X73244670Y-35900043D01*
X73119957Y-35775330D01*
X72977270Y-35671662D01*
X72977269Y-35671661D01*
X72977267Y-35671660D01*
X72820123Y-35591592D01*
X72652379Y-35537088D01*
X72478188Y-35509500D01*
X72478185Y-35509500D01*
X72301815Y-35509500D01*
X72301812Y-35509500D01*
X72127620Y-35537088D01*
X71959876Y-35591592D01*
X71802732Y-35671660D01*
X71660044Y-35775329D01*
X71535329Y-35900044D01*
X71431660Y-36042732D01*
X71351592Y-36199876D01*
X71297088Y-36367620D01*
X71269500Y-36541811D01*
X70970500Y-36541811D01*
X70942911Y-36367620D01*
X70914279Y-36279500D01*
X70888408Y-36199877D01*
X70808338Y-36042730D01*
X70704670Y-35900043D01*
X70579957Y-35775330D01*
X70437270Y-35671662D01*
X70437269Y-35671661D01*
X70437267Y-35671660D01*
X70280123Y-35591592D01*
X70112379Y-35537088D01*
X69938188Y-35509500D01*
X69938185Y-35509500D01*
X69761815Y-35509500D01*
X69761812Y-35509500D01*
X69587620Y-35537088D01*
X69419876Y-35591592D01*
X69262732Y-35671660D01*
X69120044Y-35775329D01*
X68995329Y-35900044D01*
X68891660Y-36042732D01*
X68817710Y-36187869D01*
X68774445Y-36231134D01*
X68714013Y-36240705D01*
X68659496Y-36212928D01*
X68631719Y-36158411D01*
X68630500Y-36142924D01*
X68630500Y-35792447D01*
X68630500Y-35792446D01*
X68624355Y-35745769D01*
X68612964Y-35721342D01*
X68576589Y-35643335D01*
X68576588Y-35643334D01*
X68576588Y-35643333D01*
X68496667Y-35563412D01*
X68496665Y-35563411D01*
X68496664Y-35563410D01*
X68394233Y-35515645D01*
X68363113Y-35511548D01*
X68347554Y-35509500D01*
X66272446Y-35509500D01*
X66256887Y-35511548D01*
X66225767Y-35515645D01*
X66180838Y-35536596D01*
X66120108Y-35544052D01*
X66066595Y-35514388D01*
X66040738Y-35458935D01*
X66040000Y-35446871D01*
X66040000Y-27615036D01*
X79162500Y-27615036D01*
X79162500Y-27756963D01*
X79190189Y-27896163D01*
X79244498Y-28027280D01*
X79244504Y-28027291D01*
X79283668Y-28085902D01*
X79323351Y-28145292D01*
X79323354Y-28145295D01*
X79325815Y-28148978D01*
X79342500Y-28203980D01*
X79342500Y-28249842D01*
X79342500Y-28392158D01*
X79379334Y-28529625D01*
X79450492Y-28652875D01*
X79450494Y-28652877D01*
X79831489Y-29033873D01*
X79831490Y-29033873D01*
X79831492Y-29033875D01*
X79831491Y-29033875D01*
X79930856Y-29133239D01*
X79932125Y-29134508D01*
X79978517Y-29161292D01*
X80055374Y-29205666D01*
X80192841Y-29242500D01*
X80192842Y-29242500D01*
X99939019Y-29242500D01*
X99994021Y-29259185D01*
X99997706Y-29261647D01*
X99997708Y-29261649D01*
X100040445Y-29290205D01*
X100115708Y-29340495D01*
X100115719Y-29340501D01*
X100203130Y-29376707D01*
X100246838Y-29394811D01*
X100386037Y-29422500D01*
X100386038Y-29422500D01*
X100527962Y-29422500D01*
X100527963Y-29422500D01*
X100667162Y-29394811D01*
X100798285Y-29340499D01*
X100916292Y-29261649D01*
X101016649Y-29161292D01*
X101095499Y-29043285D01*
X101149811Y-28912162D01*
X101177500Y-28772963D01*
X101177500Y-28631037D01*
X101149811Y-28491838D01*
X101095499Y-28360715D01*
X101095498Y-28360713D01*
X101095495Y-28360708D01*
X101016649Y-28242708D01*
X100916291Y-28142350D01*
X100798291Y-28063504D01*
X100798280Y-28063498D01*
X100667163Y-28009189D01*
X100527963Y-27981500D01*
X100386037Y-27981500D01*
X100386036Y-27981500D01*
X100246836Y-28009189D01*
X100115719Y-28063498D01*
X100115708Y-28063504D01*
X100019347Y-28127892D01*
X99997708Y-28142351D01*
X99997706Y-28142352D01*
X99994021Y-28144815D01*
X99939019Y-28161500D01*
X80614069Y-28161500D01*
X80555878Y-28142593D01*
X80519914Y-28093093D01*
X80519914Y-28031907D01*
X80522605Y-28024615D01*
X80534442Y-27996037D01*
X80575811Y-27896162D01*
X80603500Y-27756963D01*
X80603500Y-27690000D01*
X102732704Y-27690000D01*
X103954999Y-27690000D01*
X103955000Y-27689999D01*
X103955000Y-27140001D01*
X104455000Y-27140001D01*
X104455000Y-27689999D01*
X104455001Y-27690000D01*
X105677295Y-27690000D01*
X105677100Y-27687513D01*
X105677098Y-27687506D01*
X105631280Y-27529799D01*
X105631280Y-27529798D01*
X105547685Y-27388447D01*
X105431552Y-27272314D01*
X105290200Y-27188719D01*
X105132489Y-27142899D01*
X105095637Y-27140000D01*
X104455001Y-27140000D01*
X104455000Y-27140001D01*
X103955000Y-27140001D01*
X103954999Y-27140000D01*
X103314363Y-27140000D01*
X103277510Y-27142899D01*
X103119799Y-27188719D01*
X103119798Y-27188719D01*
X102978447Y-27272314D01*
X102862314Y-27388447D01*
X102778719Y-27529798D01*
X102778719Y-27529799D01*
X102732901Y-27687506D01*
X102732899Y-27687513D01*
X102732704Y-27690000D01*
X80603500Y-27690000D01*
X80603500Y-27615037D01*
X80575811Y-27475838D01*
X80536012Y-27379753D01*
X80521501Y-27344719D01*
X80521495Y-27344708D01*
X80442649Y-27226708D01*
X80342291Y-27126350D01*
X80224291Y-27047504D01*
X80224280Y-27047498D01*
X80093163Y-26993189D01*
X79953963Y-26965500D01*
X79812037Y-26965500D01*
X79812036Y-26965500D01*
X79672836Y-26993189D01*
X79541719Y-27047498D01*
X79541708Y-27047504D01*
X79423708Y-27126350D01*
X79323350Y-27226708D01*
X79244504Y-27344708D01*
X79244498Y-27344719D01*
X79190189Y-27475836D01*
X79162500Y-27615036D01*
X66040000Y-27615036D01*
X66040000Y-25999500D01*
X66058907Y-25941309D01*
X66108407Y-25905345D01*
X66139000Y-25900500D01*
X119314108Y-25900500D01*
X119377835Y-25900500D01*
X119382153Y-25900594D01*
G37*
G04 #@! TD.AperFunction*
M02*
