G04 #@! TF.GenerationSoftware,KiCad,Pcbnew,9.0.2*
G04 #@! TF.CreationDate,2025-06-10T21:22:11+02:00*
G04 #@! TF.ProjectId,n-teller,6e2d7465-6c6c-4657-922e-6b696361645f,1.0*
G04 #@! TF.SameCoordinates,Original*
G04 #@! TF.FileFunction,Legend,Top*
G04 #@! TF.FilePolarity,Positive*
%FSLAX46Y46*%
G04 Gerber Fmt 4.6, Leading zero omitted, Abs format (unit mm)*
G04 Created by KiCad (PCBNEW 9.0.2) date 2025-06-10 21:22:11*
%MOMM*%
%LPD*%
G01*
G04 APERTURE LIST*
%ADD10C,0.100000*%
%ADD11C,0.300000*%
%ADD12C,0.150000*%
%ADD13C,0.120000*%
G04 APERTURE END LIST*
D10*
X85098571Y-32810752D02*
X85098571Y-33477419D01*
X85098571Y-32905990D02*
X85146190Y-32858371D01*
X85146190Y-32858371D02*
X85241428Y-32810752D01*
X85241428Y-32810752D02*
X85384285Y-32810752D01*
X85384285Y-32810752D02*
X85479523Y-32858371D01*
X85479523Y-32858371D02*
X85527142Y-32953609D01*
X85527142Y-32953609D02*
X85527142Y-33477419D01*
X86003333Y-33477419D02*
X86003333Y-32477419D01*
X86003333Y-32477419D02*
X86336666Y-33191704D01*
X86336666Y-33191704D02*
X86669999Y-32477419D01*
X86669999Y-32477419D02*
X86669999Y-33477419D01*
X87574761Y-33477419D02*
X87574761Y-32953609D01*
X87574761Y-32953609D02*
X87527142Y-32858371D01*
X87527142Y-32858371D02*
X87431904Y-32810752D01*
X87431904Y-32810752D02*
X87241428Y-32810752D01*
X87241428Y-32810752D02*
X87146190Y-32858371D01*
X87574761Y-33429800D02*
X87479523Y-33477419D01*
X87479523Y-33477419D02*
X87241428Y-33477419D01*
X87241428Y-33477419D02*
X87146190Y-33429800D01*
X87146190Y-33429800D02*
X87098571Y-33334561D01*
X87098571Y-33334561D02*
X87098571Y-33239323D01*
X87098571Y-33239323D02*
X87146190Y-33144085D01*
X87146190Y-33144085D02*
X87241428Y-33096466D01*
X87241428Y-33096466D02*
X87479523Y-33096466D01*
X87479523Y-33096466D02*
X87574761Y-33048847D01*
X87955714Y-33477419D02*
X88479523Y-32810752D01*
X87955714Y-32810752D02*
X88479523Y-33477419D01*
X88860476Y-32953609D02*
X89622381Y-32953609D01*
X89622381Y-33239323D02*
X88860476Y-33239323D01*
X90622380Y-33477419D02*
X90050952Y-33477419D01*
X90336666Y-33477419D02*
X90336666Y-32477419D01*
X90336666Y-32477419D02*
X90241428Y-32620276D01*
X90241428Y-32620276D02*
X90146190Y-32715514D01*
X90146190Y-32715514D02*
X90050952Y-32763133D01*
X91241428Y-32477419D02*
X91336666Y-32477419D01*
X91336666Y-32477419D02*
X91431904Y-32525038D01*
X91431904Y-32525038D02*
X91479523Y-32572657D01*
X91479523Y-32572657D02*
X91527142Y-32667895D01*
X91527142Y-32667895D02*
X91574761Y-32858371D01*
X91574761Y-32858371D02*
X91574761Y-33096466D01*
X91574761Y-33096466D02*
X91527142Y-33286942D01*
X91527142Y-33286942D02*
X91479523Y-33382180D01*
X91479523Y-33382180D02*
X91431904Y-33429800D01*
X91431904Y-33429800D02*
X91336666Y-33477419D01*
X91336666Y-33477419D02*
X91241428Y-33477419D01*
X91241428Y-33477419D02*
X91146190Y-33429800D01*
X91146190Y-33429800D02*
X91098571Y-33382180D01*
X91098571Y-33382180D02*
X91050952Y-33286942D01*
X91050952Y-33286942D02*
X91003333Y-33096466D01*
X91003333Y-33096466D02*
X91003333Y-32858371D01*
X91003333Y-32858371D02*
X91050952Y-32667895D01*
X91050952Y-32667895D02*
X91098571Y-32572657D01*
X91098571Y-32572657D02*
X91146190Y-32525038D01*
X91146190Y-32525038D02*
X91241428Y-32477419D01*
X91860476Y-32572657D02*
X92050952Y-32429800D01*
X92050952Y-32429800D02*
X92241428Y-32572657D01*
X93003333Y-32810752D02*
X93003333Y-33477419D01*
X92765238Y-32429800D02*
X92527143Y-33144085D01*
X92527143Y-33144085D02*
X93146190Y-33144085D01*
X93527143Y-33096466D02*
X94289048Y-33096466D01*
X95289047Y-33477419D02*
X94717619Y-33477419D01*
X95003333Y-33477419D02*
X95003333Y-32477419D01*
X95003333Y-32477419D02*
X94908095Y-32620276D01*
X94908095Y-32620276D02*
X94812857Y-32715514D01*
X94812857Y-32715514D02*
X94717619Y-32763133D01*
D11*
X81741427Y-29852257D02*
X81741427Y-31852257D01*
X81741427Y-30137971D02*
X81884284Y-29995114D01*
X81884284Y-29995114D02*
X82169999Y-29852257D01*
X82169999Y-29852257D02*
X82598570Y-29852257D01*
X82598570Y-29852257D02*
X82884284Y-29995114D01*
X82884284Y-29995114D02*
X83027142Y-30280828D01*
X83027142Y-30280828D02*
X83027142Y-31852257D01*
X84455713Y-30709400D02*
X86741428Y-30709400D01*
X87741428Y-29852257D02*
X88884285Y-29852257D01*
X88169999Y-28852257D02*
X88169999Y-31423685D01*
X88169999Y-31423685D02*
X88312856Y-31709400D01*
X88312856Y-31709400D02*
X88598571Y-31852257D01*
X88598571Y-31852257D02*
X88884285Y-31852257D01*
X91027142Y-31709400D02*
X90741428Y-31852257D01*
X90741428Y-31852257D02*
X90170000Y-31852257D01*
X90170000Y-31852257D02*
X89884285Y-31709400D01*
X89884285Y-31709400D02*
X89741428Y-31423685D01*
X89741428Y-31423685D02*
X89741428Y-30280828D01*
X89741428Y-30280828D02*
X89884285Y-29995114D01*
X89884285Y-29995114D02*
X90170000Y-29852257D01*
X90170000Y-29852257D02*
X90741428Y-29852257D01*
X90741428Y-29852257D02*
X91027142Y-29995114D01*
X91027142Y-29995114D02*
X91170000Y-30280828D01*
X91170000Y-30280828D02*
X91170000Y-30566542D01*
X91170000Y-30566542D02*
X89741428Y-30852257D01*
X92884286Y-31852257D02*
X92598571Y-31709400D01*
X92598571Y-31709400D02*
X92455714Y-31423685D01*
X92455714Y-31423685D02*
X92455714Y-28852257D01*
X94455715Y-31852257D02*
X94170000Y-31709400D01*
X94170000Y-31709400D02*
X94027143Y-31423685D01*
X94027143Y-31423685D02*
X94027143Y-28852257D01*
X96741429Y-31709400D02*
X96455715Y-31852257D01*
X96455715Y-31852257D02*
X95884287Y-31852257D01*
X95884287Y-31852257D02*
X95598572Y-31709400D01*
X95598572Y-31709400D02*
X95455715Y-31423685D01*
X95455715Y-31423685D02*
X95455715Y-30280828D01*
X95455715Y-30280828D02*
X95598572Y-29995114D01*
X95598572Y-29995114D02*
X95884287Y-29852257D01*
X95884287Y-29852257D02*
X96455715Y-29852257D01*
X96455715Y-29852257D02*
X96741429Y-29995114D01*
X96741429Y-29995114D02*
X96884287Y-30280828D01*
X96884287Y-30280828D02*
X96884287Y-30566542D01*
X96884287Y-30566542D02*
X95455715Y-30852257D01*
X98170001Y-31852257D02*
X98170001Y-29852257D01*
X98170001Y-30423685D02*
X98312858Y-30137971D01*
X98312858Y-30137971D02*
X98455716Y-29995114D01*
X98455716Y-29995114D02*
X98741430Y-29852257D01*
X98741430Y-29852257D02*
X99027144Y-29852257D01*
D10*
X77122379Y-66157475D02*
X77122379Y-65157475D01*
X77550950Y-66157475D02*
X77550950Y-65633665D01*
X77550950Y-65633665D02*
X77503331Y-65538427D01*
X77503331Y-65538427D02*
X77408093Y-65490808D01*
X77408093Y-65490808D02*
X77265236Y-65490808D01*
X77265236Y-65490808D02*
X77169998Y-65538427D01*
X77169998Y-65538427D02*
X77122379Y-65586046D01*
X77884284Y-65490808D02*
X78265236Y-65490808D01*
X78027141Y-65157475D02*
X78027141Y-66014617D01*
X78027141Y-66014617D02*
X78074760Y-66109856D01*
X78074760Y-66109856D02*
X78169998Y-66157475D01*
X78169998Y-66157475D02*
X78265236Y-66157475D01*
X78455713Y-65490808D02*
X78836665Y-65490808D01*
X78598570Y-65157475D02*
X78598570Y-66014617D01*
X78598570Y-66014617D02*
X78646189Y-66109856D01*
X78646189Y-66109856D02*
X78741427Y-66157475D01*
X78741427Y-66157475D02*
X78836665Y-66157475D01*
X79169999Y-65490808D02*
X79169999Y-66490808D01*
X79169999Y-65538427D02*
X79265237Y-65490808D01*
X79265237Y-65490808D02*
X79455713Y-65490808D01*
X79455713Y-65490808D02*
X79550951Y-65538427D01*
X79550951Y-65538427D02*
X79598570Y-65586046D01*
X79598570Y-65586046D02*
X79646189Y-65681284D01*
X79646189Y-65681284D02*
X79646189Y-65966998D01*
X79646189Y-65966998D02*
X79598570Y-66062236D01*
X79598570Y-66062236D02*
X79550951Y-66109856D01*
X79550951Y-66109856D02*
X79455713Y-66157475D01*
X79455713Y-66157475D02*
X79265237Y-66157475D01*
X79265237Y-66157475D02*
X79169999Y-66109856D01*
X80027142Y-66109856D02*
X80122380Y-66157475D01*
X80122380Y-66157475D02*
X80312856Y-66157475D01*
X80312856Y-66157475D02*
X80408094Y-66109856D01*
X80408094Y-66109856D02*
X80455713Y-66014617D01*
X80455713Y-66014617D02*
X80455713Y-65966998D01*
X80455713Y-65966998D02*
X80408094Y-65871760D01*
X80408094Y-65871760D02*
X80312856Y-65824141D01*
X80312856Y-65824141D02*
X80169999Y-65824141D01*
X80169999Y-65824141D02*
X80074761Y-65776522D01*
X80074761Y-65776522D02*
X80027142Y-65681284D01*
X80027142Y-65681284D02*
X80027142Y-65633665D01*
X80027142Y-65633665D02*
X80074761Y-65538427D01*
X80074761Y-65538427D02*
X80169999Y-65490808D01*
X80169999Y-65490808D02*
X80312856Y-65490808D01*
X80312856Y-65490808D02*
X80408094Y-65538427D01*
X80884285Y-66062236D02*
X80931904Y-66109856D01*
X80931904Y-66109856D02*
X80884285Y-66157475D01*
X80884285Y-66157475D02*
X80836666Y-66109856D01*
X80836666Y-66109856D02*
X80884285Y-66062236D01*
X80884285Y-66062236D02*
X80884285Y-66157475D01*
X80884285Y-65538427D02*
X80931904Y-65586046D01*
X80931904Y-65586046D02*
X80884285Y-65633665D01*
X80884285Y-65633665D02*
X80836666Y-65586046D01*
X80836666Y-65586046D02*
X80884285Y-65538427D01*
X80884285Y-65538427D02*
X80884285Y-65633665D01*
X82074760Y-65109856D02*
X81217618Y-66395570D01*
X83122379Y-65109856D02*
X82265237Y-66395570D01*
X83455713Y-66157475D02*
X83455713Y-65490808D01*
X83455713Y-65681284D02*
X83503332Y-65586046D01*
X83503332Y-65586046D02*
X83550951Y-65538427D01*
X83550951Y-65538427D02*
X83646189Y-65490808D01*
X83646189Y-65490808D02*
X83741427Y-65490808D01*
X84455713Y-66109856D02*
X84360475Y-66157475D01*
X84360475Y-66157475D02*
X84169999Y-66157475D01*
X84169999Y-66157475D02*
X84074761Y-66109856D01*
X84074761Y-66109856D02*
X84027142Y-66014617D01*
X84027142Y-66014617D02*
X84027142Y-65633665D01*
X84027142Y-65633665D02*
X84074761Y-65538427D01*
X84074761Y-65538427D02*
X84169999Y-65490808D01*
X84169999Y-65490808D02*
X84360475Y-65490808D01*
X84360475Y-65490808D02*
X84455713Y-65538427D01*
X84455713Y-65538427D02*
X84503332Y-65633665D01*
X84503332Y-65633665D02*
X84503332Y-65728903D01*
X84503332Y-65728903D02*
X84027142Y-65824141D01*
X84836666Y-65490808D02*
X85074761Y-66157475D01*
X85074761Y-66157475D02*
X85312856Y-65490808D01*
X85646190Y-66109856D02*
X85741428Y-66157475D01*
X85741428Y-66157475D02*
X85931904Y-66157475D01*
X85931904Y-66157475D02*
X86027142Y-66109856D01*
X86027142Y-66109856D02*
X86074761Y-66014617D01*
X86074761Y-66014617D02*
X86074761Y-65966998D01*
X86074761Y-65966998D02*
X86027142Y-65871760D01*
X86027142Y-65871760D02*
X85931904Y-65824141D01*
X85931904Y-65824141D02*
X85789047Y-65824141D01*
X85789047Y-65824141D02*
X85693809Y-65776522D01*
X85693809Y-65776522D02*
X85646190Y-65681284D01*
X85646190Y-65681284D02*
X85646190Y-65633665D01*
X85646190Y-65633665D02*
X85693809Y-65538427D01*
X85693809Y-65538427D02*
X85789047Y-65490808D01*
X85789047Y-65490808D02*
X85931904Y-65490808D01*
X85931904Y-65490808D02*
X86027142Y-65538427D01*
X86503333Y-65490808D02*
X86503333Y-66490808D01*
X86503333Y-65538427D02*
X86598571Y-65490808D01*
X86598571Y-65490808D02*
X86789047Y-65490808D01*
X86789047Y-65490808D02*
X86884285Y-65538427D01*
X86884285Y-65538427D02*
X86931904Y-65586046D01*
X86931904Y-65586046D02*
X86979523Y-65681284D01*
X86979523Y-65681284D02*
X86979523Y-65966998D01*
X86979523Y-65966998D02*
X86931904Y-66062236D01*
X86931904Y-66062236D02*
X86884285Y-66109856D01*
X86884285Y-66109856D02*
X86789047Y-66157475D01*
X86789047Y-66157475D02*
X86598571Y-66157475D01*
X86598571Y-66157475D02*
X86503333Y-66109856D01*
X87836666Y-66157475D02*
X87836666Y-65633665D01*
X87836666Y-65633665D02*
X87789047Y-65538427D01*
X87789047Y-65538427D02*
X87693809Y-65490808D01*
X87693809Y-65490808D02*
X87503333Y-65490808D01*
X87503333Y-65490808D02*
X87408095Y-65538427D01*
X87836666Y-66109856D02*
X87741428Y-66157475D01*
X87741428Y-66157475D02*
X87503333Y-66157475D01*
X87503333Y-66157475D02*
X87408095Y-66109856D01*
X87408095Y-66109856D02*
X87360476Y-66014617D01*
X87360476Y-66014617D02*
X87360476Y-65919379D01*
X87360476Y-65919379D02*
X87408095Y-65824141D01*
X87408095Y-65824141D02*
X87503333Y-65776522D01*
X87503333Y-65776522D02*
X87741428Y-65776522D01*
X87741428Y-65776522D02*
X87836666Y-65728903D01*
X88741428Y-66109856D02*
X88646190Y-66157475D01*
X88646190Y-66157475D02*
X88455714Y-66157475D01*
X88455714Y-66157475D02*
X88360476Y-66109856D01*
X88360476Y-66109856D02*
X88312857Y-66062236D01*
X88312857Y-66062236D02*
X88265238Y-65966998D01*
X88265238Y-65966998D02*
X88265238Y-65681284D01*
X88265238Y-65681284D02*
X88312857Y-65586046D01*
X88312857Y-65586046D02*
X88360476Y-65538427D01*
X88360476Y-65538427D02*
X88455714Y-65490808D01*
X88455714Y-65490808D02*
X88646190Y-65490808D01*
X88646190Y-65490808D02*
X88741428Y-65538427D01*
X89550952Y-66109856D02*
X89455714Y-66157475D01*
X89455714Y-66157475D02*
X89265238Y-66157475D01*
X89265238Y-66157475D02*
X89170000Y-66109856D01*
X89170000Y-66109856D02*
X89122381Y-66014617D01*
X89122381Y-66014617D02*
X89122381Y-65633665D01*
X89122381Y-65633665D02*
X89170000Y-65538427D01*
X89170000Y-65538427D02*
X89265238Y-65490808D01*
X89265238Y-65490808D02*
X89455714Y-65490808D01*
X89455714Y-65490808D02*
X89550952Y-65538427D01*
X89550952Y-65538427D02*
X89598571Y-65633665D01*
X89598571Y-65633665D02*
X89598571Y-65728903D01*
X89598571Y-65728903D02*
X89122381Y-65824141D01*
X90027143Y-66062236D02*
X90074762Y-66109856D01*
X90074762Y-66109856D02*
X90027143Y-66157475D01*
X90027143Y-66157475D02*
X89979524Y-66109856D01*
X89979524Y-66109856D02*
X90027143Y-66062236D01*
X90027143Y-66062236D02*
X90027143Y-66157475D01*
X90503333Y-65490808D02*
X90503333Y-66157475D01*
X90503333Y-65586046D02*
X90550952Y-65538427D01*
X90550952Y-65538427D02*
X90646190Y-65490808D01*
X90646190Y-65490808D02*
X90789047Y-65490808D01*
X90789047Y-65490808D02*
X90884285Y-65538427D01*
X90884285Y-65538427D02*
X90931904Y-65633665D01*
X90931904Y-65633665D02*
X90931904Y-66157475D01*
X91550952Y-66157475D02*
X91455714Y-66109856D01*
X91455714Y-66109856D02*
X91408095Y-66014617D01*
X91408095Y-66014617D02*
X91408095Y-65157475D01*
X92646190Y-65109856D02*
X91789048Y-66395570D01*
X92979524Y-65157475D02*
X92979524Y-65966998D01*
X92979524Y-65966998D02*
X93027143Y-66062236D01*
X93027143Y-66062236D02*
X93074762Y-66109856D01*
X93074762Y-66109856D02*
X93170000Y-66157475D01*
X93170000Y-66157475D02*
X93360476Y-66157475D01*
X93360476Y-66157475D02*
X93455714Y-66109856D01*
X93455714Y-66109856D02*
X93503333Y-66062236D01*
X93503333Y-66062236D02*
X93550952Y-65966998D01*
X93550952Y-65966998D02*
X93550952Y-65157475D01*
X93979524Y-66109856D02*
X94074762Y-66157475D01*
X94074762Y-66157475D02*
X94265238Y-66157475D01*
X94265238Y-66157475D02*
X94360476Y-66109856D01*
X94360476Y-66109856D02*
X94408095Y-66014617D01*
X94408095Y-66014617D02*
X94408095Y-65966998D01*
X94408095Y-65966998D02*
X94360476Y-65871760D01*
X94360476Y-65871760D02*
X94265238Y-65824141D01*
X94265238Y-65824141D02*
X94122381Y-65824141D01*
X94122381Y-65824141D02*
X94027143Y-65776522D01*
X94027143Y-65776522D02*
X93979524Y-65681284D01*
X93979524Y-65681284D02*
X93979524Y-65633665D01*
X93979524Y-65633665D02*
X94027143Y-65538427D01*
X94027143Y-65538427D02*
X94122381Y-65490808D01*
X94122381Y-65490808D02*
X94265238Y-65490808D01*
X94265238Y-65490808D02*
X94360476Y-65538427D01*
X95217619Y-66109856D02*
X95122381Y-66157475D01*
X95122381Y-66157475D02*
X94931905Y-66157475D01*
X94931905Y-66157475D02*
X94836667Y-66109856D01*
X94836667Y-66109856D02*
X94789048Y-66014617D01*
X94789048Y-66014617D02*
X94789048Y-65633665D01*
X94789048Y-65633665D02*
X94836667Y-65538427D01*
X94836667Y-65538427D02*
X94931905Y-65490808D01*
X94931905Y-65490808D02*
X95122381Y-65490808D01*
X95122381Y-65490808D02*
X95217619Y-65538427D01*
X95217619Y-65538427D02*
X95265238Y-65633665D01*
X95265238Y-65633665D02*
X95265238Y-65728903D01*
X95265238Y-65728903D02*
X94789048Y-65824141D01*
X95693810Y-66157475D02*
X95693810Y-65490808D01*
X95693810Y-65681284D02*
X95741429Y-65586046D01*
X95741429Y-65586046D02*
X95789048Y-65538427D01*
X95789048Y-65538427D02*
X95884286Y-65490808D01*
X95884286Y-65490808D02*
X95979524Y-65490808D01*
X96312858Y-66062236D02*
X96360477Y-66109856D01*
X96360477Y-66109856D02*
X96312858Y-66157475D01*
X96312858Y-66157475D02*
X96265239Y-66109856D01*
X96265239Y-66109856D02*
X96312858Y-66062236D01*
X96312858Y-66062236D02*
X96312858Y-66157475D01*
X96312858Y-65538427D02*
X96360477Y-65586046D01*
X96360477Y-65586046D02*
X96312858Y-65633665D01*
X96312858Y-65633665D02*
X96265239Y-65586046D01*
X96265239Y-65586046D02*
X96312858Y-65538427D01*
X96312858Y-65538427D02*
X96312858Y-65633665D01*
X96741429Y-65871760D02*
X97217619Y-65871760D01*
X96646191Y-66157475D02*
X96979524Y-65157475D01*
X96979524Y-65157475D02*
X97312857Y-66157475D01*
X97503334Y-65490808D02*
X97884286Y-65490808D01*
X97646191Y-65157475D02*
X97646191Y-66014617D01*
X97646191Y-66014617D02*
X97693810Y-66109856D01*
X97693810Y-66109856D02*
X97789048Y-66157475D01*
X97789048Y-66157475D02*
X97884286Y-66157475D01*
X98360477Y-66157475D02*
X98265239Y-66109856D01*
X98265239Y-66109856D02*
X98217620Y-66062236D01*
X98217620Y-66062236D02*
X98170001Y-65966998D01*
X98170001Y-65966998D02*
X98170001Y-65681284D01*
X98170001Y-65681284D02*
X98217620Y-65586046D01*
X98217620Y-65586046D02*
X98265239Y-65538427D01*
X98265239Y-65538427D02*
X98360477Y-65490808D01*
X98360477Y-65490808D02*
X98503334Y-65490808D01*
X98503334Y-65490808D02*
X98598572Y-65538427D01*
X98598572Y-65538427D02*
X98646191Y-65586046D01*
X98646191Y-65586046D02*
X98693810Y-65681284D01*
X98693810Y-65681284D02*
X98693810Y-65966998D01*
X98693810Y-65966998D02*
X98646191Y-66062236D01*
X98646191Y-66062236D02*
X98598572Y-66109856D01*
X98598572Y-66109856D02*
X98503334Y-66157475D01*
X98503334Y-66157475D02*
X98360477Y-66157475D01*
X99265239Y-66157475D02*
X99170001Y-66109856D01*
X99170001Y-66109856D02*
X99122382Y-66062236D01*
X99122382Y-66062236D02*
X99074763Y-65966998D01*
X99074763Y-65966998D02*
X99074763Y-65681284D01*
X99074763Y-65681284D02*
X99122382Y-65586046D01*
X99122382Y-65586046D02*
X99170001Y-65538427D01*
X99170001Y-65538427D02*
X99265239Y-65490808D01*
X99265239Y-65490808D02*
X99408096Y-65490808D01*
X99408096Y-65490808D02*
X99503334Y-65538427D01*
X99503334Y-65538427D02*
X99550953Y-65586046D01*
X99550953Y-65586046D02*
X99598572Y-65681284D01*
X99598572Y-65681284D02*
X99598572Y-65966998D01*
X99598572Y-65966998D02*
X99550953Y-66062236D01*
X99550953Y-66062236D02*
X99503334Y-66109856D01*
X99503334Y-66109856D02*
X99408096Y-66157475D01*
X99408096Y-66157475D02*
X99265239Y-66157475D01*
X100027144Y-66157475D02*
X100027144Y-65490808D01*
X100027144Y-65586046D02*
X100074763Y-65538427D01*
X100074763Y-65538427D02*
X100170001Y-65490808D01*
X100170001Y-65490808D02*
X100312858Y-65490808D01*
X100312858Y-65490808D02*
X100408096Y-65538427D01*
X100408096Y-65538427D02*
X100455715Y-65633665D01*
X100455715Y-65633665D02*
X100455715Y-66157475D01*
X100455715Y-65633665D02*
X100503334Y-65538427D01*
X100503334Y-65538427D02*
X100598572Y-65490808D01*
X100598572Y-65490808D02*
X100741429Y-65490808D01*
X100741429Y-65490808D02*
X100836668Y-65538427D01*
X100836668Y-65538427D02*
X100884287Y-65633665D01*
X100884287Y-65633665D02*
X100884287Y-66157475D01*
X101360477Y-65490808D02*
X101360477Y-66157475D01*
X101360477Y-65586046D02*
X101408096Y-65538427D01*
X101408096Y-65538427D02*
X101503334Y-65490808D01*
X101503334Y-65490808D02*
X101646191Y-65490808D01*
X101646191Y-65490808D02*
X101741429Y-65538427D01*
X101741429Y-65538427D02*
X101789048Y-65633665D01*
X101789048Y-65633665D02*
X101789048Y-66157475D01*
X102646191Y-66109856D02*
X102550953Y-66157475D01*
X102550953Y-66157475D02*
X102360477Y-66157475D01*
X102360477Y-66157475D02*
X102265239Y-66109856D01*
X102265239Y-66109856D02*
X102217620Y-66014617D01*
X102217620Y-66014617D02*
X102217620Y-65633665D01*
X102217620Y-65633665D02*
X102265239Y-65538427D01*
X102265239Y-65538427D02*
X102360477Y-65490808D01*
X102360477Y-65490808D02*
X102550953Y-65490808D01*
X102550953Y-65490808D02*
X102646191Y-65538427D01*
X102646191Y-65538427D02*
X102693810Y-65633665D01*
X102693810Y-65633665D02*
X102693810Y-65728903D01*
X102693810Y-65728903D02*
X102217620Y-65824141D01*
X102979525Y-65490808D02*
X103360477Y-65490808D01*
X103122382Y-65157475D02*
X103122382Y-66014617D01*
X103122382Y-66014617D02*
X103170001Y-66109856D01*
X103170001Y-66109856D02*
X103265239Y-66157475D01*
X103265239Y-66157475D02*
X103360477Y-66157475D01*
X73693808Y-67767419D02*
X73693808Y-66767419D01*
X74122379Y-67767419D02*
X74122379Y-67243609D01*
X74122379Y-67243609D02*
X74074760Y-67148371D01*
X74074760Y-67148371D02*
X73979522Y-67100752D01*
X73979522Y-67100752D02*
X73836665Y-67100752D01*
X73836665Y-67100752D02*
X73741427Y-67148371D01*
X73741427Y-67148371D02*
X73693808Y-67195990D01*
X74455713Y-67100752D02*
X74836665Y-67100752D01*
X74598570Y-66767419D02*
X74598570Y-67624561D01*
X74598570Y-67624561D02*
X74646189Y-67719800D01*
X74646189Y-67719800D02*
X74741427Y-67767419D01*
X74741427Y-67767419D02*
X74836665Y-67767419D01*
X75027142Y-67100752D02*
X75408094Y-67100752D01*
X75169999Y-66767419D02*
X75169999Y-67624561D01*
X75169999Y-67624561D02*
X75217618Y-67719800D01*
X75217618Y-67719800D02*
X75312856Y-67767419D01*
X75312856Y-67767419D02*
X75408094Y-67767419D01*
X75741428Y-67100752D02*
X75741428Y-68100752D01*
X75741428Y-67148371D02*
X75836666Y-67100752D01*
X75836666Y-67100752D02*
X76027142Y-67100752D01*
X76027142Y-67100752D02*
X76122380Y-67148371D01*
X76122380Y-67148371D02*
X76169999Y-67195990D01*
X76169999Y-67195990D02*
X76217618Y-67291228D01*
X76217618Y-67291228D02*
X76217618Y-67576942D01*
X76217618Y-67576942D02*
X76169999Y-67672180D01*
X76169999Y-67672180D02*
X76122380Y-67719800D01*
X76122380Y-67719800D02*
X76027142Y-67767419D01*
X76027142Y-67767419D02*
X75836666Y-67767419D01*
X75836666Y-67767419D02*
X75741428Y-67719800D01*
X76598571Y-67719800D02*
X76693809Y-67767419D01*
X76693809Y-67767419D02*
X76884285Y-67767419D01*
X76884285Y-67767419D02*
X76979523Y-67719800D01*
X76979523Y-67719800D02*
X77027142Y-67624561D01*
X77027142Y-67624561D02*
X77027142Y-67576942D01*
X77027142Y-67576942D02*
X76979523Y-67481704D01*
X76979523Y-67481704D02*
X76884285Y-67434085D01*
X76884285Y-67434085D02*
X76741428Y-67434085D01*
X76741428Y-67434085D02*
X76646190Y-67386466D01*
X76646190Y-67386466D02*
X76598571Y-67291228D01*
X76598571Y-67291228D02*
X76598571Y-67243609D01*
X76598571Y-67243609D02*
X76646190Y-67148371D01*
X76646190Y-67148371D02*
X76741428Y-67100752D01*
X76741428Y-67100752D02*
X76884285Y-67100752D01*
X76884285Y-67100752D02*
X76979523Y-67148371D01*
X77455714Y-67672180D02*
X77503333Y-67719800D01*
X77503333Y-67719800D02*
X77455714Y-67767419D01*
X77455714Y-67767419D02*
X77408095Y-67719800D01*
X77408095Y-67719800D02*
X77455714Y-67672180D01*
X77455714Y-67672180D02*
X77455714Y-67767419D01*
X77455714Y-67148371D02*
X77503333Y-67195990D01*
X77503333Y-67195990D02*
X77455714Y-67243609D01*
X77455714Y-67243609D02*
X77408095Y-67195990D01*
X77408095Y-67195990D02*
X77455714Y-67148371D01*
X77455714Y-67148371D02*
X77455714Y-67243609D01*
X78646189Y-66719800D02*
X77789047Y-68005514D01*
X79693808Y-66719800D02*
X78836666Y-68005514D01*
X80455713Y-67100752D02*
X80455713Y-67910276D01*
X80455713Y-67910276D02*
X80408094Y-68005514D01*
X80408094Y-68005514D02*
X80360475Y-68053133D01*
X80360475Y-68053133D02*
X80265237Y-68100752D01*
X80265237Y-68100752D02*
X80122380Y-68100752D01*
X80122380Y-68100752D02*
X80027142Y-68053133D01*
X80455713Y-67719800D02*
X80360475Y-67767419D01*
X80360475Y-67767419D02*
X80169999Y-67767419D01*
X80169999Y-67767419D02*
X80074761Y-67719800D01*
X80074761Y-67719800D02*
X80027142Y-67672180D01*
X80027142Y-67672180D02*
X79979523Y-67576942D01*
X79979523Y-67576942D02*
X79979523Y-67291228D01*
X79979523Y-67291228D02*
X80027142Y-67195990D01*
X80027142Y-67195990D02*
X80074761Y-67148371D01*
X80074761Y-67148371D02*
X80169999Y-67100752D01*
X80169999Y-67100752D02*
X80360475Y-67100752D01*
X80360475Y-67100752D02*
X80455713Y-67148371D01*
X80931904Y-67767419D02*
X80931904Y-67100752D01*
X80931904Y-66767419D02*
X80884285Y-66815038D01*
X80884285Y-66815038D02*
X80931904Y-66862657D01*
X80931904Y-66862657D02*
X80979523Y-66815038D01*
X80979523Y-66815038D02*
X80931904Y-66767419D01*
X80931904Y-66767419D02*
X80931904Y-66862657D01*
X81265237Y-67100752D02*
X81646189Y-67100752D01*
X81408094Y-66767419D02*
X81408094Y-67624561D01*
X81408094Y-67624561D02*
X81455713Y-67719800D01*
X81455713Y-67719800D02*
X81550951Y-67767419D01*
X81550951Y-67767419D02*
X81646189Y-67767419D01*
X81979523Y-67767419D02*
X81979523Y-66767419D01*
X82408094Y-67767419D02*
X82408094Y-67243609D01*
X82408094Y-67243609D02*
X82360475Y-67148371D01*
X82360475Y-67148371D02*
X82265237Y-67100752D01*
X82265237Y-67100752D02*
X82122380Y-67100752D01*
X82122380Y-67100752D02*
X82027142Y-67148371D01*
X82027142Y-67148371D02*
X81979523Y-67195990D01*
X83312856Y-67100752D02*
X83312856Y-67767419D01*
X82884285Y-67100752D02*
X82884285Y-67624561D01*
X82884285Y-67624561D02*
X82931904Y-67719800D01*
X82931904Y-67719800D02*
X83027142Y-67767419D01*
X83027142Y-67767419D02*
X83169999Y-67767419D01*
X83169999Y-67767419D02*
X83265237Y-67719800D01*
X83265237Y-67719800D02*
X83312856Y-67672180D01*
X83789047Y-67767419D02*
X83789047Y-66767419D01*
X83789047Y-67148371D02*
X83884285Y-67100752D01*
X83884285Y-67100752D02*
X84074761Y-67100752D01*
X84074761Y-67100752D02*
X84169999Y-67148371D01*
X84169999Y-67148371D02*
X84217618Y-67195990D01*
X84217618Y-67195990D02*
X84265237Y-67291228D01*
X84265237Y-67291228D02*
X84265237Y-67576942D01*
X84265237Y-67576942D02*
X84217618Y-67672180D01*
X84217618Y-67672180D02*
X84169999Y-67719800D01*
X84169999Y-67719800D02*
X84074761Y-67767419D01*
X84074761Y-67767419D02*
X83884285Y-67767419D01*
X83884285Y-67767419D02*
X83789047Y-67719800D01*
X84693809Y-67672180D02*
X84741428Y-67719800D01*
X84741428Y-67719800D02*
X84693809Y-67767419D01*
X84693809Y-67767419D02*
X84646190Y-67719800D01*
X84646190Y-67719800D02*
X84693809Y-67672180D01*
X84693809Y-67672180D02*
X84693809Y-67767419D01*
X85598570Y-67719800D02*
X85503332Y-67767419D01*
X85503332Y-67767419D02*
X85312856Y-67767419D01*
X85312856Y-67767419D02*
X85217618Y-67719800D01*
X85217618Y-67719800D02*
X85169999Y-67672180D01*
X85169999Y-67672180D02*
X85122380Y-67576942D01*
X85122380Y-67576942D02*
X85122380Y-67291228D01*
X85122380Y-67291228D02*
X85169999Y-67195990D01*
X85169999Y-67195990D02*
X85217618Y-67148371D01*
X85217618Y-67148371D02*
X85312856Y-67100752D01*
X85312856Y-67100752D02*
X85503332Y-67100752D01*
X85503332Y-67100752D02*
X85598570Y-67148371D01*
X86169999Y-67767419D02*
X86074761Y-67719800D01*
X86074761Y-67719800D02*
X86027142Y-67672180D01*
X86027142Y-67672180D02*
X85979523Y-67576942D01*
X85979523Y-67576942D02*
X85979523Y-67291228D01*
X85979523Y-67291228D02*
X86027142Y-67195990D01*
X86027142Y-67195990D02*
X86074761Y-67148371D01*
X86074761Y-67148371D02*
X86169999Y-67100752D01*
X86169999Y-67100752D02*
X86312856Y-67100752D01*
X86312856Y-67100752D02*
X86408094Y-67148371D01*
X86408094Y-67148371D02*
X86455713Y-67195990D01*
X86455713Y-67195990D02*
X86503332Y-67291228D01*
X86503332Y-67291228D02*
X86503332Y-67576942D01*
X86503332Y-67576942D02*
X86455713Y-67672180D01*
X86455713Y-67672180D02*
X86408094Y-67719800D01*
X86408094Y-67719800D02*
X86312856Y-67767419D01*
X86312856Y-67767419D02*
X86169999Y-67767419D01*
X86931904Y-67767419D02*
X86931904Y-67100752D01*
X86931904Y-67195990D02*
X86979523Y-67148371D01*
X86979523Y-67148371D02*
X87074761Y-67100752D01*
X87074761Y-67100752D02*
X87217618Y-67100752D01*
X87217618Y-67100752D02*
X87312856Y-67148371D01*
X87312856Y-67148371D02*
X87360475Y-67243609D01*
X87360475Y-67243609D02*
X87360475Y-67767419D01*
X87360475Y-67243609D02*
X87408094Y-67148371D01*
X87408094Y-67148371D02*
X87503332Y-67100752D01*
X87503332Y-67100752D02*
X87646189Y-67100752D01*
X87646189Y-67100752D02*
X87741428Y-67148371D01*
X87741428Y-67148371D02*
X87789047Y-67243609D01*
X87789047Y-67243609D02*
X87789047Y-67767419D01*
X88979522Y-66719800D02*
X88122380Y-68005514D01*
X89741427Y-67767419D02*
X89741427Y-67243609D01*
X89741427Y-67243609D02*
X89693808Y-67148371D01*
X89693808Y-67148371D02*
X89598570Y-67100752D01*
X89598570Y-67100752D02*
X89408094Y-67100752D01*
X89408094Y-67100752D02*
X89312856Y-67148371D01*
X89741427Y-67719800D02*
X89646189Y-67767419D01*
X89646189Y-67767419D02*
X89408094Y-67767419D01*
X89408094Y-67767419D02*
X89312856Y-67719800D01*
X89312856Y-67719800D02*
X89265237Y-67624561D01*
X89265237Y-67624561D02*
X89265237Y-67529323D01*
X89265237Y-67529323D02*
X89312856Y-67434085D01*
X89312856Y-67434085D02*
X89408094Y-67386466D01*
X89408094Y-67386466D02*
X89646189Y-67386466D01*
X89646189Y-67386466D02*
X89741427Y-67338847D01*
X90074761Y-67100752D02*
X90455713Y-67100752D01*
X90217618Y-66767419D02*
X90217618Y-67624561D01*
X90217618Y-67624561D02*
X90265237Y-67719800D01*
X90265237Y-67719800D02*
X90360475Y-67767419D01*
X90360475Y-67767419D02*
X90455713Y-67767419D01*
X90931904Y-67767419D02*
X90836666Y-67719800D01*
X90836666Y-67719800D02*
X90789047Y-67672180D01*
X90789047Y-67672180D02*
X90741428Y-67576942D01*
X90741428Y-67576942D02*
X90741428Y-67291228D01*
X90741428Y-67291228D02*
X90789047Y-67195990D01*
X90789047Y-67195990D02*
X90836666Y-67148371D01*
X90836666Y-67148371D02*
X90931904Y-67100752D01*
X90931904Y-67100752D02*
X91074761Y-67100752D01*
X91074761Y-67100752D02*
X91169999Y-67148371D01*
X91169999Y-67148371D02*
X91217618Y-67195990D01*
X91217618Y-67195990D02*
X91265237Y-67291228D01*
X91265237Y-67291228D02*
X91265237Y-67576942D01*
X91265237Y-67576942D02*
X91217618Y-67672180D01*
X91217618Y-67672180D02*
X91169999Y-67719800D01*
X91169999Y-67719800D02*
X91074761Y-67767419D01*
X91074761Y-67767419D02*
X90931904Y-67767419D01*
X91836666Y-67767419D02*
X91741428Y-67719800D01*
X91741428Y-67719800D02*
X91693809Y-67672180D01*
X91693809Y-67672180D02*
X91646190Y-67576942D01*
X91646190Y-67576942D02*
X91646190Y-67291228D01*
X91646190Y-67291228D02*
X91693809Y-67195990D01*
X91693809Y-67195990D02*
X91741428Y-67148371D01*
X91741428Y-67148371D02*
X91836666Y-67100752D01*
X91836666Y-67100752D02*
X91979523Y-67100752D01*
X91979523Y-67100752D02*
X92074761Y-67148371D01*
X92074761Y-67148371D02*
X92122380Y-67195990D01*
X92122380Y-67195990D02*
X92169999Y-67291228D01*
X92169999Y-67291228D02*
X92169999Y-67576942D01*
X92169999Y-67576942D02*
X92122380Y-67672180D01*
X92122380Y-67672180D02*
X92074761Y-67719800D01*
X92074761Y-67719800D02*
X91979523Y-67767419D01*
X91979523Y-67767419D02*
X91836666Y-67767419D01*
X92598571Y-67767419D02*
X92598571Y-67100752D01*
X92598571Y-67195990D02*
X92646190Y-67148371D01*
X92646190Y-67148371D02*
X92741428Y-67100752D01*
X92741428Y-67100752D02*
X92884285Y-67100752D01*
X92884285Y-67100752D02*
X92979523Y-67148371D01*
X92979523Y-67148371D02*
X93027142Y-67243609D01*
X93027142Y-67243609D02*
X93027142Y-67767419D01*
X93027142Y-67243609D02*
X93074761Y-67148371D01*
X93074761Y-67148371D02*
X93169999Y-67100752D01*
X93169999Y-67100752D02*
X93312856Y-67100752D01*
X93312856Y-67100752D02*
X93408095Y-67148371D01*
X93408095Y-67148371D02*
X93455714Y-67243609D01*
X93455714Y-67243609D02*
X93455714Y-67767419D01*
X93931904Y-67100752D02*
X93931904Y-67767419D01*
X93931904Y-67195990D02*
X93979523Y-67148371D01*
X93979523Y-67148371D02*
X94074761Y-67100752D01*
X94074761Y-67100752D02*
X94217618Y-67100752D01*
X94217618Y-67100752D02*
X94312856Y-67148371D01*
X94312856Y-67148371D02*
X94360475Y-67243609D01*
X94360475Y-67243609D02*
X94360475Y-67767419D01*
X95217618Y-67719800D02*
X95122380Y-67767419D01*
X95122380Y-67767419D02*
X94931904Y-67767419D01*
X94931904Y-67767419D02*
X94836666Y-67719800D01*
X94836666Y-67719800D02*
X94789047Y-67624561D01*
X94789047Y-67624561D02*
X94789047Y-67243609D01*
X94789047Y-67243609D02*
X94836666Y-67148371D01*
X94836666Y-67148371D02*
X94931904Y-67100752D01*
X94931904Y-67100752D02*
X95122380Y-67100752D01*
X95122380Y-67100752D02*
X95217618Y-67148371D01*
X95217618Y-67148371D02*
X95265237Y-67243609D01*
X95265237Y-67243609D02*
X95265237Y-67338847D01*
X95265237Y-67338847D02*
X94789047Y-67434085D01*
X95550952Y-67100752D02*
X95931904Y-67100752D01*
X95693809Y-66767419D02*
X95693809Y-67624561D01*
X95693809Y-67624561D02*
X95741428Y-67719800D01*
X95741428Y-67719800D02*
X95836666Y-67767419D01*
X95836666Y-67767419D02*
X95931904Y-67767419D01*
X96265238Y-67767419D02*
X96265238Y-67100752D01*
X96265238Y-67195990D02*
X96312857Y-67148371D01*
X96312857Y-67148371D02*
X96408095Y-67100752D01*
X96408095Y-67100752D02*
X96550952Y-67100752D01*
X96550952Y-67100752D02*
X96646190Y-67148371D01*
X96646190Y-67148371D02*
X96693809Y-67243609D01*
X96693809Y-67243609D02*
X96693809Y-67767419D01*
X96693809Y-67243609D02*
X96741428Y-67148371D01*
X96741428Y-67148371D02*
X96836666Y-67100752D01*
X96836666Y-67100752D02*
X96979523Y-67100752D01*
X96979523Y-67100752D02*
X97074762Y-67148371D01*
X97074762Y-67148371D02*
X97122381Y-67243609D01*
X97122381Y-67243609D02*
X97122381Y-67767419D01*
X98027142Y-67767419D02*
X98027142Y-67243609D01*
X98027142Y-67243609D02*
X97979523Y-67148371D01*
X97979523Y-67148371D02*
X97884285Y-67100752D01*
X97884285Y-67100752D02*
X97693809Y-67100752D01*
X97693809Y-67100752D02*
X97598571Y-67148371D01*
X98027142Y-67719800D02*
X97931904Y-67767419D01*
X97931904Y-67767419D02*
X97693809Y-67767419D01*
X97693809Y-67767419D02*
X97598571Y-67719800D01*
X97598571Y-67719800D02*
X97550952Y-67624561D01*
X97550952Y-67624561D02*
X97550952Y-67529323D01*
X97550952Y-67529323D02*
X97598571Y-67434085D01*
X97598571Y-67434085D02*
X97693809Y-67386466D01*
X97693809Y-67386466D02*
X97931904Y-67386466D01*
X97931904Y-67386466D02*
X98027142Y-67338847D01*
X98503333Y-67767419D02*
X98503333Y-67100752D01*
X98503333Y-67291228D02*
X98550952Y-67195990D01*
X98550952Y-67195990D02*
X98598571Y-67148371D01*
X98598571Y-67148371D02*
X98693809Y-67100752D01*
X98693809Y-67100752D02*
X98789047Y-67100752D01*
X99550952Y-67719800D02*
X99455714Y-67767419D01*
X99455714Y-67767419D02*
X99265238Y-67767419D01*
X99265238Y-67767419D02*
X99170000Y-67719800D01*
X99170000Y-67719800D02*
X99122381Y-67672180D01*
X99122381Y-67672180D02*
X99074762Y-67576942D01*
X99074762Y-67576942D02*
X99074762Y-67291228D01*
X99074762Y-67291228D02*
X99122381Y-67195990D01*
X99122381Y-67195990D02*
X99170000Y-67148371D01*
X99170000Y-67148371D02*
X99265238Y-67100752D01*
X99265238Y-67100752D02*
X99455714Y-67100752D01*
X99455714Y-67100752D02*
X99550952Y-67148371D01*
X100693809Y-66719800D02*
X99836667Y-68005514D01*
X101027143Y-67100752D02*
X101027143Y-67767419D01*
X101027143Y-67195990D02*
X101074762Y-67148371D01*
X101074762Y-67148371D02*
X101170000Y-67100752D01*
X101170000Y-67100752D02*
X101312857Y-67100752D01*
X101312857Y-67100752D02*
X101408095Y-67148371D01*
X101408095Y-67148371D02*
X101455714Y-67243609D01*
X101455714Y-67243609D02*
X101455714Y-67767419D01*
X101931905Y-67386466D02*
X102693810Y-67386466D01*
X103027143Y-67100752D02*
X103408095Y-67100752D01*
X103170000Y-66767419D02*
X103170000Y-67624561D01*
X103170000Y-67624561D02*
X103217619Y-67719800D01*
X103217619Y-67719800D02*
X103312857Y-67767419D01*
X103312857Y-67767419D02*
X103408095Y-67767419D01*
X104122381Y-67719800D02*
X104027143Y-67767419D01*
X104027143Y-67767419D02*
X103836667Y-67767419D01*
X103836667Y-67767419D02*
X103741429Y-67719800D01*
X103741429Y-67719800D02*
X103693810Y-67624561D01*
X103693810Y-67624561D02*
X103693810Y-67243609D01*
X103693810Y-67243609D02*
X103741429Y-67148371D01*
X103741429Y-67148371D02*
X103836667Y-67100752D01*
X103836667Y-67100752D02*
X104027143Y-67100752D01*
X104027143Y-67100752D02*
X104122381Y-67148371D01*
X104122381Y-67148371D02*
X104170000Y-67243609D01*
X104170000Y-67243609D02*
X104170000Y-67338847D01*
X104170000Y-67338847D02*
X103693810Y-67434085D01*
X104741429Y-67767419D02*
X104646191Y-67719800D01*
X104646191Y-67719800D02*
X104598572Y-67624561D01*
X104598572Y-67624561D02*
X104598572Y-66767419D01*
X105265239Y-67767419D02*
X105170001Y-67719800D01*
X105170001Y-67719800D02*
X105122382Y-67624561D01*
X105122382Y-67624561D02*
X105122382Y-66767419D01*
X106027144Y-67719800D02*
X105931906Y-67767419D01*
X105931906Y-67767419D02*
X105741430Y-67767419D01*
X105741430Y-67767419D02*
X105646192Y-67719800D01*
X105646192Y-67719800D02*
X105598573Y-67624561D01*
X105598573Y-67624561D02*
X105598573Y-67243609D01*
X105598573Y-67243609D02*
X105646192Y-67148371D01*
X105646192Y-67148371D02*
X105741430Y-67100752D01*
X105741430Y-67100752D02*
X105931906Y-67100752D01*
X105931906Y-67100752D02*
X106027144Y-67148371D01*
X106027144Y-67148371D02*
X106074763Y-67243609D01*
X106074763Y-67243609D02*
X106074763Y-67338847D01*
X106074763Y-67338847D02*
X105598573Y-67434085D01*
X106503335Y-67767419D02*
X106503335Y-67100752D01*
X106503335Y-67291228D02*
X106550954Y-67195990D01*
X106550954Y-67195990D02*
X106598573Y-67148371D01*
X106598573Y-67148371D02*
X106693811Y-67100752D01*
X106693811Y-67100752D02*
X106789049Y-67100752D01*
X75741428Y-69091648D02*
X76217618Y-69091648D01*
X75646190Y-69377363D02*
X75979523Y-68377363D01*
X75979523Y-68377363D02*
X76312856Y-69377363D01*
X76646190Y-68710696D02*
X76646190Y-69710696D01*
X76646190Y-68758315D02*
X76741428Y-68710696D01*
X76741428Y-68710696D02*
X76931904Y-68710696D01*
X76931904Y-68710696D02*
X77027142Y-68758315D01*
X77027142Y-68758315D02*
X77074761Y-68805934D01*
X77074761Y-68805934D02*
X77122380Y-68901172D01*
X77122380Y-68901172D02*
X77122380Y-69186886D01*
X77122380Y-69186886D02*
X77074761Y-69282124D01*
X77074761Y-69282124D02*
X77027142Y-69329744D01*
X77027142Y-69329744D02*
X76931904Y-69377363D01*
X76931904Y-69377363D02*
X76741428Y-69377363D01*
X76741428Y-69377363D02*
X76646190Y-69329744D01*
X77979523Y-69377363D02*
X77979523Y-68853553D01*
X77979523Y-68853553D02*
X77931904Y-68758315D01*
X77931904Y-68758315D02*
X77836666Y-68710696D01*
X77836666Y-68710696D02*
X77646190Y-68710696D01*
X77646190Y-68710696D02*
X77550952Y-68758315D01*
X77979523Y-69329744D02*
X77884285Y-69377363D01*
X77884285Y-69377363D02*
X77646190Y-69377363D01*
X77646190Y-69377363D02*
X77550952Y-69329744D01*
X77550952Y-69329744D02*
X77503333Y-69234505D01*
X77503333Y-69234505D02*
X77503333Y-69139267D01*
X77503333Y-69139267D02*
X77550952Y-69044029D01*
X77550952Y-69044029D02*
X77646190Y-68996410D01*
X77646190Y-68996410D02*
X77884285Y-68996410D01*
X77884285Y-68996410D02*
X77979523Y-68948791D01*
X78884285Y-69329744D02*
X78789047Y-69377363D01*
X78789047Y-69377363D02*
X78598571Y-69377363D01*
X78598571Y-69377363D02*
X78503333Y-69329744D01*
X78503333Y-69329744D02*
X78455714Y-69282124D01*
X78455714Y-69282124D02*
X78408095Y-69186886D01*
X78408095Y-69186886D02*
X78408095Y-68901172D01*
X78408095Y-68901172D02*
X78455714Y-68805934D01*
X78455714Y-68805934D02*
X78503333Y-68758315D01*
X78503333Y-68758315D02*
X78598571Y-68710696D01*
X78598571Y-68710696D02*
X78789047Y-68710696D01*
X78789047Y-68710696D02*
X78884285Y-68758315D01*
X79312857Y-69377363D02*
X79312857Y-68377363D01*
X79741428Y-69377363D02*
X79741428Y-68853553D01*
X79741428Y-68853553D02*
X79693809Y-68758315D01*
X79693809Y-68758315D02*
X79598571Y-68710696D01*
X79598571Y-68710696D02*
X79455714Y-68710696D01*
X79455714Y-68710696D02*
X79360476Y-68758315D01*
X79360476Y-68758315D02*
X79312857Y-68805934D01*
X80598571Y-69329744D02*
X80503333Y-69377363D01*
X80503333Y-69377363D02*
X80312857Y-69377363D01*
X80312857Y-69377363D02*
X80217619Y-69329744D01*
X80217619Y-69329744D02*
X80170000Y-69234505D01*
X80170000Y-69234505D02*
X80170000Y-68853553D01*
X80170000Y-68853553D02*
X80217619Y-68758315D01*
X80217619Y-68758315D02*
X80312857Y-68710696D01*
X80312857Y-68710696D02*
X80503333Y-68710696D01*
X80503333Y-68710696D02*
X80598571Y-68758315D01*
X80598571Y-68758315D02*
X80646190Y-68853553D01*
X80646190Y-68853553D02*
X80646190Y-68948791D01*
X80646190Y-68948791D02*
X80170000Y-69044029D01*
X82312857Y-69377363D02*
X81836667Y-69377363D01*
X81836667Y-69377363D02*
X81836667Y-68377363D01*
X82646191Y-69377363D02*
X82646191Y-68710696D01*
X82646191Y-68377363D02*
X82598572Y-68424982D01*
X82598572Y-68424982D02*
X82646191Y-68472601D01*
X82646191Y-68472601D02*
X82693810Y-68424982D01*
X82693810Y-68424982D02*
X82646191Y-68377363D01*
X82646191Y-68377363D02*
X82646191Y-68472601D01*
X83550952Y-69329744D02*
X83455714Y-69377363D01*
X83455714Y-69377363D02*
X83265238Y-69377363D01*
X83265238Y-69377363D02*
X83170000Y-69329744D01*
X83170000Y-69329744D02*
X83122381Y-69282124D01*
X83122381Y-69282124D02*
X83074762Y-69186886D01*
X83074762Y-69186886D02*
X83074762Y-68901172D01*
X83074762Y-68901172D02*
X83122381Y-68805934D01*
X83122381Y-68805934D02*
X83170000Y-68758315D01*
X83170000Y-68758315D02*
X83265238Y-68710696D01*
X83265238Y-68710696D02*
X83455714Y-68710696D01*
X83455714Y-68710696D02*
X83550952Y-68758315D01*
X84360476Y-69329744D02*
X84265238Y-69377363D01*
X84265238Y-69377363D02*
X84074762Y-69377363D01*
X84074762Y-69377363D02*
X83979524Y-69329744D01*
X83979524Y-69329744D02*
X83931905Y-69234505D01*
X83931905Y-69234505D02*
X83931905Y-68853553D01*
X83931905Y-68853553D02*
X83979524Y-68758315D01*
X83979524Y-68758315D02*
X84074762Y-68710696D01*
X84074762Y-68710696D02*
X84265238Y-68710696D01*
X84265238Y-68710696D02*
X84360476Y-68758315D01*
X84360476Y-68758315D02*
X84408095Y-68853553D01*
X84408095Y-68853553D02*
X84408095Y-68948791D01*
X84408095Y-68948791D02*
X83931905Y-69044029D01*
X84836667Y-68710696D02*
X84836667Y-69377363D01*
X84836667Y-68805934D02*
X84884286Y-68758315D01*
X84884286Y-68758315D02*
X84979524Y-68710696D01*
X84979524Y-68710696D02*
X85122381Y-68710696D01*
X85122381Y-68710696D02*
X85217619Y-68758315D01*
X85217619Y-68758315D02*
X85265238Y-68853553D01*
X85265238Y-68853553D02*
X85265238Y-69377363D01*
X85693810Y-69329744D02*
X85789048Y-69377363D01*
X85789048Y-69377363D02*
X85979524Y-69377363D01*
X85979524Y-69377363D02*
X86074762Y-69329744D01*
X86074762Y-69329744D02*
X86122381Y-69234505D01*
X86122381Y-69234505D02*
X86122381Y-69186886D01*
X86122381Y-69186886D02*
X86074762Y-69091648D01*
X86074762Y-69091648D02*
X85979524Y-69044029D01*
X85979524Y-69044029D02*
X85836667Y-69044029D01*
X85836667Y-69044029D02*
X85741429Y-68996410D01*
X85741429Y-68996410D02*
X85693810Y-68901172D01*
X85693810Y-68901172D02*
X85693810Y-68853553D01*
X85693810Y-68853553D02*
X85741429Y-68758315D01*
X85741429Y-68758315D02*
X85836667Y-68710696D01*
X85836667Y-68710696D02*
X85979524Y-68710696D01*
X85979524Y-68710696D02*
X86074762Y-68758315D01*
X86931905Y-69329744D02*
X86836667Y-69377363D01*
X86836667Y-69377363D02*
X86646191Y-69377363D01*
X86646191Y-69377363D02*
X86550953Y-69329744D01*
X86550953Y-69329744D02*
X86503334Y-69234505D01*
X86503334Y-69234505D02*
X86503334Y-68853553D01*
X86503334Y-68853553D02*
X86550953Y-68758315D01*
X86550953Y-68758315D02*
X86646191Y-68710696D01*
X86646191Y-68710696D02*
X86836667Y-68710696D01*
X86836667Y-68710696D02*
X86931905Y-68758315D01*
X86931905Y-68758315D02*
X86979524Y-68853553D01*
X86979524Y-68853553D02*
X86979524Y-68948791D01*
X86979524Y-68948791D02*
X86503334Y-69044029D01*
X88122382Y-68472601D02*
X88170001Y-68424982D01*
X88170001Y-68424982D02*
X88265239Y-68377363D01*
X88265239Y-68377363D02*
X88503334Y-68377363D01*
X88503334Y-68377363D02*
X88598572Y-68424982D01*
X88598572Y-68424982D02*
X88646191Y-68472601D01*
X88646191Y-68472601D02*
X88693810Y-68567839D01*
X88693810Y-68567839D02*
X88693810Y-68663077D01*
X88693810Y-68663077D02*
X88646191Y-68805934D01*
X88646191Y-68805934D02*
X88074763Y-69377363D01*
X88074763Y-69377363D02*
X88693810Y-69377363D01*
X89122382Y-69282124D02*
X89170001Y-69329744D01*
X89170001Y-69329744D02*
X89122382Y-69377363D01*
X89122382Y-69377363D02*
X89074763Y-69329744D01*
X89074763Y-69329744D02*
X89122382Y-69282124D01*
X89122382Y-69282124D02*
X89122382Y-69377363D01*
X89789048Y-68377363D02*
X89884286Y-68377363D01*
X89884286Y-68377363D02*
X89979524Y-68424982D01*
X89979524Y-68424982D02*
X90027143Y-68472601D01*
X90027143Y-68472601D02*
X90074762Y-68567839D01*
X90074762Y-68567839D02*
X90122381Y-68758315D01*
X90122381Y-68758315D02*
X90122381Y-68996410D01*
X90122381Y-68996410D02*
X90074762Y-69186886D01*
X90074762Y-69186886D02*
X90027143Y-69282124D01*
X90027143Y-69282124D02*
X89979524Y-69329744D01*
X89979524Y-69329744D02*
X89884286Y-69377363D01*
X89884286Y-69377363D02*
X89789048Y-69377363D01*
X89789048Y-69377363D02*
X89693810Y-69329744D01*
X89693810Y-69329744D02*
X89646191Y-69282124D01*
X89646191Y-69282124D02*
X89598572Y-69186886D01*
X89598572Y-69186886D02*
X89550953Y-68996410D01*
X89550953Y-68996410D02*
X89550953Y-68758315D01*
X89550953Y-68758315D02*
X89598572Y-68567839D01*
X89598572Y-68567839D02*
X89646191Y-68472601D01*
X89646191Y-68472601D02*
X89693810Y-68424982D01*
X89693810Y-68424982D02*
X89789048Y-68377363D01*
X90598572Y-69329744D02*
X90598572Y-69377363D01*
X90598572Y-69377363D02*
X90550953Y-69472601D01*
X90550953Y-69472601D02*
X90503334Y-69520220D01*
X92312857Y-69377363D02*
X91741429Y-69377363D01*
X92027143Y-69377363D02*
X92027143Y-68377363D01*
X92027143Y-68377363D02*
X91931905Y-68520220D01*
X91931905Y-68520220D02*
X91836667Y-68615458D01*
X91836667Y-68615458D02*
X91741429Y-68663077D01*
X92741429Y-69282124D02*
X92789048Y-69329744D01*
X92789048Y-69329744D02*
X92741429Y-69377363D01*
X92741429Y-69377363D02*
X92693810Y-69329744D01*
X92693810Y-69329744D02*
X92741429Y-69282124D01*
X92741429Y-69282124D02*
X92741429Y-69377363D01*
X93408095Y-68377363D02*
X93503333Y-68377363D01*
X93503333Y-68377363D02*
X93598571Y-68424982D01*
X93598571Y-68424982D02*
X93646190Y-68472601D01*
X93646190Y-68472601D02*
X93693809Y-68567839D01*
X93693809Y-68567839D02*
X93741428Y-68758315D01*
X93741428Y-68758315D02*
X93741428Y-68996410D01*
X93741428Y-68996410D02*
X93693809Y-69186886D01*
X93693809Y-69186886D02*
X93646190Y-69282124D01*
X93646190Y-69282124D02*
X93598571Y-69329744D01*
X93598571Y-69329744D02*
X93503333Y-69377363D01*
X93503333Y-69377363D02*
X93408095Y-69377363D01*
X93408095Y-69377363D02*
X93312857Y-69329744D01*
X93312857Y-69329744D02*
X93265238Y-69282124D01*
X93265238Y-69282124D02*
X93217619Y-69186886D01*
X93217619Y-69186886D02*
X93170000Y-68996410D01*
X93170000Y-68996410D02*
X93170000Y-68758315D01*
X93170000Y-68758315D02*
X93217619Y-68567839D01*
X93217619Y-68567839D02*
X93265238Y-68472601D01*
X93265238Y-68472601D02*
X93312857Y-68424982D01*
X93312857Y-68424982D02*
X93408095Y-68377363D01*
X94884286Y-68472601D02*
X94931905Y-68424982D01*
X94931905Y-68424982D02*
X95027143Y-68377363D01*
X95027143Y-68377363D02*
X95265238Y-68377363D01*
X95265238Y-68377363D02*
X95360476Y-68424982D01*
X95360476Y-68424982D02*
X95408095Y-68472601D01*
X95408095Y-68472601D02*
X95455714Y-68567839D01*
X95455714Y-68567839D02*
X95455714Y-68663077D01*
X95455714Y-68663077D02*
X95408095Y-68805934D01*
X95408095Y-68805934D02*
X94836667Y-69377363D01*
X94836667Y-69377363D02*
X95455714Y-69377363D01*
X96074762Y-68377363D02*
X96170000Y-68377363D01*
X96170000Y-68377363D02*
X96265238Y-68424982D01*
X96265238Y-68424982D02*
X96312857Y-68472601D01*
X96312857Y-68472601D02*
X96360476Y-68567839D01*
X96360476Y-68567839D02*
X96408095Y-68758315D01*
X96408095Y-68758315D02*
X96408095Y-68996410D01*
X96408095Y-68996410D02*
X96360476Y-69186886D01*
X96360476Y-69186886D02*
X96312857Y-69282124D01*
X96312857Y-69282124D02*
X96265238Y-69329744D01*
X96265238Y-69329744D02*
X96170000Y-69377363D01*
X96170000Y-69377363D02*
X96074762Y-69377363D01*
X96074762Y-69377363D02*
X95979524Y-69329744D01*
X95979524Y-69329744D02*
X95931905Y-69282124D01*
X95931905Y-69282124D02*
X95884286Y-69186886D01*
X95884286Y-69186886D02*
X95836667Y-68996410D01*
X95836667Y-68996410D02*
X95836667Y-68758315D01*
X95836667Y-68758315D02*
X95884286Y-68567839D01*
X95884286Y-68567839D02*
X95931905Y-68472601D01*
X95931905Y-68472601D02*
X95979524Y-68424982D01*
X95979524Y-68424982D02*
X96074762Y-68377363D01*
X96789048Y-68472601D02*
X96836667Y-68424982D01*
X96836667Y-68424982D02*
X96931905Y-68377363D01*
X96931905Y-68377363D02*
X97170000Y-68377363D01*
X97170000Y-68377363D02*
X97265238Y-68424982D01*
X97265238Y-68424982D02*
X97312857Y-68472601D01*
X97312857Y-68472601D02*
X97360476Y-68567839D01*
X97360476Y-68567839D02*
X97360476Y-68663077D01*
X97360476Y-68663077D02*
X97312857Y-68805934D01*
X97312857Y-68805934D02*
X96741429Y-69377363D01*
X96741429Y-69377363D02*
X97360476Y-69377363D01*
X98265238Y-68377363D02*
X97789048Y-68377363D01*
X97789048Y-68377363D02*
X97741429Y-68853553D01*
X97741429Y-68853553D02*
X97789048Y-68805934D01*
X97789048Y-68805934D02*
X97884286Y-68758315D01*
X97884286Y-68758315D02*
X98122381Y-68758315D01*
X98122381Y-68758315D02*
X98217619Y-68805934D01*
X98217619Y-68805934D02*
X98265238Y-68853553D01*
X98265238Y-68853553D02*
X98312857Y-68948791D01*
X98312857Y-68948791D02*
X98312857Y-69186886D01*
X98312857Y-69186886D02*
X98265238Y-69282124D01*
X98265238Y-69282124D02*
X98217619Y-69329744D01*
X98217619Y-69329744D02*
X98122381Y-69377363D01*
X98122381Y-69377363D02*
X97884286Y-69377363D01*
X97884286Y-69377363D02*
X97789048Y-69329744D01*
X97789048Y-69329744D02*
X97741429Y-69282124D01*
X98741429Y-68996410D02*
X99503334Y-68996410D01*
X100170000Y-68377363D02*
X100265238Y-68377363D01*
X100265238Y-68377363D02*
X100360476Y-68424982D01*
X100360476Y-68424982D02*
X100408095Y-68472601D01*
X100408095Y-68472601D02*
X100455714Y-68567839D01*
X100455714Y-68567839D02*
X100503333Y-68758315D01*
X100503333Y-68758315D02*
X100503333Y-68996410D01*
X100503333Y-68996410D02*
X100455714Y-69186886D01*
X100455714Y-69186886D02*
X100408095Y-69282124D01*
X100408095Y-69282124D02*
X100360476Y-69329744D01*
X100360476Y-69329744D02*
X100265238Y-69377363D01*
X100265238Y-69377363D02*
X100170000Y-69377363D01*
X100170000Y-69377363D02*
X100074762Y-69329744D01*
X100074762Y-69329744D02*
X100027143Y-69282124D01*
X100027143Y-69282124D02*
X99979524Y-69186886D01*
X99979524Y-69186886D02*
X99931905Y-68996410D01*
X99931905Y-68996410D02*
X99931905Y-68758315D01*
X99931905Y-68758315D02*
X99979524Y-68567839D01*
X99979524Y-68567839D02*
X100027143Y-68472601D01*
X100027143Y-68472601D02*
X100074762Y-68424982D01*
X100074762Y-68424982D02*
X100170000Y-68377363D01*
X101360476Y-68377363D02*
X101170000Y-68377363D01*
X101170000Y-68377363D02*
X101074762Y-68424982D01*
X101074762Y-68424982D02*
X101027143Y-68472601D01*
X101027143Y-68472601D02*
X100931905Y-68615458D01*
X100931905Y-68615458D02*
X100884286Y-68805934D01*
X100884286Y-68805934D02*
X100884286Y-69186886D01*
X100884286Y-69186886D02*
X100931905Y-69282124D01*
X100931905Y-69282124D02*
X100979524Y-69329744D01*
X100979524Y-69329744D02*
X101074762Y-69377363D01*
X101074762Y-69377363D02*
X101265238Y-69377363D01*
X101265238Y-69377363D02*
X101360476Y-69329744D01*
X101360476Y-69329744D02*
X101408095Y-69282124D01*
X101408095Y-69282124D02*
X101455714Y-69186886D01*
X101455714Y-69186886D02*
X101455714Y-68948791D01*
X101455714Y-68948791D02*
X101408095Y-68853553D01*
X101408095Y-68853553D02*
X101360476Y-68805934D01*
X101360476Y-68805934D02*
X101265238Y-68758315D01*
X101265238Y-68758315D02*
X101074762Y-68758315D01*
X101074762Y-68758315D02*
X100979524Y-68805934D01*
X100979524Y-68805934D02*
X100931905Y-68853553D01*
X100931905Y-68853553D02*
X100884286Y-68948791D01*
X101884286Y-68996410D02*
X102646191Y-68996410D01*
X103312857Y-68377363D02*
X103408095Y-68377363D01*
X103408095Y-68377363D02*
X103503333Y-68424982D01*
X103503333Y-68424982D02*
X103550952Y-68472601D01*
X103550952Y-68472601D02*
X103598571Y-68567839D01*
X103598571Y-68567839D02*
X103646190Y-68758315D01*
X103646190Y-68758315D02*
X103646190Y-68996410D01*
X103646190Y-68996410D02*
X103598571Y-69186886D01*
X103598571Y-69186886D02*
X103550952Y-69282124D01*
X103550952Y-69282124D02*
X103503333Y-69329744D01*
X103503333Y-69329744D02*
X103408095Y-69377363D01*
X103408095Y-69377363D02*
X103312857Y-69377363D01*
X103312857Y-69377363D02*
X103217619Y-69329744D01*
X103217619Y-69329744D02*
X103170000Y-69282124D01*
X103170000Y-69282124D02*
X103122381Y-69186886D01*
X103122381Y-69186886D02*
X103074762Y-68996410D01*
X103074762Y-68996410D02*
X103074762Y-68758315D01*
X103074762Y-68758315D02*
X103122381Y-68567839D01*
X103122381Y-68567839D02*
X103170000Y-68472601D01*
X103170000Y-68472601D02*
X103217619Y-68424982D01*
X103217619Y-68424982D02*
X103312857Y-68377363D01*
X103979524Y-68377363D02*
X104646190Y-68377363D01*
X104646190Y-68377363D02*
X104217619Y-69377363D01*
D12*
X72921905Y-55064819D02*
X72921905Y-54064819D01*
X72921905Y-54064819D02*
X73160000Y-54064819D01*
X73160000Y-54064819D02*
X73302857Y-54112438D01*
X73302857Y-54112438D02*
X73398095Y-54207676D01*
X73398095Y-54207676D02*
X73445714Y-54302914D01*
X73445714Y-54302914D02*
X73493333Y-54493390D01*
X73493333Y-54493390D02*
X73493333Y-54636247D01*
X73493333Y-54636247D02*
X73445714Y-54826723D01*
X73445714Y-54826723D02*
X73398095Y-54921961D01*
X73398095Y-54921961D02*
X73302857Y-55017200D01*
X73302857Y-55017200D02*
X73160000Y-55064819D01*
X73160000Y-55064819D02*
X72921905Y-55064819D01*
X73874286Y-54160057D02*
X73921905Y-54112438D01*
X73921905Y-54112438D02*
X74017143Y-54064819D01*
X74017143Y-54064819D02*
X74255238Y-54064819D01*
X74255238Y-54064819D02*
X74350476Y-54112438D01*
X74350476Y-54112438D02*
X74398095Y-54160057D01*
X74398095Y-54160057D02*
X74445714Y-54255295D01*
X74445714Y-54255295D02*
X74445714Y-54350533D01*
X74445714Y-54350533D02*
X74398095Y-54493390D01*
X74398095Y-54493390D02*
X73826667Y-55064819D01*
X73826667Y-55064819D02*
X74445714Y-55064819D01*
D11*
X77789047Y-47700352D02*
X77312857Y-47462257D01*
X77312857Y-47462257D02*
X77074762Y-47224161D01*
X77074762Y-47224161D02*
X76836666Y-46747971D01*
X76836666Y-46747971D02*
X76836666Y-46509876D01*
X76836666Y-46509876D02*
X77074762Y-46033685D01*
X77074762Y-46033685D02*
X77312857Y-45795590D01*
X77312857Y-45795590D02*
X77789047Y-45557495D01*
X77789047Y-45557495D02*
X78741428Y-45557495D01*
X78741428Y-45557495D02*
X79217619Y-45795590D01*
X79217619Y-45795590D02*
X79455714Y-46033685D01*
X79455714Y-46033685D02*
X79693809Y-46509876D01*
X79693809Y-46509876D02*
X79693809Y-46747971D01*
X79693809Y-46747971D02*
X79455714Y-47224161D01*
X79455714Y-47224161D02*
X79217619Y-47462257D01*
X79217619Y-47462257D02*
X78741428Y-47700352D01*
X78741428Y-47700352D02*
X77789047Y-47700352D01*
X77789047Y-47700352D02*
X77312857Y-47938447D01*
X77312857Y-47938447D02*
X77074762Y-48176542D01*
X77074762Y-48176542D02*
X76836666Y-48652733D01*
X76836666Y-48652733D02*
X76836666Y-49605114D01*
X76836666Y-49605114D02*
X77074762Y-50081304D01*
X77074762Y-50081304D02*
X77312857Y-50319400D01*
X77312857Y-50319400D02*
X77789047Y-50557495D01*
X77789047Y-50557495D02*
X78741428Y-50557495D01*
X78741428Y-50557495D02*
X79217619Y-50319400D01*
X79217619Y-50319400D02*
X79455714Y-50081304D01*
X79455714Y-50081304D02*
X79693809Y-49605114D01*
X79693809Y-49605114D02*
X79693809Y-48652733D01*
X79693809Y-48652733D02*
X79455714Y-48176542D01*
X79455714Y-48176542D02*
X79217619Y-47938447D01*
X79217619Y-47938447D02*
X78741428Y-47700352D01*
X81836667Y-50081304D02*
X82074762Y-50319400D01*
X82074762Y-50319400D02*
X81836667Y-50557495D01*
X81836667Y-50557495D02*
X81598571Y-50319400D01*
X81598571Y-50319400D02*
X81836667Y-50081304D01*
X81836667Y-50081304D02*
X81836667Y-50557495D01*
X84931904Y-47700352D02*
X84455714Y-47462257D01*
X84455714Y-47462257D02*
X84217619Y-47224161D01*
X84217619Y-47224161D02*
X83979523Y-46747971D01*
X83979523Y-46747971D02*
X83979523Y-46509876D01*
X83979523Y-46509876D02*
X84217619Y-46033685D01*
X84217619Y-46033685D02*
X84455714Y-45795590D01*
X84455714Y-45795590D02*
X84931904Y-45557495D01*
X84931904Y-45557495D02*
X85884285Y-45557495D01*
X85884285Y-45557495D02*
X86360476Y-45795590D01*
X86360476Y-45795590D02*
X86598571Y-46033685D01*
X86598571Y-46033685D02*
X86836666Y-46509876D01*
X86836666Y-46509876D02*
X86836666Y-46747971D01*
X86836666Y-46747971D02*
X86598571Y-47224161D01*
X86598571Y-47224161D02*
X86360476Y-47462257D01*
X86360476Y-47462257D02*
X85884285Y-47700352D01*
X85884285Y-47700352D02*
X84931904Y-47700352D01*
X84931904Y-47700352D02*
X84455714Y-47938447D01*
X84455714Y-47938447D02*
X84217619Y-48176542D01*
X84217619Y-48176542D02*
X83979523Y-48652733D01*
X83979523Y-48652733D02*
X83979523Y-49605114D01*
X83979523Y-49605114D02*
X84217619Y-50081304D01*
X84217619Y-50081304D02*
X84455714Y-50319400D01*
X84455714Y-50319400D02*
X84931904Y-50557495D01*
X84931904Y-50557495D02*
X85884285Y-50557495D01*
X85884285Y-50557495D02*
X86360476Y-50319400D01*
X86360476Y-50319400D02*
X86598571Y-50081304D01*
X86598571Y-50081304D02*
X86836666Y-49605114D01*
X86836666Y-49605114D02*
X86836666Y-48652733D01*
X86836666Y-48652733D02*
X86598571Y-48176542D01*
X86598571Y-48176542D02*
X86360476Y-47938447D01*
X86360476Y-47938447D02*
X85884285Y-47700352D01*
X88979524Y-50081304D02*
X89217619Y-50319400D01*
X89217619Y-50319400D02*
X88979524Y-50557495D01*
X88979524Y-50557495D02*
X88741428Y-50319400D01*
X88741428Y-50319400D02*
X88979524Y-50081304D01*
X88979524Y-50081304D02*
X88979524Y-50557495D01*
X92074761Y-47700352D02*
X91598571Y-47462257D01*
X91598571Y-47462257D02*
X91360476Y-47224161D01*
X91360476Y-47224161D02*
X91122380Y-46747971D01*
X91122380Y-46747971D02*
X91122380Y-46509876D01*
X91122380Y-46509876D02*
X91360476Y-46033685D01*
X91360476Y-46033685D02*
X91598571Y-45795590D01*
X91598571Y-45795590D02*
X92074761Y-45557495D01*
X92074761Y-45557495D02*
X93027142Y-45557495D01*
X93027142Y-45557495D02*
X93503333Y-45795590D01*
X93503333Y-45795590D02*
X93741428Y-46033685D01*
X93741428Y-46033685D02*
X93979523Y-46509876D01*
X93979523Y-46509876D02*
X93979523Y-46747971D01*
X93979523Y-46747971D02*
X93741428Y-47224161D01*
X93741428Y-47224161D02*
X93503333Y-47462257D01*
X93503333Y-47462257D02*
X93027142Y-47700352D01*
X93027142Y-47700352D02*
X92074761Y-47700352D01*
X92074761Y-47700352D02*
X91598571Y-47938447D01*
X91598571Y-47938447D02*
X91360476Y-48176542D01*
X91360476Y-48176542D02*
X91122380Y-48652733D01*
X91122380Y-48652733D02*
X91122380Y-49605114D01*
X91122380Y-49605114D02*
X91360476Y-50081304D01*
X91360476Y-50081304D02*
X91598571Y-50319400D01*
X91598571Y-50319400D02*
X92074761Y-50557495D01*
X92074761Y-50557495D02*
X93027142Y-50557495D01*
X93027142Y-50557495D02*
X93503333Y-50319400D01*
X93503333Y-50319400D02*
X93741428Y-50081304D01*
X93741428Y-50081304D02*
X93979523Y-49605114D01*
X93979523Y-49605114D02*
X93979523Y-48652733D01*
X93979523Y-48652733D02*
X93741428Y-48176542D01*
X93741428Y-48176542D02*
X93503333Y-47938447D01*
X93503333Y-47938447D02*
X93027142Y-47700352D01*
X96122381Y-50081304D02*
X96360476Y-50319400D01*
X96360476Y-50319400D02*
X96122381Y-50557495D01*
X96122381Y-50557495D02*
X95884285Y-50319400D01*
X95884285Y-50319400D02*
X96122381Y-50081304D01*
X96122381Y-50081304D02*
X96122381Y-50557495D01*
X99217618Y-47700352D02*
X98741428Y-47462257D01*
X98741428Y-47462257D02*
X98503333Y-47224161D01*
X98503333Y-47224161D02*
X98265237Y-46747971D01*
X98265237Y-46747971D02*
X98265237Y-46509876D01*
X98265237Y-46509876D02*
X98503333Y-46033685D01*
X98503333Y-46033685D02*
X98741428Y-45795590D01*
X98741428Y-45795590D02*
X99217618Y-45557495D01*
X99217618Y-45557495D02*
X100169999Y-45557495D01*
X100169999Y-45557495D02*
X100646190Y-45795590D01*
X100646190Y-45795590D02*
X100884285Y-46033685D01*
X100884285Y-46033685D02*
X101122380Y-46509876D01*
X101122380Y-46509876D02*
X101122380Y-46747971D01*
X101122380Y-46747971D02*
X100884285Y-47224161D01*
X100884285Y-47224161D02*
X100646190Y-47462257D01*
X100646190Y-47462257D02*
X100169999Y-47700352D01*
X100169999Y-47700352D02*
X99217618Y-47700352D01*
X99217618Y-47700352D02*
X98741428Y-47938447D01*
X98741428Y-47938447D02*
X98503333Y-48176542D01*
X98503333Y-48176542D02*
X98265237Y-48652733D01*
X98265237Y-48652733D02*
X98265237Y-49605114D01*
X98265237Y-49605114D02*
X98503333Y-50081304D01*
X98503333Y-50081304D02*
X98741428Y-50319400D01*
X98741428Y-50319400D02*
X99217618Y-50557495D01*
X99217618Y-50557495D02*
X100169999Y-50557495D01*
X100169999Y-50557495D02*
X100646190Y-50319400D01*
X100646190Y-50319400D02*
X100884285Y-50081304D01*
X100884285Y-50081304D02*
X101122380Y-49605114D01*
X101122380Y-49605114D02*
X101122380Y-48652733D01*
X101122380Y-48652733D02*
X100884285Y-48176542D01*
X100884285Y-48176542D02*
X100646190Y-47938447D01*
X100646190Y-47938447D02*
X100169999Y-47700352D01*
X103265238Y-50081304D02*
X103503333Y-50319400D01*
X103503333Y-50319400D02*
X103265238Y-50557495D01*
X103265238Y-50557495D02*
X103027142Y-50319400D01*
X103027142Y-50319400D02*
X103265238Y-50081304D01*
X103265238Y-50081304D02*
X103265238Y-50557495D01*
D13*
X75060000Y-55340000D02*
X75060000Y-41180000D01*
X75060000Y-55340000D02*
X105280000Y-55340000D01*
X82820000Y-55720000D02*
X84820000Y-55720000D01*
X105280000Y-41180000D02*
X75060000Y-41180000D01*
X105280000Y-55340000D02*
X105280000Y-41180000D01*
M02*
