%TF.GenerationSoftware,KiCad,Pcbnew,9.0.2*%
%TF.CreationDate,2025-06-10T21:23:16+02:00*%
%TF.ProjectId,n-teller,6e2d7465-6c6c-4657-922e-6b696361645f,1.0*%
%TF.SameCoordinates,Original*%
%TF.FileFunction,Drillmap*%
%TF.FilePolarity,Positive*%
%FSLAX45Y45*%
G04 Gerber Fmt 4.5, Leading zero omitted, Abs format (unit mm)*
G04 Created by KiCad (PCBNEW 9.0.2) date 2025-06-10 21:23:16*
%MOMM*%
%LPD*%
G01*
G04 APERTURE LIST*
%ADD10C,0.050000*%
%ADD11C,0.200000*%
%ADD12C,0.100000*%
%ADD13C,0.320000*%
G04 APERTURE END LIST*
D10*
X5588000Y-3048000D02*
G75*
G02*
X6096000Y-2540000I508000J0D01*
G01*
X6096000Y-2540000D02*
X11938000Y-2540000D01*
X12446000Y-3048000D02*
X12446000Y-6604000D01*
X5588000Y-6604000D02*
X5588000Y-3048000D01*
X12446000Y-6604000D02*
G75*
G02*
X11938000Y-7112000I-508000J0D01*
G01*
X6096000Y-7112000D02*
G75*
G02*
X5588000Y-6604000I0J508000D01*
G01*
X11938000Y-7112000D02*
X6096000Y-7112000D01*
X11938000Y-2540000D02*
G75*
G02*
X12446000Y-3048000I0J-508000D01*
G01*
D11*
D12*
X6647500Y-2647000D02*
X6687500Y-2687000D01*
X6687500Y-2647000D02*
X6647500Y-2687000D01*
X6647500Y-5758500D02*
X6687500Y-5798500D01*
X6687500Y-5758500D02*
X6647500Y-5798500D01*
X6647500Y-6203000D02*
X6687500Y-6243000D01*
X6687500Y-6203000D02*
X6647500Y-6243000D01*
X6647500Y-6965000D02*
X6687500Y-7005000D01*
X6687500Y-6965000D02*
X6647500Y-7005000D01*
X6711000Y-3917000D02*
X6751000Y-3957000D01*
X6751000Y-3917000D02*
X6711000Y-3957000D01*
X7600000Y-3409000D02*
X7640000Y-3449000D01*
X7640000Y-3409000D02*
X7600000Y-3449000D01*
X7600000Y-5758500D02*
X7640000Y-5798500D01*
X7640000Y-5758500D02*
X7600000Y-5798500D01*
X7676200Y-2875600D02*
X7716200Y-2915600D01*
X7716200Y-2875600D02*
X7676200Y-2915600D01*
X7854000Y-3917000D02*
X7894000Y-3957000D01*
X7894000Y-3917000D02*
X7854000Y-3957000D01*
X7968300Y-2748600D02*
X8008300Y-2788600D01*
X8008300Y-2748600D02*
X7968300Y-2788600D01*
X8108000Y-3345500D02*
X8148000Y-3385500D01*
X8148000Y-3345500D02*
X8108000Y-3385500D01*
X8108000Y-3472500D02*
X8148000Y-3512500D01*
X8148000Y-3472500D02*
X8108000Y-3512500D01*
X8108000Y-5441000D02*
X8148000Y-5481000D01*
X8148000Y-5441000D02*
X8108000Y-5481000D01*
X8171500Y-5568000D02*
X8211500Y-5608000D01*
X8211500Y-5568000D02*
X8171500Y-5608000D01*
X8235000Y-2647000D02*
X8275000Y-2687000D01*
X8275000Y-2647000D02*
X8235000Y-2687000D01*
X8235000Y-3218500D02*
X8275000Y-3258500D01*
X8275000Y-3218500D02*
X8235000Y-3258500D01*
X8235000Y-3917000D02*
X8275000Y-3957000D01*
X8275000Y-3917000D02*
X8235000Y-3957000D01*
X8362000Y-3345500D02*
X8402000Y-3385500D01*
X8402000Y-3345500D02*
X8362000Y-3385500D01*
X8616000Y-5538100D02*
X8656000Y-5578100D01*
X8656000Y-5538100D02*
X8616000Y-5578100D01*
X8679500Y-3790000D02*
X8719500Y-3830000D01*
X8719500Y-3790000D02*
X8679500Y-3830000D01*
X8997000Y-3409000D02*
X9037000Y-3449000D01*
X9037000Y-3409000D02*
X8997000Y-3449000D01*
X8997000Y-4450400D02*
X9037000Y-4490400D01*
X9037000Y-4450400D02*
X8997000Y-4490400D01*
X8997000Y-4742500D02*
X9037000Y-4782500D01*
X9037000Y-4742500D02*
X8997000Y-4782500D01*
X9060500Y-4971100D02*
X9100500Y-5011100D01*
X9100500Y-4971100D02*
X9060500Y-5011100D01*
X9238300Y-4679000D02*
X9278300Y-4719000D01*
X9278300Y-4679000D02*
X9238300Y-4719000D01*
X9403400Y-4869500D02*
X9443400Y-4909500D01*
X9443400Y-4869500D02*
X9403400Y-4909500D01*
X9441500Y-4755200D02*
X9481500Y-4795200D01*
X9481500Y-4755200D02*
X9441500Y-4795200D01*
X9505000Y-6139500D02*
X9545000Y-6179500D01*
X9545000Y-6139500D02*
X9505000Y-6179500D01*
X9505000Y-6393500D02*
X9545000Y-6433500D01*
X9545000Y-6393500D02*
X9505000Y-6433500D01*
X9632000Y-4742500D02*
X9672000Y-4782500D01*
X9672000Y-4742500D02*
X9632000Y-4782500D01*
X9746300Y-4450400D02*
X9786300Y-4490400D01*
X9786300Y-4450400D02*
X9746300Y-4490400D01*
X9759000Y-3282000D02*
X9799000Y-3322000D01*
X9799000Y-3282000D02*
X9759000Y-3322000D01*
X9878789Y-4570500D02*
X9918789Y-4610500D01*
X9918789Y-4570500D02*
X9878789Y-4610500D01*
X9886000Y-4996500D02*
X9926000Y-5036500D01*
X9926000Y-4996500D02*
X9886000Y-5036500D01*
X9886000Y-5123500D02*
X9926000Y-5163500D01*
X9926000Y-5123500D02*
X9886000Y-5163500D01*
X9886000Y-5250500D02*
X9926000Y-5290500D01*
X9926000Y-5250500D02*
X9886000Y-5290500D01*
X9886000Y-5504500D02*
X9926000Y-5544500D01*
X9926000Y-5504500D02*
X9886000Y-5544500D01*
X9949500Y-4655500D02*
X9989500Y-4695500D01*
X9989500Y-4655500D02*
X9949500Y-4695500D01*
X9962200Y-4005900D02*
X10002200Y-4045900D01*
X10002200Y-4005900D02*
X9962200Y-4045900D01*
X10000300Y-5580700D02*
X10040300Y-5620700D01*
X10040300Y-5580700D02*
X10000300Y-5620700D01*
X10025700Y-2850200D02*
X10065700Y-2890200D01*
X10065700Y-2850200D02*
X10025700Y-2890200D01*
X10038400Y-3917000D02*
X10078400Y-3957000D01*
X10078400Y-3917000D02*
X10038400Y-3957000D01*
X10076500Y-3155000D02*
X10116500Y-3195000D01*
X10116500Y-3155000D02*
X10076500Y-3195000D01*
X10140000Y-3663000D02*
X10180000Y-3703000D01*
X10180000Y-3663000D02*
X10140000Y-3703000D01*
X10203500Y-2774000D02*
X10243500Y-2814000D01*
X10243500Y-2774000D02*
X10203500Y-2814000D01*
X10203500Y-3155000D02*
X10243500Y-3195000D01*
X10243500Y-3155000D02*
X10203500Y-3195000D01*
X10330500Y-3980500D02*
X10370500Y-4020500D01*
X10370500Y-3980500D02*
X10330500Y-4020500D01*
X10330500Y-5695000D02*
X10370500Y-5735000D01*
X10370500Y-5695000D02*
X10330500Y-5735000D01*
X10355900Y-4806000D02*
X10395900Y-4846000D01*
X10395900Y-4806000D02*
X10355900Y-4846000D01*
X10394000Y-4234500D02*
X10434000Y-4274500D01*
X10434000Y-4234500D02*
X10394000Y-4274500D01*
X10459103Y-6086800D02*
X10499103Y-6126800D01*
X10499103Y-6086800D02*
X10459103Y-6126800D01*
X10546400Y-5428300D02*
X10586400Y-5468300D01*
X10586400Y-5428300D02*
X10546400Y-5468300D01*
X10584500Y-3002600D02*
X10624500Y-3042600D01*
X10624500Y-3002600D02*
X10584500Y-3042600D01*
X10584500Y-4570500D02*
X10624500Y-4610500D01*
X10624500Y-4570500D02*
X10584500Y-4610500D01*
X10584500Y-4933000D02*
X10624500Y-4973000D01*
X10624500Y-4933000D02*
X10584500Y-4973000D01*
X10584500Y-5047300D02*
X10624500Y-5087300D01*
X10624500Y-5047300D02*
X10584500Y-5087300D01*
X10584500Y-5174300D02*
X10624500Y-5214300D01*
X10624500Y-5174300D02*
X10584500Y-5214300D01*
X10584500Y-5301300D02*
X10624500Y-5341300D01*
X10624500Y-5301300D02*
X10584500Y-5341300D01*
X10648000Y-2647000D02*
X10688000Y-2687000D01*
X10688000Y-2647000D02*
X10648000Y-2687000D01*
X10648000Y-3155000D02*
X10688000Y-3195000D01*
X10688000Y-3155000D02*
X10648000Y-3195000D01*
X10648000Y-3472500D02*
X10688000Y-3512500D01*
X10688000Y-3472500D02*
X10648000Y-3512500D01*
X10660700Y-2786700D02*
X10700700Y-2826700D01*
X10700700Y-2786700D02*
X10660700Y-2826700D01*
X10673400Y-4336100D02*
X10713400Y-4376100D01*
X10713400Y-4336100D02*
X10673400Y-4376100D01*
X10711500Y-3282000D02*
X10751500Y-3322000D01*
X10751500Y-3282000D02*
X10711500Y-3322000D01*
X10775000Y-4615500D02*
X10815000Y-4655500D01*
X10815000Y-4615500D02*
X10775000Y-4655500D01*
X10782268Y-4495768D02*
X10822268Y-4535768D01*
X10822268Y-4495768D02*
X10782268Y-4535768D01*
X10876600Y-3942400D02*
X10916600Y-3982400D01*
X10916600Y-3942400D02*
X10876600Y-3982400D01*
X10902000Y-3790000D02*
X10942000Y-3830000D01*
X10942000Y-3790000D02*
X10902000Y-3830000D01*
X10902000Y-4729800D02*
X10942000Y-4769800D01*
X10942000Y-4729800D02*
X10902000Y-4769800D01*
X10902000Y-4869500D02*
X10942000Y-4909500D01*
X10942000Y-4869500D02*
X10902000Y-4909500D01*
X10902000Y-5809300D02*
X10942000Y-5849300D01*
X10942000Y-5809300D02*
X10902000Y-5849300D01*
X10902000Y-6266500D02*
X10942000Y-6306500D01*
X10942000Y-6266500D02*
X10902000Y-6306500D01*
X10927400Y-5631500D02*
X10967400Y-5671500D01*
X10967400Y-5631500D02*
X10927400Y-5671500D01*
X11029000Y-5695000D02*
X11069000Y-5735000D01*
X11069000Y-5695000D02*
X11029000Y-5735000D01*
X11029000Y-6086800D02*
X11069000Y-6126800D01*
X11069000Y-6086800D02*
X11029000Y-6126800D01*
X11079800Y-2875600D02*
X11119800Y-2915600D01*
X11119800Y-2875600D02*
X11079800Y-2915600D01*
X11079800Y-3294700D02*
X11119800Y-3334700D01*
X11119800Y-3294700D02*
X11079800Y-3334700D01*
X11092380Y-3790000D02*
X11132380Y-3830000D01*
X11132380Y-3790000D02*
X11092380Y-3830000D01*
X11206800Y-3116900D02*
X11246800Y-3156900D01*
X11246800Y-3116900D02*
X11206800Y-3156900D01*
X11257600Y-3002600D02*
X11297600Y-3042600D01*
X11297600Y-3002600D02*
X11257600Y-3042600D01*
X11308400Y-4602800D02*
X11348400Y-4642800D01*
X11348400Y-4602800D02*
X11308400Y-4642800D01*
X11308400Y-5009200D02*
X11348400Y-5049200D01*
X11348400Y-5009200D02*
X11308400Y-5049200D01*
X11359200Y-5364800D02*
X11399200Y-5404800D01*
X11399200Y-5364800D02*
X11359200Y-5404800D01*
X11448100Y-3853500D02*
X11488100Y-3893500D01*
X11488100Y-3853500D02*
X11448100Y-3893500D01*
X11473500Y-5504500D02*
X11513500Y-5544500D01*
X11513500Y-5504500D02*
X11473500Y-5544500D01*
X11473500Y-5669600D02*
X11513500Y-5709600D01*
X11513500Y-5669600D02*
X11473500Y-5709600D01*
X11560500Y-3663000D02*
X11600500Y-3703000D01*
X11600500Y-3663000D02*
X11560500Y-3703000D01*
X11575100Y-5910900D02*
X11615100Y-5950900D01*
X11615100Y-5910900D02*
X11575100Y-5950900D01*
X11587800Y-5288600D02*
X11627800Y-5328600D01*
X11627800Y-5288600D02*
X11587800Y-5328600D01*
X11695750Y-5790250D02*
X11735750Y-5830250D01*
X11735750Y-5790250D02*
X11695750Y-5830250D01*
X11765600Y-5263200D02*
X11805600Y-5303200D01*
X11805600Y-5263200D02*
X11765600Y-5303200D01*
X11839420Y-3846275D02*
X11879420Y-3886275D01*
X11879420Y-3846275D02*
X11839420Y-3886275D01*
X11918000Y-4806000D02*
X11958000Y-4846000D01*
X11958000Y-4806000D02*
X11918000Y-4846000D01*
X5867000Y-6604000D02*
G75*
G02*
X5817000Y-6604000I-25000J0D01*
G01*
X5817000Y-6604000D02*
G75*
G02*
X5867000Y-6604000I25000J0D01*
G01*
X5881000Y-3048000D02*
G75*
G02*
X5831000Y-3048000I-25000J0D01*
G01*
X5831000Y-3048000D02*
G75*
G02*
X5881000Y-3048000I25000J0D01*
G01*
X5937294Y-6434294D02*
G75*
G02*
X5887294Y-6434294I-25000J0D01*
G01*
X5887294Y-6434294D02*
G75*
G02*
X5937294Y-6434294I25000J0D01*
G01*
X5937294Y-6773706D02*
G75*
G02*
X5887294Y-6773706I-25000J0D01*
G01*
X5887294Y-6773706D02*
G75*
G02*
X5937294Y-6773706I25000J0D01*
G01*
X5951294Y-2878294D02*
G75*
G02*
X5901294Y-2878294I-25000J0D01*
G01*
X5901294Y-2878294D02*
G75*
G02*
X5951294Y-2878294I25000J0D01*
G01*
X5951294Y-3217706D02*
G75*
G02*
X5901294Y-3217706I-25000J0D01*
G01*
X5901294Y-3217706D02*
G75*
G02*
X5951294Y-3217706I25000J0D01*
G01*
X6107000Y-6364000D02*
G75*
G02*
X6057000Y-6364000I-25000J0D01*
G01*
X6057000Y-6364000D02*
G75*
G02*
X6107000Y-6364000I25000J0D01*
G01*
X6107000Y-6844000D02*
G75*
G02*
X6057000Y-6844000I-25000J0D01*
G01*
X6057000Y-6844000D02*
G75*
G02*
X6107000Y-6844000I25000J0D01*
G01*
X6121000Y-2808000D02*
G75*
G02*
X6071000Y-2808000I-25000J0D01*
G01*
X6071000Y-2808000D02*
G75*
G02*
X6121000Y-2808000I25000J0D01*
G01*
X6121000Y-3288000D02*
G75*
G02*
X6071000Y-3288000I-25000J0D01*
G01*
X6071000Y-3288000D02*
G75*
G02*
X6121000Y-3288000I25000J0D01*
G01*
X6276706Y-6434294D02*
G75*
G02*
X6226706Y-6434294I-25000J0D01*
G01*
X6226706Y-6434294D02*
G75*
G02*
X6276706Y-6434294I25000J0D01*
G01*
X6276706Y-6773706D02*
G75*
G02*
X6226706Y-6773706I-25000J0D01*
G01*
X6226706Y-6773706D02*
G75*
G02*
X6276706Y-6773706I25000J0D01*
G01*
X6290706Y-2878294D02*
G75*
G02*
X6240706Y-2878294I-25000J0D01*
G01*
X6240706Y-2878294D02*
G75*
G02*
X6290706Y-2878294I25000J0D01*
G01*
X6290706Y-3217706D02*
G75*
G02*
X6240706Y-3217706I-25000J0D01*
G01*
X6240706Y-3217706D02*
G75*
G02*
X6290706Y-3217706I25000J0D01*
G01*
X6347000Y-6604000D02*
G75*
G02*
X6297000Y-6604000I-25000J0D01*
G01*
X6297000Y-6604000D02*
G75*
G02*
X6347000Y-6604000I25000J0D01*
G01*
X6361000Y-3048000D02*
G75*
G02*
X6311000Y-3048000I-25000J0D01*
G01*
X6311000Y-3048000D02*
G75*
G02*
X6361000Y-3048000I25000J0D01*
G01*
X11723000Y-3048000D02*
G75*
G02*
X11673000Y-3048000I-25000J0D01*
G01*
X11673000Y-3048000D02*
G75*
G02*
X11723000Y-3048000I25000J0D01*
G01*
X11723000Y-6604000D02*
G75*
G02*
X11673000Y-6604000I-25000J0D01*
G01*
X11673000Y-6604000D02*
G75*
G02*
X11723000Y-6604000I25000J0D01*
G01*
X11793294Y-2878294D02*
G75*
G02*
X11743294Y-2878294I-25000J0D01*
G01*
X11743294Y-2878294D02*
G75*
G02*
X11793294Y-2878294I25000J0D01*
G01*
X11793294Y-3217706D02*
G75*
G02*
X11743294Y-3217706I-25000J0D01*
G01*
X11743294Y-3217706D02*
G75*
G02*
X11793294Y-3217706I25000J0D01*
G01*
X11793294Y-6434294D02*
G75*
G02*
X11743294Y-6434294I-25000J0D01*
G01*
X11743294Y-6434294D02*
G75*
G02*
X11793294Y-6434294I25000J0D01*
G01*
X11793294Y-6773706D02*
G75*
G02*
X11743294Y-6773706I-25000J0D01*
G01*
X11743294Y-6773706D02*
G75*
G02*
X11793294Y-6773706I25000J0D01*
G01*
X11963000Y-2808000D02*
G75*
G02*
X11913000Y-2808000I-25000J0D01*
G01*
X11913000Y-2808000D02*
G75*
G02*
X11963000Y-2808000I25000J0D01*
G01*
X11963000Y-3288000D02*
G75*
G02*
X11913000Y-3288000I-25000J0D01*
G01*
X11913000Y-3288000D02*
G75*
G02*
X11963000Y-3288000I25000J0D01*
G01*
X11963000Y-6364000D02*
G75*
G02*
X11913000Y-6364000I-25000J0D01*
G01*
X11913000Y-6364000D02*
G75*
G02*
X11963000Y-6364000I25000J0D01*
G01*
X11963000Y-6844000D02*
G75*
G02*
X11913000Y-6844000I-25000J0D01*
G01*
X11913000Y-6844000D02*
G75*
G02*
X11963000Y-6844000I25000J0D01*
G01*
X12132706Y-2878294D02*
G75*
G02*
X12082706Y-2878294I-25000J0D01*
G01*
X12082706Y-2878294D02*
G75*
G02*
X12132706Y-2878294I25000J0D01*
G01*
X12132706Y-3217706D02*
G75*
G02*
X12082706Y-3217706I-25000J0D01*
G01*
X12082706Y-3217706D02*
G75*
G02*
X12132706Y-3217706I25000J0D01*
G01*
X12132706Y-6434294D02*
G75*
G02*
X12082706Y-6434294I-25000J0D01*
G01*
X12082706Y-6434294D02*
G75*
G02*
X12132706Y-6434294I25000J0D01*
G01*
X12132706Y-6773706D02*
G75*
G02*
X12082706Y-6773706I-25000J0D01*
G01*
X12082706Y-6773706D02*
G75*
G02*
X12132706Y-6773706I25000J0D01*
G01*
X12203000Y-3048000D02*
G75*
G02*
X12153000Y-3048000I-25000J0D01*
G01*
X12153000Y-3048000D02*
G75*
G02*
X12203000Y-3048000I25000J0D01*
G01*
X12203000Y-6604000D02*
G75*
G02*
X12153000Y-6604000I-25000J0D01*
G01*
X12153000Y-6604000D02*
G75*
G02*
X12203000Y-6604000I25000J0D01*
G01*
X8382000Y-4278000D02*
X8382000Y-4358000D01*
X8342000Y-4318000D02*
X8422000Y-4318000D01*
X8382000Y-5294000D02*
X8382000Y-5374000D01*
X8342000Y-5334000D02*
X8422000Y-5334000D01*
X8636000Y-4278000D02*
X8636000Y-4358000D01*
X8596000Y-4318000D02*
X8676000Y-4318000D01*
X8636000Y-5294000D02*
X8636000Y-5374000D01*
X8596000Y-5334000D02*
X8676000Y-5334000D01*
X8890000Y-4278000D02*
X8890000Y-4358000D01*
X8850000Y-4318000D02*
X8930000Y-4318000D01*
X8890000Y-5294000D02*
X8890000Y-5374000D01*
X8850000Y-5334000D02*
X8930000Y-5334000D01*
X9144000Y-4278000D02*
X9144000Y-4358000D01*
X9104000Y-4318000D02*
X9184000Y-4318000D01*
X9144000Y-5294000D02*
X9144000Y-5374000D01*
X9104000Y-5334000D02*
X9184000Y-5334000D01*
X9398000Y-4278000D02*
X9398000Y-4358000D01*
X9358000Y-4318000D02*
X9438000Y-4318000D01*
X9398000Y-5294000D02*
X9398000Y-5374000D01*
X9358000Y-5334000D02*
X9438000Y-5334000D01*
X9652000Y-4278000D02*
X9652000Y-4358000D01*
X9612000Y-4318000D02*
X9692000Y-4318000D01*
X9652000Y-5294000D02*
X9652000Y-5374000D01*
X9612000Y-5334000D02*
X9692000Y-5334000D01*
X9807554Y-6222500D02*
X9807554Y-6302500D01*
X9767554Y-6262500D02*
X9847554Y-6262500D01*
X10157554Y-6222500D02*
X10157554Y-6302500D01*
X10117554Y-6262500D02*
X10197554Y-6262500D01*
X6762820Y-3714820D02*
X6762820Y-3651180D01*
X6699180Y-3651180D01*
X6699180Y-3714820D01*
X6762820Y-3714820D01*
X6762820Y-6000820D02*
X6762820Y-5937180D01*
X6699180Y-5937180D01*
X6699180Y-6000820D01*
X6762820Y-6000820D01*
X7016820Y-3714820D02*
X7016820Y-3651180D01*
X6953180Y-3651180D01*
X6953180Y-3714820D01*
X7016820Y-3714820D01*
X7016820Y-6000820D02*
X7016820Y-5937180D01*
X6953180Y-5937180D01*
X6953180Y-6000820D01*
X7016820Y-6000820D01*
X7270820Y-3714820D02*
X7270820Y-3651180D01*
X7207180Y-3651180D01*
X7207180Y-3714820D01*
X7270820Y-3714820D01*
X7270820Y-6000820D02*
X7270820Y-5937180D01*
X7207180Y-5937180D01*
X7207180Y-6000820D01*
X7270820Y-6000820D01*
X7524820Y-3714820D02*
X7524820Y-3651180D01*
X7461180Y-3651180D01*
X7461180Y-3714820D01*
X7524820Y-3714820D01*
X7524820Y-6000820D02*
X7524820Y-5937180D01*
X7461180Y-5937180D01*
X7461180Y-6000820D01*
X7524820Y-6000820D01*
X7778820Y-3714820D02*
X7778820Y-3651180D01*
X7715180Y-3651180D01*
X7715180Y-3714820D01*
X7778820Y-3714820D01*
X7778820Y-6000820D02*
X7778820Y-5937180D01*
X7715180Y-5937180D01*
X7715180Y-6000820D01*
X7778820Y-6000820D01*
X8032820Y-3714820D02*
X8032820Y-3651180D01*
X7969180Y-3651180D01*
X7969180Y-3714820D01*
X8032820Y-3714820D01*
X8032820Y-6000820D02*
X8032820Y-5937180D01*
X7969180Y-5937180D01*
X7969180Y-6000820D01*
X8032820Y-6000820D01*
X8286820Y-3714820D02*
X8286820Y-3651180D01*
X8223180Y-3651180D01*
X8223180Y-3714820D01*
X8286820Y-3714820D01*
X8286820Y-6000820D02*
X8286820Y-5937180D01*
X8223180Y-5937180D01*
X8223180Y-6000820D01*
X8286820Y-6000820D01*
X8540820Y-3714820D02*
X8540820Y-3651180D01*
X8477180Y-3651180D01*
X8477180Y-3714820D01*
X8540820Y-3714820D01*
X8540820Y-6000820D02*
X8540820Y-5937180D01*
X8477180Y-5937180D01*
X8477180Y-6000820D01*
X8540820Y-6000820D01*
D13*
X6082000Y-6764000D02*
X6242000Y-6604000D01*
X6082000Y-6444000D01*
X5922000Y-6604000D01*
X6082000Y-6764000D01*
X6096000Y-3208000D02*
X6256000Y-3048000D01*
X6096000Y-2888000D01*
X5936000Y-3048000D01*
X6096000Y-3208000D01*
X11938000Y-3208000D02*
X12098000Y-3048000D01*
X11938000Y-2888000D01*
X11778000Y-3048000D01*
X11938000Y-3208000D01*
X11938000Y-6764000D02*
X12098000Y-6604000D01*
X11938000Y-6444000D01*
X11778000Y-6604000D01*
X11938000Y-6764000D01*
D11*
X5846277Y-7425984D02*
X5846277Y-7225984D01*
X5846277Y-7225984D02*
X5893896Y-7225984D01*
X5893896Y-7225984D02*
X5922467Y-7235508D01*
X5922467Y-7235508D02*
X5941515Y-7254555D01*
X5941515Y-7254555D02*
X5951039Y-7273603D01*
X5951039Y-7273603D02*
X5960562Y-7311698D01*
X5960562Y-7311698D02*
X5960562Y-7340269D01*
X5960562Y-7340269D02*
X5951039Y-7378365D01*
X5951039Y-7378365D02*
X5941515Y-7397412D01*
X5941515Y-7397412D02*
X5922467Y-7416460D01*
X5922467Y-7416460D02*
X5893896Y-7425984D01*
X5893896Y-7425984D02*
X5846277Y-7425984D01*
X6046277Y-7425984D02*
X6046277Y-7292650D01*
X6046277Y-7330746D02*
X6055801Y-7311698D01*
X6055801Y-7311698D02*
X6065324Y-7302174D01*
X6065324Y-7302174D02*
X6084372Y-7292650D01*
X6084372Y-7292650D02*
X6103420Y-7292650D01*
X6170086Y-7425984D02*
X6170086Y-7292650D01*
X6170086Y-7225984D02*
X6160562Y-7235508D01*
X6160562Y-7235508D02*
X6170086Y-7245031D01*
X6170086Y-7245031D02*
X6179610Y-7235508D01*
X6179610Y-7235508D02*
X6170086Y-7225984D01*
X6170086Y-7225984D02*
X6170086Y-7245031D01*
X6293896Y-7425984D02*
X6274848Y-7416460D01*
X6274848Y-7416460D02*
X6265324Y-7397412D01*
X6265324Y-7397412D02*
X6265324Y-7225984D01*
X6398658Y-7425984D02*
X6379610Y-7416460D01*
X6379610Y-7416460D02*
X6370086Y-7397412D01*
X6370086Y-7397412D02*
X6370086Y-7225984D01*
X6627229Y-7425984D02*
X6627229Y-7225984D01*
X6627229Y-7225984D02*
X6693896Y-7368841D01*
X6693896Y-7368841D02*
X6760562Y-7225984D01*
X6760562Y-7225984D02*
X6760562Y-7425984D01*
X6941515Y-7425984D02*
X6941515Y-7321222D01*
X6941515Y-7321222D02*
X6931991Y-7302174D01*
X6931991Y-7302174D02*
X6912943Y-7292650D01*
X6912943Y-7292650D02*
X6874848Y-7292650D01*
X6874848Y-7292650D02*
X6855801Y-7302174D01*
X6941515Y-7416460D02*
X6922467Y-7425984D01*
X6922467Y-7425984D02*
X6874848Y-7425984D01*
X6874848Y-7425984D02*
X6855801Y-7416460D01*
X6855801Y-7416460D02*
X6846277Y-7397412D01*
X6846277Y-7397412D02*
X6846277Y-7378365D01*
X6846277Y-7378365D02*
X6855801Y-7359317D01*
X6855801Y-7359317D02*
X6874848Y-7349793D01*
X6874848Y-7349793D02*
X6922467Y-7349793D01*
X6922467Y-7349793D02*
X6941515Y-7340269D01*
X7036753Y-7292650D02*
X7036753Y-7492650D01*
X7036753Y-7302174D02*
X7055801Y-7292650D01*
X7055801Y-7292650D02*
X7093896Y-7292650D01*
X7093896Y-7292650D02*
X7112943Y-7302174D01*
X7112943Y-7302174D02*
X7122467Y-7311698D01*
X7122467Y-7311698D02*
X7131991Y-7330746D01*
X7131991Y-7330746D02*
X7131991Y-7387888D01*
X7131991Y-7387888D02*
X7122467Y-7406936D01*
X7122467Y-7406936D02*
X7112943Y-7416460D01*
X7112943Y-7416460D02*
X7093896Y-7425984D01*
X7093896Y-7425984D02*
X7055801Y-7425984D01*
X7055801Y-7425984D02*
X7036753Y-7416460D01*
X7217705Y-7406936D02*
X7227229Y-7416460D01*
X7227229Y-7416460D02*
X7217705Y-7425984D01*
X7217705Y-7425984D02*
X7208182Y-7416460D01*
X7208182Y-7416460D02*
X7217705Y-7406936D01*
X7217705Y-7406936D02*
X7217705Y-7425984D01*
X7217705Y-7302174D02*
X7227229Y-7311698D01*
X7227229Y-7311698D02*
X7217705Y-7321222D01*
X7217705Y-7321222D02*
X7208182Y-7311698D01*
X7208182Y-7311698D02*
X7217705Y-7302174D01*
X7217705Y-7302174D02*
X7217705Y-7321222D01*
D12*
X5545500Y-7734500D02*
X5585500Y-7774500D01*
X5585500Y-7734500D02*
X5545500Y-7774500D01*
D11*
X5884372Y-7645984D02*
X5903420Y-7645984D01*
X5903420Y-7645984D02*
X5922467Y-7655508D01*
X5922467Y-7655508D02*
X5931991Y-7665031D01*
X5931991Y-7665031D02*
X5941515Y-7684079D01*
X5941515Y-7684079D02*
X5951039Y-7722174D01*
X5951039Y-7722174D02*
X5951039Y-7769793D01*
X5951039Y-7769793D02*
X5941515Y-7807888D01*
X5941515Y-7807888D02*
X5931991Y-7826936D01*
X5931991Y-7826936D02*
X5922467Y-7836460D01*
X5922467Y-7836460D02*
X5903420Y-7845984D01*
X5903420Y-7845984D02*
X5884372Y-7845984D01*
X5884372Y-7845984D02*
X5865324Y-7836460D01*
X5865324Y-7836460D02*
X5855801Y-7826936D01*
X5855801Y-7826936D02*
X5846277Y-7807888D01*
X5846277Y-7807888D02*
X5836753Y-7769793D01*
X5836753Y-7769793D02*
X5836753Y-7722174D01*
X5836753Y-7722174D02*
X5846277Y-7684079D01*
X5846277Y-7684079D02*
X5855801Y-7665031D01*
X5855801Y-7665031D02*
X5865324Y-7655508D01*
X5865324Y-7655508D02*
X5884372Y-7645984D01*
X6036753Y-7826936D02*
X6046277Y-7836460D01*
X6046277Y-7836460D02*
X6036753Y-7845984D01*
X6036753Y-7845984D02*
X6027229Y-7836460D01*
X6027229Y-7836460D02*
X6036753Y-7826936D01*
X6036753Y-7826936D02*
X6036753Y-7845984D01*
X6217705Y-7712650D02*
X6217705Y-7845984D01*
X6170086Y-7636460D02*
X6122467Y-7779317D01*
X6122467Y-7779317D02*
X6246277Y-7779317D01*
X6360562Y-7645984D02*
X6379610Y-7645984D01*
X6379610Y-7645984D02*
X6398658Y-7655508D01*
X6398658Y-7655508D02*
X6408182Y-7665031D01*
X6408182Y-7665031D02*
X6417705Y-7684079D01*
X6417705Y-7684079D02*
X6427229Y-7722174D01*
X6427229Y-7722174D02*
X6427229Y-7769793D01*
X6427229Y-7769793D02*
X6417705Y-7807888D01*
X6417705Y-7807888D02*
X6408182Y-7826936D01*
X6408182Y-7826936D02*
X6398658Y-7836460D01*
X6398658Y-7836460D02*
X6379610Y-7845984D01*
X6379610Y-7845984D02*
X6360562Y-7845984D01*
X6360562Y-7845984D02*
X6341515Y-7836460D01*
X6341515Y-7836460D02*
X6331991Y-7826936D01*
X6331991Y-7826936D02*
X6322467Y-7807888D01*
X6322467Y-7807888D02*
X6312943Y-7769793D01*
X6312943Y-7769793D02*
X6312943Y-7722174D01*
X6312943Y-7722174D02*
X6322467Y-7684079D01*
X6322467Y-7684079D02*
X6331991Y-7665031D01*
X6331991Y-7665031D02*
X6341515Y-7655508D01*
X6341515Y-7655508D02*
X6360562Y-7645984D01*
X6551039Y-7645984D02*
X6570086Y-7645984D01*
X6570086Y-7645984D02*
X6589134Y-7655508D01*
X6589134Y-7655508D02*
X6598658Y-7665031D01*
X6598658Y-7665031D02*
X6608182Y-7684079D01*
X6608182Y-7684079D02*
X6617705Y-7722174D01*
X6617705Y-7722174D02*
X6617705Y-7769793D01*
X6617705Y-7769793D02*
X6608182Y-7807888D01*
X6608182Y-7807888D02*
X6598658Y-7826936D01*
X6598658Y-7826936D02*
X6589134Y-7836460D01*
X6589134Y-7836460D02*
X6570086Y-7845984D01*
X6570086Y-7845984D02*
X6551039Y-7845984D01*
X6551039Y-7845984D02*
X6531991Y-7836460D01*
X6531991Y-7836460D02*
X6522467Y-7826936D01*
X6522467Y-7826936D02*
X6512943Y-7807888D01*
X6512943Y-7807888D02*
X6503420Y-7769793D01*
X6503420Y-7769793D02*
X6503420Y-7722174D01*
X6503420Y-7722174D02*
X6512943Y-7684079D01*
X6512943Y-7684079D02*
X6522467Y-7665031D01*
X6522467Y-7665031D02*
X6531991Y-7655508D01*
X6531991Y-7655508D02*
X6551039Y-7645984D01*
X6703420Y-7845984D02*
X6703420Y-7712650D01*
X6703420Y-7731698D02*
X6712943Y-7722174D01*
X6712943Y-7722174D02*
X6731991Y-7712650D01*
X6731991Y-7712650D02*
X6760563Y-7712650D01*
X6760563Y-7712650D02*
X6779610Y-7722174D01*
X6779610Y-7722174D02*
X6789134Y-7741222D01*
X6789134Y-7741222D02*
X6789134Y-7845984D01*
X6789134Y-7741222D02*
X6798658Y-7722174D01*
X6798658Y-7722174D02*
X6817705Y-7712650D01*
X6817705Y-7712650D02*
X6846277Y-7712650D01*
X6846277Y-7712650D02*
X6865324Y-7722174D01*
X6865324Y-7722174D02*
X6874848Y-7741222D01*
X6874848Y-7741222D02*
X6874848Y-7845984D01*
X6970086Y-7845984D02*
X6970086Y-7712650D01*
X6970086Y-7731698D02*
X6979610Y-7722174D01*
X6979610Y-7722174D02*
X6998658Y-7712650D01*
X6998658Y-7712650D02*
X7027229Y-7712650D01*
X7027229Y-7712650D02*
X7046277Y-7722174D01*
X7046277Y-7722174D02*
X7055801Y-7741222D01*
X7055801Y-7741222D02*
X7055801Y-7845984D01*
X7055801Y-7741222D02*
X7065324Y-7722174D01*
X7065324Y-7722174D02*
X7084372Y-7712650D01*
X7084372Y-7712650D02*
X7112943Y-7712650D01*
X7112943Y-7712650D02*
X7131991Y-7722174D01*
X7131991Y-7722174D02*
X7141515Y-7741222D01*
X7141515Y-7741222D02*
X7141515Y-7845984D01*
X7531991Y-7636460D02*
X7360563Y-7893603D01*
X7789134Y-7645984D02*
X7808182Y-7645984D01*
X7808182Y-7645984D02*
X7827229Y-7655508D01*
X7827229Y-7655508D02*
X7836753Y-7665031D01*
X7836753Y-7665031D02*
X7846277Y-7684079D01*
X7846277Y-7684079D02*
X7855801Y-7722174D01*
X7855801Y-7722174D02*
X7855801Y-7769793D01*
X7855801Y-7769793D02*
X7846277Y-7807888D01*
X7846277Y-7807888D02*
X7836753Y-7826936D01*
X7836753Y-7826936D02*
X7827229Y-7836460D01*
X7827229Y-7836460D02*
X7808182Y-7845984D01*
X7808182Y-7845984D02*
X7789134Y-7845984D01*
X7789134Y-7845984D02*
X7770086Y-7836460D01*
X7770086Y-7836460D02*
X7760563Y-7826936D01*
X7760563Y-7826936D02*
X7751039Y-7807888D01*
X7751039Y-7807888D02*
X7741515Y-7769793D01*
X7741515Y-7769793D02*
X7741515Y-7722174D01*
X7741515Y-7722174D02*
X7751039Y-7684079D01*
X7751039Y-7684079D02*
X7760563Y-7665031D01*
X7760563Y-7665031D02*
X7770086Y-7655508D01*
X7770086Y-7655508D02*
X7789134Y-7645984D01*
X7941515Y-7826936D02*
X7951039Y-7836460D01*
X7951039Y-7836460D02*
X7941515Y-7845984D01*
X7941515Y-7845984D02*
X7931991Y-7836460D01*
X7931991Y-7836460D02*
X7941515Y-7826936D01*
X7941515Y-7826936D02*
X7941515Y-7845984D01*
X8074848Y-7645984D02*
X8093896Y-7645984D01*
X8093896Y-7645984D02*
X8112944Y-7655508D01*
X8112944Y-7655508D02*
X8122467Y-7665031D01*
X8122467Y-7665031D02*
X8131991Y-7684079D01*
X8131991Y-7684079D02*
X8141515Y-7722174D01*
X8141515Y-7722174D02*
X8141515Y-7769793D01*
X8141515Y-7769793D02*
X8131991Y-7807888D01*
X8131991Y-7807888D02*
X8122467Y-7826936D01*
X8122467Y-7826936D02*
X8112944Y-7836460D01*
X8112944Y-7836460D02*
X8093896Y-7845984D01*
X8093896Y-7845984D02*
X8074848Y-7845984D01*
X8074848Y-7845984D02*
X8055801Y-7836460D01*
X8055801Y-7836460D02*
X8046277Y-7826936D01*
X8046277Y-7826936D02*
X8036753Y-7807888D01*
X8036753Y-7807888D02*
X8027229Y-7769793D01*
X8027229Y-7769793D02*
X8027229Y-7722174D01*
X8027229Y-7722174D02*
X8036753Y-7684079D01*
X8036753Y-7684079D02*
X8046277Y-7665031D01*
X8046277Y-7665031D02*
X8055801Y-7655508D01*
X8055801Y-7655508D02*
X8074848Y-7645984D01*
X8331991Y-7845984D02*
X8217706Y-7845984D01*
X8274848Y-7845984D02*
X8274848Y-7645984D01*
X8274848Y-7645984D02*
X8255801Y-7674555D01*
X8255801Y-7674555D02*
X8236753Y-7693603D01*
X8236753Y-7693603D02*
X8217706Y-7703127D01*
X8512944Y-7645984D02*
X8417706Y-7645984D01*
X8417706Y-7645984D02*
X8408182Y-7741222D01*
X8408182Y-7741222D02*
X8417706Y-7731698D01*
X8417706Y-7731698D02*
X8436753Y-7722174D01*
X8436753Y-7722174D02*
X8484372Y-7722174D01*
X8484372Y-7722174D02*
X8503420Y-7731698D01*
X8503420Y-7731698D02*
X8512944Y-7741222D01*
X8512944Y-7741222D02*
X8522468Y-7760269D01*
X8522468Y-7760269D02*
X8522468Y-7807888D01*
X8522468Y-7807888D02*
X8512944Y-7826936D01*
X8512944Y-7826936D02*
X8503420Y-7836460D01*
X8503420Y-7836460D02*
X8484372Y-7845984D01*
X8484372Y-7845984D02*
X8436753Y-7845984D01*
X8436753Y-7845984D02*
X8417706Y-7836460D01*
X8417706Y-7836460D02*
X8408182Y-7826936D01*
X8589134Y-7645984D02*
X8722468Y-7645984D01*
X8722468Y-7645984D02*
X8636753Y-7845984D01*
X8789134Y-7645984D02*
X8789134Y-7684079D01*
X8865325Y-7645984D02*
X8865325Y-7684079D01*
X9160563Y-7922174D02*
X9151039Y-7912650D01*
X9151039Y-7912650D02*
X9131991Y-7884079D01*
X9131991Y-7884079D02*
X9122468Y-7865031D01*
X9122468Y-7865031D02*
X9112944Y-7836460D01*
X9112944Y-7836460D02*
X9103420Y-7788841D01*
X9103420Y-7788841D02*
X9103420Y-7750746D01*
X9103420Y-7750746D02*
X9112944Y-7703127D01*
X9112944Y-7703127D02*
X9122468Y-7674555D01*
X9122468Y-7674555D02*
X9131991Y-7655508D01*
X9131991Y-7655508D02*
X9151039Y-7626936D01*
X9151039Y-7626936D02*
X9160563Y-7617412D01*
X9246277Y-7845984D02*
X9284372Y-7845984D01*
X9284372Y-7845984D02*
X9303420Y-7836460D01*
X9303420Y-7836460D02*
X9312944Y-7826936D01*
X9312944Y-7826936D02*
X9331991Y-7798365D01*
X9331991Y-7798365D02*
X9341515Y-7760269D01*
X9341515Y-7760269D02*
X9341515Y-7684079D01*
X9341515Y-7684079D02*
X9331991Y-7665031D01*
X9331991Y-7665031D02*
X9322468Y-7655508D01*
X9322468Y-7655508D02*
X9303420Y-7645984D01*
X9303420Y-7645984D02*
X9265325Y-7645984D01*
X9265325Y-7645984D02*
X9246277Y-7655508D01*
X9246277Y-7655508D02*
X9236753Y-7665031D01*
X9236753Y-7665031D02*
X9227230Y-7684079D01*
X9227230Y-7684079D02*
X9227230Y-7731698D01*
X9227230Y-7731698D02*
X9236753Y-7750746D01*
X9236753Y-7750746D02*
X9246277Y-7760269D01*
X9246277Y-7760269D02*
X9265325Y-7769793D01*
X9265325Y-7769793D02*
X9303420Y-7769793D01*
X9303420Y-7769793D02*
X9322468Y-7760269D01*
X9322468Y-7760269D02*
X9331991Y-7750746D01*
X9331991Y-7750746D02*
X9341515Y-7731698D01*
X9408182Y-7645984D02*
X9531991Y-7645984D01*
X9531991Y-7645984D02*
X9465325Y-7722174D01*
X9465325Y-7722174D02*
X9493896Y-7722174D01*
X9493896Y-7722174D02*
X9512944Y-7731698D01*
X9512944Y-7731698D02*
X9522468Y-7741222D01*
X9522468Y-7741222D02*
X9531991Y-7760269D01*
X9531991Y-7760269D02*
X9531991Y-7807888D01*
X9531991Y-7807888D02*
X9522468Y-7826936D01*
X9522468Y-7826936D02*
X9512944Y-7836460D01*
X9512944Y-7836460D02*
X9493896Y-7845984D01*
X9493896Y-7845984D02*
X9436753Y-7845984D01*
X9436753Y-7845984D02*
X9417706Y-7836460D01*
X9417706Y-7836460D02*
X9408182Y-7826936D01*
X9770087Y-7845984D02*
X9770087Y-7645984D01*
X9855801Y-7845984D02*
X9855801Y-7741222D01*
X9855801Y-7741222D02*
X9846277Y-7722174D01*
X9846277Y-7722174D02*
X9827230Y-7712650D01*
X9827230Y-7712650D02*
X9798658Y-7712650D01*
X9798658Y-7712650D02*
X9779611Y-7722174D01*
X9779611Y-7722174D02*
X9770087Y-7731698D01*
X9979611Y-7845984D02*
X9960563Y-7836460D01*
X9960563Y-7836460D02*
X9951039Y-7826936D01*
X9951039Y-7826936D02*
X9941515Y-7807888D01*
X9941515Y-7807888D02*
X9941515Y-7750746D01*
X9941515Y-7750746D02*
X9951039Y-7731698D01*
X9951039Y-7731698D02*
X9960563Y-7722174D01*
X9960563Y-7722174D02*
X9979611Y-7712650D01*
X9979611Y-7712650D02*
X10008182Y-7712650D01*
X10008182Y-7712650D02*
X10027230Y-7722174D01*
X10027230Y-7722174D02*
X10036753Y-7731698D01*
X10036753Y-7731698D02*
X10046277Y-7750746D01*
X10046277Y-7750746D02*
X10046277Y-7807888D01*
X10046277Y-7807888D02*
X10036753Y-7826936D01*
X10036753Y-7826936D02*
X10027230Y-7836460D01*
X10027230Y-7836460D02*
X10008182Y-7845984D01*
X10008182Y-7845984D02*
X9979611Y-7845984D01*
X10160563Y-7845984D02*
X10141515Y-7836460D01*
X10141515Y-7836460D02*
X10131992Y-7817412D01*
X10131992Y-7817412D02*
X10131992Y-7645984D01*
X10312944Y-7836460D02*
X10293896Y-7845984D01*
X10293896Y-7845984D02*
X10255801Y-7845984D01*
X10255801Y-7845984D02*
X10236753Y-7836460D01*
X10236753Y-7836460D02*
X10227230Y-7817412D01*
X10227230Y-7817412D02*
X10227230Y-7741222D01*
X10227230Y-7741222D02*
X10236753Y-7722174D01*
X10236753Y-7722174D02*
X10255801Y-7712650D01*
X10255801Y-7712650D02*
X10293896Y-7712650D01*
X10293896Y-7712650D02*
X10312944Y-7722174D01*
X10312944Y-7722174D02*
X10322468Y-7741222D01*
X10322468Y-7741222D02*
X10322468Y-7760269D01*
X10322468Y-7760269D02*
X10227230Y-7779317D01*
X10398658Y-7836460D02*
X10417706Y-7845984D01*
X10417706Y-7845984D02*
X10455801Y-7845984D01*
X10455801Y-7845984D02*
X10474849Y-7836460D01*
X10474849Y-7836460D02*
X10484373Y-7817412D01*
X10484373Y-7817412D02*
X10484373Y-7807888D01*
X10484373Y-7807888D02*
X10474849Y-7788841D01*
X10474849Y-7788841D02*
X10455801Y-7779317D01*
X10455801Y-7779317D02*
X10427230Y-7779317D01*
X10427230Y-7779317D02*
X10408182Y-7769793D01*
X10408182Y-7769793D02*
X10398658Y-7750746D01*
X10398658Y-7750746D02*
X10398658Y-7741222D01*
X10398658Y-7741222D02*
X10408182Y-7722174D01*
X10408182Y-7722174D02*
X10427230Y-7712650D01*
X10427230Y-7712650D02*
X10455801Y-7712650D01*
X10455801Y-7712650D02*
X10474849Y-7722174D01*
X10551039Y-7922174D02*
X10560563Y-7912650D01*
X10560563Y-7912650D02*
X10579611Y-7884079D01*
X10579611Y-7884079D02*
X10589134Y-7865031D01*
X10589134Y-7865031D02*
X10598658Y-7836460D01*
X10598658Y-7836460D02*
X10608182Y-7788841D01*
X10608182Y-7788841D02*
X10608182Y-7750746D01*
X10608182Y-7750746D02*
X10598658Y-7703127D01*
X10598658Y-7703127D02*
X10589134Y-7674555D01*
X10589134Y-7674555D02*
X10579611Y-7655508D01*
X10579611Y-7655508D02*
X10560563Y-7626936D01*
X10560563Y-7626936D02*
X10551039Y-7617412D01*
D12*
X5585500Y-8018500D02*
G75*
G02*
X5535500Y-8018500I-25000J0D01*
G01*
X5535500Y-8018500D02*
G75*
G02*
X5585500Y-8018500I25000J0D01*
G01*
D11*
X5884372Y-7909984D02*
X5903420Y-7909984D01*
X5903420Y-7909984D02*
X5922467Y-7919508D01*
X5922467Y-7919508D02*
X5931991Y-7929031D01*
X5931991Y-7929031D02*
X5941515Y-7948079D01*
X5941515Y-7948079D02*
X5951039Y-7986174D01*
X5951039Y-7986174D02*
X5951039Y-8033793D01*
X5951039Y-8033793D02*
X5941515Y-8071888D01*
X5941515Y-8071888D02*
X5931991Y-8090936D01*
X5931991Y-8090936D02*
X5922467Y-8100460D01*
X5922467Y-8100460D02*
X5903420Y-8109984D01*
X5903420Y-8109984D02*
X5884372Y-8109984D01*
X5884372Y-8109984D02*
X5865324Y-8100460D01*
X5865324Y-8100460D02*
X5855801Y-8090936D01*
X5855801Y-8090936D02*
X5846277Y-8071888D01*
X5846277Y-8071888D02*
X5836753Y-8033793D01*
X5836753Y-8033793D02*
X5836753Y-7986174D01*
X5836753Y-7986174D02*
X5846277Y-7948079D01*
X5846277Y-7948079D02*
X5855801Y-7929031D01*
X5855801Y-7929031D02*
X5865324Y-7919508D01*
X5865324Y-7919508D02*
X5884372Y-7909984D01*
X6036753Y-8090936D02*
X6046277Y-8100460D01*
X6046277Y-8100460D02*
X6036753Y-8109984D01*
X6036753Y-8109984D02*
X6027229Y-8100460D01*
X6027229Y-8100460D02*
X6036753Y-8090936D01*
X6036753Y-8090936D02*
X6036753Y-8109984D01*
X6227229Y-7909984D02*
X6131991Y-7909984D01*
X6131991Y-7909984D02*
X6122467Y-8005222D01*
X6122467Y-8005222D02*
X6131991Y-7995698D01*
X6131991Y-7995698D02*
X6151039Y-7986174D01*
X6151039Y-7986174D02*
X6198658Y-7986174D01*
X6198658Y-7986174D02*
X6217705Y-7995698D01*
X6217705Y-7995698D02*
X6227229Y-8005222D01*
X6227229Y-8005222D02*
X6236753Y-8024269D01*
X6236753Y-8024269D02*
X6236753Y-8071888D01*
X6236753Y-8071888D02*
X6227229Y-8090936D01*
X6227229Y-8090936D02*
X6217705Y-8100460D01*
X6217705Y-8100460D02*
X6198658Y-8109984D01*
X6198658Y-8109984D02*
X6151039Y-8109984D01*
X6151039Y-8109984D02*
X6131991Y-8100460D01*
X6131991Y-8100460D02*
X6122467Y-8090936D01*
X6360562Y-7909984D02*
X6379610Y-7909984D01*
X6379610Y-7909984D02*
X6398658Y-7919508D01*
X6398658Y-7919508D02*
X6408182Y-7929031D01*
X6408182Y-7929031D02*
X6417705Y-7948079D01*
X6417705Y-7948079D02*
X6427229Y-7986174D01*
X6427229Y-7986174D02*
X6427229Y-8033793D01*
X6427229Y-8033793D02*
X6417705Y-8071888D01*
X6417705Y-8071888D02*
X6408182Y-8090936D01*
X6408182Y-8090936D02*
X6398658Y-8100460D01*
X6398658Y-8100460D02*
X6379610Y-8109984D01*
X6379610Y-8109984D02*
X6360562Y-8109984D01*
X6360562Y-8109984D02*
X6341515Y-8100460D01*
X6341515Y-8100460D02*
X6331991Y-8090936D01*
X6331991Y-8090936D02*
X6322467Y-8071888D01*
X6322467Y-8071888D02*
X6312943Y-8033793D01*
X6312943Y-8033793D02*
X6312943Y-7986174D01*
X6312943Y-7986174D02*
X6322467Y-7948079D01*
X6322467Y-7948079D02*
X6331991Y-7929031D01*
X6331991Y-7929031D02*
X6341515Y-7919508D01*
X6341515Y-7919508D02*
X6360562Y-7909984D01*
X6551039Y-7909984D02*
X6570086Y-7909984D01*
X6570086Y-7909984D02*
X6589134Y-7919508D01*
X6589134Y-7919508D02*
X6598658Y-7929031D01*
X6598658Y-7929031D02*
X6608182Y-7948079D01*
X6608182Y-7948079D02*
X6617705Y-7986174D01*
X6617705Y-7986174D02*
X6617705Y-8033793D01*
X6617705Y-8033793D02*
X6608182Y-8071888D01*
X6608182Y-8071888D02*
X6598658Y-8090936D01*
X6598658Y-8090936D02*
X6589134Y-8100460D01*
X6589134Y-8100460D02*
X6570086Y-8109984D01*
X6570086Y-8109984D02*
X6551039Y-8109984D01*
X6551039Y-8109984D02*
X6531991Y-8100460D01*
X6531991Y-8100460D02*
X6522467Y-8090936D01*
X6522467Y-8090936D02*
X6512943Y-8071888D01*
X6512943Y-8071888D02*
X6503420Y-8033793D01*
X6503420Y-8033793D02*
X6503420Y-7986174D01*
X6503420Y-7986174D02*
X6512943Y-7948079D01*
X6512943Y-7948079D02*
X6522467Y-7929031D01*
X6522467Y-7929031D02*
X6531991Y-7919508D01*
X6531991Y-7919508D02*
X6551039Y-7909984D01*
X6703420Y-8109984D02*
X6703420Y-7976650D01*
X6703420Y-7995698D02*
X6712943Y-7986174D01*
X6712943Y-7986174D02*
X6731991Y-7976650D01*
X6731991Y-7976650D02*
X6760563Y-7976650D01*
X6760563Y-7976650D02*
X6779610Y-7986174D01*
X6779610Y-7986174D02*
X6789134Y-8005222D01*
X6789134Y-8005222D02*
X6789134Y-8109984D01*
X6789134Y-8005222D02*
X6798658Y-7986174D01*
X6798658Y-7986174D02*
X6817705Y-7976650D01*
X6817705Y-7976650D02*
X6846277Y-7976650D01*
X6846277Y-7976650D02*
X6865324Y-7986174D01*
X6865324Y-7986174D02*
X6874848Y-8005222D01*
X6874848Y-8005222D02*
X6874848Y-8109984D01*
X6970086Y-8109984D02*
X6970086Y-7976650D01*
X6970086Y-7995698D02*
X6979610Y-7986174D01*
X6979610Y-7986174D02*
X6998658Y-7976650D01*
X6998658Y-7976650D02*
X7027229Y-7976650D01*
X7027229Y-7976650D02*
X7046277Y-7986174D01*
X7046277Y-7986174D02*
X7055801Y-8005222D01*
X7055801Y-8005222D02*
X7055801Y-8109984D01*
X7055801Y-8005222D02*
X7065324Y-7986174D01*
X7065324Y-7986174D02*
X7084372Y-7976650D01*
X7084372Y-7976650D02*
X7112943Y-7976650D01*
X7112943Y-7976650D02*
X7131991Y-7986174D01*
X7131991Y-7986174D02*
X7141515Y-8005222D01*
X7141515Y-8005222D02*
X7141515Y-8109984D01*
X7531991Y-7900460D02*
X7360563Y-8157603D01*
X7789134Y-7909984D02*
X7808182Y-7909984D01*
X7808182Y-7909984D02*
X7827229Y-7919508D01*
X7827229Y-7919508D02*
X7836753Y-7929031D01*
X7836753Y-7929031D02*
X7846277Y-7948079D01*
X7846277Y-7948079D02*
X7855801Y-7986174D01*
X7855801Y-7986174D02*
X7855801Y-8033793D01*
X7855801Y-8033793D02*
X7846277Y-8071888D01*
X7846277Y-8071888D02*
X7836753Y-8090936D01*
X7836753Y-8090936D02*
X7827229Y-8100460D01*
X7827229Y-8100460D02*
X7808182Y-8109984D01*
X7808182Y-8109984D02*
X7789134Y-8109984D01*
X7789134Y-8109984D02*
X7770086Y-8100460D01*
X7770086Y-8100460D02*
X7760563Y-8090936D01*
X7760563Y-8090936D02*
X7751039Y-8071888D01*
X7751039Y-8071888D02*
X7741515Y-8033793D01*
X7741515Y-8033793D02*
X7741515Y-7986174D01*
X7741515Y-7986174D02*
X7751039Y-7948079D01*
X7751039Y-7948079D02*
X7760563Y-7929031D01*
X7760563Y-7929031D02*
X7770086Y-7919508D01*
X7770086Y-7919508D02*
X7789134Y-7909984D01*
X7941515Y-8090936D02*
X7951039Y-8100460D01*
X7951039Y-8100460D02*
X7941515Y-8109984D01*
X7941515Y-8109984D02*
X7931991Y-8100460D01*
X7931991Y-8100460D02*
X7941515Y-8090936D01*
X7941515Y-8090936D02*
X7941515Y-8109984D01*
X8074848Y-7909984D02*
X8093896Y-7909984D01*
X8093896Y-7909984D02*
X8112944Y-7919508D01*
X8112944Y-7919508D02*
X8122467Y-7929031D01*
X8122467Y-7929031D02*
X8131991Y-7948079D01*
X8131991Y-7948079D02*
X8141515Y-7986174D01*
X8141515Y-7986174D02*
X8141515Y-8033793D01*
X8141515Y-8033793D02*
X8131991Y-8071888D01*
X8131991Y-8071888D02*
X8122467Y-8090936D01*
X8122467Y-8090936D02*
X8112944Y-8100460D01*
X8112944Y-8100460D02*
X8093896Y-8109984D01*
X8093896Y-8109984D02*
X8074848Y-8109984D01*
X8074848Y-8109984D02*
X8055801Y-8100460D01*
X8055801Y-8100460D02*
X8046277Y-8090936D01*
X8046277Y-8090936D02*
X8036753Y-8071888D01*
X8036753Y-8071888D02*
X8027229Y-8033793D01*
X8027229Y-8033793D02*
X8027229Y-7986174D01*
X8027229Y-7986174D02*
X8036753Y-7948079D01*
X8036753Y-7948079D02*
X8046277Y-7929031D01*
X8046277Y-7929031D02*
X8055801Y-7919508D01*
X8055801Y-7919508D02*
X8074848Y-7909984D01*
X8331991Y-8109984D02*
X8217706Y-8109984D01*
X8274848Y-8109984D02*
X8274848Y-7909984D01*
X8274848Y-7909984D02*
X8255801Y-7938555D01*
X8255801Y-7938555D02*
X8236753Y-7957603D01*
X8236753Y-7957603D02*
X8217706Y-7967127D01*
X8427229Y-8109984D02*
X8465325Y-8109984D01*
X8465325Y-8109984D02*
X8484372Y-8100460D01*
X8484372Y-8100460D02*
X8493896Y-8090936D01*
X8493896Y-8090936D02*
X8512944Y-8062365D01*
X8512944Y-8062365D02*
X8522468Y-8024269D01*
X8522468Y-8024269D02*
X8522468Y-7948079D01*
X8522468Y-7948079D02*
X8512944Y-7929031D01*
X8512944Y-7929031D02*
X8503420Y-7919508D01*
X8503420Y-7919508D02*
X8484372Y-7909984D01*
X8484372Y-7909984D02*
X8446277Y-7909984D01*
X8446277Y-7909984D02*
X8427229Y-7919508D01*
X8427229Y-7919508D02*
X8417706Y-7929031D01*
X8417706Y-7929031D02*
X8408182Y-7948079D01*
X8408182Y-7948079D02*
X8408182Y-7995698D01*
X8408182Y-7995698D02*
X8417706Y-8014746D01*
X8417706Y-8014746D02*
X8427229Y-8024269D01*
X8427229Y-8024269D02*
X8446277Y-8033793D01*
X8446277Y-8033793D02*
X8484372Y-8033793D01*
X8484372Y-8033793D02*
X8503420Y-8024269D01*
X8503420Y-8024269D02*
X8512944Y-8014746D01*
X8512944Y-8014746D02*
X8522468Y-7995698D01*
X8589134Y-7909984D02*
X8722468Y-7909984D01*
X8722468Y-7909984D02*
X8636753Y-8109984D01*
X8789134Y-7909984D02*
X8789134Y-7948079D01*
X8865325Y-7909984D02*
X8865325Y-7948079D01*
X9160563Y-8186174D02*
X9151039Y-8176650D01*
X9151039Y-8176650D02*
X9131991Y-8148079D01*
X9131991Y-8148079D02*
X9122468Y-8129031D01*
X9122468Y-8129031D02*
X9112944Y-8100460D01*
X9112944Y-8100460D02*
X9103420Y-8052841D01*
X9103420Y-8052841D02*
X9103420Y-8014746D01*
X9103420Y-8014746D02*
X9112944Y-7967127D01*
X9112944Y-7967127D02*
X9122468Y-7938555D01*
X9122468Y-7938555D02*
X9131991Y-7919508D01*
X9131991Y-7919508D02*
X9151039Y-7890936D01*
X9151039Y-7890936D02*
X9160563Y-7881412D01*
X9217706Y-7909984D02*
X9341515Y-7909984D01*
X9341515Y-7909984D02*
X9274849Y-7986174D01*
X9274849Y-7986174D02*
X9303420Y-7986174D01*
X9303420Y-7986174D02*
X9322468Y-7995698D01*
X9322468Y-7995698D02*
X9331991Y-8005222D01*
X9331991Y-8005222D02*
X9341515Y-8024269D01*
X9341515Y-8024269D02*
X9341515Y-8071888D01*
X9341515Y-8071888D02*
X9331991Y-8090936D01*
X9331991Y-8090936D02*
X9322468Y-8100460D01*
X9322468Y-8100460D02*
X9303420Y-8109984D01*
X9303420Y-8109984D02*
X9246277Y-8109984D01*
X9246277Y-8109984D02*
X9227230Y-8100460D01*
X9227230Y-8100460D02*
X9217706Y-8090936D01*
X9417706Y-7929031D02*
X9427230Y-7919508D01*
X9427230Y-7919508D02*
X9446277Y-7909984D01*
X9446277Y-7909984D02*
X9493896Y-7909984D01*
X9493896Y-7909984D02*
X9512944Y-7919508D01*
X9512944Y-7919508D02*
X9522468Y-7929031D01*
X9522468Y-7929031D02*
X9531991Y-7948079D01*
X9531991Y-7948079D02*
X9531991Y-7967127D01*
X9531991Y-7967127D02*
X9522468Y-7995698D01*
X9522468Y-7995698D02*
X9408182Y-8109984D01*
X9408182Y-8109984D02*
X9531991Y-8109984D01*
X9770087Y-8109984D02*
X9770087Y-7909984D01*
X9855801Y-8109984D02*
X9855801Y-8005222D01*
X9855801Y-8005222D02*
X9846277Y-7986174D01*
X9846277Y-7986174D02*
X9827230Y-7976650D01*
X9827230Y-7976650D02*
X9798658Y-7976650D01*
X9798658Y-7976650D02*
X9779611Y-7986174D01*
X9779611Y-7986174D02*
X9770087Y-7995698D01*
X9979611Y-8109984D02*
X9960563Y-8100460D01*
X9960563Y-8100460D02*
X9951039Y-8090936D01*
X9951039Y-8090936D02*
X9941515Y-8071888D01*
X9941515Y-8071888D02*
X9941515Y-8014746D01*
X9941515Y-8014746D02*
X9951039Y-7995698D01*
X9951039Y-7995698D02*
X9960563Y-7986174D01*
X9960563Y-7986174D02*
X9979611Y-7976650D01*
X9979611Y-7976650D02*
X10008182Y-7976650D01*
X10008182Y-7976650D02*
X10027230Y-7986174D01*
X10027230Y-7986174D02*
X10036753Y-7995698D01*
X10036753Y-7995698D02*
X10046277Y-8014746D01*
X10046277Y-8014746D02*
X10046277Y-8071888D01*
X10046277Y-8071888D02*
X10036753Y-8090936D01*
X10036753Y-8090936D02*
X10027230Y-8100460D01*
X10027230Y-8100460D02*
X10008182Y-8109984D01*
X10008182Y-8109984D02*
X9979611Y-8109984D01*
X10160563Y-8109984D02*
X10141515Y-8100460D01*
X10141515Y-8100460D02*
X10131992Y-8081412D01*
X10131992Y-8081412D02*
X10131992Y-7909984D01*
X10312944Y-8100460D02*
X10293896Y-8109984D01*
X10293896Y-8109984D02*
X10255801Y-8109984D01*
X10255801Y-8109984D02*
X10236753Y-8100460D01*
X10236753Y-8100460D02*
X10227230Y-8081412D01*
X10227230Y-8081412D02*
X10227230Y-8005222D01*
X10227230Y-8005222D02*
X10236753Y-7986174D01*
X10236753Y-7986174D02*
X10255801Y-7976650D01*
X10255801Y-7976650D02*
X10293896Y-7976650D01*
X10293896Y-7976650D02*
X10312944Y-7986174D01*
X10312944Y-7986174D02*
X10322468Y-8005222D01*
X10322468Y-8005222D02*
X10322468Y-8024269D01*
X10322468Y-8024269D02*
X10227230Y-8043317D01*
X10398658Y-8100460D02*
X10417706Y-8109984D01*
X10417706Y-8109984D02*
X10455801Y-8109984D01*
X10455801Y-8109984D02*
X10474849Y-8100460D01*
X10474849Y-8100460D02*
X10484373Y-8081412D01*
X10484373Y-8081412D02*
X10484373Y-8071888D01*
X10484373Y-8071888D02*
X10474849Y-8052841D01*
X10474849Y-8052841D02*
X10455801Y-8043317D01*
X10455801Y-8043317D02*
X10427230Y-8043317D01*
X10427230Y-8043317D02*
X10408182Y-8033793D01*
X10408182Y-8033793D02*
X10398658Y-8014746D01*
X10398658Y-8014746D02*
X10398658Y-8005222D01*
X10398658Y-8005222D02*
X10408182Y-7986174D01*
X10408182Y-7986174D02*
X10427230Y-7976650D01*
X10427230Y-7976650D02*
X10455801Y-7976650D01*
X10455801Y-7976650D02*
X10474849Y-7986174D01*
X10551039Y-8186174D02*
X10560563Y-8176650D01*
X10560563Y-8176650D02*
X10579611Y-8148079D01*
X10579611Y-8148079D02*
X10589134Y-8129031D01*
X10589134Y-8129031D02*
X10598658Y-8100460D01*
X10598658Y-8100460D02*
X10608182Y-8052841D01*
X10608182Y-8052841D02*
X10608182Y-8014746D01*
X10608182Y-8014746D02*
X10598658Y-7967127D01*
X10598658Y-7967127D02*
X10589134Y-7938555D01*
X10589134Y-7938555D02*
X10579611Y-7919508D01*
X10579611Y-7919508D02*
X10560563Y-7890936D01*
X10560563Y-7890936D02*
X10551039Y-7881412D01*
D12*
X5545500Y-8242500D02*
X5545500Y-8322500D01*
X5505500Y-8282500D02*
X5585500Y-8282500D01*
D11*
X5884372Y-8173984D02*
X5903420Y-8173984D01*
X5903420Y-8173984D02*
X5922467Y-8183508D01*
X5922467Y-8183508D02*
X5931991Y-8193031D01*
X5931991Y-8193031D02*
X5941515Y-8212079D01*
X5941515Y-8212079D02*
X5951039Y-8250174D01*
X5951039Y-8250174D02*
X5951039Y-8297793D01*
X5951039Y-8297793D02*
X5941515Y-8335888D01*
X5941515Y-8335888D02*
X5931991Y-8354936D01*
X5931991Y-8354936D02*
X5922467Y-8364460D01*
X5922467Y-8364460D02*
X5903420Y-8373984D01*
X5903420Y-8373984D02*
X5884372Y-8373984D01*
X5884372Y-8373984D02*
X5865324Y-8364460D01*
X5865324Y-8364460D02*
X5855801Y-8354936D01*
X5855801Y-8354936D02*
X5846277Y-8335888D01*
X5846277Y-8335888D02*
X5836753Y-8297793D01*
X5836753Y-8297793D02*
X5836753Y-8250174D01*
X5836753Y-8250174D02*
X5846277Y-8212079D01*
X5846277Y-8212079D02*
X5855801Y-8193031D01*
X5855801Y-8193031D02*
X5865324Y-8183508D01*
X5865324Y-8183508D02*
X5884372Y-8173984D01*
X6036753Y-8354936D02*
X6046277Y-8364460D01*
X6046277Y-8364460D02*
X6036753Y-8373984D01*
X6036753Y-8373984D02*
X6027229Y-8364460D01*
X6027229Y-8364460D02*
X6036753Y-8354936D01*
X6036753Y-8354936D02*
X6036753Y-8373984D01*
X6160562Y-8259698D02*
X6141515Y-8250174D01*
X6141515Y-8250174D02*
X6131991Y-8240650D01*
X6131991Y-8240650D02*
X6122467Y-8221603D01*
X6122467Y-8221603D02*
X6122467Y-8212079D01*
X6122467Y-8212079D02*
X6131991Y-8193031D01*
X6131991Y-8193031D02*
X6141515Y-8183508D01*
X6141515Y-8183508D02*
X6160562Y-8173984D01*
X6160562Y-8173984D02*
X6198658Y-8173984D01*
X6198658Y-8173984D02*
X6217705Y-8183508D01*
X6217705Y-8183508D02*
X6227229Y-8193031D01*
X6227229Y-8193031D02*
X6236753Y-8212079D01*
X6236753Y-8212079D02*
X6236753Y-8221603D01*
X6236753Y-8221603D02*
X6227229Y-8240650D01*
X6227229Y-8240650D02*
X6217705Y-8250174D01*
X6217705Y-8250174D02*
X6198658Y-8259698D01*
X6198658Y-8259698D02*
X6160562Y-8259698D01*
X6160562Y-8259698D02*
X6141515Y-8269222D01*
X6141515Y-8269222D02*
X6131991Y-8278746D01*
X6131991Y-8278746D02*
X6122467Y-8297793D01*
X6122467Y-8297793D02*
X6122467Y-8335888D01*
X6122467Y-8335888D02*
X6131991Y-8354936D01*
X6131991Y-8354936D02*
X6141515Y-8364460D01*
X6141515Y-8364460D02*
X6160562Y-8373984D01*
X6160562Y-8373984D02*
X6198658Y-8373984D01*
X6198658Y-8373984D02*
X6217705Y-8364460D01*
X6217705Y-8364460D02*
X6227229Y-8354936D01*
X6227229Y-8354936D02*
X6236753Y-8335888D01*
X6236753Y-8335888D02*
X6236753Y-8297793D01*
X6236753Y-8297793D02*
X6227229Y-8278746D01*
X6227229Y-8278746D02*
X6217705Y-8269222D01*
X6217705Y-8269222D02*
X6198658Y-8259698D01*
X6360562Y-8173984D02*
X6379610Y-8173984D01*
X6379610Y-8173984D02*
X6398658Y-8183508D01*
X6398658Y-8183508D02*
X6408182Y-8193031D01*
X6408182Y-8193031D02*
X6417705Y-8212079D01*
X6417705Y-8212079D02*
X6427229Y-8250174D01*
X6427229Y-8250174D02*
X6427229Y-8297793D01*
X6427229Y-8297793D02*
X6417705Y-8335888D01*
X6417705Y-8335888D02*
X6408182Y-8354936D01*
X6408182Y-8354936D02*
X6398658Y-8364460D01*
X6398658Y-8364460D02*
X6379610Y-8373984D01*
X6379610Y-8373984D02*
X6360562Y-8373984D01*
X6360562Y-8373984D02*
X6341515Y-8364460D01*
X6341515Y-8364460D02*
X6331991Y-8354936D01*
X6331991Y-8354936D02*
X6322467Y-8335888D01*
X6322467Y-8335888D02*
X6312943Y-8297793D01*
X6312943Y-8297793D02*
X6312943Y-8250174D01*
X6312943Y-8250174D02*
X6322467Y-8212079D01*
X6322467Y-8212079D02*
X6331991Y-8193031D01*
X6331991Y-8193031D02*
X6341515Y-8183508D01*
X6341515Y-8183508D02*
X6360562Y-8173984D01*
X6551039Y-8173984D02*
X6570086Y-8173984D01*
X6570086Y-8173984D02*
X6589134Y-8183508D01*
X6589134Y-8183508D02*
X6598658Y-8193031D01*
X6598658Y-8193031D02*
X6608182Y-8212079D01*
X6608182Y-8212079D02*
X6617705Y-8250174D01*
X6617705Y-8250174D02*
X6617705Y-8297793D01*
X6617705Y-8297793D02*
X6608182Y-8335888D01*
X6608182Y-8335888D02*
X6598658Y-8354936D01*
X6598658Y-8354936D02*
X6589134Y-8364460D01*
X6589134Y-8364460D02*
X6570086Y-8373984D01*
X6570086Y-8373984D02*
X6551039Y-8373984D01*
X6551039Y-8373984D02*
X6531991Y-8364460D01*
X6531991Y-8364460D02*
X6522467Y-8354936D01*
X6522467Y-8354936D02*
X6512943Y-8335888D01*
X6512943Y-8335888D02*
X6503420Y-8297793D01*
X6503420Y-8297793D02*
X6503420Y-8250174D01*
X6503420Y-8250174D02*
X6512943Y-8212079D01*
X6512943Y-8212079D02*
X6522467Y-8193031D01*
X6522467Y-8193031D02*
X6531991Y-8183508D01*
X6531991Y-8183508D02*
X6551039Y-8173984D01*
X6703420Y-8373984D02*
X6703420Y-8240650D01*
X6703420Y-8259698D02*
X6712943Y-8250174D01*
X6712943Y-8250174D02*
X6731991Y-8240650D01*
X6731991Y-8240650D02*
X6760563Y-8240650D01*
X6760563Y-8240650D02*
X6779610Y-8250174D01*
X6779610Y-8250174D02*
X6789134Y-8269222D01*
X6789134Y-8269222D02*
X6789134Y-8373984D01*
X6789134Y-8269222D02*
X6798658Y-8250174D01*
X6798658Y-8250174D02*
X6817705Y-8240650D01*
X6817705Y-8240650D02*
X6846277Y-8240650D01*
X6846277Y-8240650D02*
X6865324Y-8250174D01*
X6865324Y-8250174D02*
X6874848Y-8269222D01*
X6874848Y-8269222D02*
X6874848Y-8373984D01*
X6970086Y-8373984D02*
X6970086Y-8240650D01*
X6970086Y-8259698D02*
X6979610Y-8250174D01*
X6979610Y-8250174D02*
X6998658Y-8240650D01*
X6998658Y-8240650D02*
X7027229Y-8240650D01*
X7027229Y-8240650D02*
X7046277Y-8250174D01*
X7046277Y-8250174D02*
X7055801Y-8269222D01*
X7055801Y-8269222D02*
X7055801Y-8373984D01*
X7055801Y-8269222D02*
X7065324Y-8250174D01*
X7065324Y-8250174D02*
X7084372Y-8240650D01*
X7084372Y-8240650D02*
X7112943Y-8240650D01*
X7112943Y-8240650D02*
X7131991Y-8250174D01*
X7131991Y-8250174D02*
X7141515Y-8269222D01*
X7141515Y-8269222D02*
X7141515Y-8373984D01*
X7531991Y-8164460D02*
X7360563Y-8421603D01*
X7789134Y-8173984D02*
X7808182Y-8173984D01*
X7808182Y-8173984D02*
X7827229Y-8183508D01*
X7827229Y-8183508D02*
X7836753Y-8193031D01*
X7836753Y-8193031D02*
X7846277Y-8212079D01*
X7846277Y-8212079D02*
X7855801Y-8250174D01*
X7855801Y-8250174D02*
X7855801Y-8297793D01*
X7855801Y-8297793D02*
X7846277Y-8335888D01*
X7846277Y-8335888D02*
X7836753Y-8354936D01*
X7836753Y-8354936D02*
X7827229Y-8364460D01*
X7827229Y-8364460D02*
X7808182Y-8373984D01*
X7808182Y-8373984D02*
X7789134Y-8373984D01*
X7789134Y-8373984D02*
X7770086Y-8364460D01*
X7770086Y-8364460D02*
X7760563Y-8354936D01*
X7760563Y-8354936D02*
X7751039Y-8335888D01*
X7751039Y-8335888D02*
X7741515Y-8297793D01*
X7741515Y-8297793D02*
X7741515Y-8250174D01*
X7741515Y-8250174D02*
X7751039Y-8212079D01*
X7751039Y-8212079D02*
X7760563Y-8193031D01*
X7760563Y-8193031D02*
X7770086Y-8183508D01*
X7770086Y-8183508D02*
X7789134Y-8173984D01*
X7941515Y-8354936D02*
X7951039Y-8364460D01*
X7951039Y-8364460D02*
X7941515Y-8373984D01*
X7941515Y-8373984D02*
X7931991Y-8364460D01*
X7931991Y-8364460D02*
X7941515Y-8354936D01*
X7941515Y-8354936D02*
X7941515Y-8373984D01*
X8074848Y-8173984D02*
X8093896Y-8173984D01*
X8093896Y-8173984D02*
X8112944Y-8183508D01*
X8112944Y-8183508D02*
X8122467Y-8193031D01*
X8122467Y-8193031D02*
X8131991Y-8212079D01*
X8131991Y-8212079D02*
X8141515Y-8250174D01*
X8141515Y-8250174D02*
X8141515Y-8297793D01*
X8141515Y-8297793D02*
X8131991Y-8335888D01*
X8131991Y-8335888D02*
X8122467Y-8354936D01*
X8122467Y-8354936D02*
X8112944Y-8364460D01*
X8112944Y-8364460D02*
X8093896Y-8373984D01*
X8093896Y-8373984D02*
X8074848Y-8373984D01*
X8074848Y-8373984D02*
X8055801Y-8364460D01*
X8055801Y-8364460D02*
X8046277Y-8354936D01*
X8046277Y-8354936D02*
X8036753Y-8335888D01*
X8036753Y-8335888D02*
X8027229Y-8297793D01*
X8027229Y-8297793D02*
X8027229Y-8250174D01*
X8027229Y-8250174D02*
X8036753Y-8212079D01*
X8036753Y-8212079D02*
X8046277Y-8193031D01*
X8046277Y-8193031D02*
X8055801Y-8183508D01*
X8055801Y-8183508D02*
X8074848Y-8173984D01*
X8208182Y-8173984D02*
X8331991Y-8173984D01*
X8331991Y-8173984D02*
X8265325Y-8250174D01*
X8265325Y-8250174D02*
X8293896Y-8250174D01*
X8293896Y-8250174D02*
X8312944Y-8259698D01*
X8312944Y-8259698D02*
X8322467Y-8269222D01*
X8322467Y-8269222D02*
X8331991Y-8288269D01*
X8331991Y-8288269D02*
X8331991Y-8335888D01*
X8331991Y-8335888D02*
X8322467Y-8354936D01*
X8322467Y-8354936D02*
X8312944Y-8364460D01*
X8312944Y-8364460D02*
X8293896Y-8373984D01*
X8293896Y-8373984D02*
X8236753Y-8373984D01*
X8236753Y-8373984D02*
X8217706Y-8364460D01*
X8217706Y-8364460D02*
X8208182Y-8354936D01*
X8522468Y-8373984D02*
X8408182Y-8373984D01*
X8465325Y-8373984D02*
X8465325Y-8173984D01*
X8465325Y-8173984D02*
X8446277Y-8202555D01*
X8446277Y-8202555D02*
X8427229Y-8221603D01*
X8427229Y-8221603D02*
X8408182Y-8231127D01*
X8703420Y-8173984D02*
X8608182Y-8173984D01*
X8608182Y-8173984D02*
X8598658Y-8269222D01*
X8598658Y-8269222D02*
X8608182Y-8259698D01*
X8608182Y-8259698D02*
X8627229Y-8250174D01*
X8627229Y-8250174D02*
X8674849Y-8250174D01*
X8674849Y-8250174D02*
X8693896Y-8259698D01*
X8693896Y-8259698D02*
X8703420Y-8269222D01*
X8703420Y-8269222D02*
X8712944Y-8288269D01*
X8712944Y-8288269D02*
X8712944Y-8335888D01*
X8712944Y-8335888D02*
X8703420Y-8354936D01*
X8703420Y-8354936D02*
X8693896Y-8364460D01*
X8693896Y-8364460D02*
X8674849Y-8373984D01*
X8674849Y-8373984D02*
X8627229Y-8373984D01*
X8627229Y-8373984D02*
X8608182Y-8364460D01*
X8608182Y-8364460D02*
X8598658Y-8354936D01*
X8789134Y-8173984D02*
X8789134Y-8212079D01*
X8865325Y-8173984D02*
X8865325Y-8212079D01*
X9160563Y-8450174D02*
X9151039Y-8440650D01*
X9151039Y-8440650D02*
X9131991Y-8412079D01*
X9131991Y-8412079D02*
X9122468Y-8393031D01*
X9122468Y-8393031D02*
X9112944Y-8364460D01*
X9112944Y-8364460D02*
X9103420Y-8316841D01*
X9103420Y-8316841D02*
X9103420Y-8278746D01*
X9103420Y-8278746D02*
X9112944Y-8231127D01*
X9112944Y-8231127D02*
X9122468Y-8202555D01*
X9122468Y-8202555D02*
X9131991Y-8183508D01*
X9131991Y-8183508D02*
X9151039Y-8154936D01*
X9151039Y-8154936D02*
X9160563Y-8145412D01*
X9341515Y-8373984D02*
X9227230Y-8373984D01*
X9284372Y-8373984D02*
X9284372Y-8173984D01*
X9284372Y-8173984D02*
X9265325Y-8202555D01*
X9265325Y-8202555D02*
X9246277Y-8221603D01*
X9246277Y-8221603D02*
X9227230Y-8231127D01*
X9512944Y-8240650D02*
X9512944Y-8373984D01*
X9465325Y-8164460D02*
X9417706Y-8307317D01*
X9417706Y-8307317D02*
X9541515Y-8307317D01*
X9770087Y-8373984D02*
X9770087Y-8173984D01*
X9855801Y-8373984D02*
X9855801Y-8269222D01*
X9855801Y-8269222D02*
X9846277Y-8250174D01*
X9846277Y-8250174D02*
X9827230Y-8240650D01*
X9827230Y-8240650D02*
X9798658Y-8240650D01*
X9798658Y-8240650D02*
X9779611Y-8250174D01*
X9779611Y-8250174D02*
X9770087Y-8259698D01*
X9979611Y-8373984D02*
X9960563Y-8364460D01*
X9960563Y-8364460D02*
X9951039Y-8354936D01*
X9951039Y-8354936D02*
X9941515Y-8335888D01*
X9941515Y-8335888D02*
X9941515Y-8278746D01*
X9941515Y-8278746D02*
X9951039Y-8259698D01*
X9951039Y-8259698D02*
X9960563Y-8250174D01*
X9960563Y-8250174D02*
X9979611Y-8240650D01*
X9979611Y-8240650D02*
X10008182Y-8240650D01*
X10008182Y-8240650D02*
X10027230Y-8250174D01*
X10027230Y-8250174D02*
X10036753Y-8259698D01*
X10036753Y-8259698D02*
X10046277Y-8278746D01*
X10046277Y-8278746D02*
X10046277Y-8335888D01*
X10046277Y-8335888D02*
X10036753Y-8354936D01*
X10036753Y-8354936D02*
X10027230Y-8364460D01*
X10027230Y-8364460D02*
X10008182Y-8373984D01*
X10008182Y-8373984D02*
X9979611Y-8373984D01*
X10160563Y-8373984D02*
X10141515Y-8364460D01*
X10141515Y-8364460D02*
X10131992Y-8345412D01*
X10131992Y-8345412D02*
X10131992Y-8173984D01*
X10312944Y-8364460D02*
X10293896Y-8373984D01*
X10293896Y-8373984D02*
X10255801Y-8373984D01*
X10255801Y-8373984D02*
X10236753Y-8364460D01*
X10236753Y-8364460D02*
X10227230Y-8345412D01*
X10227230Y-8345412D02*
X10227230Y-8269222D01*
X10227230Y-8269222D02*
X10236753Y-8250174D01*
X10236753Y-8250174D02*
X10255801Y-8240650D01*
X10255801Y-8240650D02*
X10293896Y-8240650D01*
X10293896Y-8240650D02*
X10312944Y-8250174D01*
X10312944Y-8250174D02*
X10322468Y-8269222D01*
X10322468Y-8269222D02*
X10322468Y-8288269D01*
X10322468Y-8288269D02*
X10227230Y-8307317D01*
X10398658Y-8364460D02*
X10417706Y-8373984D01*
X10417706Y-8373984D02*
X10455801Y-8373984D01*
X10455801Y-8373984D02*
X10474849Y-8364460D01*
X10474849Y-8364460D02*
X10484373Y-8345412D01*
X10484373Y-8345412D02*
X10484373Y-8335888D01*
X10484373Y-8335888D02*
X10474849Y-8316841D01*
X10474849Y-8316841D02*
X10455801Y-8307317D01*
X10455801Y-8307317D02*
X10427230Y-8307317D01*
X10427230Y-8307317D02*
X10408182Y-8297793D01*
X10408182Y-8297793D02*
X10398658Y-8278746D01*
X10398658Y-8278746D02*
X10398658Y-8269222D01*
X10398658Y-8269222D02*
X10408182Y-8250174D01*
X10408182Y-8250174D02*
X10427230Y-8240650D01*
X10427230Y-8240650D02*
X10455801Y-8240650D01*
X10455801Y-8240650D02*
X10474849Y-8250174D01*
X10551039Y-8450174D02*
X10560563Y-8440650D01*
X10560563Y-8440650D02*
X10579611Y-8412079D01*
X10579611Y-8412079D02*
X10589134Y-8393031D01*
X10589134Y-8393031D02*
X10598658Y-8364460D01*
X10598658Y-8364460D02*
X10608182Y-8316841D01*
X10608182Y-8316841D02*
X10608182Y-8278746D01*
X10608182Y-8278746D02*
X10598658Y-8231127D01*
X10598658Y-8231127D02*
X10589134Y-8202555D01*
X10589134Y-8202555D02*
X10579611Y-8183508D01*
X10579611Y-8183508D02*
X10560563Y-8154936D01*
X10560563Y-8154936D02*
X10551039Y-8145412D01*
D12*
X5572320Y-8578320D02*
X5572320Y-8514680D01*
X5508680Y-8514680D01*
X5508680Y-8578320D01*
X5572320Y-8578320D01*
D11*
X5884372Y-8437984D02*
X5903420Y-8437984D01*
X5903420Y-8437984D02*
X5922467Y-8447508D01*
X5922467Y-8447508D02*
X5931991Y-8457031D01*
X5931991Y-8457031D02*
X5941515Y-8476079D01*
X5941515Y-8476079D02*
X5951039Y-8514174D01*
X5951039Y-8514174D02*
X5951039Y-8561793D01*
X5951039Y-8561793D02*
X5941515Y-8599889D01*
X5941515Y-8599889D02*
X5931991Y-8618936D01*
X5931991Y-8618936D02*
X5922467Y-8628460D01*
X5922467Y-8628460D02*
X5903420Y-8637984D01*
X5903420Y-8637984D02*
X5884372Y-8637984D01*
X5884372Y-8637984D02*
X5865324Y-8628460D01*
X5865324Y-8628460D02*
X5855801Y-8618936D01*
X5855801Y-8618936D02*
X5846277Y-8599889D01*
X5846277Y-8599889D02*
X5836753Y-8561793D01*
X5836753Y-8561793D02*
X5836753Y-8514174D01*
X5836753Y-8514174D02*
X5846277Y-8476079D01*
X5846277Y-8476079D02*
X5855801Y-8457031D01*
X5855801Y-8457031D02*
X5865324Y-8447508D01*
X5865324Y-8447508D02*
X5884372Y-8437984D01*
X6036753Y-8618936D02*
X6046277Y-8628460D01*
X6046277Y-8628460D02*
X6036753Y-8637984D01*
X6036753Y-8637984D02*
X6027229Y-8628460D01*
X6027229Y-8628460D02*
X6036753Y-8618936D01*
X6036753Y-8618936D02*
X6036753Y-8637984D01*
X6141515Y-8637984D02*
X6179610Y-8637984D01*
X6179610Y-8637984D02*
X6198658Y-8628460D01*
X6198658Y-8628460D02*
X6208182Y-8618936D01*
X6208182Y-8618936D02*
X6227229Y-8590365D01*
X6227229Y-8590365D02*
X6236753Y-8552270D01*
X6236753Y-8552270D02*
X6236753Y-8476079D01*
X6236753Y-8476079D02*
X6227229Y-8457031D01*
X6227229Y-8457031D02*
X6217705Y-8447508D01*
X6217705Y-8447508D02*
X6198658Y-8437984D01*
X6198658Y-8437984D02*
X6160562Y-8437984D01*
X6160562Y-8437984D02*
X6141515Y-8447508D01*
X6141515Y-8447508D02*
X6131991Y-8457031D01*
X6131991Y-8457031D02*
X6122467Y-8476079D01*
X6122467Y-8476079D02*
X6122467Y-8523698D01*
X6122467Y-8523698D02*
X6131991Y-8542746D01*
X6131991Y-8542746D02*
X6141515Y-8552270D01*
X6141515Y-8552270D02*
X6160562Y-8561793D01*
X6160562Y-8561793D02*
X6198658Y-8561793D01*
X6198658Y-8561793D02*
X6217705Y-8552270D01*
X6217705Y-8552270D02*
X6227229Y-8542746D01*
X6227229Y-8542746D02*
X6236753Y-8523698D01*
X6360562Y-8437984D02*
X6379610Y-8437984D01*
X6379610Y-8437984D02*
X6398658Y-8447508D01*
X6398658Y-8447508D02*
X6408182Y-8457031D01*
X6408182Y-8457031D02*
X6417705Y-8476079D01*
X6417705Y-8476079D02*
X6427229Y-8514174D01*
X6427229Y-8514174D02*
X6427229Y-8561793D01*
X6427229Y-8561793D02*
X6417705Y-8599889D01*
X6417705Y-8599889D02*
X6408182Y-8618936D01*
X6408182Y-8618936D02*
X6398658Y-8628460D01*
X6398658Y-8628460D02*
X6379610Y-8637984D01*
X6379610Y-8637984D02*
X6360562Y-8637984D01*
X6360562Y-8637984D02*
X6341515Y-8628460D01*
X6341515Y-8628460D02*
X6331991Y-8618936D01*
X6331991Y-8618936D02*
X6322467Y-8599889D01*
X6322467Y-8599889D02*
X6312943Y-8561793D01*
X6312943Y-8561793D02*
X6312943Y-8514174D01*
X6312943Y-8514174D02*
X6322467Y-8476079D01*
X6322467Y-8476079D02*
X6331991Y-8457031D01*
X6331991Y-8457031D02*
X6341515Y-8447508D01*
X6341515Y-8447508D02*
X6360562Y-8437984D01*
X6551039Y-8437984D02*
X6570086Y-8437984D01*
X6570086Y-8437984D02*
X6589134Y-8447508D01*
X6589134Y-8447508D02*
X6598658Y-8457031D01*
X6598658Y-8457031D02*
X6608182Y-8476079D01*
X6608182Y-8476079D02*
X6617705Y-8514174D01*
X6617705Y-8514174D02*
X6617705Y-8561793D01*
X6617705Y-8561793D02*
X6608182Y-8599889D01*
X6608182Y-8599889D02*
X6598658Y-8618936D01*
X6598658Y-8618936D02*
X6589134Y-8628460D01*
X6589134Y-8628460D02*
X6570086Y-8637984D01*
X6570086Y-8637984D02*
X6551039Y-8637984D01*
X6551039Y-8637984D02*
X6531991Y-8628460D01*
X6531991Y-8628460D02*
X6522467Y-8618936D01*
X6522467Y-8618936D02*
X6512943Y-8599889D01*
X6512943Y-8599889D02*
X6503420Y-8561793D01*
X6503420Y-8561793D02*
X6503420Y-8514174D01*
X6503420Y-8514174D02*
X6512943Y-8476079D01*
X6512943Y-8476079D02*
X6522467Y-8457031D01*
X6522467Y-8457031D02*
X6531991Y-8447508D01*
X6531991Y-8447508D02*
X6551039Y-8437984D01*
X6703420Y-8637984D02*
X6703420Y-8504650D01*
X6703420Y-8523698D02*
X6712943Y-8514174D01*
X6712943Y-8514174D02*
X6731991Y-8504650D01*
X6731991Y-8504650D02*
X6760563Y-8504650D01*
X6760563Y-8504650D02*
X6779610Y-8514174D01*
X6779610Y-8514174D02*
X6789134Y-8533222D01*
X6789134Y-8533222D02*
X6789134Y-8637984D01*
X6789134Y-8533222D02*
X6798658Y-8514174D01*
X6798658Y-8514174D02*
X6817705Y-8504650D01*
X6817705Y-8504650D02*
X6846277Y-8504650D01*
X6846277Y-8504650D02*
X6865324Y-8514174D01*
X6865324Y-8514174D02*
X6874848Y-8533222D01*
X6874848Y-8533222D02*
X6874848Y-8637984D01*
X6970086Y-8637984D02*
X6970086Y-8504650D01*
X6970086Y-8523698D02*
X6979610Y-8514174D01*
X6979610Y-8514174D02*
X6998658Y-8504650D01*
X6998658Y-8504650D02*
X7027229Y-8504650D01*
X7027229Y-8504650D02*
X7046277Y-8514174D01*
X7046277Y-8514174D02*
X7055801Y-8533222D01*
X7055801Y-8533222D02*
X7055801Y-8637984D01*
X7055801Y-8533222D02*
X7065324Y-8514174D01*
X7065324Y-8514174D02*
X7084372Y-8504650D01*
X7084372Y-8504650D02*
X7112943Y-8504650D01*
X7112943Y-8504650D02*
X7131991Y-8514174D01*
X7131991Y-8514174D02*
X7141515Y-8533222D01*
X7141515Y-8533222D02*
X7141515Y-8637984D01*
X7531991Y-8428460D02*
X7360563Y-8685603D01*
X7789134Y-8437984D02*
X7808182Y-8437984D01*
X7808182Y-8437984D02*
X7827229Y-8447508D01*
X7827229Y-8447508D02*
X7836753Y-8457031D01*
X7836753Y-8457031D02*
X7846277Y-8476079D01*
X7846277Y-8476079D02*
X7855801Y-8514174D01*
X7855801Y-8514174D02*
X7855801Y-8561793D01*
X7855801Y-8561793D02*
X7846277Y-8599889D01*
X7846277Y-8599889D02*
X7836753Y-8618936D01*
X7836753Y-8618936D02*
X7827229Y-8628460D01*
X7827229Y-8628460D02*
X7808182Y-8637984D01*
X7808182Y-8637984D02*
X7789134Y-8637984D01*
X7789134Y-8637984D02*
X7770086Y-8628460D01*
X7770086Y-8628460D02*
X7760563Y-8618936D01*
X7760563Y-8618936D02*
X7751039Y-8599889D01*
X7751039Y-8599889D02*
X7741515Y-8561793D01*
X7741515Y-8561793D02*
X7741515Y-8514174D01*
X7741515Y-8514174D02*
X7751039Y-8476079D01*
X7751039Y-8476079D02*
X7760563Y-8457031D01*
X7760563Y-8457031D02*
X7770086Y-8447508D01*
X7770086Y-8447508D02*
X7789134Y-8437984D01*
X7941515Y-8618936D02*
X7951039Y-8628460D01*
X7951039Y-8628460D02*
X7941515Y-8637984D01*
X7941515Y-8637984D02*
X7931991Y-8628460D01*
X7931991Y-8628460D02*
X7941515Y-8618936D01*
X7941515Y-8618936D02*
X7941515Y-8637984D01*
X8074848Y-8437984D02*
X8093896Y-8437984D01*
X8093896Y-8437984D02*
X8112944Y-8447508D01*
X8112944Y-8447508D02*
X8122467Y-8457031D01*
X8122467Y-8457031D02*
X8131991Y-8476079D01*
X8131991Y-8476079D02*
X8141515Y-8514174D01*
X8141515Y-8514174D02*
X8141515Y-8561793D01*
X8141515Y-8561793D02*
X8131991Y-8599889D01*
X8131991Y-8599889D02*
X8122467Y-8618936D01*
X8122467Y-8618936D02*
X8112944Y-8628460D01*
X8112944Y-8628460D02*
X8093896Y-8637984D01*
X8093896Y-8637984D02*
X8074848Y-8637984D01*
X8074848Y-8637984D02*
X8055801Y-8628460D01*
X8055801Y-8628460D02*
X8046277Y-8618936D01*
X8046277Y-8618936D02*
X8036753Y-8599889D01*
X8036753Y-8599889D02*
X8027229Y-8561793D01*
X8027229Y-8561793D02*
X8027229Y-8514174D01*
X8027229Y-8514174D02*
X8036753Y-8476079D01*
X8036753Y-8476079D02*
X8046277Y-8457031D01*
X8046277Y-8457031D02*
X8055801Y-8447508D01*
X8055801Y-8447508D02*
X8074848Y-8437984D01*
X8208182Y-8437984D02*
X8331991Y-8437984D01*
X8331991Y-8437984D02*
X8265325Y-8514174D01*
X8265325Y-8514174D02*
X8293896Y-8514174D01*
X8293896Y-8514174D02*
X8312944Y-8523698D01*
X8312944Y-8523698D02*
X8322467Y-8533222D01*
X8322467Y-8533222D02*
X8331991Y-8552270D01*
X8331991Y-8552270D02*
X8331991Y-8599889D01*
X8331991Y-8599889D02*
X8322467Y-8618936D01*
X8322467Y-8618936D02*
X8312944Y-8628460D01*
X8312944Y-8628460D02*
X8293896Y-8637984D01*
X8293896Y-8637984D02*
X8236753Y-8637984D01*
X8236753Y-8637984D02*
X8217706Y-8628460D01*
X8217706Y-8628460D02*
X8208182Y-8618936D01*
X8512944Y-8437984D02*
X8417706Y-8437984D01*
X8417706Y-8437984D02*
X8408182Y-8533222D01*
X8408182Y-8533222D02*
X8417706Y-8523698D01*
X8417706Y-8523698D02*
X8436753Y-8514174D01*
X8436753Y-8514174D02*
X8484372Y-8514174D01*
X8484372Y-8514174D02*
X8503420Y-8523698D01*
X8503420Y-8523698D02*
X8512944Y-8533222D01*
X8512944Y-8533222D02*
X8522468Y-8552270D01*
X8522468Y-8552270D02*
X8522468Y-8599889D01*
X8522468Y-8599889D02*
X8512944Y-8618936D01*
X8512944Y-8618936D02*
X8503420Y-8628460D01*
X8503420Y-8628460D02*
X8484372Y-8637984D01*
X8484372Y-8637984D02*
X8436753Y-8637984D01*
X8436753Y-8637984D02*
X8417706Y-8628460D01*
X8417706Y-8628460D02*
X8408182Y-8618936D01*
X8693896Y-8504650D02*
X8693896Y-8637984D01*
X8646277Y-8428460D02*
X8598658Y-8571317D01*
X8598658Y-8571317D02*
X8722468Y-8571317D01*
X8789134Y-8437984D02*
X8789134Y-8476079D01*
X8865325Y-8437984D02*
X8865325Y-8476079D01*
X9160563Y-8714174D02*
X9151039Y-8704650D01*
X9151039Y-8704650D02*
X9131991Y-8676079D01*
X9131991Y-8676079D02*
X9122468Y-8657031D01*
X9122468Y-8657031D02*
X9112944Y-8628460D01*
X9112944Y-8628460D02*
X9103420Y-8580841D01*
X9103420Y-8580841D02*
X9103420Y-8542746D01*
X9103420Y-8542746D02*
X9112944Y-8495127D01*
X9112944Y-8495127D02*
X9122468Y-8466555D01*
X9122468Y-8466555D02*
X9131991Y-8447508D01*
X9131991Y-8447508D02*
X9151039Y-8418936D01*
X9151039Y-8418936D02*
X9160563Y-8409412D01*
X9341515Y-8637984D02*
X9227230Y-8637984D01*
X9284372Y-8637984D02*
X9284372Y-8437984D01*
X9284372Y-8437984D02*
X9265325Y-8466555D01*
X9265325Y-8466555D02*
X9246277Y-8485603D01*
X9246277Y-8485603D02*
X9227230Y-8495127D01*
X9512944Y-8437984D02*
X9474849Y-8437984D01*
X9474849Y-8437984D02*
X9455801Y-8447508D01*
X9455801Y-8447508D02*
X9446277Y-8457031D01*
X9446277Y-8457031D02*
X9427230Y-8485603D01*
X9427230Y-8485603D02*
X9417706Y-8523698D01*
X9417706Y-8523698D02*
X9417706Y-8599889D01*
X9417706Y-8599889D02*
X9427230Y-8618936D01*
X9427230Y-8618936D02*
X9436753Y-8628460D01*
X9436753Y-8628460D02*
X9455801Y-8637984D01*
X9455801Y-8637984D02*
X9493896Y-8637984D01*
X9493896Y-8637984D02*
X9512944Y-8628460D01*
X9512944Y-8628460D02*
X9522468Y-8618936D01*
X9522468Y-8618936D02*
X9531991Y-8599889D01*
X9531991Y-8599889D02*
X9531991Y-8552270D01*
X9531991Y-8552270D02*
X9522468Y-8533222D01*
X9522468Y-8533222D02*
X9512944Y-8523698D01*
X9512944Y-8523698D02*
X9493896Y-8514174D01*
X9493896Y-8514174D02*
X9455801Y-8514174D01*
X9455801Y-8514174D02*
X9436753Y-8523698D01*
X9436753Y-8523698D02*
X9427230Y-8533222D01*
X9427230Y-8533222D02*
X9417706Y-8552270D01*
X9770087Y-8637984D02*
X9770087Y-8437984D01*
X9855801Y-8637984D02*
X9855801Y-8533222D01*
X9855801Y-8533222D02*
X9846277Y-8514174D01*
X9846277Y-8514174D02*
X9827230Y-8504650D01*
X9827230Y-8504650D02*
X9798658Y-8504650D01*
X9798658Y-8504650D02*
X9779611Y-8514174D01*
X9779611Y-8514174D02*
X9770087Y-8523698D01*
X9979611Y-8637984D02*
X9960563Y-8628460D01*
X9960563Y-8628460D02*
X9951039Y-8618936D01*
X9951039Y-8618936D02*
X9941515Y-8599889D01*
X9941515Y-8599889D02*
X9941515Y-8542746D01*
X9941515Y-8542746D02*
X9951039Y-8523698D01*
X9951039Y-8523698D02*
X9960563Y-8514174D01*
X9960563Y-8514174D02*
X9979611Y-8504650D01*
X9979611Y-8504650D02*
X10008182Y-8504650D01*
X10008182Y-8504650D02*
X10027230Y-8514174D01*
X10027230Y-8514174D02*
X10036753Y-8523698D01*
X10036753Y-8523698D02*
X10046277Y-8542746D01*
X10046277Y-8542746D02*
X10046277Y-8599889D01*
X10046277Y-8599889D02*
X10036753Y-8618936D01*
X10036753Y-8618936D02*
X10027230Y-8628460D01*
X10027230Y-8628460D02*
X10008182Y-8637984D01*
X10008182Y-8637984D02*
X9979611Y-8637984D01*
X10160563Y-8637984D02*
X10141515Y-8628460D01*
X10141515Y-8628460D02*
X10131992Y-8609412D01*
X10131992Y-8609412D02*
X10131992Y-8437984D01*
X10312944Y-8628460D02*
X10293896Y-8637984D01*
X10293896Y-8637984D02*
X10255801Y-8637984D01*
X10255801Y-8637984D02*
X10236753Y-8628460D01*
X10236753Y-8628460D02*
X10227230Y-8609412D01*
X10227230Y-8609412D02*
X10227230Y-8533222D01*
X10227230Y-8533222D02*
X10236753Y-8514174D01*
X10236753Y-8514174D02*
X10255801Y-8504650D01*
X10255801Y-8504650D02*
X10293896Y-8504650D01*
X10293896Y-8504650D02*
X10312944Y-8514174D01*
X10312944Y-8514174D02*
X10322468Y-8533222D01*
X10322468Y-8533222D02*
X10322468Y-8552270D01*
X10322468Y-8552270D02*
X10227230Y-8571317D01*
X10398658Y-8628460D02*
X10417706Y-8637984D01*
X10417706Y-8637984D02*
X10455801Y-8637984D01*
X10455801Y-8637984D02*
X10474849Y-8628460D01*
X10474849Y-8628460D02*
X10484373Y-8609412D01*
X10484373Y-8609412D02*
X10484373Y-8599889D01*
X10484373Y-8599889D02*
X10474849Y-8580841D01*
X10474849Y-8580841D02*
X10455801Y-8571317D01*
X10455801Y-8571317D02*
X10427230Y-8571317D01*
X10427230Y-8571317D02*
X10408182Y-8561793D01*
X10408182Y-8561793D02*
X10398658Y-8542746D01*
X10398658Y-8542746D02*
X10398658Y-8533222D01*
X10398658Y-8533222D02*
X10408182Y-8514174D01*
X10408182Y-8514174D02*
X10427230Y-8504650D01*
X10427230Y-8504650D02*
X10455801Y-8504650D01*
X10455801Y-8504650D02*
X10474849Y-8514174D01*
X10551039Y-8714174D02*
X10560563Y-8704650D01*
X10560563Y-8704650D02*
X10579611Y-8676079D01*
X10579611Y-8676079D02*
X10589134Y-8657031D01*
X10589134Y-8657031D02*
X10598658Y-8628460D01*
X10598658Y-8628460D02*
X10608182Y-8580841D01*
X10608182Y-8580841D02*
X10608182Y-8542746D01*
X10608182Y-8542746D02*
X10598658Y-8495127D01*
X10598658Y-8495127D02*
X10589134Y-8466555D01*
X10589134Y-8466555D02*
X10579611Y-8447508D01*
X10579611Y-8447508D02*
X10560563Y-8418936D01*
X10560563Y-8418936D02*
X10551039Y-8409412D01*
X5485500Y-8910500D02*
X5585500Y-8810500D01*
X5485500Y-8710500D01*
X5385500Y-8810500D01*
X5485500Y-8910500D01*
X5827229Y-8701984D02*
X5951039Y-8701984D01*
X5951039Y-8701984D02*
X5884372Y-8778174D01*
X5884372Y-8778174D02*
X5912943Y-8778174D01*
X5912943Y-8778174D02*
X5931991Y-8787698D01*
X5931991Y-8787698D02*
X5941515Y-8797222D01*
X5941515Y-8797222D02*
X5951039Y-8816270D01*
X5951039Y-8816270D02*
X5951039Y-8863889D01*
X5951039Y-8863889D02*
X5941515Y-8882936D01*
X5941515Y-8882936D02*
X5931991Y-8892460D01*
X5931991Y-8892460D02*
X5912943Y-8901984D01*
X5912943Y-8901984D02*
X5855801Y-8901984D01*
X5855801Y-8901984D02*
X5836753Y-8892460D01*
X5836753Y-8892460D02*
X5827229Y-8882936D01*
X6036753Y-8882936D02*
X6046277Y-8892460D01*
X6046277Y-8892460D02*
X6036753Y-8901984D01*
X6036753Y-8901984D02*
X6027229Y-8892460D01*
X6027229Y-8892460D02*
X6036753Y-8882936D01*
X6036753Y-8882936D02*
X6036753Y-8901984D01*
X6122467Y-8721031D02*
X6131991Y-8711508D01*
X6131991Y-8711508D02*
X6151039Y-8701984D01*
X6151039Y-8701984D02*
X6198658Y-8701984D01*
X6198658Y-8701984D02*
X6217705Y-8711508D01*
X6217705Y-8711508D02*
X6227229Y-8721031D01*
X6227229Y-8721031D02*
X6236753Y-8740079D01*
X6236753Y-8740079D02*
X6236753Y-8759127D01*
X6236753Y-8759127D02*
X6227229Y-8787698D01*
X6227229Y-8787698D02*
X6112943Y-8901984D01*
X6112943Y-8901984D02*
X6236753Y-8901984D01*
X6360562Y-8701984D02*
X6379610Y-8701984D01*
X6379610Y-8701984D02*
X6398658Y-8711508D01*
X6398658Y-8711508D02*
X6408182Y-8721031D01*
X6408182Y-8721031D02*
X6417705Y-8740079D01*
X6417705Y-8740079D02*
X6427229Y-8778174D01*
X6427229Y-8778174D02*
X6427229Y-8825793D01*
X6427229Y-8825793D02*
X6417705Y-8863889D01*
X6417705Y-8863889D02*
X6408182Y-8882936D01*
X6408182Y-8882936D02*
X6398658Y-8892460D01*
X6398658Y-8892460D02*
X6379610Y-8901984D01*
X6379610Y-8901984D02*
X6360562Y-8901984D01*
X6360562Y-8901984D02*
X6341515Y-8892460D01*
X6341515Y-8892460D02*
X6331991Y-8882936D01*
X6331991Y-8882936D02*
X6322467Y-8863889D01*
X6322467Y-8863889D02*
X6312943Y-8825793D01*
X6312943Y-8825793D02*
X6312943Y-8778174D01*
X6312943Y-8778174D02*
X6322467Y-8740079D01*
X6322467Y-8740079D02*
X6331991Y-8721031D01*
X6331991Y-8721031D02*
X6341515Y-8711508D01*
X6341515Y-8711508D02*
X6360562Y-8701984D01*
X6551039Y-8701984D02*
X6570086Y-8701984D01*
X6570086Y-8701984D02*
X6589134Y-8711508D01*
X6589134Y-8711508D02*
X6598658Y-8721031D01*
X6598658Y-8721031D02*
X6608182Y-8740079D01*
X6608182Y-8740079D02*
X6617705Y-8778174D01*
X6617705Y-8778174D02*
X6617705Y-8825793D01*
X6617705Y-8825793D02*
X6608182Y-8863889D01*
X6608182Y-8863889D02*
X6598658Y-8882936D01*
X6598658Y-8882936D02*
X6589134Y-8892460D01*
X6589134Y-8892460D02*
X6570086Y-8901984D01*
X6570086Y-8901984D02*
X6551039Y-8901984D01*
X6551039Y-8901984D02*
X6531991Y-8892460D01*
X6531991Y-8892460D02*
X6522467Y-8882936D01*
X6522467Y-8882936D02*
X6512943Y-8863889D01*
X6512943Y-8863889D02*
X6503420Y-8825793D01*
X6503420Y-8825793D02*
X6503420Y-8778174D01*
X6503420Y-8778174D02*
X6512943Y-8740079D01*
X6512943Y-8740079D02*
X6522467Y-8721031D01*
X6522467Y-8721031D02*
X6531991Y-8711508D01*
X6531991Y-8711508D02*
X6551039Y-8701984D01*
X6703420Y-8901984D02*
X6703420Y-8768650D01*
X6703420Y-8787698D02*
X6712943Y-8778174D01*
X6712943Y-8778174D02*
X6731991Y-8768650D01*
X6731991Y-8768650D02*
X6760563Y-8768650D01*
X6760563Y-8768650D02*
X6779610Y-8778174D01*
X6779610Y-8778174D02*
X6789134Y-8797222D01*
X6789134Y-8797222D02*
X6789134Y-8901984D01*
X6789134Y-8797222D02*
X6798658Y-8778174D01*
X6798658Y-8778174D02*
X6817705Y-8768650D01*
X6817705Y-8768650D02*
X6846277Y-8768650D01*
X6846277Y-8768650D02*
X6865324Y-8778174D01*
X6865324Y-8778174D02*
X6874848Y-8797222D01*
X6874848Y-8797222D02*
X6874848Y-8901984D01*
X6970086Y-8901984D02*
X6970086Y-8768650D01*
X6970086Y-8787698D02*
X6979610Y-8778174D01*
X6979610Y-8778174D02*
X6998658Y-8768650D01*
X6998658Y-8768650D02*
X7027229Y-8768650D01*
X7027229Y-8768650D02*
X7046277Y-8778174D01*
X7046277Y-8778174D02*
X7055801Y-8797222D01*
X7055801Y-8797222D02*
X7055801Y-8901984D01*
X7055801Y-8797222D02*
X7065324Y-8778174D01*
X7065324Y-8778174D02*
X7084372Y-8768650D01*
X7084372Y-8768650D02*
X7112943Y-8768650D01*
X7112943Y-8768650D02*
X7131991Y-8778174D01*
X7131991Y-8778174D02*
X7141515Y-8797222D01*
X7141515Y-8797222D02*
X7141515Y-8901984D01*
X7531991Y-8692460D02*
X7360563Y-8949603D01*
X7789134Y-8701984D02*
X7808182Y-8701984D01*
X7808182Y-8701984D02*
X7827229Y-8711508D01*
X7827229Y-8711508D02*
X7836753Y-8721031D01*
X7836753Y-8721031D02*
X7846277Y-8740079D01*
X7846277Y-8740079D02*
X7855801Y-8778174D01*
X7855801Y-8778174D02*
X7855801Y-8825793D01*
X7855801Y-8825793D02*
X7846277Y-8863889D01*
X7846277Y-8863889D02*
X7836753Y-8882936D01*
X7836753Y-8882936D02*
X7827229Y-8892460D01*
X7827229Y-8892460D02*
X7808182Y-8901984D01*
X7808182Y-8901984D02*
X7789134Y-8901984D01*
X7789134Y-8901984D02*
X7770086Y-8892460D01*
X7770086Y-8892460D02*
X7760563Y-8882936D01*
X7760563Y-8882936D02*
X7751039Y-8863889D01*
X7751039Y-8863889D02*
X7741515Y-8825793D01*
X7741515Y-8825793D02*
X7741515Y-8778174D01*
X7741515Y-8778174D02*
X7751039Y-8740079D01*
X7751039Y-8740079D02*
X7760563Y-8721031D01*
X7760563Y-8721031D02*
X7770086Y-8711508D01*
X7770086Y-8711508D02*
X7789134Y-8701984D01*
X7941515Y-8882936D02*
X7951039Y-8892460D01*
X7951039Y-8892460D02*
X7941515Y-8901984D01*
X7941515Y-8901984D02*
X7931991Y-8892460D01*
X7931991Y-8892460D02*
X7941515Y-8882936D01*
X7941515Y-8882936D02*
X7941515Y-8901984D01*
X8141515Y-8901984D02*
X8027229Y-8901984D01*
X8084372Y-8901984D02*
X8084372Y-8701984D01*
X8084372Y-8701984D02*
X8065325Y-8730555D01*
X8065325Y-8730555D02*
X8046277Y-8749603D01*
X8046277Y-8749603D02*
X8027229Y-8759127D01*
X8217706Y-8721031D02*
X8227229Y-8711508D01*
X8227229Y-8711508D02*
X8246277Y-8701984D01*
X8246277Y-8701984D02*
X8293896Y-8701984D01*
X8293896Y-8701984D02*
X8312944Y-8711508D01*
X8312944Y-8711508D02*
X8322467Y-8721031D01*
X8322467Y-8721031D02*
X8331991Y-8740079D01*
X8331991Y-8740079D02*
X8331991Y-8759127D01*
X8331991Y-8759127D02*
X8322467Y-8787698D01*
X8322467Y-8787698D02*
X8208182Y-8901984D01*
X8208182Y-8901984D02*
X8331991Y-8901984D01*
X8503420Y-8701984D02*
X8465325Y-8701984D01*
X8465325Y-8701984D02*
X8446277Y-8711508D01*
X8446277Y-8711508D02*
X8436753Y-8721031D01*
X8436753Y-8721031D02*
X8417706Y-8749603D01*
X8417706Y-8749603D02*
X8408182Y-8787698D01*
X8408182Y-8787698D02*
X8408182Y-8863889D01*
X8408182Y-8863889D02*
X8417706Y-8882936D01*
X8417706Y-8882936D02*
X8427229Y-8892460D01*
X8427229Y-8892460D02*
X8446277Y-8901984D01*
X8446277Y-8901984D02*
X8484372Y-8901984D01*
X8484372Y-8901984D02*
X8503420Y-8892460D01*
X8503420Y-8892460D02*
X8512944Y-8882936D01*
X8512944Y-8882936D02*
X8522468Y-8863889D01*
X8522468Y-8863889D02*
X8522468Y-8816270D01*
X8522468Y-8816270D02*
X8512944Y-8797222D01*
X8512944Y-8797222D02*
X8503420Y-8787698D01*
X8503420Y-8787698D02*
X8484372Y-8778174D01*
X8484372Y-8778174D02*
X8446277Y-8778174D01*
X8446277Y-8778174D02*
X8427229Y-8787698D01*
X8427229Y-8787698D02*
X8417706Y-8797222D01*
X8417706Y-8797222D02*
X8408182Y-8816270D01*
X8646277Y-8701984D02*
X8665325Y-8701984D01*
X8665325Y-8701984D02*
X8684372Y-8711508D01*
X8684372Y-8711508D02*
X8693896Y-8721031D01*
X8693896Y-8721031D02*
X8703420Y-8740079D01*
X8703420Y-8740079D02*
X8712944Y-8778174D01*
X8712944Y-8778174D02*
X8712944Y-8825793D01*
X8712944Y-8825793D02*
X8703420Y-8863889D01*
X8703420Y-8863889D02*
X8693896Y-8882936D01*
X8693896Y-8882936D02*
X8684372Y-8892460D01*
X8684372Y-8892460D02*
X8665325Y-8901984D01*
X8665325Y-8901984D02*
X8646277Y-8901984D01*
X8646277Y-8901984D02*
X8627229Y-8892460D01*
X8627229Y-8892460D02*
X8617706Y-8882936D01*
X8617706Y-8882936D02*
X8608182Y-8863889D01*
X8608182Y-8863889D02*
X8598658Y-8825793D01*
X8598658Y-8825793D02*
X8598658Y-8778174D01*
X8598658Y-8778174D02*
X8608182Y-8740079D01*
X8608182Y-8740079D02*
X8617706Y-8721031D01*
X8617706Y-8721031D02*
X8627229Y-8711508D01*
X8627229Y-8711508D02*
X8646277Y-8701984D01*
X8789134Y-8701984D02*
X8789134Y-8740079D01*
X8865325Y-8701984D02*
X8865325Y-8740079D01*
X9160563Y-8978174D02*
X9151039Y-8968650D01*
X9151039Y-8968650D02*
X9131991Y-8940079D01*
X9131991Y-8940079D02*
X9122468Y-8921031D01*
X9122468Y-8921031D02*
X9112944Y-8892460D01*
X9112944Y-8892460D02*
X9103420Y-8844841D01*
X9103420Y-8844841D02*
X9103420Y-8806746D01*
X9103420Y-8806746D02*
X9112944Y-8759127D01*
X9112944Y-8759127D02*
X9122468Y-8730555D01*
X9122468Y-8730555D02*
X9131991Y-8711508D01*
X9131991Y-8711508D02*
X9151039Y-8682936D01*
X9151039Y-8682936D02*
X9160563Y-8673412D01*
X9322468Y-8768650D02*
X9322468Y-8901984D01*
X9274849Y-8692460D02*
X9227230Y-8835317D01*
X9227230Y-8835317D02*
X9351039Y-8835317D01*
X9579611Y-8901984D02*
X9579611Y-8701984D01*
X9665325Y-8901984D02*
X9665325Y-8797222D01*
X9665325Y-8797222D02*
X9655801Y-8778174D01*
X9655801Y-8778174D02*
X9636753Y-8768650D01*
X9636753Y-8768650D02*
X9608182Y-8768650D01*
X9608182Y-8768650D02*
X9589134Y-8778174D01*
X9589134Y-8778174D02*
X9579611Y-8787698D01*
X9789134Y-8901984D02*
X9770087Y-8892460D01*
X9770087Y-8892460D02*
X9760563Y-8882936D01*
X9760563Y-8882936D02*
X9751039Y-8863889D01*
X9751039Y-8863889D02*
X9751039Y-8806746D01*
X9751039Y-8806746D02*
X9760563Y-8787698D01*
X9760563Y-8787698D02*
X9770087Y-8778174D01*
X9770087Y-8778174D02*
X9789134Y-8768650D01*
X9789134Y-8768650D02*
X9817706Y-8768650D01*
X9817706Y-8768650D02*
X9836753Y-8778174D01*
X9836753Y-8778174D02*
X9846277Y-8787698D01*
X9846277Y-8787698D02*
X9855801Y-8806746D01*
X9855801Y-8806746D02*
X9855801Y-8863889D01*
X9855801Y-8863889D02*
X9846277Y-8882936D01*
X9846277Y-8882936D02*
X9836753Y-8892460D01*
X9836753Y-8892460D02*
X9817706Y-8901984D01*
X9817706Y-8901984D02*
X9789134Y-8901984D01*
X9970087Y-8901984D02*
X9951039Y-8892460D01*
X9951039Y-8892460D02*
X9941515Y-8873412D01*
X9941515Y-8873412D02*
X9941515Y-8701984D01*
X10122468Y-8892460D02*
X10103420Y-8901984D01*
X10103420Y-8901984D02*
X10065325Y-8901984D01*
X10065325Y-8901984D02*
X10046277Y-8892460D01*
X10046277Y-8892460D02*
X10036753Y-8873412D01*
X10036753Y-8873412D02*
X10036753Y-8797222D01*
X10036753Y-8797222D02*
X10046277Y-8778174D01*
X10046277Y-8778174D02*
X10065325Y-8768650D01*
X10065325Y-8768650D02*
X10103420Y-8768650D01*
X10103420Y-8768650D02*
X10122468Y-8778174D01*
X10122468Y-8778174D02*
X10131992Y-8797222D01*
X10131992Y-8797222D02*
X10131992Y-8816270D01*
X10131992Y-8816270D02*
X10036753Y-8835317D01*
X10208182Y-8892460D02*
X10227230Y-8901984D01*
X10227230Y-8901984D02*
X10265325Y-8901984D01*
X10265325Y-8901984D02*
X10284373Y-8892460D01*
X10284373Y-8892460D02*
X10293896Y-8873412D01*
X10293896Y-8873412D02*
X10293896Y-8863889D01*
X10293896Y-8863889D02*
X10284373Y-8844841D01*
X10284373Y-8844841D02*
X10265325Y-8835317D01*
X10265325Y-8835317D02*
X10236753Y-8835317D01*
X10236753Y-8835317D02*
X10217706Y-8825793D01*
X10217706Y-8825793D02*
X10208182Y-8806746D01*
X10208182Y-8806746D02*
X10208182Y-8797222D01*
X10208182Y-8797222D02*
X10217706Y-8778174D01*
X10217706Y-8778174D02*
X10236753Y-8768650D01*
X10236753Y-8768650D02*
X10265325Y-8768650D01*
X10265325Y-8768650D02*
X10284373Y-8778174D01*
X10360563Y-8978174D02*
X10370087Y-8968650D01*
X10370087Y-8968650D02*
X10389134Y-8940079D01*
X10389134Y-8940079D02*
X10398658Y-8921031D01*
X10398658Y-8921031D02*
X10408182Y-8892460D01*
X10408182Y-8892460D02*
X10417706Y-8844841D01*
X10417706Y-8844841D02*
X10417706Y-8806746D01*
X10417706Y-8806746D02*
X10408182Y-8759127D01*
X10408182Y-8759127D02*
X10398658Y-8730555D01*
X10398658Y-8730555D02*
X10389134Y-8711508D01*
X10389134Y-8711508D02*
X10370087Y-8682936D01*
X10370087Y-8682936D02*
X10360563Y-8673412D01*
M02*
