M48
; DRILL file {KiCad 9.0.2} date 2025-06-10T21:23:16+0200
; FORMAT={-:-/ absolute / metric / decimal}
; #@! TF.CreationDate,2025-06-10T21:23:16+02:00
; #@! TF.GenerationSoftware,Kicad,Pcbnew,9.0.2
; #@! TF.FileFunction,Plated,1,2,PTH
FMAT,2
METRIC
; #@! TA.AperFunction,Plated,PTH,ViaDrill
T1C0.400
; #@! TA.AperFunction,Plated,PTH,ComponentDrill
T2C0.500
; #@! TA.AperFunction,Plated,PTH,ComponentDrill
T3C0.800
; #@! TA.AperFunction,Plated,PTH,ComponentDrill
T4C0.900
; #@! TA.AperFunction,Plated,PTH,ComponentDrill
T5C3.200
%
G90
G05
T1
X66.675Y-26.67
X66.675Y-57.785
X66.675Y-62.23
X66.675Y-69.85
X67.31Y-39.37
X76.2Y-34.29
X76.2Y-57.785
X76.962Y-28.956
X78.74Y-39.37
X79.883Y-27.686
X81.28Y-33.655
X81.28Y-34.925
X81.28Y-54.61
X81.915Y-55.88
X82.55Y-26.67
X82.55Y-32.385
X82.55Y-39.37
X83.82Y-33.655
X86.36Y-55.581
X86.995Y-38.1
X90.17Y-34.29
X90.17Y-44.704
X90.17Y-47.625
X90.805Y-49.911
X92.583Y-46.99
X94.234Y-48.895
X94.615Y-47.752
X95.25Y-61.595
X95.25Y-64.135
X96.52Y-47.625
X97.663Y-44.704
X97.79Y-33.02
X98.988Y-45.905
X99.06Y-50.165
X99.06Y-51.435
X99.06Y-52.705
X99.06Y-55.245
X99.695Y-46.755
X99.822Y-40.259
X100.203Y-56.007
X100.457Y-28.702
X100.584Y-39.37
X100.965Y-31.75
X101.6Y-36.83
X102.235Y-27.94
X102.235Y-31.75
X103.505Y-40.005
X103.505Y-57.15
X103.759Y-48.26
X104.14Y-42.545
X104.791Y-61.068
X105.664Y-54.483
X106.045Y-30.226
X106.045Y-45.905
X106.045Y-49.53
X106.045Y-50.673
X106.045Y-51.943
X106.045Y-53.213
X106.68Y-26.67
X106.68Y-31.75
X106.68Y-34.925
X106.807Y-28.067
X106.934Y-43.561
X107.315Y-33.02
X107.95Y-46.355
X108.023Y-45.158
X108.966Y-39.624
X109.22Y-38.1
X109.22Y-47.498
X109.22Y-48.895
X109.22Y-58.293
X109.22Y-62.865
X109.474Y-56.515
X110.49Y-57.15
X110.49Y-61.068
X110.998Y-28.956
X110.998Y-33.147
X111.124Y-38.1
X112.268Y-31.369
X112.776Y-30.226
X113.284Y-46.228
X113.284Y-50.292
X113.792Y-53.848
X114.681Y-38.735
X114.935Y-55.245
X114.935Y-56.896
X115.805Y-36.83
X115.951Y-59.309
X116.078Y-53.086
X117.157Y-58.102
X117.856Y-52.832
X118.594Y-38.663
X119.38Y-48.26
T2
X58.42Y-66.04
X58.56Y-30.48
X59.123Y-64.343
X59.123Y-67.737
X59.263Y-28.783
X59.263Y-32.177
X60.82Y-63.64
X60.82Y-68.44
X60.96Y-28.08
X60.96Y-32.88
X62.517Y-64.343
X62.517Y-67.737
X62.657Y-28.783
X62.657Y-32.177
X63.22Y-66.04
X63.36Y-30.48
X116.98Y-30.48
X116.98Y-66.04
X117.683Y-28.783
X117.683Y-32.177
X117.683Y-64.343
X117.683Y-67.737
X119.38Y-28.08
X119.38Y-32.88
X119.38Y-63.64
X119.38Y-68.44
X121.077Y-28.783
X121.077Y-32.177
X121.077Y-64.343
X121.077Y-67.737
X121.78Y-30.48
X121.78Y-66.04
T3
X83.82Y-43.18
X83.82Y-53.34
X86.36Y-43.18
X86.36Y-53.34
X88.9Y-43.18
X88.9Y-53.34
X91.44Y-43.18
X91.44Y-53.34
X93.98Y-43.18
X93.98Y-53.34
X96.52Y-43.18
X96.52Y-53.34
X98.076Y-62.625
X101.576Y-62.625
T4
X67.31Y-36.83
X67.31Y-59.69
X69.85Y-36.83
X69.85Y-59.69
X72.39Y-36.83
X72.39Y-59.69
X74.93Y-36.83
X74.93Y-59.69
X77.47Y-36.83
X77.47Y-59.69
X80.01Y-36.83
X80.01Y-59.69
X82.55Y-36.83
X82.55Y-59.69
X85.09Y-36.83
X85.09Y-59.69
T5
X60.82Y-66.04
X60.96Y-30.48
X119.38Y-30.48
X119.38Y-66.04
M30
