G04 #@! TF.GenerationSoftware,KiCad,Pcbnew,9.0.2*
G04 #@! TF.CreationDate,2025-06-10T21:22:11+02:00*
G04 #@! TF.ProjectId,n-teller,6e2d7465-6c6c-4657-922e-6b696361645f,1.0*
G04 #@! TF.SameCoordinates,Original*
G04 #@! TF.FileFunction,Paste,Bot*
G04 #@! TF.FilePolarity,Positive*
%FSLAX46Y46*%
G04 Gerber Fmt 4.6, Leading zero omitted, Abs format (unit mm)*
G04 Created by KiCad (PCBNEW 9.0.2) date 2025-06-10 21:22:11*
%MOMM*%
%LPD*%
G01*
G04 APERTURE LIST*
G04 Aperture macros list*
%AMRoundRect*
0 Rectangle with rounded corners*
0 $1 Rounding radius*
0 $2 $3 $4 $5 $6 $7 $8 $9 X,Y pos of 4 corners*
0 Add a 4 corners polygon primitive as box body*
4,1,4,$2,$3,$4,$5,$6,$7,$8,$9,$2,$3,0*
0 Add four circle primitives for the rounded corners*
1,1,$1+$1,$2,$3*
1,1,$1+$1,$4,$5*
1,1,$1+$1,$6,$7*
1,1,$1+$1,$8,$9*
0 Add four rect primitives between the rounded corners*
20,1,$1+$1,$2,$3,$4,$5,0*
20,1,$1+$1,$4,$5,$6,$7,0*
20,1,$1+$1,$6,$7,$8,$9,0*
20,1,$1+$1,$8,$9,$2,$3,0*%
G04 Aperture macros list end*
%ADD10RoundRect,0.250000X0.350000X0.450000X-0.350000X0.450000X-0.350000X-0.450000X0.350000X-0.450000X0*%
%ADD11RoundRect,0.250000X-1.000000X-0.650000X1.000000X-0.650000X1.000000X0.650000X-1.000000X0.650000X0*%
%ADD12RoundRect,0.250000X0.450000X-0.350000X0.450000X0.350000X-0.450000X0.350000X-0.450000X-0.350000X0*%
%ADD13RoundRect,0.250000X-0.450000X0.350000X-0.450000X-0.350000X0.450000X-0.350000X0.450000X0.350000X0*%
%ADD14RoundRect,0.250000X0.337500X0.475000X-0.337500X0.475000X-0.337500X-0.475000X0.337500X-0.475000X0*%
%ADD15RoundRect,0.150000X-0.875000X-0.150000X0.875000X-0.150000X0.875000X0.150000X-0.875000X0.150000X0*%
%ADD16R,1.500000X1.500000*%
%ADD17RoundRect,0.150000X-0.825000X-0.150000X0.825000X-0.150000X0.825000X0.150000X-0.825000X0.150000X0*%
%ADD18RoundRect,0.250001X-0.462499X-0.624999X0.462499X-0.624999X0.462499X0.624999X-0.462499X0.624999X0*%
G04 APERTURE END LIST*
D10*
X99060000Y-34290000D03*
X101060000Y-34290000D03*
D11*
X107220000Y-66040000D03*
X111220000Y-66040000D03*
D12*
X114935000Y-49260000D03*
X114935000Y-47260000D03*
D13*
X119380000Y-56150000D03*
X119380000Y-58150000D03*
D14*
X107717500Y-57785000D03*
X105642500Y-57785000D03*
X107717500Y-38100000D03*
X105642500Y-38100000D03*
D15*
X102030000Y-55245000D03*
X102030000Y-53975000D03*
X102030000Y-52705000D03*
X102030000Y-51435000D03*
X102030000Y-50165000D03*
X102030000Y-48895000D03*
X102030000Y-47625000D03*
X102030000Y-46355000D03*
X102030000Y-45085000D03*
X102030000Y-43815000D03*
X102030000Y-42545000D03*
X102030000Y-41275000D03*
X111330000Y-41275000D03*
X111330000Y-42545000D03*
X111330000Y-43815000D03*
X111330000Y-45085000D03*
X111330000Y-46355000D03*
X111330000Y-47625000D03*
X111330000Y-48895000D03*
X111330000Y-50165000D03*
X111330000Y-51435000D03*
X111330000Y-52705000D03*
X111330000Y-53975000D03*
X111330000Y-55245000D03*
D16*
X119380000Y-44360000D03*
X119380000Y-52160000D03*
D17*
X104205000Y-35560000D03*
X104205000Y-34290000D03*
X104205000Y-33020000D03*
X104205000Y-31750000D03*
X104205000Y-30480000D03*
X104205000Y-29210000D03*
X104205000Y-27940000D03*
X109155000Y-27940000D03*
X109155000Y-29210000D03*
X109155000Y-30480000D03*
X109155000Y-31750000D03*
X109155000Y-33020000D03*
X109155000Y-34290000D03*
X109155000Y-35560000D03*
D18*
X89952500Y-66040000D03*
X92927500Y-66040000D03*
M02*
